<svg width="26" height="25" viewBox="0 0 26 25" fill="none" xmlns="http://www.w3.org/2000/svg">
<g clip-path="url(#clip0_7_5456)">
<path d="M2.04395 0C0.915078 0 0 0.932674 0 2.08325C0 3.23382 0.915078 4.16649 2.04395 4.16649C3.17281 4.16649 4.08789 3.23382 4.08789 2.08325C4.08789 0.932674 3.17281 0 2.04395 0Z" fill="#5C3D16"/>
<path d="M25.9998 0H7.52148V4.16649H25.9998V0Z" fill="#5C3D16"/>
<path d="M2.04395 10.4167C0.915078 10.4167 0 11.3494 0 12.5C0 13.6506 0.915078 14.5832 2.04395 14.5832C3.17281 14.5832 4.08789 13.6506 4.08789 12.5C4.08789 11.3494 3.1723 10.4167 2.04395 10.4167Z" fill="#5C3D16"/>
<path d="M25.9998 10.4167H7.52148V14.5832H25.9998V10.4167Z" fill="#5C3D16"/>
<path d="M2.04395 20.8335C0.915078 20.8335 0 21.7662 0 22.9167C0 24.0673 0.915078 25 2.04395 25C3.17281 25 4.08789 24.0673 4.08789 22.9167C4.08789 21.7662 3.1723 20.8335 2.04395 20.8335Z" fill="#5C3D16"/>
<path d="M25.9998 20.8335H7.52148V25H25.9998V20.8335Z" fill="#5C3D16"/>
</g>
<defs>
<clipPath id="clip0_7_5456">
<rect width="26" height="25" fill="white"/>
</clipPath>
</defs>
</svg>
