<svg width="27" height="25" viewBox="0 0 27 25" fill="none" xmlns="http://www.w3.org/2000/svg">
<g clip-path="url(#clip0_7_5519)">
<path d="M23.8855 0.098446C23.7157 -0.012016 23.5016 -0.0308626 23.3154 0.0487119L9.94832 5.74823L9.94727 15.9191L23.3154 21.6197C23.5016 21.6993 23.7157 21.6804 23.8855 21.5689C24.0553 21.4574 24.1576 21.2705 24.1576 21.0684V0.599975C24.1576 0.397897 24.0569 0.208908 23.8855 0.098446Z" fill="#5C3D16"/>
<path d="M8.80981 5.74817H2.41734C1.08264 5.74817 0.00105469 6.82242 0.00105469 8.14744L0 13.5192C0 14.8453 1.08264 15.919 2.41734 15.919H8.80981V5.74817Z" fill="#5C3D16"/>
<path d="M25.0815 8.8584V13.3737C25.9053 13.3737 27 12.3628 27 11.1168C27 9.87088 25.9058 8.8584 25.0815 8.8584Z" fill="#5C3D16"/>
<path d="M7.80299 17.0415H3.48193L5.25486 24.1451C5.35189 24.6424 5.79064 25 6.29953 25H8.7559C9.09129 25 9.4077 24.8429 9.60861 24.5749C9.81059 24.3084 9.87228 23.9624 9.77684 23.6425L7.80246 17.042L7.80299 17.0415Z" fill="#5C3D16"/>
</g>
<defs>
<clipPath id="clip0_7_5519">
<rect width="27" height="25" fill="white"/>
</clipPath>
</defs>
</svg>
