<svg width="2" height="12" viewBox="0 0 2 12" fill="none" xmlns="http://www.w3.org/2000/svg">
<path d="M1.0004 9.73379C1.5156 9.734 1.93287 10.1512 1.93301 10.6664C1.93301 11.1817 1.51568 11.5998 1.0004 11.6C0.484931 11.6 0.066803 11.1819 0.066803 10.6664C0.0669434 10.1511 0.485018 9.73379 1.0004 9.73379Z" fill="#607C9C"/>
<path d="M1.0004 5.0668C1.51568 5.06701 1.93301 5.48506 1.93301 6.00039C1.9328 6.51555 1.51555 6.9328 1.0004 6.93301C0.485061 6.93301 0.0670142 6.51568 0.066803 6.00039C0.066803 5.48492 0.484931 5.0668 1.0004 5.0668Z" fill="#607C9C"/>
<path d="M1.0004 0.399805C1.51568 0.400017 1.93301 0.818063 1.93301 1.3334C1.93298 1.8487 1.51566 2.26678 1.0004 2.26699C0.484953 2.26699 0.0668382 1.84883 0.066803 1.3334C0.066803 0.817933 0.484931 0.399805 1.0004 0.399805Z" fill="#607C9C"/>
</svg>
