<svg width="27" height="27" viewBox="0 0 27 27" fill="none" xmlns="http://www.w3.org/2000/svg">
<g clip-path="url(#clip0_7_5529)">
<path d="M24.6673 2.33009C23.1117 0.774768 21.0698 -0.00315482 19.0305 9.61512e-06C16.9913 -0.00315482 14.9494 0.774768 13.3938 2.33009L9.04688 6.67749L20.3167 17.9487L24.6636 13.6013C27.7776 10.4869 27.7781 5.44125 24.6673 2.33009ZM21.6166 3.01624C21.4774 3.74353 20.7724 4.22084 20.0425 4.07844C19.6286 3.99933 19.2014 3.95819 18.7748 3.95502C18.3513 3.95502 17.9242 3.99616 17.5071 4.07844C17.0551 4.16388 16.6095 4.01515 16.3026 3.70873C16.1196 3.52519 15.9899 3.28838 15.9361 3.01308C15.7969 2.28579 16.2715 1.58381 17.0013 1.44141C17.583 1.32749 18.1836 1.27053 18.7779 1.27053C19.3723 1.27053 19.9697 1.33065 20.5546 1.44141C21.2818 1.58064 21.759 2.28631 21.6166 3.01624Z" fill="#5C3D16"/>
<path d="M2.33297 13.3929C0.774668 14.9514 0 16.9909 0 19.033C0 21.0751 0.777832 23.1114 2.33297 24.6673C5.44377 27.7785 10.4894 27.7785 13.6028 24.6641L17.9466 20.3199L6.6767 9.04871L2.33297 13.3929Z" fill="#5C3D16"/>
</g>
<defs>
<clipPath id="clip0_7_5529">
<rect width="27" height="27" fill="white"/>
</clipPath>
</defs>
</svg>
