<svg width="700" height="26" viewBox="0 0 700 26" fill="none" xmlns="http://www.w3.org/2000/svg">
<g clip-path="url(#clip0_98_2269)">
<path d="M3.02745 4.71379L3.20159 2.41134C4.69141 2.75961 6.41341 2.89505 9.00609 2.89505C11.4633 2.89505 12.8371 2.79831 14.1141 2.52743L14.1915 4.69445C13.0305 5.21685 10.9409 6.51319 9.02544 7.90627L7.34213 6.57124C8.34825 5.93274 9.29632 5.35229 10.1863 4.84923C9.33501 4.96532 8.50303 5.00402 7.28409 5.00402C6.29732 5.00402 4.69141 4.90728 3.74334 4.77184C3.35637 4.73314 3.29833 4.71379 3.02745 4.71379ZM4.45923 9.08652L6.14253 10.3635C4.92359 11.3696 4.38183 12.1823 4.38183 13.0142C4.38183 14.2719 5.79426 14.8136 9.06414 14.8136C11.3666 14.8136 13.9012 14.4654 15.1395 14.001L15.3524 16.6517C15.0234 16.6711 14.9073 16.6711 14.501 16.7291C12.1792 17.058 10.9409 17.1548 9.27697 17.1548C7.168 17.1548 5.46534 16.942 4.43988 16.5163C2.77592 15.8778 1.96329 14.7943 1.96329 13.2851C1.96329 11.8146 2.71788 10.5376 4.45923 9.08652ZM29.81 4.5977C29.4424 7.6354 28.7652 10.3055 27.7978 12.4918C26.695 14.9878 25.4567 16.1293 23.8701 16.1293C21.6644 16.1293 20.0778 13.8849 20.0778 10.7698C20.0778 8.64151 20.8324 6.64863 22.2061 5.13946C23.8314 3.35941 26.1145 2.43069 28.862 2.43069C33.5056 2.43069 36.5239 5.25555 36.5239 9.60893C36.5239 12.9562 34.7826 15.6263 31.8223 16.8259C30.8935 17.2128 30.139 17.4063 28.7846 17.6385C28.4557 16.613 28.2235 16.1874 27.6043 15.3747C29.3844 15.1426 30.5453 14.833 31.4546 14.3106C33.138 13.3819 34.1441 11.5438 34.1441 9.47349C34.1441 7.61605 33.3121 6.10688 31.7642 5.17816C31.1644 4.82988 30.6614 4.6751 29.81 4.5977ZM27.4495 4.61705C26.4434 4.73314 25.7469 5.00402 24.9536 5.56512C23.3283 6.72602 22.3222 8.7189 22.3222 10.7892C22.3222 12.3757 22.9994 13.6334 23.8507 13.6334C24.4892 13.6334 25.1471 12.8208 25.8436 11.1568C26.5789 9.41544 27.2174 6.80342 27.4495 4.61705ZM42.2168 1.77284L44.9643 1.79219C44.8869 2.3146 44.8675 2.79831 44.8482 3.74638L44.7514 14.7943C46.7637 14.4073 48.5824 13.6721 50.0335 12.666C51.8136 11.447 53.0132 10.112 53.9806 8.2352C54.7352 9.24131 54.9867 9.51219 55.8187 10.2087C54.4837 12.2597 53.2454 13.556 51.504 14.7169C49.5692 16.0132 47.5956 16.7678 44.4612 17.3676C43.9388 17.4644 43.7066 17.5418 43.3003 17.6965L42.062 16.2067C42.1974 15.6843 42.2361 15.336 42.2361 14.2138L42.3135 3.76573C42.3135 2.41134 42.3135 2.41134 42.2168 1.77284ZM61.7631 3.59159L63.0207 1.63741C65.0136 2.41134 66.5421 3.14658 68.1674 4.13334L66.9291 6.26166C65.1684 5.08141 63.4464 4.17204 61.7631 3.59159ZM60.2346 8.29324L61.5309 6.31971C63.5238 7.11299 65.0136 7.86758 66.6776 8.95108L65.478 11.1374C63.9301 9.9959 62.2081 9.06717 60.2346 8.29324ZM61.3374 17.6191L60.6602 14.9878C62.1307 14.9684 64.2397 14.5041 66.2519 13.7301C68.6511 12.8014 70.2957 11.5438 71.8436 9.47349C72.8884 8.08041 73.4882 6.91951 74.088 5.1975C74.8813 6.02948 75.1715 6.28101 76.1002 6.91951C75.2102 9.06717 74.3976 10.4022 73.198 11.8146C70.7407 14.6395 67.4515 16.3615 62.6918 17.3096C61.9953 17.445 61.7244 17.5031 61.3374 17.6191ZM83.4764 3.86247V7.77083C86.398 7.22908 90.674 5.50708 91.9316 4.32683L93.4795 6.51319C93.2667 6.59058 93.228 6.60993 93.0732 6.68733L92.5701 6.93885C89.7066 8.40933 86.7076 9.41544 83.4764 10.0152V12.5692C83.4571 12.6853 83.4571 12.8014 83.4571 12.8788C83.4571 13.9623 83.5345 14.388 83.8053 14.6588C84.1343 14.9878 85.2371 15.1619 87.1139 15.1619C88.4102 15.1619 90.1903 15.0458 91.6027 14.8523C92.5314 14.7362 92.9571 14.6395 93.8084 14.388L93.9245 16.9613C93.5182 16.9613 93.4215 16.9807 91.3705 17.1741C90.229 17.2902 87.7911 17.4063 86.6109 17.4063C84.173 17.4063 82.8379 17.1548 82.0833 16.5743C81.5416 16.168 81.2514 15.5489 81.1353 14.6008C81.0966 14.2719 81.0772 13.943 81.0772 12.8208L81.0579 3.84312C81.0579 2.85635 81.0579 2.54678 80.9805 2.06307H83.5732C83.4958 2.52743 83.4764 2.8757 83.4764 3.86247ZM94.6211 0.437807C95.8594 0.437807 96.8655 1.44392 96.8655 2.66287C96.8655 3.90116 95.8594 4.90728 94.6211 4.90728C93.4021 4.90728 92.396 3.90116 92.396 2.66287C92.396 1.44392 93.4021 0.437807 94.6211 0.437807ZM94.6211 1.40523C93.9245 1.40523 93.3634 1.96633 93.3634 2.66287C93.3634 3.35941 93.9245 3.93986 94.6211 3.93986C95.337 3.93986 95.8981 3.35941 95.8981 2.66287C95.8981 1.96633 95.337 1.40523 94.6211 1.40523ZM108.692 4.5977C108.324 7.6354 107.647 10.3055 106.68 12.4918C105.577 14.9878 104.338 16.1293 102.752 16.1293C100.546 16.1293 98.9596 13.8849 98.9596 10.7698C98.9596 8.64151 99.7142 6.64863 101.088 5.13946C102.713 3.35941 104.996 2.43069 107.744 2.43069C112.387 2.43069 115.406 5.25555 115.406 9.60893C115.406 12.9562 113.664 15.6263 110.704 16.8259C109.775 17.2128 109.021 17.4063 107.666 17.6385C107.337 16.613 107.105 16.1874 106.486 15.3747C108.266 15.1426 109.427 14.833 110.336 14.3106C112.02 13.3819 113.026 11.5438 113.026 9.47349C113.026 7.61605 112.194 6.10688 110.646 5.17816C110.046 4.82988 109.543 4.6751 108.692 4.5977ZM106.331 4.61705C105.325 4.73314 104.629 5.00402 103.835 5.56512C102.21 6.72602 101.204 8.7189 101.204 10.7892C101.204 12.3757 101.881 13.6334 102.732 13.6334C103.371 13.6334 104.029 12.8208 104.725 11.1568C105.461 9.41544 106.099 6.80342 106.331 4.61705ZM121.524 3.76573L122.395 1.52132C126.129 1.96633 128.548 2.45004 132.862 3.61094L132.088 5.99079C128.896 4.92663 124.93 4.09465 121.524 3.76573ZM121.215 9.08652L122.105 6.86146C125.2 7.24843 128.296 7.94497 132.185 9.10587L131.431 11.4857C129.902 10.8859 128.528 10.4796 126.11 9.93785C124.465 9.55088 123.208 9.33805 121.215 9.08652ZM119.647 14.5234L120.557 12.3177C125.239 12.9368 128.896 13.8075 133.404 15.3747L132.572 17.8126C130.56 16.9226 128.78 16.3615 125.723 15.6456C123.343 15.0845 121.756 14.7943 119.647 14.5234ZM140.529 6.18427V3.63029C141.225 3.74638 141.67 3.76573 142.812 3.76573H150.416C151.557 3.76573 152.002 3.74638 152.699 3.63029V6.18427C152.06 6.10688 151.596 6.08753 150.435 6.08753H142.793C141.632 6.08753 141.167 6.10688 140.529 6.18427ZM138.575 15.6456V13.0529C139.31 13.169 139.735 13.1884 141.051 13.1884H152.157C153.473 13.1884 153.898 13.169 154.634 13.0529V15.6456C153.957 15.5682 153.453 15.5489 152.196 15.5489H141.012C139.755 15.5489 139.252 15.5682 138.575 15.6456ZM160.965 3.76573L161.836 1.52132C165.57 1.96633 167.989 2.45004 172.303 3.61094L171.529 5.99079C168.337 4.92663 164.37 4.09465 160.965 3.76573ZM160.656 9.08652L161.546 6.86146C164.641 7.24843 167.737 7.94497 171.626 9.10587L170.871 11.4857C169.343 10.8859 167.969 10.4796 165.551 9.93785C163.906 9.55088 162.648 9.33805 160.656 9.08652ZM159.088 14.5234L159.998 12.3177C164.68 12.9368 168.337 13.8075 172.845 15.3747L172.013 17.8126C170.001 16.9226 168.221 16.3615 165.164 15.6456C162.784 15.0845 161.197 14.7943 159.088 14.5234ZM179.486 6.47449L181.537 5.8747C182.349 7.36452 182.736 8.29324 183.433 10.4603L181.247 11.1568C180.744 9.20261 180.357 8.17715 179.486 6.47449ZM183.626 5.66186L185.658 5.08141C186.684 6.9969 187.051 7.84823 187.535 9.53154L185.387 10.2087C185.02 8.73825 184.439 7.24843 183.626 5.66186ZM190.282 5.46838L192.643 6.01013C192.527 6.30036 192.488 6.3971 192.372 6.9969C191.811 9.62828 190.94 11.7566 189.702 13.4399C188.27 15.3941 186.664 16.6517 183.801 18.1029C183.298 17.2515 183.065 16.9613 182.253 16.1874C183.607 15.665 184.4 15.2393 185.542 14.4073C187.806 12.7627 189.102 10.7892 189.934 7.69344C190.186 6.74537 190.282 6.06818 190.282 5.46838ZM199.806 3.59159L201.064 1.63741C203.057 2.41134 204.585 3.14658 206.21 4.13334L204.972 6.26166C203.211 5.08141 201.489 4.17204 199.806 3.59159ZM198.278 8.29324L199.574 6.31971C201.567 7.11299 203.057 7.86758 204.721 8.95108L203.521 11.1374C201.973 9.9959 200.251 9.06717 198.278 8.29324ZM199.38 17.6191L198.703 14.9878C200.174 14.9684 202.283 14.5041 204.295 13.7301C206.694 12.8014 208.339 11.5438 209.887 9.47349C210.931 8.08041 211.531 6.91951 212.131 5.1975C212.924 6.02948 213.215 6.28101 214.143 6.91951C213.253 9.06717 212.441 10.4022 211.241 11.8146C208.784 14.6395 205.495 16.3615 200.735 17.3096C200.038 17.445 199.767 17.5031 199.38 17.6191ZM228.775 17.3096H221.365C220.397 17.3096 220.107 17.3289 219.623 17.387V15.2393C220.146 15.336 220.61 15.3747 221.365 15.3747H228.794V12.4531H222.061C221.094 12.4531 220.804 12.4725 220.32 12.5305V10.4216C220.842 10.5183 221.287 10.557 222.061 10.557H228.794V7.86758H221.558C220.61 7.86758 220.32 7.88692 219.817 7.94497V5.7973C220.359 5.89404 220.784 5.93274 221.558 5.93274H229.181C229.878 5.93274 230.42 5.91339 230.981 5.85535C230.942 6.55189 230.923 7.0356 230.923 7.88692V16.7485C230.923 17.4837 230.942 17.7739 231 18.2189H228.775V17.3096ZM237.912 4.57836L239.518 2.66287C241.82 4.09465 243.02 4.98467 244.51 6.3971L242.846 8.50607C241.298 6.86146 239.711 5.58447 237.912 4.57836ZM238.589 17.3483L237.873 14.6782C239.537 14.5815 241.84 14.0204 243.6 13.2464C246.019 12.2016 247.818 10.7118 249.347 8.50607C250.198 7.26778 250.74 6.20362 251.32 4.6364C252.075 5.54577 252.385 5.836 253.371 6.53254C251.727 10.0733 249.889 12.3564 247.238 14.1171C245.264 15.4328 242.865 16.3809 239.866 17.0193C239.092 17.1741 239.034 17.1935 238.589 17.3483Z" fill="#87581E"/>
<rect x="0.394531" y="24.3252" width="699.517" height="1.48833" fill="#FFCC00"/>
</g>
<defs>
<clipPath id="clip0_98_2269">
<path d="M-34 -835C-34 -840.523 -29.5228 -845 -24 -845H749C754.523 -845 759 -840.523 759 -835V684H-34V-835Z" fill="white"/>
</clipPath>
</defs>
</svg>
