<svg width="700" height="28" viewBox="0 0 700 28" fill="none" xmlns="http://www.w3.org/2000/svg">
<g clip-path="url(#clip0_98_2269)">
<path d="M3.02745 5.71379L3.20159 3.41134C4.69141 3.75961 6.41341 3.89505 9.00609 3.89505C11.4633 3.89505 12.8371 3.79831 14.1141 3.52743L14.1915 5.69445C13.0305 6.21685 10.9409 7.51319 9.02544 8.90627L7.34213 7.57124C8.34825 6.93274 9.29632 6.35229 10.1863 5.84923C9.33501 5.96532 8.50303 6.00402 7.28409 6.00402C6.29732 6.00402 4.69141 5.90728 3.74334 5.77184C3.35637 5.73314 3.29833 5.71379 3.02745 5.71379ZM4.45923 10.0865L6.14253 11.3635C4.92359 12.3696 4.38183 13.1823 4.38183 14.0142C4.38183 15.2719 5.79426 15.8136 9.06414 15.8136C11.3666 15.8136 13.9012 15.4654 15.1395 15.001L15.3524 17.6517C15.0234 17.6711 14.9073 17.6711 14.501 17.7291C12.1792 18.058 10.9409 18.1548 9.27697 18.1548C7.168 18.1548 5.46534 17.942 4.43988 17.5163C2.77592 16.8778 1.96329 15.7943 1.96329 14.2851C1.96329 12.8146 2.71788 11.5376 4.45923 10.0865ZM29.81 5.5977C29.4424 8.6354 28.7652 11.3055 27.7978 13.4918C26.695 15.9878 25.4567 17.1293 23.8701 17.1293C21.6644 17.1293 20.0778 14.8849 20.0778 11.7698C20.0778 9.64151 20.8324 7.64863 22.2061 6.13946C23.8314 4.35941 26.1145 3.43069 28.862 3.43069C33.5056 3.43069 36.5239 6.25555 36.5239 10.6089C36.5239 13.9562 34.7826 16.6263 31.8223 17.8259C30.8935 18.2128 30.139 18.4063 28.7846 18.6385C28.4557 17.613 28.2235 17.1874 27.6043 16.3747C29.3844 16.1426 30.5453 15.833 31.4546 15.3106C33.138 14.3819 34.1441 12.5438 34.1441 10.4735C34.1441 8.61605 33.3121 7.10688 31.7642 6.17816C31.1644 5.82988 30.6614 5.6751 29.81 5.5977ZM27.4495 5.61705C26.4434 5.73314 25.7469 6.00402 24.9536 6.56512C23.3283 7.72602 22.3222 9.7189 22.3222 11.7892C22.3222 13.3757 22.9994 14.6334 23.8507 14.6334C24.4892 14.6334 25.1471 13.8208 25.8436 12.1568C26.5789 10.4154 27.2174 7.80342 27.4495 5.61705ZM42.2168 2.77284L44.9643 2.79219C44.8869 3.3146 44.8675 3.79831 44.8482 4.74638L44.7514 15.7943C46.7637 15.4073 48.5824 14.6721 50.0335 13.666C51.8136 12.447 53.0132 11.112 53.9806 9.2352C54.7352 10.2413 54.9867 10.5122 55.8187 11.2087C54.4837 13.2597 53.2454 14.556 51.504 15.7169C49.5692 17.0132 47.5956 17.7678 44.4612 18.3676C43.9388 18.4644 43.7066 18.5418 43.3003 18.6965L42.062 17.2067C42.1974 16.6843 42.2361 16.336 42.2361 15.2138L42.3135 4.76573C42.3135 3.41134 42.3135 3.41134 42.2168 2.77284ZM61.7631 4.59159L63.0207 2.63741C65.0136 3.41134 66.5421 4.14658 68.1674 5.13334L66.9291 7.26166C65.1684 6.08141 63.4464 5.17204 61.7631 4.59159ZM60.2346 9.29324L61.5309 7.31971C63.5238 8.11299 65.0136 8.86758 66.6776 9.95108L65.478 12.1374C63.9301 10.9959 62.2081 10.0672 60.2346 9.29324ZM61.3374 18.6191L60.6602 15.9878C62.1307 15.9684 64.2397 15.5041 66.2519 14.7301C68.6511 13.8014 70.2957 12.5438 71.8436 10.4735C72.8884 9.08041 73.4882 7.91951 74.088 6.1975C74.8813 7.02948 75.1715 7.28101 76.1002 7.91951C75.2102 10.0672 74.3976 11.4022 73.198 12.8146C70.7407 15.6395 67.4515 17.3615 62.6918 18.3096C61.9953 18.445 61.7244 18.5031 61.3374 18.6191ZM83.4764 4.86247V8.77083C86.398 8.22908 90.674 6.50708 91.9316 5.32683L93.4795 7.51319C93.2667 7.59058 93.228 7.60993 93.0732 7.68733L92.5701 7.93885C89.7066 9.40933 86.7076 10.4154 83.4764 11.0152V13.5692C83.4571 13.6853 83.4571 13.8014 83.4571 13.8788C83.4571 14.9623 83.5345 15.388 83.8053 15.6588C84.1343 15.9878 85.2371 16.1619 87.1139 16.1619C88.4102 16.1619 90.1903 16.0458 91.6027 15.8523C92.5314 15.7362 92.9571 15.6395 93.8084 15.388L93.9245 17.9613C93.5182 17.9613 93.4215 17.9807 91.3705 18.1741C90.229 18.2902 87.7911 18.4063 86.6109 18.4063C84.173 18.4063 82.8379 18.1548 82.0833 17.5743C81.5416 17.168 81.2514 16.5489 81.1353 15.6008C81.0966 15.2719 81.0772 14.943 81.0772 13.8208L81.0579 4.84312C81.0579 3.85635 81.0579 3.54678 80.9805 3.06307H83.5732C83.4958 3.52743 83.4764 3.8757 83.4764 4.86247ZM94.6211 1.43781C95.8594 1.43781 96.8655 2.44392 96.8655 3.66287C96.8655 4.90116 95.8594 5.90728 94.6211 5.90728C93.4021 5.90728 92.396 4.90116 92.396 3.66287C92.396 2.44392 93.4021 1.43781 94.6211 1.43781ZM94.6211 2.40523C93.9245 2.40523 93.3634 2.96633 93.3634 3.66287C93.3634 4.35941 93.9245 4.93986 94.6211 4.93986C95.337 4.93986 95.8981 4.35941 95.8981 3.66287C95.8981 2.96633 95.337 2.40523 94.6211 2.40523ZM102.616 18.4644L100.275 18.5998C100.256 18.2515 100.237 18.1354 100.179 17.6904C99.8109 15.3493 99.6755 13.8595 99.6755 11.9053C99.6755 9.40933 99.9076 7.20362 100.469 4.34006C100.682 3.25655 100.72 3.06307 100.759 2.54066L103.313 2.81154C102.849 3.95309 102.404 6.12011 102.094 8.5967C101.901 10.0478 101.823 11.1894 101.804 12.8727C101.804 13.2983 101.784 13.4531 101.765 13.9368C101.978 13.2597 102.017 13.1242 102.771 11.3829L104.319 12.0794C103.255 14.3238 102.597 16.5682 102.597 17.942C102.597 18.058 102.597 18.2128 102.616 18.4644ZM105.286 6.8747L105.325 4.55289C106.196 4.78507 107.221 4.86247 108.905 4.86247C111.052 4.86247 112.89 4.68833 114.167 4.34006L114.283 6.68121C114.129 6.70056 113.838 6.73926 112.91 6.85535C111.671 7.01013 110.201 7.08753 108.769 7.08753C107.357 7.08753 107.337 7.08753 105.286 6.8747ZM106.622 10.0672L108.518 10.9572C107.55 12.0794 107.144 12.9114 107.144 13.7434C107.144 14.8462 108.208 15.4267 110.22 15.4267C111.923 15.4267 113.606 15.1558 114.825 14.6914L115.019 17.1487C114.748 17.168 114.67 17.1874 114.225 17.2648C112.678 17.5163 111.497 17.6324 110.22 17.6324C107.821 17.6324 106.273 17.0906 105.422 15.9491C105.054 15.4654 104.841 14.7495 104.841 14.0529C104.841 12.7953 105.422 11.499 106.622 10.0672ZM120.75 3.2759H121.814C121.814 2.54066 121.795 2.23109 121.718 1.84412H123.943C123.885 2.26979 123.846 2.61806 123.846 3.2759H129.921C129.921 2.52132 129.883 2.21174 129.825 1.84412H132.05C131.992 2.25044 131.953 2.61806 131.953 3.2759H133.23C134.139 3.2759 134.758 3.23721 135.339 3.15981V5.114C134.662 5.0366 134.023 5.01725 133.23 5.01725H131.953V10.4541H133.501C134.294 10.4541 135.01 10.4154 135.649 10.3381V12.2922C135.068 12.2148 134.41 12.1761 133.559 12.1761H131.585C132.766 13.1629 134.217 13.8401 136.19 14.3045C135.765 15.0204 135.513 15.5428 135.242 16.336C133.868 15.8136 132.959 15.3686 131.779 14.5947V15.891C131.237 15.833 130.85 15.8136 130.018 15.8136H127.774V17.168H132.495C133.423 17.168 134.004 17.1293 134.642 17.0519V19.1416C134.023 19.0642 133.307 19.0255 132.34 19.0255H121.563C120.615 19.0255 119.899 19.0642 119.241 19.1416V17.0713C119.802 17.1293 120.441 17.168 121.447 17.168H125.762V15.8136H123.827C123.014 15.8136 122.608 15.833 122.066 15.891V14.5753C120.905 15.388 120.073 15.8136 118.603 16.3747C118.39 15.6395 118.177 15.1945 117.655 14.3625C119.551 13.9368 121.002 13.221 122.143 12.1761H120.247C119.396 12.1761 118.796 12.2148 118.158 12.2922V10.3381C118.738 10.4154 119.377 10.4541 120.247 10.4541H121.814V5.01725H120.75C119.938 5.01725 119.299 5.05595 118.622 5.114V3.15981C119.222 3.23721 119.86 3.2759 120.75 3.2759ZM123.846 10.4541H129.921V9.64151H123.846V10.4541ZM123.846 8.11299H129.921V7.33906H123.846V8.11299ZM123.846 5.81054H129.921V5.01725H123.846V5.81054ZM129.051 12.1761H124.639C124.059 12.9114 123.633 13.337 122.801 14.0142C123.149 14.0336 123.362 14.0336 123.827 14.0336H125.762C125.762 13.3757 125.742 13.0662 125.665 12.6792H127.87C127.793 13.1049 127.774 13.3951 127.774 14.0336H130.018C130.483 14.0336 130.695 14.0336 130.986 14.0142C130.115 13.3564 129.651 12.9114 129.051 12.1761ZM138.671 9.27389L138.11 6.54577C138.729 6.48773 139.097 6.41034 140.374 6.13946C144.785 5.19139 145.83 5.0366 148.075 5.0366C151.906 5.0366 154.402 7.18427 154.402 10.4735C154.402 13.1049 152.854 15.3299 150.106 16.665C148.345 17.5356 146.836 17.8839 143.296 18.2709C143.063 17.3035 142.851 16.7617 142.309 15.7749C145.405 15.6395 147.03 15.3493 148.674 14.6334C150.067 14.0142 151.209 12.9114 151.596 11.7698C151.731 11.3829 151.809 10.8992 151.809 10.3961C151.809 9.33194 151.267 8.40322 150.338 7.88081C149.719 7.53254 148.907 7.3584 147.842 7.3584C145.83 7.3584 143.334 7.80342 140.219 8.73214C139.232 9.02236 139.078 9.08041 138.671 9.27389ZM156.162 3.8757L154.827 4.63029C154.247 3.56613 153.608 2.65675 152.854 1.82478L154.15 1.14758C155.021 2.03761 155.562 2.77284 156.162 3.8757ZM150.474 2.96633L151.828 2.28914C152.68 3.19851 153.202 3.93375 153.86 5.13334L152.505 5.84923C151.867 4.66898 151.325 3.89505 150.474 2.96633ZM168.569 1.94087L170.794 3.64352C170.465 3.8757 170.098 4.20462 168.414 5.77184C167.427 6.68121 166.073 7.76472 163.809 9.48672C163.209 9.93174 163.074 10.0865 163.074 10.2994C163.074 10.5896 163.113 10.6283 164.815 11.9053C167.834 14.1884 168.395 14.6721 170.91 16.9552C171.104 17.1487 171.22 17.2454 171.471 17.4389L169.478 19.4511C168.975 18.7546 168.279 18.0193 166.963 16.8004C165.589 15.5234 164.951 15.001 161.971 12.6792C160.694 11.6924 160.346 11.17 160.346 10.28C160.346 9.69956 160.559 9.17715 160.984 8.71279C161.236 8.44191 161.255 8.42256 162.687 7.31971C164.777 5.73314 165.86 4.80442 167.157 3.54678C168.027 2.6761 168.24 2.42457 168.569 1.94087ZM186.993 10.1059H192.295C193.436 10.1059 193.978 10.0865 194.539 9.98978V12.1568C193.862 12.0794 193.243 12.0407 192.295 12.0407H188.115C189.586 13.9949 192.062 15.6782 195.119 16.8004C194.384 17.4582 193.997 17.9226 193.533 18.6772C192.159 18.0193 191.134 17.3615 189.857 16.336C188.522 15.2912 187.709 14.4206 186.935 13.279C186.954 13.7627 186.993 14.7495 186.993 15.0784V17.7678C186.993 18.5418 187.012 19.0448 187.109 19.6253H184.749C184.845 19.0448 184.884 18.6385 184.884 17.7872V15.0784C184.884 14.3625 184.884 13.8981 184.923 13.2983C184.052 14.5366 183.278 15.3686 181.982 16.4134C180.898 17.2841 179.912 17.9033 178.499 18.6191C178.035 17.8452 177.609 17.3422 176.971 16.8391C179.834 15.6975 182.175 14.0142 183.704 12.0407H179.834C178.905 12.0407 178.306 12.0794 177.57 12.1568V9.98978C178.228 10.0865 178.77 10.1059 179.815 10.1059H184.884V8.94497C184.884 8.28713 184.845 7.93885 184.787 7.51319H187.07C187.012 7.90016 186.993 8.26778 186.993 8.94497V10.1059ZM179.796 5.17204H180.976C180.492 4.16593 179.95 3.33395 179.35 2.63741L181.363 1.86347C182.059 2.7535 182.582 3.60482 183.085 4.64963L181.498 5.17204H185.426C184.884 3.89505 184.478 3.12111 183.897 2.32783L185.89 1.68934C186.548 2.7148 186.858 3.2759 187.496 4.61094L185.813 5.17204H188.928C189.702 4.08853 190.224 3.10177 190.708 1.84412L192.778 2.42457C192.256 3.41134 191.54 4.61094 191.134 5.17204H192.314C193.243 5.17204 193.842 5.15269 194.384 5.09465C194.326 5.53966 194.307 5.98467 194.307 6.73926V7.70668C194.307 8.32582 194.326 8.77083 194.384 9.25454H192.275V6.97144H179.854V9.25454H177.725C177.783 8.75149 177.822 8.26778 177.822 7.74537V6.70056C177.822 6.02337 177.783 5.57836 177.745 5.09465C178.383 5.15269 178.925 5.17204 179.796 5.17204ZM206.481 17.3615L206.501 18.4257C203.734 18.9481 202.36 19.1609 199.245 19.5479C198.839 19.5866 198.587 19.6253 198.239 19.722L197.929 17.7678C198.007 17.7678 198.045 17.7872 198.084 17.7872C198.123 17.7872 198.162 17.7872 198.162 17.7872C198.181 17.7872 198.2 17.7872 198.239 17.7872C198.258 17.7872 198.316 17.7872 198.413 17.7872C198.703 17.7678 199.226 17.7291 200.212 17.6324V12.6986C199.226 13.3757 198.723 13.666 197.581 14.2077C197.252 13.4338 197.001 13.0275 196.459 12.389C197.968 11.8666 198.742 11.4796 199.748 10.7444C200.445 10.2413 200.87 9.83499 201.354 9.2352H199.052C198.084 9.2352 197.658 9.25454 197.097 9.33194V7.60993C197.562 7.68733 198.065 7.70668 199.052 7.70668H204.624V6.91339H200.387C199.439 6.91339 199.168 6.93274 198.568 6.99079V5.40422C199.071 5.46227 199.38 5.48161 200.387 5.48161H204.624V4.68833H199.709C198.916 4.68833 198.413 4.70768 197.775 4.78507V3.04372C198.336 3.14046 198.781 3.15981 199.709 3.15981H201.799C201.451 2.59871 201.238 2.32783 200.774 1.80543L202.863 1.37976C203.347 1.96021 203.753 2.56001 204.101 3.15981H207.487C207.913 2.52132 208.107 2.1537 208.455 1.37976L210.622 1.76673C210.506 1.97956 210.506 1.97956 210.274 2.36653C210.061 2.7148 209.983 2.83089 209.751 3.15981H211.86C212.789 3.15981 213.253 3.14046 213.814 3.04372V4.78507C213.195 4.70768 212.692 4.68833 211.86 4.68833H206.675V5.48161H211.222C212.208 5.48161 212.499 5.46227 213.04 5.40422V6.99079C212.421 6.93274 212.17 6.91339 211.222 6.91339H206.675V7.70668H212.537C213.524 7.70668 214.008 7.68733 214.511 7.60993V9.33194C213.911 9.25454 213.427 9.2352 212.537 9.2352H210.254C211.473 10.5509 212.924 11.4022 215.149 12.0794C214.627 12.7566 214.414 13.1049 214.066 13.9175C212.692 13.3177 211.899 12.8533 210.893 12.0988V14.0336C210.893 14.5947 210.893 14.8269 210.912 15.2332C211.26 14.9043 211.435 14.7301 211.88 14.2464L213.447 15.2912C211.725 16.6456 211.551 16.7811 210.641 17.3035C212.054 17.6324 212.963 17.7485 214.898 17.8452C214.317 18.6385 214.124 18.9868 213.814 19.7607C210.448 19.3737 208.377 18.6965 206.481 17.3615ZM202.225 15.6202V17.4389C203.889 17.2648 203.908 17.2454 205.901 16.8971C205.34 16.4328 205.088 16.1813 204.624 15.6202H202.225ZM209.577 15.6202H206.907C207.429 16.0458 207.991 16.3941 208.764 16.723C209.616 16.2006 209.925 16.0071 210.409 15.6395C210.041 15.6202 209.654 15.6202 209.577 15.6202ZM202.708 10.4348H204.779C204.779 10.0285 204.759 9.87369 204.701 9.58347H206.81C206.733 9.87369 206.733 9.95108 206.714 10.4348H209.016C208.629 10.0285 208.455 9.85434 207.952 9.2352H203.637C203.231 9.7963 203.076 10.0285 202.708 10.4348ZM202.205 11.7698V12.4277H208.977V11.7698H202.205ZM202.205 13.6273V14.2851H208.977V13.6273H202.205ZM227.904 9.7576L229.394 10.8798C229.085 11.1313 229.007 11.1894 228.736 11.4216C227.846 12.1955 227.285 12.6405 226.26 13.3951C227.421 13.337 228.775 13.2403 230.304 13.1629C229.975 12.8146 229.762 12.6212 229.181 12.0988L230.865 11.0926C232.432 12.5825 233.206 13.4144 234.386 14.943L232.625 16.1232C232.142 15.388 231.987 15.1945 231.619 14.6721C228.949 14.9236 228.949 14.9236 226.434 15.0784V17.613C226.434 18.5418 226.453 18.9674 226.55 19.5479H224.132C224.228 18.9868 224.248 18.5418 224.248 17.613V15.1945C220.146 15.388 220.146 15.388 218.714 15.4267C218.056 15.446 217.747 15.4654 217.34 15.5621L217.011 13.4725C217.534 13.5499 218.056 13.5692 218.927 13.5692C219.488 13.5692 219.488 13.5692 222.777 13.4725C221.674 12.7372 220.339 12.002 219.062 11.4409L220.281 9.95108C221.152 10.3961 221.442 10.5509 222.081 10.9185C222.603 10.4928 222.893 10.2026 223.319 9.7576H218.966C218.037 9.7576 217.36 9.7963 216.74 9.87369V8.01625C217.224 8.09364 217.785 8.11299 218.753 8.11299H224.325V7.12622H220.049C219.314 7.12622 218.753 7.14557 218.23 7.22297V5.46227C218.753 5.52031 219.256 5.53966 220.049 5.53966H224.325V4.63029H219.546C218.559 4.63029 218.056 4.64963 217.534 4.70768V2.86959C218.114 2.94698 218.791 2.98568 219.778 2.98568H224.325C224.325 2.28914 224.306 2.01826 224.209 1.63129H226.511C226.434 2.03761 226.415 2.30848 226.415 2.98568H231.271C232.258 2.98568 232.993 2.94698 233.496 2.86959V4.70768C232.935 4.64963 232.451 4.63029 231.503 4.63029H226.415V5.53966H230.942C231.755 5.53966 232.238 5.52031 232.742 5.46227V7.22297C232.219 7.14557 231.677 7.12622 230.942 7.12622H226.415V8.11299H232.277C233.225 8.11299 233.767 8.09364 234.27 8.01625V9.87369C233.632 9.7963 232.896 9.7576 232.064 9.7576H227.904ZM227.614 9.7576H225.795C225.176 10.4541 224.306 11.3248 223.648 11.8666C224.228 12.2342 224.325 12.2922 224.654 12.5244C225.873 11.5763 227.034 10.4928 227.614 9.7576ZM221.21 15.4267L223.029 16.5489C221.616 17.9226 220.417 18.7159 218.462 19.5285C217.94 18.7933 217.611 18.4257 216.895 17.8452C218.037 17.4969 218.54 17.2841 219.314 16.8391C220.204 16.3167 220.571 16.0458 221.21 15.4267ZM227.653 16.2973L229.336 15.1364C230.052 15.7943 230.536 16.1232 231.503 16.665C232.335 17.11 232.877 17.3422 234.038 17.7098C233.457 18.3289 233.07 18.8707 232.664 19.5479C230.71 18.6965 229.162 17.6904 227.653 16.2973Z" fill="#87581E"/>
<rect x="0.394531" y="25.8691" width="699.517" height="1.48833" fill="#FFCC00"/>
</g>
<defs>
<clipPath id="clip0_98_2269">
<path d="M-34 -1255C-34 -1260.52 -29.5228 -1265 -24 -1265H749C754.523 -1265 759 -1260.52 759 -1255V264H-34V-1255Z" fill="white"/>
</clipPath>
</defs>
</svg>
