<svg width="131" height="26" viewBox="0 0 131 26" fill="none" xmlns="http://www.w3.org/2000/svg">
<g filter="url(#filter0_d_72_2236)">
<g clip-path="url(#clip0_72_2236)">
<path d="M-460 -842C-460 -847.523 -455.523 -852 -450 -852H300C305.523 -852 310 -847.523 310 -842V44H-460V-842Z" fill="white"/>
<rect width="131" height="26" rx="10" fill="#FFCC00"/>
<path d="M31.456 13.506L31.61 11.896C32.254 12.148 32.646 12.232 34.074 12.428C34.13 11.924 34.256 10.986 34.326 10.468C33.5 10.356 33.276 10.328 32.324 10.118C32.128 10.076 32.058 10.062 31.848 10.02L31.988 8.48C32.576 8.704 33.57 8.9 34.522 8.984C34.718 7.808 34.802 7.08 34.802 6.66C34.802 6.618 34.802 6.59 34.788 6.52L36.65 6.688C36.496 7.122 36.454 7.332 36.202 9.054C37.784 9.026 38.596 8.956 39.394 8.76L39.338 10.398C39.156 10.412 39.086 10.426 38.778 10.454C37.77 10.538 37.322 10.566 36.818 10.566C36.678 10.566 36.552 10.566 35.95 10.552C35.81 11.574 35.768 11.854 35.684 12.526C36.104 12.54 36.216 12.54 36.37 12.54C37.364 12.54 38.372 12.442 39.044 12.26L39.002 13.87C38.862 13.87 38.82 13.87 38.582 13.912C37.966 13.982 37.14 14.038 36.482 14.038C36.258 14.038 36.132 14.038 35.586 14.01C35.544 14.388 35.516 14.752 35.516 15.004C35.516 15.69 35.67 16.124 36.034 16.446C36.44 16.796 37 16.964 37.77 16.964C39.548 16.964 40.57 16.18 40.57 14.808C40.57 13.996 40.15 13.212 39.31 12.442C40.094 12.386 40.388 12.33 41.046 12.092C41.396 12.498 41.55 12.708 41.704 12.974C42.068 13.59 42.306 14.388 42.306 15.032C42.306 16.026 41.816 16.992 40.962 17.65C40.164 18.266 39.114 18.574 37.798 18.574C35.25 18.574 33.864 17.356 33.864 15.102C33.864 14.738 33.878 14.388 33.934 13.912C33.094 13.8 32.548 13.716 31.988 13.59C31.694 13.52 31.652 13.52 31.456 13.506ZM46.616 13.31L46.266 11.63C46.658 11.602 46.658 11.602 47.722 11.364C49.626 10.944 50.886 10.776 52.048 10.776C53.644 10.776 54.722 11.238 55.352 12.204C55.702 12.736 55.87 13.324 55.87 14.01C55.87 15.872 54.554 17.384 52.328 18.084C51.46 18.35 51.11 18.406 49.29 18.616C49.15 17.916 49.038 17.65 48.688 17.02C48.786 17.02 48.842 17.02 48.898 17.02C49.416 17.02 50.2 16.936 50.886 16.81C51.978 16.6 52.594 16.348 53.224 15.858C53.896 15.354 54.218 14.738 54.218 13.968C54.218 12.876 53.406 12.288 51.922 12.288C50.956 12.288 49.878 12.442 48.24 12.834C47.344 13.044 47.092 13.114 46.616 13.31ZM62.672 6.786L64.492 6.492C64.548 7.43 64.968 9.446 65.416 10.874C66.326 10.538 66.326 10.538 69.042 9.642C69.294 9.558 69.364 9.53 69.574 9.432L70.176 11.196C68.958 11.434 67.124 11.966 65.556 12.54C63.512 13.296 62.49 14.192 62.49 15.2C62.49 16.222 63.442 16.656 65.696 16.656C67.446 16.656 69.168 16.446 70.218 16.082L70.372 18C70.064 18 69.994 18.014 69.238 18.098C67.726 18.252 66.942 18.308 65.962 18.308C64.016 18.308 62.798 18.07 61.902 17.538C61.132 17.076 60.684 16.208 60.684 15.2C60.684 14.262 61.132 13.366 61.93 12.694C62.476 12.232 62.924 11.952 63.834 11.49C63.484 10.356 63.246 9.418 62.896 7.696C62.756 7.024 62.742 6.996 62.672 6.786ZM77.384 15.032H76.586C75.914 15.032 75.438 15.046 75.074 15.074C75.13 14.668 75.144 14.234 75.144 13.59V8.48C75.144 7.71 75.116 7.094 75.074 6.73C75.494 6.786 75.9 6.8 76.544 6.8H82.998C83.642 6.8 84.076 6.786 84.482 6.73C84.44 7.066 84.412 7.71 84.412 8.48V13.59C84.412 14.262 84.426 14.682 84.482 15.074C84.118 15.046 83.572 15.032 82.998 15.032H81.794V17.188C81.794 17.58 81.92 17.622 83.012 17.622C84.09 17.622 84.37 17.566 84.538 17.328C84.678 17.132 84.748 16.6 84.79 15.536C85.364 15.844 85.7 15.984 86.232 16.124C86.092 17.678 85.952 18.196 85.602 18.532C85.21 18.896 84.608 19.008 83.026 19.008C80.702 19.008 80.282 18.812 80.282 17.762V15.032H79.022C78.854 16.11 78.406 16.964 77.692 17.622C76.81 18.448 75.746 18.938 74.136 19.302C73.898 18.714 73.73 18.42 73.324 17.93C74.64 17.692 75.382 17.44 76.054 17.006C76.81 16.516 77.216 15.914 77.384 15.032ZM76.614 8.2V9.11H82.928V8.2H76.614ZM76.614 10.426V11.364H82.928V10.426H76.614ZM76.614 12.68V13.674H82.928V12.68H76.614ZM92.516 12.19L92.544 12.218C93.818 11.714 94.434 11.574 95.484 11.574C97.878 11.574 99.418 12.806 99.418 14.724C99.418 16.054 98.76 17.118 97.514 17.818C96.604 18.336 95.414 18.616 94.126 18.616C92.95 18.616 91.97 18.392 91.41 17.972C90.878 17.58 90.57 16.992 90.57 16.362C90.57 15.2 91.578 14.36 92.978 14.36C93.958 14.36 94.812 14.766 95.4 15.508C95.68 15.858 95.834 16.166 96.044 16.768C97.206 16.334 97.71 15.732 97.71 14.738C97.71 13.646 96.632 12.932 94.938 12.932C92.894 12.932 90.85 13.758 89.17 15.284L88.218 13.772C88.708 13.534 89.268 13.156 90.192 12.456C91.494 11.462 93.314 9.894 94.378 8.816C94.406 8.788 94.546 8.648 94.63 8.564L94.616 8.55C94.084 8.62 93.188 8.676 90.654 8.788C90.346 8.802 90.248 8.816 89.982 8.858L89.912 7.178C90.388 7.234 90.794 7.262 91.564 7.262C92.754 7.262 94.462 7.192 95.82 7.094C96.31 7.052 96.464 7.024 96.688 6.912L97.556 8.144C97.318 8.27 97.22 8.354 96.828 8.718C96.128 9.362 95.106 10.272 94.63 10.678C94.378 10.888 93.37 11.644 93.09 11.826C92.74 12.064 92.74 12.064 92.516 12.19ZM94.532 17.174C94.28 16.208 93.748 15.704 92.964 15.704C92.46 15.704 92.138 15.956 92.138 16.348C92.138 16.908 92.768 17.23 93.804 17.23C94.07 17.23 94.14 17.23 94.532 17.174Z" fill="#87581E"/>
</g>
</g>
<defs>
<filter id="filter0_d_72_2236" x="-463" y="-854" width="778" height="904" filterUnits="userSpaceOnUse" color-interpolation-filters="sRGB">
<feFlood flood-opacity="0" result="BackgroundImageFix"/>
<feColorMatrix in="SourceAlpha" type="matrix" values="0 0 0 0 0 0 0 0 0 0 0 0 0 0 0 0 0 0 127 0" result="hardAlpha"/>
<feOffset dx="1" dy="2"/>
<feGaussianBlur stdDeviation="2"/>
<feComposite in2="hardAlpha" operator="out"/>
<feColorMatrix type="matrix" values="0 0 0 0 0 0 0 0 0 0 0 0 0 0 0 0 0 0 0.2 0"/>
<feBlend mode="normal" in2="BackgroundImageFix" result="effect1_dropShadow_72_2236"/>
<feBlend mode="normal" in="SourceGraphic" in2="effect1_dropShadow_72_2236" result="shape"/>
</filter>
<clipPath id="clip0_72_2236">
<path d="M-460 -842C-460 -847.523 -455.523 -852 -450 -852H300C305.523 -852 310 -847.523 310 -842V44H-460V-842Z" fill="white"/>
</clipPath>
</defs>
</svg>
