<svg width="11" height="14" viewBox="0 0 11 14" fill="none" xmlns="http://www.w3.org/2000/svg">
<path d="M9.50281 0.887578H7.83952C7.80551 0.392383 7.38645 0 6.86847 0H4.13153C3.61383 0 3.19449 0.392656 3.16048 0.887578H1.49663C0.671445 0.887578 0 1.54082 0 2.34418V12.618C0 12.9943 0.160764 13.3591 0.440416 13.6186C0.706015 13.8644 1.05368 13.9997 1.4199 14C1.44295 14 1.46571 13.9995 1.48848 13.9984L8.79651 13.6541C9.08994 13.6516 9.37465 13.5948 9.64221 13.4843C10.0391 13.3208 10.3772 13.0501 10.6194 12.7014C10.8682 12.3435 10.9997 11.9254 10.9997 11.4915V2.34418C10.9997 1.54109 10.3283 0.887578 9.50281 0.887578ZM9.85273 11.4915C9.85273 11.6334 9.82406 11.7704 9.76841 11.8992C9.6869 12.0868 9.552 12.2459 9.37774 12.3602C9.20067 12.4767 8.99269 12.5385 8.77712 12.5385C8.64025 12.5385 8.50506 12.5059 8.37577 12.4422C8.15908 12.3353 7.97133 12.145 7.83361 11.8934C7.66863 11.5916 7.58151 11.2082 7.58122 10.7844V10.5651C7.58122 10.4254 7.50984 10.2963 7.38983 10.2192C7.3204 10.1749 7.23946 10.1514 7.15627 10.1514C7.09809 10.1514 7.04103 10.1629 6.9882 10.1853L1.30185 12.5688C1.2878 12.5748 1.27291 12.5776 1.25745 12.5776C1.23581 12.5776 1.21473 12.5713 1.19674 12.5598C1.16554 12.5398 1.14699 12.5062 1.14699 12.4698V2.40953C1.14699 2.18586 1.33361 2.00402 1.5638 2.00402H3.25801C3.41765 2.3182 3.74705 2.53586 4.13153 2.53586H6.86847C7.25295 2.53586 7.58235 2.3182 7.74199 2.00402H9.43564C9.66582 2.00402 9.85273 2.18586 9.85273 2.40953V11.4915Z" fill="#FF7B1E"/>
<path d="M8.3629 3.75781H2.63721V4.49363H8.3629V3.75781Z" fill="#FF7B1E"/>
<path d="M8.3629 6.01782H2.63721V6.75364H8.3629V6.01782Z" fill="#FF7B1E"/>
<path d="M8.3629 8.27722H2.63721V9.01304H8.3629V8.27722Z" fill="#FF7B1E"/>
</svg>
