<svg width="516" height="160" viewBox="0 0 516 160" fill="none" xmlns="http://www.w3.org/2000/svg">
<g clip-path="url(#clip0_2_1778)">
<rect width="516" height="160" fill="#FFEB99"/>
<path d="M343.443 206.695L344.028 80.7029L341.201 76.9229L339.969 77.4713L334.016 80.0762L328.3 77.5693L326.816 76.9229L323.989 80.7029L324.574 206.617C330.921 207.106 337.175 207.126 343.428 206.695H343.443ZM328.821 176.769L331.585 92.1995L331 86.1868L332.153 84.5808L334.032 81.9564L335.611 84.1695L337.048 86.1868L336.464 92.1995L339.227 176.769L334.032 187.971L328.837 176.769H328.821Z" fill="white"/>
<path d="M336.448 92.18L337.033 86.1869L334.017 81.9369L330.985 86.1869L331.569 92.18L328.806 176.769L334.017 187.952L339.212 176.769L336.448 92.18Z" fill="#82B1FF"/>
<path d="M362.14 84.0129C359.424 82.8182 357.324 82.9748 355.761 84.0912C351.971 82.0935 347.565 81.3297 344.028 80.7029L332.094 178.433C333.939 188.458 327.357 233.272 351.718 234.114C366.198 233.351 367.414 230.569 367.414 230.569C367.382 230.197 367.24 228.043 367.035 224.655C366.814 221.129 366.514 216.253 366.198 210.71C361.922 137.223 353.9 147.703 365.255 203.894L365.84 204.873L375.519 203.894C377.896 182.725 377.098 87.3617 362.14 84.0129Z" fill="#373463"/>
<path d="M306.427 84.0129C309.143 82.8182 311.243 82.9748 312.806 84.0912C316.596 82.0935 321.002 81.3297 324.539 80.7029L336.472 178.433C334.627 188.458 341.21 233.272 316.849 234.114C302.369 233.351 301.153 230.569 301.153 230.569C301.184 230.197 301.326 228.043 301.532 224.655C301.753 221.129 302.053 216.253 302.369 210.71C306.644 137.223 314.667 147.703 303.312 203.894L302.727 204.873L293.048 203.894C290.67 182.725 288.67 84.0129 306.427 84.0129Z" fill="#373463"/>
<path d="M348.89 47.584C348.132 47.1727 347.122 47.5252 346.348 48.2499L345.779 50.5414V47.114C345.574 46.8985 345.337 46.6243 345.1 46.2914C343.821 44.5875 342.195 41.6888 342.195 41.6888C342.069 41.1209 327.889 36.5575 327.889 36.5575L322.567 47.1335L322.646 48.2891L322.757 50.0517L322.788 50.561L322.709 50.3651L321.983 48.5828C321.872 48.4458 321.746 48.3282 321.604 48.2107C320.878 47.5644 319.977 47.2511 319.267 47.5644C318.588 47.8582 318.083 48.7199 318.098 50.4043C318.13 54.2626 323.072 56.1232 323.072 56.1232C324.099 61.4504 326.499 64.7211 328.457 66.4642L328.315 77.6082L334.031 80.1151L339.984 77.5103L339.684 66.3859C340.016 66.0921 340.363 65.7395 340.711 65.3478C342.384 63.4481 344.137 60.4711 344.99 56.1232C344.99 56.1232 345.006 56.1232 345.053 56.1036C345.621 55.8686 349.932 54.008 349.964 50.4043C349.964 48.8179 349.538 47.9561 348.922 47.6232L348.89 47.584Z" fill="#FED1A7"/>
<path d="M342.795 24.8652C332.989 15.6209 326.246 26.3537 326.246 26.3537C326.246 26.3537 323.278 25.0219 320.672 30.7995C318.967 34.5795 319.062 39.2604 321.32 46.7419C321.43 47.0945 321.541 47.447 321.651 47.8191L321.951 48.5829L322.757 50.5611L322.551 47.1336L327.873 36.5576C327.873 36.5576 342.053 41.121 342.179 41.6889C342.179 41.6889 344.484 45.8018 345.764 47.1336V50.5611L346.332 48.2696L346.632 47.0553L346.821 46.3306C346.821 46.3306 352.585 34.129 342.795 24.8652Z" fill="#373463"/>
<path d="M184.154 87.3032C180.854 89.0267 175.264 90.7894 169.232 87.6362L177.333 148.703L184.154 87.3032V87.3032Z" fill="white"/>
<path d="M204.887 85.2859C201.634 82.0935 199.234 81.7801 197.481 83.3665C193.344 81.2709 188.528 80.5071 184.975 79.8803L184.154 87.3227L177.332 148.723L169.232 87.6557L168.205 79.8803C164.621 80.5071 159.773 81.2709 155.62 83.4057C153.868 81.7801 149.873 82.4068 148.183 85.2859C142.261 94.6672 127.024 151.347 135.787 159.847C139.83 163.764 144.204 164.038 148.357 162.491L144.156 199.507L145.277 199.605L161.668 201.074C165.821 201.544 169.706 199.311 172.137 195.492C172.264 195.296 172.374 195.1 172.485 194.905C172.579 194.728 172.674 194.572 172.769 194.395C173.195 193.592 173.558 192.731 173.843 191.83C173.874 191.751 173.906 191.673 173.922 191.575C173.969 191.418 174.016 191.262 174.064 191.105C174.095 190.968 174.143 190.831 174.174 190.713C174.206 190.576 174.237 190.439 174.269 190.302C174.316 190.126 174.348 189.95 174.38 189.773C174.395 189.675 174.427 189.558 174.443 189.46C174.49 189.166 174.537 188.872 174.585 188.579L175.548 182.664L176.511 176.749L176.89 174.418L177.585 170.149L180.601 188.735C180.633 189.029 180.68 189.303 180.727 189.597C180.743 189.695 180.775 189.812 180.791 189.91C180.822 190.087 180.854 190.263 180.901 190.42C180.933 190.557 180.964 190.674 180.996 190.811C181.027 190.948 181.059 191.066 181.091 191.203C181.138 191.36 181.17 191.516 181.217 191.653C181.233 191.732 181.264 191.791 181.28 191.869C181.564 192.75 181.912 193.592 182.306 194.395C182.401 194.591 182.496 194.768 182.607 194.944C182.717 195.14 182.828 195.335 182.954 195.512C185.244 199.155 188.86 201.407 192.807 201.231L206.119 200.663L206.798 214.392L208.756 214.157L209.182 214.098L214.788 213.413L216.904 213.158V153.854C216.904 153.854 211.045 93.0612 204.871 85.2467L204.887 85.2859ZM147.583 140.007L147.614 139.909C147.614 139.909 147.614 139.948 147.614 139.968L147.567 140.007H147.583ZM202.108 152.483C202.203 151.778 202.313 150.759 202.44 149.486C203.308 152.561 203.861 154.52 203.861 154.52L204.476 166.956C203.166 158.829 202.108 152.483 202.108 152.483V152.483Z" fill="#5C698E"/>
<path d="M181.311 147.606L170.448 102.776C170.179 101.659 169.232 101.033 168.347 101.366L142.782 110.904C141.882 111.237 141.377 112.412 141.645 113.508L147.52 137.716L161.668 125.338L166.61 136.208L152.462 158.143L152.509 158.32C152.778 159.436 153.725 160.063 154.61 159.73L180.175 150.192C181.075 149.859 181.58 148.684 181.311 147.587V147.606Z" fill="#373463"/>
<path d="M165.52 133.935L168.505 132.075L174 128.804C174 128.804 177.521 126.983 177.379 124.75C177.331 124.123 177.41 123.497 177.237 122.517C176.795 120.05 177.868 118.776 177.347 117.308C176.731 115.564 175.831 116.113 175.831 116.113C175.831 116.113 177.221 115.075 176.384 113.371C175.721 111.98 174.663 112.627 174.663 112.627C174.663 112.627 171.584 113.919 170.605 114.644C170.052 111.549 167.889 114.096 167.036 116.602C166.341 118.659 164.115 126.493 164.115 126.493L162.567 127.374L165.536 133.935H165.52Z" fill="#FED1A7"/>
<path d="M191.465 49.8952C191.465 49.8952 191.465 49.7973 191.465 49.7386C191.465 49.719 191.465 49.6994 191.465 49.6798C191.465 49.6798 191.465 49.6602 191.465 49.6406C191.465 49.5819 191.465 49.5231 191.449 49.4644C191.449 49.4448 191.449 49.4056 191.449 49.386C191.449 49.3077 191.418 49.2293 191.402 49.151C191.37 49.0335 191.339 48.9356 191.323 48.8376C191.323 48.7985 191.307 48.7789 191.291 48.7397C191.276 48.6614 191.244 48.6026 191.228 48.5439C191.228 48.5243 191.212 48.4851 191.197 48.4655C191.165 48.3872 191.133 48.3088 191.102 48.2305C191.07 48.1522 191.023 48.0738 190.991 47.9955C190.865 47.7604 190.707 47.6038 190.565 47.5058C190.502 47.4667 190.454 47.4275 190.391 47.4079C190.123 47.2904 189.854 47.3296 189.602 47.4275C189.554 47.4471 189.491 47.4667 189.444 47.5058C189.412 47.5058 189.397 47.5254 189.365 47.545C189.318 47.5842 189.27 47.6038 189.223 47.6429C189.112 47.7213 189.018 47.7996 188.954 47.878C188.954 47.878 188.923 47.9171 188.907 47.9367C188.907 47.9367 188.875 47.9563 188.86 47.9759C188.828 48.0151 188.796 48.0542 188.796 48.0542C188.781 47.8192 188.749 47.6038 188.718 47.3687C188.718 47.31 188.702 47.2512 188.686 47.1925C188.654 46.9574 188.607 46.742 188.56 46.507C188.512 46.272 188.449 46.0565 188.386 45.8215C188.386 45.7627 188.354 45.704 188.339 45.6452C188.275 45.4102 188.212 45.1948 188.133 44.9598C188.054 44.7247 187.975 44.5093 187.896 44.2743C187.881 44.2155 187.849 44.1568 187.833 44.098C187.754 43.8826 187.66 43.6475 187.565 43.4321C187.47 43.2167 187.375 43.0012 187.281 42.7858C187.249 42.727 187.233 42.6879 187.202 42.6291C187.107 42.4137 186.996 42.1982 186.902 42.0024C186.823 41.8457 186.744 41.689 186.665 41.5323C186.507 41.219 186.333 40.9252 186.175 40.6314C186.096 40.4943 186.002 40.3376 185.923 40.2005C185.749 39.9068 185.559 39.613 185.386 39.3388C185.291 39.2017 185.212 39.0646 185.117 38.9275C184.944 38.6533 184.77 38.3987 184.596 38.1637C184.17 37.5565 183.791 37.0473 183.475 36.6556C183.286 36.4206 183.128 36.2051 182.986 36.068C182.812 35.8526 182.701 35.7351 182.67 35.6959C182.48 35.5001 182.307 35.3238 182.149 35.1671C181.991 35.0104 181.833 34.8733 181.706 34.7558C180.996 35.833 179.243 37.3803 177.048 40.0634C176.038 41.2973 174.932 42.5312 173.78 43.6671C173.606 43.8434 173.432 44.0197 173.243 44.1763C172.706 44.6856 172.169 45.1556 171.632 45.6061C171.506 45.704 171.395 45.8019 171.269 45.8803C171.032 46.0761 170.779 46.2524 170.543 46.4091C170.385 46.5266 170.227 46.6245 170.069 46.7224C169.595 47.0358 169.106 47.2904 168.648 47.5058C168.584 47.5254 168.537 47.545 168.474 47.5842C168.19 47.7017 167.89 47.8192 167.605 47.8975C167.416 47.9563 167.242 47.9955 167.053 48.0346C167.005 48.0346 166.942 48.0346 166.895 48.0542C166.832 48.0542 166.753 48.0738 166.69 48.0934C166.595 48.0934 166.484 48.113 166.39 48.113C166.295 48.113 166.2 48.113 166.09 48.113C165.947 48.113 165.805 48.113 165.663 48.0738C165.521 48.0738 165.379 48.0346 165.237 47.9955C165.237 47.9955 165.205 47.9759 165.174 47.9367C165.142 47.8975 165.095 47.8584 165.079 47.8388C164.968 47.7213 164.795 47.5842 164.589 47.4667C164.542 47.4471 164.495 47.4079 164.432 47.3883C164.321 47.3492 164.21 47.31 164.1 47.2904C163.579 47.2316 162.995 47.5842 162.631 49.1118C162.631 49.151 162.616 49.1902 162.6 49.2489C162.6 49.2881 162.584 49.3273 162.584 49.3664C162.584 49.3664 162.584 49.4252 162.584 49.4448C162.584 49.4644 162.584 49.5035 162.584 49.5231C162.584 49.5427 162.584 49.5819 162.584 49.621C162.584 49.6602 162.584 49.6798 162.584 49.719C162.584 49.7777 162.584 49.8169 162.584 49.8757C162.584 49.9148 162.584 49.954 162.584 49.9932C162.584 50.0323 162.584 50.0911 162.584 50.1303C162.584 50.1694 162.584 50.2086 162.584 50.2478C162.584 50.2674 162.584 50.3065 162.584 50.3261C162.584 50.3457 162.584 50.3653 162.584 50.3849C162.584 50.424 162.584 50.4632 162.584 50.4828C162.584 50.4828 162.584 50.522 162.584 50.5416C162.584 50.5416 162.584 50.6003 162.584 50.6199C162.584 50.6199 162.584 50.6982 162.6 50.7374C162.6 50.7374 162.6 50.7766 162.6 50.7962C162.6 50.8157 162.6 50.8353 162.6 50.8745C162.6 50.9137 162.6 50.9528 162.631 50.992C162.631 51.0312 162.631 51.0508 162.647 51.0899V51.1291C162.647 51.1291 162.663 51.2075 162.679 51.2466C162.679 51.2662 162.679 51.2858 162.695 51.3054C162.695 51.325 162.695 51.3445 162.71 51.3837C162.71 51.4229 162.726 51.4621 162.742 51.5012C162.742 51.5404 162.774 51.5992 162.789 51.6383C162.789 51.6775 162.821 51.7167 162.837 51.7558C162.852 51.795 162.868 51.8538 162.884 51.8929C162.884 51.9321 162.916 51.9713 162.931 51.9909C162.931 51.9909 162.979 52.0888 162.995 52.128C162.995 52.1671 163.026 52.1867 163.042 52.2259C163.058 52.2651 163.074 52.3042 163.089 52.3434C163.089 52.3434 163.089 52.363 163.105 52.3826C163.105 52.3826 163.137 52.4413 163.153 52.4609C163.153 52.4609 163.2 52.5392 163.216 52.5784C163.231 52.6176 163.247 52.6372 163.263 52.6763C163.263 52.6763 163.279 52.7155 163.295 52.7155C163.326 52.7743 163.374 52.8526 163.405 52.9114C163.421 52.931 163.437 52.9701 163.453 52.9897C163.484 53.0289 163.5 53.0681 163.531 53.1072C163.531 53.1072 163.531 53.1072 163.547 53.1268C163.563 53.1464 163.595 53.1856 163.61 53.2051C163.61 53.2051 163.642 53.2443 163.658 53.2835C163.658 53.3031 163.689 53.3227 163.705 53.3422C163.721 53.3814 163.753 53.401 163.768 53.4402C163.768 53.4402 163.8 53.4793 163.816 53.4989C163.832 53.5185 163.847 53.5381 163.863 53.5577C163.879 53.5773 163.91 53.6164 163.942 53.636C163.958 53.6556 163.974 53.6752 163.989 53.6948C163.989 53.6948 164.021 53.734 164.037 53.7535C164.068 53.7731 164.084 53.8123 164.116 53.8319C164.147 53.871 164.179 53.9102 164.21 53.9298C164.242 53.9494 164.258 53.9886 164.289 54.0081C164.321 54.0473 164.353 54.0669 164.384 54.1061C164.416 54.1257 164.432 54.1648 164.463 54.1844C164.495 54.204 164.526 54.2432 164.558 54.2628C164.589 54.2823 164.605 54.3019 164.637 54.3215C164.668 54.3607 164.716 54.3803 164.747 54.4194C164.779 54.439 164.795 54.4586 164.826 54.4782C164.842 54.4782 164.858 54.4978 164.874 54.5174C164.889 54.5174 164.921 54.5565 164.937 54.5761C164.937 54.5761 164.984 54.6153 165.016 54.6349C165.063 54.674 165.095 54.6936 165.142 54.7328C165.158 54.7328 165.19 54.772 165.205 54.772C165.221 54.772 165.253 54.8111 165.268 54.8111C165.3 54.8111 165.316 54.8503 165.347 54.8503C165.363 54.8503 165.379 54.8699 165.395 54.8895C165.458 54.9287 165.521 54.9678 165.584 54.9874C165.584 54.9874 165.616 54.9874 165.632 55.007C165.742 55.0657 165.837 55.1049 165.947 55.1441C165.963 55.1441 165.979 55.1441 165.995 55.1637C166.058 55.1833 166.105 55.2028 166.169 55.2224C167.037 58.6499 168.348 61.7052 170.069 63.9575C170.337 64.3492 170.606 64.7017 170.906 65.0347C170.937 65.0738 170.969 65.0934 170.985 65.1326C171.111 65.2697 171.222 65.4068 171.348 65.5243C171.506 65.681 171.664 65.8376 171.837 65.9747V79.9586H171.727L168.316 80.5462L168.963 85.3837L169.248 87.499C175.264 90.6522 180.854 88.8895 184.17 87.166L184.501 84.2282L184.944 80.2916L182.812 80.0174L182.085 79.9195V65.9356C182.749 65.3676 183.333 64.6821 183.854 63.9183C183.854 63.9183 183.965 63.7616 184.028 63.6833C184.091 63.5853 184.17 63.507 184.233 63.4091C184.296 63.3307 184.344 63.2328 184.407 63.1545C184.47 63.0565 184.533 62.9586 184.596 62.8607C184.644 62.7823 184.707 62.6844 184.754 62.6061C184.849 62.4494 184.944 62.2927 185.038 62.136C185.086 62.0381 185.149 61.9402 185.196 61.8422C185.259 61.7247 185.323 61.6072 185.386 61.4897C185.433 61.3918 185.48 61.3134 185.528 61.2155C185.591 61.098 185.654 60.9805 185.702 60.863C185.749 60.7846 185.78 60.6867 185.828 60.6084C185.923 60.4125 186.017 60.2167 186.096 60.0208C186.128 59.9621 186.159 59.8837 186.175 59.825C186.238 59.6683 186.317 59.5116 186.381 59.3353C186.412 59.257 186.444 59.1591 186.491 59.0807C186.554 58.924 186.602 58.7869 186.665 58.6303C186.696 58.5519 186.728 58.4736 186.759 58.3952C186.838 58.1602 186.917 57.9448 186.996 57.7098C186.996 57.6706 187.012 57.651 187.028 57.6118C187.091 57.3964 187.17 57.181 187.233 56.9655C187.265 56.8872 187.281 56.8088 187.312 56.7305C187.36 56.5542 187.423 56.378 187.47 56.1821C187.486 56.1038 187.517 56.0254 187.533 55.9471C187.596 55.6925 187.675 55.4379 187.739 55.1833C187.802 55.1833 187.849 55.1441 187.912 55.1245C188.054 55.0658 188.181 55.007 188.323 54.9287C188.386 54.8895 188.449 54.8699 188.512 54.8307C188.512 54.8307 188.512 54.8307 188.528 54.8307C188.528 54.8307 188.544 54.8307 188.56 54.8307C188.607 54.7916 188.654 54.772 188.702 54.7328C188.702 54.7328 188.733 54.7328 188.749 54.7132C188.749 54.7132 188.749 54.7132 188.765 54.7132C188.812 54.674 188.844 54.6545 188.891 54.6153C188.891 54.6153 188.923 54.5957 188.939 54.5761C188.939 54.5761 188.954 54.5761 188.97 54.5565C189.018 54.5174 189.049 54.4978 189.097 54.4586C189.128 54.439 189.144 54.4194 189.175 54.3999C189.207 54.3607 189.254 54.3411 189.286 54.3019C189.318 54.2823 189.333 54.2628 189.365 54.2432C189.397 54.204 189.444 54.1844 189.475 54.1452C189.475 54.1452 189.491 54.1452 189.507 54.1257C189.523 54.1257 189.539 54.0865 189.554 54.0669C189.554 54.0669 189.618 54.0081 189.649 53.969C189.681 53.9494 189.697 53.9102 189.728 53.8906C189.76 53.8515 189.791 53.8123 189.823 53.7927C189.854 53.7731 189.87 53.734 189.902 53.7144C189.902 53.7144 189.965 53.636 189.997 53.5969C190.028 53.5773 190.044 53.5381 190.076 53.5185C190.107 53.4793 190.139 53.4402 190.17 53.401C190.17 53.401 190.202 53.3618 190.218 53.3422C190.218 53.3422 190.218 53.3422 190.233 53.3227C190.265 53.2835 190.297 53.2443 190.328 53.2051C190.344 53.166 190.376 53.1464 190.391 53.1072C190.423 53.0681 190.454 53.0093 190.486 52.9701C190.502 52.9505 190.518 52.9114 190.533 52.8918C190.581 52.833 190.612 52.7743 190.644 52.6959C190.644 52.6959 190.66 52.6568 190.676 52.6568C190.707 52.598 190.755 52.5197 190.786 52.4413C190.786 52.4217 190.818 52.3826 190.833 52.363C190.865 52.3042 190.881 52.2651 190.912 52.2063C190.912 52.2063 190.928 52.1671 190.944 52.1475C190.944 52.1475 190.944 52.1084 190.96 52.1084C190.976 52.0692 191.007 52.0104 191.023 51.9713C191.023 51.9713 191.023 51.9321 191.039 51.9125C191.039 51.9125 191.039 51.8734 191.055 51.8538C191.07 51.8146 191.086 51.7558 191.102 51.7167C191.102 51.6775 191.133 51.6383 191.149 51.5992C191.149 51.56 191.181 51.5012 191.197 51.4621C191.197 51.4425 191.197 51.4229 191.212 51.4033C191.212 51.4033 191.212 51.3641 191.228 51.3445C191.228 51.3054 191.26 51.2466 191.276 51.2075C191.276 51.1879 191.276 51.1487 191.291 51.1291C191.291 51.1291 191.291 51.1095 191.291 51.0899C191.291 51.0508 191.307 50.992 191.323 50.9528C191.323 50.9528 191.339 50.8745 191.355 50.8353C191.355 50.8353 191.37 50.7374 191.386 50.6982C191.386 50.6591 191.386 50.6199 191.402 50.5807C191.402 50.5416 191.402 50.4828 191.418 50.4436C191.418 50.4436 191.418 50.4045 191.418 50.3849C191.418 50.3653 191.418 50.3457 191.418 50.3261C191.418 50.2869 191.418 50.2282 191.418 50.189C191.418 50.1498 191.418 50.1303 191.418 50.0911C191.418 50.0519 191.418 49.9932 191.418 49.954C191.418 49.954 191.418 49.8757 191.418 49.8365L191.465 49.8952Z" fill="#FED1A7"/>
<path d="M155.621 83.386C159.773 81.2512 164.621 80.4874 168.206 79.8607L168.316 80.6637L171.727 80.0761H171.837V66.0922C171.664 65.9551 171.506 65.7984 171.348 65.6417C171.222 65.5242 171.095 65.3871 170.985 65.25C170.953 65.2109 170.922 65.1913 170.906 65.1521C170.606 64.8192 170.337 64.447 170.069 64.0749C168.348 61.8226 167.037 58.7673 166.169 55.3399C166.106 55.3399 166.058 55.3007 165.995 55.2811C165.979 55.2811 165.963 55.2811 165.948 55.2616C165.837 55.2224 165.742 55.1636 165.632 55.1245C165.632 55.1245 165.6 55.1245 165.584 55.1049C165.521 55.0657 165.458 55.0461 165.395 55.0069C165.395 55.0069 165.363 54.9874 165.348 54.9678C165.316 54.9678 165.3 54.9286 165.269 54.9286C165.253 54.9286 165.221 54.909 165.205 54.8894C165.19 54.8894 165.158 54.8699 165.142 54.8503C165.095 54.8307 165.063 54.7915 165.016 54.7523C164.984 54.7523 164.969 54.7132 164.937 54.6936C164.937 54.6936 164.89 54.6544 164.874 54.6348C164.858 54.6348 164.842 54.6152 164.826 54.5957C164.795 54.5761 164.779 54.5565 164.748 54.5369C164.716 54.4977 164.669 54.4781 164.637 54.439C164.605 54.4194 164.59 54.3998 164.558 54.3802C164.526 54.3606 164.495 54.3215 164.463 54.3019C164.432 54.2823 164.416 54.2627 164.384 54.2235C164.353 54.1844 164.321 54.1648 164.29 54.1256C164.29 54.1256 164.242 54.0669 164.211 54.0473C164.179 54.0081 164.147 53.9689 164.116 53.9493C164.084 53.9298 164.069 53.8906 164.037 53.871C164.037 53.871 164.005 53.8318 163.99 53.8122C163.974 53.7927 163.958 53.7731 163.942 53.7535C163.942 53.7535 163.895 53.6947 163.863 53.6751C163.847 53.6556 163.832 53.636 163.816 53.6164C163.816 53.6164 163.784 53.5772 163.768 53.5576C163.753 53.5185 163.721 53.4989 163.705 53.4597C163.705 53.4597 163.674 53.4205 163.658 53.401C163.658 53.3814 163.626 53.3618 163.611 53.3422C163.611 53.3422 163.563 53.2834 163.547 53.2443C163.547 53.2443 163.547 53.2443 163.532 53.2247C163.5 53.1855 163.484 53.1463 163.453 53.1072C163.437 53.0876 163.421 53.0484 163.405 53.0288C163.358 52.9701 163.326 52.8917 163.295 52.833C163.295 52.833 163.279 52.7938 163.263 52.7938C163.247 52.7546 163.232 52.7351 163.216 52.6959C163.2 52.6567 163.168 52.6175 163.153 52.5784C163.153 52.5784 163.121 52.5196 163.105 52.5C163.105 52.5 163.105 52.4804 163.09 52.4609C163.074 52.4217 163.058 52.3825 163.042 52.3434C163.042 52.3042 163.011 52.2846 162.995 52.2454C162.979 52.2063 162.947 52.1475 162.932 52.1083C162.932 52.0692 162.9 52.03 162.884 52.0104C162.868 51.9712 162.853 51.9125 162.837 51.8733C162.837 51.8341 162.805 51.795 162.789 51.7558C162.774 51.7166 162.758 51.6579 162.742 51.6187C162.742 51.5795 162.711 51.5404 162.711 51.5012C162.711 51.4816 162.711 51.462 162.695 51.4228C162.695 51.4033 162.695 51.3837 162.679 51.3641C162.679 51.3249 162.663 51.2857 162.647 51.2466C162.647 51.2466 162.647 51.2074 162.647 51.1878C162.647 51.1487 162.647 51.1291 162.632 51.0899C162.632 51.0507 162.616 51.0116 162.6 50.9724C162.6 50.9528 162.6 50.9332 162.6 50.894C162.6 50.8745 162.6 50.8549 162.6 50.8353C162.6 50.8353 162.6 50.7569 162.584 50.7178C162.584 50.7178 162.584 50.659 162.584 50.6394C162.584 50.6394 162.584 50.6003 162.584 50.5807C162.584 50.5415 162.584 50.5023 162.584 50.4828C162.584 50.4828 162.584 50.4436 162.584 50.424C162.584 50.4044 162.584 50.3652 162.584 50.3457C162.584 50.3065 162.584 50.2673 162.584 50.2281C162.584 50.189 162.584 50.1302 162.584 50.091C162.584 50.0519 162.584 50.0127 162.584 49.9735C162.584 49.9148 162.584 49.8756 162.584 49.8169C162.584 49.7777 162.584 49.7581 162.584 49.7189C162.584 49.6798 162.584 49.6602 162.584 49.621C162.584 49.6014 162.584 49.5622 162.584 49.5427C162.584 49.5231 162.584 49.4839 162.584 49.4643C162.584 49.4643 162.6 49.386 162.6 49.3468C162.6 49.3076 162.616 49.2685 162.632 49.2097C162.995 47.6821 163.579 47.3295 164.1 47.3883C164.211 47.3883 164.337 47.4275 164.432 47.4862C164.479 47.5058 164.542 47.5254 164.59 47.5645C164.795 47.6821 164.969 47.8192 165.079 47.9367C165.111 47.9758 165.142 48.015 165.174 48.0346C165.205 48.0738 165.237 48.0933 165.237 48.0933C165.379 48.1325 165.521 48.1521 165.663 48.1717C165.805 48.1717 165.948 48.2109 166.09 48.2109C166.184 48.2109 166.279 48.2109 166.39 48.2109C166.548 48.2109 166.721 48.1717 166.895 48.1521C166.942 48.1521 167.006 48.1521 167.053 48.1325C167.242 48.0933 167.416 48.0542 167.606 47.9954C167.89 47.9171 168.174 47.7996 168.474 47.6821C168.537 47.6625 168.585 47.6429 168.648 47.6037C169.122 47.3883 169.595 47.1141 170.069 46.8203C170.227 46.7224 170.385 46.6049 170.543 46.5069C170.78 46.3307 171.016 46.1544 171.269 45.9781C171.395 45.8802 171.506 45.8019 171.632 45.7039C172.169 45.2731 172.722 44.7834 173.243 44.2742C173.417 44.098 173.59 43.9413 173.78 43.765C174.932 42.6291 176.038 41.3756 177.048 40.1613C179.259 37.4781 180.996 35.9309 181.707 34.8537C181.833 34.9712 181.991 35.1083 182.149 35.265C182.307 35.4217 182.496 35.5979 182.67 35.7938C182.701 35.833 182.812 35.9505 182.986 36.1659C183.112 36.3226 183.286 36.5185 183.475 36.7535C183.791 37.1452 184.186 37.674 184.596 38.2615C184.77 38.4966 184.944 38.7512 185.117 39.0254C185.212 39.1625 185.291 39.2996 185.386 39.4367C185.56 39.7109 185.749 40.0046 185.923 40.2984C186.175 40.7293 186.428 41.1602 186.665 41.6302C186.744 41.7869 186.823 41.9436 186.902 42.1003C187.012 42.3157 187.107 42.5115 187.202 42.727C187.233 42.7857 187.249 42.8249 187.281 42.8837C187.375 43.0991 187.486 43.3145 187.565 43.53C187.66 43.7454 187.739 43.9609 187.833 44.1959C187.849 44.2546 187.881 44.3134 187.897 44.3721C187.976 44.5876 188.07 44.8226 188.133 45.0576C188.212 45.2927 188.276 45.5081 188.339 45.7431C188.354 45.8019 188.37 45.8606 188.386 45.9194C188.449 46.1544 188.512 46.3698 188.56 46.6049C188.607 46.8399 188.655 47.0553 188.686 47.2904C188.686 47.3491 188.702 47.4079 188.718 47.4666C188.749 47.7016 188.781 47.9367 188.797 48.1521C188.797 48.1521 188.828 48.1129 188.86 48.0738C188.86 48.0738 188.891 48.0542 188.907 48.0346C188.923 48.0346 188.939 47.9954 188.955 47.9758C189.033 47.9171 189.128 47.8192 189.223 47.7408C189.27 47.7016 189.318 47.6821 189.365 47.6429C189.397 47.6429 189.412 47.6233 189.444 47.6037C189.491 47.5841 189.539 47.545 189.602 47.5254C189.839 47.4274 190.123 47.3883 190.391 47.5058C190.455 47.5254 190.518 47.5645 190.565 47.6037C190.707 47.7016 190.849 47.8779 190.992 48.0933C191.039 48.1717 191.07 48.2304 191.102 48.3284C191.134 48.4067 191.165 48.4851 191.197 48.5634C191.197 48.583 191.213 48.6222 191.228 48.6417C191.244 48.7005 191.276 48.7788 191.292 48.8376C191.292 48.8768 191.307 48.8963 191.323 48.9355C191.355 49.0334 191.386 49.151 191.402 49.2489C191.418 49.3272 191.434 49.4056 191.449 49.4839C191.449 49.5035 191.449 49.5427 191.449 49.5622C191.449 49.621 191.465 49.6798 191.465 49.7385C191.465 49.7385 191.465 49.7581 191.465 49.7777C191.465 49.7973 191.465 49.8169 191.465 49.8364C191.465 49.8952 191.465 49.9344 191.465 49.9931C191.465 49.9931 191.465 50.0715 191.465 50.1106C191.465 50.1106 191.465 50.2086 191.465 50.2477C191.465 50.2869 191.465 50.3065 191.465 50.3457C191.465 50.3848 191.465 50.4436 191.465 50.4828C191.465 50.5023 191.465 50.5219 191.465 50.5415C191.465 50.5415 191.465 50.5807 191.465 50.6003C191.465 50.6394 191.465 50.6982 191.449 50.7374C191.449 50.7765 191.449 50.8157 191.434 50.8549C191.434 50.894 191.418 50.9528 191.402 50.992C191.402 50.992 191.402 51.0703 191.371 51.1095C191.371 51.1095 191.355 51.2074 191.339 51.2466C191.339 51.2466 191.339 51.2662 191.339 51.2857C191.339 51.3053 191.339 51.3445 191.323 51.3641C191.323 51.4033 191.292 51.462 191.276 51.5012C191.276 51.5012 191.276 51.5404 191.26 51.5599C191.26 51.5795 191.26 51.5991 191.244 51.6187C191.244 51.6579 191.213 51.7166 191.197 51.7558C191.197 51.795 191.165 51.8341 191.149 51.8733C191.149 51.8733 191.118 51.9712 191.102 52.0104C191.102 52.0104 191.102 52.0496 191.086 52.0692C191.086 52.0692 191.086 52.1083 191.07 52.1279C191.055 52.1671 191.023 52.2258 191.007 52.265C191.007 52.265 191.007 52.3042 190.992 52.3042C190.992 52.3042 190.992 52.3434 190.96 52.3629C190.928 52.4217 190.913 52.4609 190.881 52.5196C190.881 52.5392 190.849 52.5784 190.834 52.598C190.802 52.6763 190.755 52.7351 190.723 52.8134C190.723 52.8134 190.707 52.8526 190.692 52.8526C190.66 52.9113 190.613 52.9897 190.581 53.0484C190.565 53.068 190.549 53.1072 190.534 53.1268C190.502 53.1659 190.47 53.2247 190.439 53.2639C190.423 53.303 190.391 53.3226 190.376 53.3618C190.344 53.401 190.313 53.4401 190.281 53.4793C190.281 53.4793 190.281 53.4793 190.265 53.4989C190.249 53.5185 190.234 53.5381 190.218 53.5576C190.218 53.5576 190.155 53.636 190.123 53.6751C190.107 53.6947 190.076 53.7339 190.044 53.7535C190.013 53.7927 189.981 53.8318 189.949 53.871C189.949 53.871 189.902 53.9298 189.87 53.9493C189.839 53.9885 189.807 54.0277 189.776 54.0473C189.744 54.0669 189.728 54.106 189.697 54.1256C189.665 54.1648 189.634 54.1844 189.602 54.2235C189.602 54.2235 189.555 54.2823 189.523 54.3019C189.523 54.3019 189.46 54.3606 189.412 54.3998C189.381 54.4194 189.365 54.439 189.334 54.4586C189.302 54.4977 189.255 54.5173 189.223 54.5565C189.191 54.5761 189.176 54.5957 189.144 54.6152C189.112 54.6544 189.065 54.674 189.018 54.7132C189.018 54.7132 189.002 54.7132 188.986 54.7328C188.986 54.7328 188.955 54.7523 188.939 54.7719C188.939 54.7719 188.86 54.8307 188.812 54.8699C188.812 54.8699 188.812 54.8699 188.797 54.8699C188.797 54.8699 188.765 54.8699 188.749 54.8894C188.702 54.9286 188.655 54.9482 188.607 54.9874C188.607 54.9874 188.591 54.9874 188.576 54.9874C188.576 54.9874 188.576 54.9874 188.56 54.9874C188.56 54.9874 188.433 55.0657 188.37 55.0853C188.228 55.1636 188.102 55.2224 187.96 55.2811C187.897 55.3007 187.849 55.3203 187.786 55.3399C187.723 55.5945 187.66 55.8491 187.581 56.1037C187.565 56.1821 187.533 56.2604 187.518 56.3387C187.47 56.515 187.407 56.6913 187.36 56.8871C187.328 56.9655 187.312 57.0438 187.281 57.1222C187.218 57.3376 187.139 57.553 187.075 57.7685C187.075 57.8076 187.06 57.8272 187.044 57.8664C186.965 58.1014 186.886 58.3364 186.807 58.5519C186.775 58.6302 186.744 58.7086 186.712 58.7869C186.649 58.9436 186.602 59.1003 186.539 59.2374C186.507 59.3157 186.475 59.4136 186.428 59.492C186.365 59.6487 186.286 59.8249 186.223 59.9816C186.191 60.0404 186.16 60.1187 186.144 60.1775C186.049 60.3733 185.97 60.5692 185.875 60.765C185.828 60.8629 185.796 60.9413 185.749 61.0196C185.686 61.1371 185.623 61.2546 185.575 61.3722C185.528 61.4701 185.481 61.5484 185.433 61.6464C185.37 61.7639 185.307 61.8814 185.244 61.9989C185.196 62.0968 185.133 62.1947 185.086 62.2927C184.991 62.4494 184.896 62.606 184.802 62.7627C184.754 62.8411 184.691 62.939 184.644 63.0173C184.581 63.1152 184.517 63.2132 184.454 63.3111C184.391 63.3894 184.344 63.4874 184.281 63.5657C184.217 63.6636 184.138 63.7616 184.075 63.8399C184.012 63.9182 183.965 63.9966 183.902 64.0749C183.38 64.8388 182.796 65.5242 182.133 66.0922V80.0761H182.828L182.859 80.174L184.991 80.4482L185.054 79.8802C188.623 80.507 193.423 81.2708 197.56 83.3664C197.671 83.2685 197.766 83.1901 197.876 83.1118C195.555 75.1014 191.481 76.3157 191.481 70.0093C191.481 61.8618 194.45 60.5887 194.655 52.7351C194.876 43.6083 193.06 29.9182 186.365 24.591C184.817 23.3572 183.902 23.2396 182.907 23.2396C180.601 22.2996 178.075 21.7708 175.801 21.7708C168.869 21.7903 159.537 28.0185 157.152 52.6371C156.631 58.0035 158.337 61.9205 154.563 65.4263C150.71 68.9908 145.957 71.4586 146.462 80.4678C146.588 82.8572 145.578 84.6786 144.141 86.03C139.972 90.0254 137.635 96.5277 138.819 107.848C138.946 109.082 139.104 110.198 139.293 111.217C142.404 99.2501 145.988 88.8699 148.246 85.3249C149.936 82.4263 153.931 81.8192 155.684 83.4448L155.621 83.386Z" fill="#373463"/>
<g clip-path="url(#clip1_2_1778)">
<path d="M255.013 87.6607L254.429 83.461L257.461 79.8008L260.511 83.461L260.474 83.6956V83.719L259.928 87.6607L260.813 115.839L267.554 78.5573L265.595 72.1989L264.164 73.3017L258.817 77.3372L257.536 77.9003L251.436 73.3017L249.986 72.1989L247.387 78.5573L254.147 114.971L255.013 87.6607Z" fill="white"/>
<path d="M259.927 87.6605L260.473 83.7188V83.6954L260.511 83.4608L257.461 79.8006L254.429 83.4608L255.013 87.6605L254.147 114.971L257.611 133.6L260.812 115.839L259.927 87.6605Z" fill="#485782"/>
<path d="M319.938 85.69C321.18 82.5695 322.329 80.3171 320.484 78.3228C319.862 77.5485 318.657 74.78 317.433 75.1084C316.755 75.2961 316.812 73.5599 315.569 72.7622C314.496 72.0583 313.988 72.8091 313.988 72.8091L314.044 63.471C314.044 61.1248 314.345 57.5115 312.99 57.535C311.389 57.5585 310.843 59.1304 310.749 64.9726L310.146 75.4134L307.454 79.144C306.079 75.6715 304.554 72.5745 303.255 73.9118C301.955 75.2492 302.746 77.6424 304.592 81.4668L308.565 91.1803L307.36 104.202L316.454 105.305L316.228 93.5734C317.302 91.8607 319.448 86.7928 319.9 85.69H319.938Z" fill="#FED1A7"/>
<path d="M308.244 80.0824C308.018 79.9886 307.773 80.1293 307.679 80.4109C307.604 80.6924 307.717 80.9975 307.943 81.1148C307.98 81.1148 311.596 82.8275 311.822 86.3469C311.822 86.6285 312.029 86.8396 312.255 86.8396C312.255 86.8396 312.274 86.8396 312.292 86.8396C312.537 86.8162 312.707 86.5581 312.688 86.2531C312.424 82.0533 308.414 80.1763 308.244 80.1059V80.0824Z" fill="#E69A52"/>
<path d="M315.927 76.4223C315.738 76.2581 315.456 76.305 315.324 76.5396L312.726 81.0679C312.594 81.3025 312.632 81.6545 312.82 81.8187C312.895 81.8891 312.989 81.9125 313.065 81.9125C313.196 81.9125 313.328 81.8421 313.422 81.6779L316.021 77.1496C316.153 76.915 316.115 76.5631 315.927 76.3988V76.4223Z" fill="#E69A52"/>
<path d="M317.904 78.0879C317.715 77.9002 317.433 77.9471 317.301 78.1817L314.759 82.3346C314.608 82.5692 314.646 82.9211 314.834 83.0854C314.91 83.1558 315.004 83.2027 315.098 83.2027C315.23 83.2027 315.362 83.1323 315.437 82.9915L317.979 78.8387C318.129 78.604 318.092 78.2521 317.904 78.0879Z" fill="#E69A52"/>
<path d="M319.523 80.0591C319.335 79.8714 319.053 79.9183 318.921 80.1529L316.793 83.6019C316.642 83.8366 316.68 84.1885 316.868 84.3527C316.944 84.4231 317.038 84.47 317.132 84.47C317.264 84.47 317.396 84.3997 317.471 84.2589L319.599 80.8099C319.749 80.5753 319.712 80.2233 319.523 80.0591Z" fill="#E69A52"/>
<path d="M316.511 105.281L307.416 104.179L306.324 104.038L303.048 130.081C300.016 119.406 289.698 85.8309 283.409 82.3819C281.902 81.7249 280.603 81.6311 279.435 82.0065C275.594 79.9418 271.132 79.1675 267.554 78.5575L260.813 115.863L257.612 133.601L254.147 114.971L247.388 78.5575C243.603 79.2144 238.801 80.0591 234.809 82.4053C233.416 81.9126 231.703 82.0534 229.631 82.9684C224.001 85.8074 205.247 125.506 198.318 140.452C196.661 144.041 196.265 148.312 197.207 152.277L210.387 207.273L212.722 206.311L218.635 203.847L219.463 203.495L213.871 151.432C213.871 151.432 221.064 142.047 227.522 131.7C227.635 141.062 227.729 149.766 227.711 154.06C227.654 168.818 222.024 289.157 221.836 291.269C221.836 291.269 224.039 291.808 227.729 292.465C232.569 293.333 239.931 294.436 248.216 294.859C248.8 294.882 249.402 294.929 250.005 294.929C253.771 295.046 257.311 294.647 257.612 290.049C257.612 290.049 257.612 289.603 257.612 288.829C257.913 293.287 261.453 294.905 265.163 295.14C265.841 295.187 266.537 295.187 267.215 295.14C276.611 294.647 285.047 293.31 289.867 292.395C292.541 291.902 294.085 291.55 294.085 291.55C293.897 289.462 287.25 168.794 287.212 154.036C287.212 152.112 287.212 149.32 287.25 145.965C291.166 151.62 295.572 157.884 299.508 163.985C304.799 172.149 316.887 171.211 317.885 159.902L319.147 105.61L316.492 105.281H316.511Z" fill="#F4F4F4"/>
<path d="M272.262 41.9795L271.584 44.6777V40.6421C270.077 39.0936 267.385 34.2369 267.385 34.2369C267.253 33.5565 250.608 28.1835 250.608 28.1835L244.356 40.6421L244.601 44.6777L243.66 42.3314C242.021 40.4544 239.084 40.0321 239.103 44.4665C239.141 48.9948 244.921 51.2003 244.921 51.2003C246.428 59.0368 250.457 63.1192 252.83 64.6208C252.83 64.6208 252.66 65.6532 252.397 67.1783C252.114 68.8676 251.737 71.1669 251.399 73.302L257.763 78.1118L264.127 73.302C263.788 71.1903 263.412 68.891 263.129 67.1783C262.885 65.6532 262.696 64.6208 262.696 64.6208C265.05 63.1427 269.08 59.0602 270.605 51.2003C270.605 51.2003 276.404 48.9948 276.423 44.4665C276.461 40.3137 273.881 40.431 272.205 41.9795H272.262Z" fill="#FED1A7"/>
<path d="M268.1 14.4344C256.614 3.54778 248.706 16.1706 248.706 16.1706C248.706 16.1706 245.241 14.5986 242.153 21.4028C240.138 25.8607 240.27 31.3743 242.906 40.1728C243.038 40.5951 243.151 40.994 243.302 41.4398L243.659 42.3313L244.601 44.6776L244.356 40.642L250.607 28.1834C250.607 28.1834 267.234 33.5564 267.385 34.2368C267.385 34.2368 270.096 39.0935 271.584 40.642V44.6776L272.261 41.9794L272.619 40.5482L272.826 39.7035C272.826 39.7035 279.586 25.321 268.1 14.4344V14.4344Z" fill="#373463"/>
<path d="M242.925 103.686L244.845 98.3364C244.921 98.1018 244.883 97.8202 244.732 97.6325L241.437 93.5266L245.109 81.0445C245.203 80.716 245.071 80.3641 244.808 80.2468C244.544 80.1295 244.261 80.2937 244.167 80.6222L240.383 93.4797C240.307 93.7143 240.364 93.9724 240.496 94.1366L243.772 98.2191L241.889 103.475C241.832 103.662 241.832 103.874 241.908 104.038L255.258 133.225C255.352 133.436 255.522 133.554 255.691 133.554C255.766 133.554 255.86 133.53 255.936 133.46C256.181 133.296 256.256 132.897 256.124 132.615L242.906 103.709L242.925 103.686Z" fill="#D8D8D8"/>
<path d="M274.822 93.4564L271.037 80.599C270.943 80.2705 270.661 80.1062 270.397 80.2236C270.134 80.3409 270.002 80.6928 270.096 81.0213L273.768 93.5033L270.473 97.6093C270.322 97.797 270.284 98.0785 270.36 98.3132L272.28 103.663L259.062 132.568C258.93 132.873 259.005 133.249 259.25 133.413C259.325 133.46 259.42 133.507 259.495 133.507C259.664 133.507 259.834 133.39 259.928 133.178L273.278 103.991C273.353 103.827 273.372 103.616 273.297 103.428L271.414 98.1724L274.69 94.0899C274.822 93.9257 274.879 93.6676 274.803 93.433L274.822 93.4564Z" fill="#D8D8D8"/>
<path d="M258.308 154.412C257.197 154.412 256.294 155.538 256.294 156.923C256.294 158.307 257.197 159.433 258.308 159.433C259.419 159.433 260.323 158.307 260.323 156.923C260.323 155.538 259.419 154.412 258.308 154.412ZM258.308 158.495C257.612 158.495 257.047 157.791 257.047 156.923C257.047 156.054 257.612 155.351 258.308 155.351C259.005 155.351 259.57 156.054 259.57 156.923C259.57 157.791 259.005 158.495 258.308 158.495Z" fill="#D8D8D8"/>
<path d="M270.171 123.535C269.682 123.089 269.098 122.831 268.439 122.808C268.439 122.808 268.401 122.808 268.382 122.808C266.707 122.808 265.351 124.497 265.351 126.585C265.351 128.674 266.707 130.363 268.382 130.363C270.058 130.363 271.414 128.674 271.414 126.585C271.414 125.318 270.906 124.216 270.152 123.535H270.171Z" fill="#E9F4F1"/>
<path d="M238.312 99.5098C238.199 99.5567 238.105 99.5802 237.992 99.5802C237.785 99.5802 237.578 99.4863 237.408 99.3221C237.559 103.1 238.406 117.951 242.624 122.268C243.434 123.09 244.319 123.512 245.279 123.512C245.505 123.512 245.75 123.488 245.994 123.442C246.333 123.371 246.541 122.972 246.503 122.573C246.446 122.151 246.145 121.893 245.806 121.94C244.921 122.128 244.149 121.846 243.415 121.095C239.63 117.224 238.802 102.865 238.651 99.2517C238.557 99.369 238.463 99.4394 238.331 99.5098H238.312Z" fill="#B5AFA7"/>
<path d="M247.971 95.7794C247.971 95.7794 247.934 95.9202 247.896 95.9906C247.783 96.2252 247.595 96.4129 247.35 96.5068C247.199 96.5537 247.049 96.5537 246.898 96.5068C247.049 96.8822 247.275 97.3749 247.501 97.9849C247.614 98.2664 247.726 98.548 247.839 98.853C249.647 103.616 252.509 112.743 250.325 118.092C250.212 118.397 250.061 118.679 249.911 118.96C249.478 119.735 248.913 120.415 248.178 120.955C247.896 121.166 247.783 121.635 247.952 121.987C248.065 122.222 248.273 122.362 248.48 122.362C248.593 122.362 248.687 122.339 248.781 122.269C249.459 121.776 250.024 121.166 250.494 120.509C250.664 120.274 250.815 120.016 250.946 119.782C254.825 112.766 249.402 99.1815 247.934 95.7794H247.971Z" fill="#B5AFA7"/>
<path d="M242.266 79.5665C241.494 80.9508 240.872 82.6167 240.458 84.4937C239.78 87.5673 239.799 90.3124 239.818 91.0866C239.196 91.5324 238.613 92.0955 238.142 92.7525C236.88 94.5356 236.523 96.7646 237.144 98.8293C237.2 99.017 237.295 99.1812 237.426 99.2985C237.596 99.4628 237.784 99.5566 238.01 99.5566C238.123 99.5566 238.217 99.5566 238.33 99.4862C238.462 99.4393 238.556 99.3454 238.65 99.2281C238.895 98.9231 238.989 98.4539 238.857 98.0081C238.33 96.2953 239.046 94.911 239.516 94.2306C240.59 92.7056 242.379 91.9078 243.791 92.3067C244.977 92.6586 245.824 93.8083 246.239 95.6618C246.333 96.0842 246.596 96.3657 246.916 96.4596C247.067 96.5065 247.218 96.5065 247.368 96.4596C247.613 96.3892 247.783 96.178 247.914 95.9434C247.952 95.873 247.971 95.8026 247.99 95.7322C248.046 95.5211 248.065 95.2864 248.009 95.0518C247.651 93.4329 247.011 92.1659 246.163 91.2743C245.843 90.9459 245.504 90.6878 245.128 90.4766C244.845 90.3124 244.544 90.1716 244.224 90.0778C243.414 89.8431 242.529 89.8901 241.663 90.1247C241.701 87.8488 242.134 82.1474 245.241 78.8861C245.862 78.2292 246.578 77.6895 247.425 77.2672C247.67 77.0795 247.896 76.9622 248.103 76.8449L249.214 74.1232C248.009 74.5221 247.274 74.874 247.18 74.921C245.184 75.7421 243.546 77.2907 242.322 79.4727L242.266 79.5665Z" fill="#6D6760"/>
<path d="M273.127 79.6842C271.32 76.3525 268.985 75.3436 268.42 75.1559C267.629 74.7805 266.932 74.5928 266.311 74.499L267.121 77.1737C267.328 77.2206 267.573 77.291 267.798 77.3849C267.911 77.4318 268.985 77.7837 270.171 79.0507C272.092 81.0919 274.295 85.5498 273.259 95.0287C272.845 98.7358 272.393 102.185 271.903 105.305C271.866 105.563 271.828 105.821 271.79 106.08C271.602 107.206 271.433 108.308 271.244 109.341C271.207 109.599 271.15 109.857 271.112 110.115C270.039 116.192 269.041 120.462 268.627 122.104C268.552 122.104 268.476 122.104 268.382 122.104C266.367 122.104 264.729 124.146 264.729 126.656C264.729 129.167 266.367 131.208 268.382 131.208C270.397 131.208 272.035 129.167 272.035 126.656C272.035 125.061 271.357 123.653 270.359 122.832C270.792 121.096 271.866 116.52 273.014 109.951C273.052 109.693 273.108 109.435 273.146 109.177C273.316 108.144 273.504 107.041 273.673 105.915C273.711 105.657 273.749 105.399 273.786 105.141C274.238 102.138 274.671 98.8765 275.067 95.3572C275.914 87.5441 274.728 82.6874 273.127 79.7311V79.6842ZM271.433 126.609C271.433 128.697 270.077 130.387 268.401 130.387C266.725 130.387 265.369 128.697 265.369 126.609C265.369 124.521 266.725 122.832 268.401 122.832C268.401 122.832 268.439 122.832 268.458 122.832C269.098 122.832 269.7 123.113 270.19 123.559C270.943 124.24 271.451 125.366 271.451 126.609H271.433Z" fill="#6D6760"/>
</g>
</g>
<defs>
<clipPath id="clip0_2_1778">
<rect width="516" height="160" fill="white"/>
</clipPath>
<clipPath id="clip1_2_1778">
<rect width="124.746" height="425" fill="white" transform="translate(196.717 10)"/>
</clipPath>
</defs>
</svg>
