<svg width="27" height="24" viewBox="0 0 27 24" fill="none" xmlns="http://www.w3.org/2000/svg">
<path d="M13.3338 0C20.6805 0 26.6668 5.38667 26.6668 12C26.6668 18.6133 20.6805 24 13.3338 24C11.2539 24 9.20079 23.5597 7.34751 22.7197L2.86704 23.9199C2.66716 23.9732 2.46731 24 2.26743 24C1.66743 24 1.10684 23.773 0.666845 23.333C0.0804777 22.7597 -0.132378 21.933 0.0809072 21.1465L1.20102 16.96C0.401024 15.3866 0.000829059 13.72 0.000829059 12C0.000829275 5.38671 5.98723 6.32819e-05 13.3338 0ZM13.3338 2.40039C7.30723 2.40045 2.40088 6.7067 2.38755 12C2.38755 13.4666 2.77377 14.8933 3.52036 16.2266L3.76059 16.6533L2.45395 21.5469L7.58774 20.1729L7.98716 20.373C9.61379 21.173 11.4672 21.5996 13.3338 21.5996C19.3605 21.5996 24.2674 17.2933 24.2674 12C24.2674 6.70667 19.3605 2.40039 13.3338 2.40039ZM7.46763 10.667C8.20386 10.6672 8.80063 11.2637 8.80063 12C8.80063 12.7363 8.20386 13.3328 7.46763 13.333C6.73125 13.333 6.13364 12.7364 6.13364 12C6.13364 11.2636 6.73125 10.667 7.46763 10.667ZM13.3338 10.667C14.0702 10.667 14.6668 11.2636 14.6668 12C14.6668 12.7364 14.0702 13.333 13.3338 13.333C12.5975 13.3329 12.0008 12.7363 12.0008 12C12.0008 11.2637 12.5975 10.6671 13.3338 10.667ZM19.201 10.667C19.9372 10.6672 20.534 11.2638 20.534 12C20.534 12.7362 19.9372 13.3328 19.201 13.333C18.4646 13.333 17.867 12.7364 17.867 12C17.867 11.2636 18.4646 10.667 19.201 10.667Z" fill="#607C9C"/>
</svg>
