<svg width="24" height="24" viewBox="0 0 24 24" fill="none" xmlns="http://www.w3.org/2000/svg">
<path d="M2.22697 23.9954C1.73363 23.9954 1.25363 23.8354 0.840299 23.5021C0.160299 22.9554 -0.146368 22.0887 0.0669653 21.2354L1.6803 14.542C1.86697 13.782 2.4403 13.1554 3.2003 12.9287L6.26697 11.982L3.2003 11.0354C2.45363 10.8087 1.86697 10.1821 1.6803 9.42205L0.0669653 2.74205C-0.146368 1.88872 0.160299 1.02205 0.840299 0.488717C1.53363 -0.0579499 2.4403 -0.151283 3.22697 0.235384L22.7736 10.0087C23.5336 10.3821 24.0003 11.142 24.0003 11.9954C24.0003 12.8487 23.5336 13.6087 22.7736 13.982L3.22697 23.7554C2.90697 23.9154 2.5603 23.9954 2.22697 23.9954ZM3.98697 15.1954L2.49363 21.4354L21.387 11.982L2.4803 2.54205L3.97363 8.78205L14.427 11.982L3.97363 15.1821L3.98697 15.1954Z" fill="#607C9C"/>
</svg>
