<svg width="25" height="27" viewBox="0 0 25 27" fill="none" xmlns="http://www.w3.org/2000/svg">
<g clip-path="url(#clip0_7_5468)">
<path d="M8.43402 22.3073L6.9873 21.7766L9.34341 25.7729C9.359 25.7993 9.37563 25.8246 9.39226 25.85C9.39746 25.8574 9.40265 25.8648 9.40785 25.8721C9.42032 25.8901 9.43331 25.9081 9.44682 25.9255C9.45254 25.9329 9.45774 25.9397 9.46345 25.9471C9.4806 25.9683 9.49775 25.9894 9.51542 26.0094C9.51698 26.0116 9.51854 26.0131 9.52009 26.0152C9.53984 26.0369 9.56011 26.058 9.58089 26.0786C9.58661 26.0844 9.59285 26.0902 9.59856 26.0955C9.61415 26.1103 9.62974 26.1251 9.64637 26.1388C9.65313 26.1446 9.65988 26.1504 9.66664 26.1562C9.68534 26.1721 9.70509 26.1879 9.72432 26.2027C9.72744 26.2053 9.73055 26.208 9.73419 26.2101C9.75706 26.227 9.78044 26.2434 9.80434 26.2592C9.81058 26.2634 9.81734 26.2671 9.82357 26.2714C9.84176 26.283 9.85995 26.2941 9.87866 26.3046C9.88645 26.3088 9.89372 26.3131 9.90152 26.3173C9.92179 26.3284 9.94257 26.3395 9.96336 26.3495C9.96804 26.3516 9.97271 26.3543 9.97739 26.3564C10.0029 26.3685 10.0288 26.3801 10.0548 26.3907C10.0611 26.3933 10.0678 26.396 10.074 26.3981C10.0943 26.406 10.1146 26.4134 10.1348 26.4203C10.1432 26.4229 10.1515 26.4261 10.1598 26.4287C10.1806 26.4356 10.2019 26.4419 10.2232 26.4477C10.2294 26.4493 10.2351 26.4514 10.2414 26.453C10.2684 26.4599 10.2959 26.4662 10.323 26.4715C10.3292 26.4725 10.336 26.4736 10.3422 26.4746C10.3635 26.4789 10.3853 26.482 10.4066 26.4852C10.4155 26.4863 10.4243 26.4873 10.4331 26.4884C10.4544 26.491 10.4757 26.4931 10.497 26.4947C10.5043 26.4952 10.5111 26.4958 10.5183 26.4963C10.5464 26.4979 10.5745 26.4989 10.6025 26.4989C10.6077 26.4989 10.6134 26.4989 10.6186 26.4989C10.6425 26.4989 10.6659 26.4979 10.6898 26.4963C10.6987 26.4963 10.707 26.4952 10.7158 26.4947C10.7387 26.4931 10.7621 26.4905 10.7849 26.4879C10.7912 26.4873 10.7974 26.4863 10.8036 26.4857C10.8322 26.4815 10.8608 26.4768 10.8894 26.471C10.8961 26.4694 10.9034 26.4678 10.9102 26.4662C10.9325 26.4614 10.9543 26.4562 10.9767 26.4504C10.9855 26.4482 10.9938 26.4456 11.0027 26.4435C11.0271 26.4366 11.0515 26.4287 11.0759 26.4203C11.0801 26.4187 11.0843 26.4176 11.0884 26.416C11.1165 26.406 11.144 26.3949 11.1716 26.3833C11.1788 26.3801 11.1866 26.3764 11.1939 26.3733C11.2147 26.3638 11.236 26.3537 11.2568 26.3437C11.2646 26.34 11.2724 26.3358 11.2802 26.3315C11.3072 26.3173 11.3342 26.3025 11.3607 26.2861L12.8407 25.3853C12.6229 25.3071 12.4161 25.1978 12.2239 25.0584L8.43402 22.3062V22.3073Z" fill="#5C3D16"/>
<path d="M24.7907 16.3699L23.2375 13.7355L16.6914 23.0423L24.2846 18.4203C24.4155 18.3406 24.5293 18.2439 24.626 18.1341C24.6421 18.1156 24.6577 18.0971 24.6728 18.0781C24.7029 18.0401 24.731 18.001 24.7575 17.9604C24.7834 17.9203 24.8079 17.8785 24.8297 17.8358C24.8515 17.793 24.8718 17.7497 24.8895 17.7053C24.9071 17.661 24.9232 17.6161 24.9367 17.5702C24.9638 17.4788 24.9825 17.3843 24.9923 17.2892C25.0235 16.9793 24.9606 16.6572 24.7907 16.3694V16.3699Z" fill="#5C3D16"/>
<path d="M22.6594 12.7549L23.3132 11.825L23.4763 11.5932C23.5636 11.4691 23.6291 11.3361 23.6743 11.1982C23.7039 11.1064 23.7247 11.0129 23.7362 10.9184C23.7419 10.8714 23.7455 10.8239 23.7466 10.7769C23.7471 10.7531 23.7471 10.7299 23.7466 10.7061C23.7455 10.6559 23.7419 10.6058 23.7356 10.5561C23.7304 10.5123 23.7232 10.4685 23.7138 10.4257C23.7039 10.3798 23.692 10.3338 23.678 10.2889C23.6639 10.2441 23.6478 10.1997 23.6291 10.1559C23.6198 10.1342 23.6104 10.1126 23.6 10.0909C23.5735 10.0355 23.5429 9.98109 23.5091 9.92881C23.4945 9.90663 23.4795 9.88445 23.4639 9.8628C23.4176 9.79891 23.3662 9.73871 23.3095 9.68221C23.2924 9.66479 23.2742 9.64842 23.256 9.63152C23.2191 9.59878 23.1807 9.5671 23.1396 9.53753L21.0854 8.04579L20.0736 7.31128L19.8388 7.97345L14.8979 21.8859C14.5295 22.9235 13.553 23.6206 12.468 23.6206C12.2898 23.6206 12.1126 23.6015 11.9385 23.5641L12.8224 24.2062C12.851 24.2268 12.8801 24.2458 12.9097 24.2642C12.9165 24.2685 12.9227 24.2727 12.9295 24.2764C12.9586 24.2938 12.9877 24.3102 13.0178 24.3255C13.022 24.3276 13.0261 24.3292 13.0303 24.3313C13.0578 24.345 13.0854 24.3572 13.1129 24.3693C13.1191 24.372 13.1254 24.3746 13.1316 24.3772C13.1623 24.3894 13.1929 24.4005 13.2236 24.411C13.2298 24.4132 13.2361 24.4147 13.2423 24.4168C13.2703 24.4258 13.2989 24.4337 13.3275 24.4406C13.3322 24.4417 13.3369 24.4433 13.3415 24.4443C13.3732 24.4517 13.4049 24.4575 13.4366 24.4628C13.4439 24.4638 13.4512 24.4649 13.4585 24.466C13.4902 24.4707 13.5219 24.4744 13.5536 24.477C13.5546 24.477 13.5551 24.477 13.5562 24.477C13.5884 24.4797 13.6211 24.4807 13.6533 24.4807C13.6575 24.4807 13.6611 24.4807 13.6653 24.4807C13.6694 24.4807 13.6741 24.4807 13.6783 24.4807C13.6959 24.4807 13.7136 24.4802 13.7313 24.4792C13.7396 24.4792 13.7484 24.4786 13.7567 24.4781C13.7806 24.4765 13.8051 24.4744 13.829 24.4718C13.8311 24.4718 13.8326 24.4718 13.8347 24.4712C13.8607 24.4681 13.8861 24.4644 13.9116 24.4596C13.9194 24.458 13.9277 24.4565 13.9355 24.4549C13.9532 24.4517 13.9708 24.448 13.9885 24.4438C13.9979 24.4417 14.0072 24.4396 14.0161 24.4369C14.0327 24.4327 14.0493 24.4285 14.0654 24.4237C14.0743 24.4211 14.0836 24.4184 14.0924 24.4158C14.1101 24.4105 14.1278 24.4042 14.1454 24.3978C14.1527 24.3952 14.16 24.3931 14.1673 24.3904C14.1917 24.3815 14.2156 24.3714 14.2395 24.3614C14.2442 24.3593 14.2483 24.3572 14.253 24.3551C14.2722 24.3461 14.2915 24.3371 14.3107 24.3276C14.319 24.3234 14.3268 24.3192 14.3351 24.3149C14.3507 24.307 14.3658 24.2986 14.3808 24.2896C14.3892 24.2848 14.398 24.2796 14.4063 24.2748C14.4214 24.2658 14.4359 24.2563 14.451 24.2468C14.4588 24.2415 14.4666 24.2368 14.4744 24.2315C14.4915 24.2199 14.5087 24.2072 14.5253 24.1945C14.53 24.1908 14.5347 24.1877 14.5393 24.1845C14.5606 24.1681 14.5814 24.1512 14.6017 24.1338C14.6074 24.1291 14.6126 24.1238 14.6183 24.119C14.6329 24.1058 14.6479 24.0926 14.662 24.0789C14.6687 24.072 14.676 24.0652 14.6828 24.0583C14.6952 24.0456 14.7082 24.0324 14.7202 24.0192C14.7269 24.0118 14.7337 24.0044 14.7404 23.9971C14.7529 23.9828 14.7654 23.968 14.7779 23.9532C14.7836 23.9464 14.7893 23.9395 14.795 23.9326C14.8122 23.9105 14.8293 23.8883 14.8459 23.865L22.6605 12.7544L22.6594 12.7549Z" fill="#5C3D16"/>
<path d="M9.18707 21.4693L11.9412 22.4795C11.9651 22.4879 11.9885 22.4959 12.0124 22.5038C12.0202 22.5064 12.028 22.5085 12.0358 22.5106C12.0519 22.5154 12.068 22.5201 12.0841 22.5244C12.0935 22.527 12.1023 22.5291 12.1117 22.5312C12.1268 22.5349 12.1413 22.5381 12.1564 22.5413C12.1657 22.5434 12.1756 22.545 12.185 22.5471C12.1995 22.5497 12.2146 22.5524 12.2291 22.555C12.2385 22.5566 12.2478 22.5582 12.2572 22.5592C12.2728 22.5613 12.2884 22.5634 12.304 22.565C12.3123 22.5661 12.3211 22.5671 12.3294 22.5677C12.3486 22.5693 12.3679 22.5708 12.3866 22.5719C12.3913 22.5719 12.3959 22.5724 12.4011 22.5729C12.424 22.574 12.4463 22.5745 12.4687 22.5745C12.4697 22.5745 12.4702 22.5745 12.4713 22.5745C12.5061 22.5745 12.5409 22.5729 12.5757 22.5703C12.5835 22.5698 12.5918 22.5693 12.5996 22.5682C12.6345 22.565 12.6688 22.5613 12.703 22.556C12.7051 22.556 12.7072 22.5555 12.7093 22.555C12.742 22.5497 12.7742 22.5434 12.807 22.536C12.8143 22.5344 12.822 22.5328 12.8293 22.5307C12.8626 22.5228 12.8953 22.5138 12.9275 22.5032C12.9333 22.5017 12.9385 22.4995 12.9436 22.498C12.9727 22.4885 13.0013 22.4779 13.0299 22.4668C13.0361 22.4642 13.0424 22.4621 13.0486 22.4594C13.0798 22.4467 13.111 22.4325 13.1416 22.4177C13.1484 22.4145 13.1546 22.4108 13.1614 22.4077C13.1894 22.3934 13.217 22.3786 13.2435 22.3628C13.2471 22.3607 13.2513 22.3586 13.2549 22.3564C13.2845 22.339 13.3131 22.32 13.3412 22.3005C13.3479 22.2957 13.3542 22.2915 13.3609 22.2867C13.389 22.2667 13.4171 22.2456 13.4441 22.2234C13.4451 22.2223 13.4462 22.2218 13.4472 22.2207C13.4732 22.1991 13.4986 22.1764 13.5236 22.1531C13.5293 22.1479 13.535 22.1421 13.5407 22.1368C13.5657 22.1125 13.5896 22.0877 13.613 22.0618C13.6166 22.0576 13.6202 22.0533 13.6239 22.0497C13.6447 22.0259 13.6649 22.0016 13.6842 21.9768C13.6883 21.971 13.693 21.9657 13.6971 21.9599C13.7185 21.9319 13.7387 21.9034 13.7579 21.8738C13.7621 21.8675 13.7657 21.8611 13.7699 21.8548C13.787 21.8273 13.8042 21.7994 13.8198 21.7708C13.8224 21.7666 13.825 21.7619 13.8276 21.7576C13.8447 21.726 13.8608 21.6932 13.8759 21.66C13.8795 21.652 13.8827 21.6446 13.8863 21.6367C13.9014 21.6024 13.9154 21.5675 13.9284 21.5322L18.9669 7.34564L19.2029 6.68083L19.3172 6.35925L19.3276 6.33021C19.3458 6.27899 19.3614 6.22724 19.3738 6.17549C19.3868 6.12374 19.3967 6.07199 19.404 6.01972C19.4076 5.99384 19.4107 5.96797 19.4133 5.94209C19.418 5.89034 19.4206 5.8386 19.4201 5.78685C19.4201 5.70183 19.4123 5.61787 19.3988 5.53497C19.3957 5.51754 19.3931 5.50012 19.3894 5.48269C19.3796 5.43306 19.3671 5.38395 19.3531 5.33537C19.3333 5.27042 19.3094 5.20652 19.2819 5.14474C19.2683 5.11464 19.2548 5.08507 19.2392 5.05603C19.2044 4.98897 19.1649 4.92455 19.1208 4.86329C19.0839 4.81154 19.0433 4.76296 19.0002 4.71597C18.9831 4.69748 18.9659 4.67953 18.9477 4.66211C18.7944 4.51108 18.6079 4.38911 18.3938 4.31043L17.0157 3.80508L14.6543 2.93909V3.69367V18.7964C14.6543 20.2712 13.4737 21.4714 12.0218 21.4714H9.18604L9.18707 21.4693Z" fill="#5C3D16"/>
<path d="M7.61084 20.4216H12.0227C12.0778 20.4216 12.1329 20.419 12.1864 20.4132C12.294 20.4021 12.3989 20.3799 12.4992 20.3482C12.5496 20.3324 12.5985 20.3139 12.6463 20.2933C12.6941 20.2727 12.7409 20.25 12.7861 20.2247C12.877 20.1745 12.9622 20.1159 13.0412 20.0494C13.0807 20.0161 13.1186 19.9813 13.155 19.9443C13.1732 19.9258 13.1909 19.9068 13.208 19.8878C13.2423 19.8492 13.2751 19.8091 13.3057 19.7674C13.3213 19.7463 13.3359 19.7252 13.3504 19.7035C13.379 19.6602 13.406 19.6153 13.4304 19.5694C13.4549 19.5234 13.4777 19.4759 13.498 19.4273C13.5183 19.3788 13.5364 19.3286 13.552 19.2779C13.5988 19.1248 13.6238 18.9627 13.6238 18.7937V4.09864V2.12744C13.6238 1.959 13.5988 1.79636 13.552 1.64322C13.5364 1.592 13.5183 1.54237 13.498 1.49379C13.4819 1.45471 13.4637 1.41669 13.445 1.37973C13.4403 1.37022 13.4356 1.36072 13.431 1.35174C13.4065 1.3058 13.3795 1.26092 13.3509 1.21762C13.3364 1.19597 13.3218 1.17484 13.3062 1.15372C13.2756 1.11201 13.2428 1.07188 13.2085 1.03333C13.1914 1.01432 13.1737 0.995308 13.1555 0.976827C13.1192 0.939863 13.0812 0.905012 13.0417 0.871745C12.9628 0.805211 12.877 0.746598 12.7866 0.696434C12.7414 0.671615 12.6946 0.648381 12.6468 0.627787C12.599 0.607194 12.5496 0.588712 12.4997 0.572871C12.3994 0.541188 12.295 0.51901 12.1869 0.507921C12.1329 0.50264 12.0778 0.5 12.0227 0.5H1.60209C1.4914 0.5 1.38384 0.511617 1.27939 0.533267C1.22742 0.544356 1.17598 0.557557 1.12609 0.573399C0.950446 0.628844 0.787794 0.714387 0.64385 0.823693C0.499906 0.932999 0.37467 1.06659 0.273857 1.21814C0.100813 1.47742 0 1.79055 0 2.12744V18.7947C0 19.1316 0.100813 19.4448 0.273857 19.7046C0.37467 19.8561 0.499906 19.9892 0.64385 20.0985C0.787794 20.2078 0.950446 20.2928 1.12609 20.3482C1.17649 20.3641 1.22742 20.3773 1.27939 20.3884C1.38384 20.41 1.4914 20.4216 1.60209 20.4216H7.61084Z" fill="#5C3D16"/>
</g>
<defs>
<clipPath id="clip0_7_5468">
<rect width="25" height="26" fill="white" transform="translate(0 0.5)"/>
</clipPath>
</defs>
</svg>
