<svg width="14" height="12" viewBox="0 0 14 12" fill="none" xmlns="http://www.w3.org/2000/svg">
<path d="M1.66634 11.3334C1.29967 11.3334 0.985897 11.2029 0.725008 10.942C0.464119 10.6811 0.333452 10.3671 0.333008 10V2.00002C0.333008 1.63335 0.463675 1.31958 0.725008 1.05869C0.986341 0.797798 1.30012 0.667131 1.66634 0.666687H12.333C12.6997 0.666687 13.0137 0.797354 13.275 1.05869C13.5363 1.32002 13.6668 1.6338 13.6663 2.00002V10C13.6663 10.3667 13.5359 10.6807 13.275 10.942C13.0141 11.2034 12.7001 11.3338 12.333 11.3334H1.66634ZM6.99967 6.55002C7.05523 6.55002 7.11367 6.54158 7.17501 6.52469C7.23634 6.5078 7.29456 6.48291 7.34967 6.45002L12.0663 3.50002C12.1552 3.44446 12.2219 3.37513 12.2663 3.29202C12.3108 3.20891 12.333 3.11713 12.333 3.01669C12.333 2.79446 12.2386 2.6278 12.0497 2.51669C11.8608 2.40558 11.6663 2.41113 11.4663 2.53335L6.99967 5.33335L2.53301 2.53335C2.33301 2.41113 2.13856 2.40846 1.94967 2.52535C1.76079 2.64224 1.66634 2.80602 1.66634 3.01669C1.66634 3.1278 1.68856 3.22513 1.73301 3.30869C1.77745 3.39224 1.84412 3.45602 1.93301 3.50002L6.64967 6.45002C6.70523 6.48335 6.76367 6.50847 6.82501 6.52535C6.88634 6.54224 6.94456 6.55046 6.99967 6.55002Z" fill="#5C3D16"/>
</svg>
