<svg width="26" height="27" viewBox="0 0 26 27" fill="none" xmlns="http://www.w3.org/2000/svg">
<path d="M11.4333 26.8334C10.8333 26.8334 10.3169 26.6334 9.88397 26.2334C9.45109 25.8334 9.18975 25.3445 9.09997 24.7668L8.79997 22.5667C8.51109 22.4556 8.23909 22.3223 7.98397 22.1667C7.72886 22.0112 7.47864 21.8445 7.23331 21.6667L5.16664 22.5334C4.61109 22.7779 4.05553 22.8001 3.49997 22.6001C2.94442 22.4001 2.51109 22.0445 2.19997 21.5334L0.633307 18.8001C0.322196 18.289 0.233307 17.7445 0.366641 17.1667C0.499974 16.589 0.799974 16.1112 1.26664 15.7334L3.03331 14.4001C3.01109 14.2445 2.99997 14.0943 2.99997 13.9494V13.0494C2.99997 12.9054 3.01109 12.7556 3.03331 12.6001L1.26664 11.2667C0.799974 10.889 0.499974 10.4112 0.366641 9.83342C0.233307 9.25564 0.322196 8.71119 0.633307 8.20008L2.19997 5.46675C2.51109 4.95564 2.94442 4.60008 3.49997 4.40008C4.05553 4.20008 4.61109 4.2223 5.16664 4.46675L7.23331 5.33342C7.47775 5.15564 7.73331 4.98897 7.99997 4.83342C8.26664 4.67786 8.53331 4.54453 8.79997 4.43341L9.09997 2.23341C9.18886 1.65564 9.4502 1.16675 9.88397 0.766748C10.3178 0.366748 10.8342 0.166748 11.4333 0.166748H14.5666C15.1666 0.166748 15.6835 0.366748 16.1173 0.766748C16.5511 1.16675 16.812 1.65564 16.9 2.23341L17.2 4.43341C17.4889 4.54453 17.7613 4.67786 18.0173 4.83342C18.2733 4.98897 18.5231 5.15564 18.7666 5.33342L20.8333 4.46675C21.3889 4.2223 21.9444 4.20008 22.5 4.40008C23.0555 4.60008 23.4889 4.95564 23.8 5.46675L25.3666 8.20008C25.6778 8.71119 25.7666 9.25564 25.6333 9.83342C25.5 10.4112 25.2 10.889 24.7333 11.2667L22.9666 12.6001C22.9889 12.7556 23 12.9059 23 13.0507V13.9494C23 14.0943 22.9778 14.2445 22.9333 14.4001L24.7 15.7334C25.1666 16.1112 25.4666 16.589 25.6 17.1667C25.7333 17.7445 25.6444 18.289 25.3333 18.8001L23.7333 21.5334C23.4222 22.0445 22.9889 22.4001 22.4333 22.6001C21.8778 22.8001 21.3222 22.7779 20.7666 22.5334L18.7666 21.6667C18.5222 21.8445 18.2666 22.0112 18 22.1667C17.7333 22.3223 17.4666 22.4556 17.2 22.5667L16.9 24.7668C16.8111 25.3445 16.5502 25.8334 16.1173 26.2334C15.6844 26.6334 15.1675 26.8334 14.5666 26.8334H11.4333ZM13.0666 18.1667C14.3555 18.1667 15.4555 17.7112 16.3666 16.8001C17.2778 15.889 17.7333 14.789 17.7333 13.5001C17.7333 12.2112 17.2778 11.1112 16.3666 10.2001C15.4555 9.28897 14.3555 8.83342 13.0666 8.83342C11.7555 8.83342 10.6498 9.28897 9.74931 10.2001C8.84886 11.1112 8.39909 12.2112 8.39997 13.5001C8.40086 14.789 8.85109 15.889 9.75064 16.8001C10.6502 17.7112 11.7555 18.1667 13.0666 18.1667Z" fill="#5C3D16"/>
</svg>
