<svg width="319" height="209" viewBox="0 0 319 209" fill="none" xmlns="http://www.w3.org/2000/svg">
<rect width="319" height="209" fill="#F5F5F5"/>
<mask id="path-1-inside-1_0_1" fill="white">
<path d="M-25 -102H343V1303H-25V-102Z"/>
</mask>
<path d="M-25 -102H343V1303H-25V-102Z" fill="white"/>
<path d="M-25 1303H-24V-102H-25H-26V1303H-25Z" fill="black" fill-opacity="0.12" mask="url(#path-1-inside-1_0_1)"/>
<circle cx="79.4087" cy="101.018" r="10.5659" fill="#85C8FF"/>
<circle cx="79.4087" cy="134.781" r="10.5659" fill="#1D73E7"/>
<circle cx="119.03" cy="101.018" r="10.5659" fill="#85C8FF"/>
<circle cx="119.03" cy="67.6587" r="10.5659" fill="#85C8FF"/>
<circle cx="39.7856" cy="67.6587" r="10.5659" fill="#85C8FF"/>
<circle cx="39.7856" cy="135.036" r="10.5659" fill="#85C8FF"/>
<circle cx="158.653" cy="101.018" r="10.5659" fill="#85C8FF"/>
<circle cx="158.653" cy="67.6587" r="10.5659" fill="#85C8FF"/>
<circle cx="158.653" cy="33.5972" r="10.5659" fill="#85C8FF"/>
<circle cx="198.274" cy="101.018" r="10.5659" fill="#85C8FF"/>
<circle cx="198.274" cy="67.6587" r="10.5659" fill="#85C8FF"/>
<circle cx="198.274" cy="33.5972" r="10.5659" fill="#85C8FF"/>
<circle cx="237.897" cy="101.018" r="10.5659" fill="#85C8FF"/>
<circle cx="237.897" cy="67.6587" r="10.5659" fill="#85C8FF"/>
<circle cx="278.214" cy="33.5972" r="10.5659" fill="#85C8FF"/>
<circle cx="277.518" cy="101.018" r="10.5659" fill="#85C8FF"/>
<path d="M35.8858 35.8434C34.7878 35.8434 34.0048 35.3844 33.4738 34.7364L34.2478 34.0164C34.6978 34.5474 35.2018 34.8444 35.9038 34.8444C36.5248 34.8444 36.9928 34.4664 36.9928 33.8904V33.8724C36.9928 33.2514 36.4258 32.9004 35.5438 32.9004H35.0308L34.8508 32.2074L36.5518 30.3984H33.8248V29.4354H37.9918V30.2634L36.2368 32.0634C37.1908 32.1804 38.0908 32.6664 38.0908 33.8274V33.8454C38.0908 35.0064 37.1998 35.8434 35.8858 35.8434ZM41.8992 35.8434C40.2432 35.8434 39.1632 34.4034 39.1632 32.6034V32.5854C39.1632 30.7854 40.2612 29.3274 41.9172 29.3274C43.5642 29.3274 44.6532 30.7674 44.6532 32.5674V32.5854C44.6532 34.3854 43.5552 35.8434 41.8992 35.8434ZM41.9172 34.8444C42.8982 34.8444 43.5102 33.8364 43.5102 32.6034V32.5854C43.5102 31.3434 42.8712 30.3264 41.8992 30.3264C40.9272 30.3264 40.3062 31.3164 40.3062 32.5674V32.5854C40.3062 33.8274 40.9362 34.8444 41.9172 34.8444Z" fill="#FF3030"/>
<path d="M37.4493 1.98H43.5153V9.621H42.5973V2.844H38.3223V9.657H37.4493V1.98ZM38.0343 5.058H42.9843V5.904H38.0343V5.058ZM38.0253 8.208H42.9933V9.063H38.0253V8.208Z" fill="#FF3030"/>
<path d="M77.9163 1.854H82.5243V2.682H77.9163V1.854ZM77.9163 4.014H82.5603V4.824H77.9163V4.014ZM77.8533 6.174H82.5063V6.993H77.8533V6.174ZM77.3493 1.854H78.2223V4.725C78.2223 5.115 78.2013 5.535 78.1593 5.985C78.1173 6.429 78.0363 6.879 77.9163 7.335C77.7963 7.791 77.6193 8.229 77.3853 8.649C77.1513 9.063 76.8393 9.435 76.4493 9.765C76.4073 9.705 76.3473 9.633 76.2693 9.549C76.1913 9.471 76.1103 9.393 76.0263 9.315C75.9423 9.243 75.8673 9.186 75.8013 9.144C76.1553 8.838 76.4343 8.502 76.6383 8.136C76.8483 7.77 77.0043 7.392 77.1063 7.002C77.2083 6.612 77.2743 6.222 77.3043 5.832C77.3343 5.442 77.3493 5.07 77.3493 4.716V1.854ZM82.1373 1.854H83.0373V8.595C83.0373 8.871 82.9953 9.081 82.9113 9.225C82.8333 9.375 82.7013 9.486 82.5153 9.558C82.3233 9.636 82.0683 9.684 81.7503 9.702C81.4383 9.72 81.0423 9.729 80.5623 9.729C80.5503 9.639 80.5233 9.54 80.4813 9.432C80.4393 9.324 80.3943 9.216 80.3463 9.108C80.3043 9 80.2593 8.907 80.2113 8.829C80.4453 8.841 80.6733 8.85 80.8953 8.856C81.1233 8.856 81.3213 8.856 81.4893 8.856C81.6633 8.85 81.7863 8.847 81.8583 8.847C81.9603 8.847 82.0323 8.829 82.0743 8.793C82.1163 8.751 82.1373 8.682 82.1373 8.586V1.854Z" fill="#414141"/>
<path d="M116.909 3.213L117.755 3.402C117.707 3.762 117.635 4.119 117.539 4.473C117.449 4.821 117.323 5.145 117.161 5.445C116.999 5.745 116.789 6 116.531 6.21L115.766 5.724C116 5.538 116.192 5.316 116.342 5.058C116.498 4.794 116.621 4.506 116.711 4.194C116.801 3.876 116.867 3.549 116.909 3.213ZM122.507 3.195L123.434 3.555C123.284 3.843 123.125 4.14 122.957 4.446C122.789 4.746 122.621 5.037 122.453 5.319C122.285 5.595 122.123 5.838 121.967 6.048L121.238 5.724C121.382 5.502 121.532 5.247 121.688 4.959C121.85 4.665 122 4.365 122.138 4.059C122.282 3.753 122.405 3.465 122.507 3.195ZM119.645 1.53H120.104V4.401C120.104 4.599 120.128 4.824 120.176 5.076C120.224 5.328 120.302 5.595 120.41 5.877C120.518 6.153 120.662 6.438 120.842 6.732C121.028 7.02 121.259 7.302 121.535 7.578C121.811 7.848 122.138 8.103 122.516 8.343C122.894 8.577 123.329 8.787 123.821 8.973C123.761 9.033 123.692 9.108 123.614 9.198C123.542 9.294 123.47 9.39 123.398 9.486C123.332 9.588 123.278 9.681 123.236 9.765C122.756 9.573 122.33 9.348 121.958 9.09C121.586 8.832 121.262 8.562 120.986 8.28C120.716 7.992 120.488 7.707 120.302 7.425C120.122 7.137 119.978 6.867 119.87 6.615C119.762 6.363 119.687 6.15 119.645 5.976C119.603 6.156 119.531 6.372 119.429 6.624C119.333 6.87 119.195 7.134 119.015 7.416C118.841 7.698 118.622 7.98 118.358 8.262C118.1 8.544 117.788 8.814 117.422 9.072C117.062 9.33 116.645 9.561 116.171 9.765C116.135 9.699 116.081 9.621 116.009 9.531C115.943 9.441 115.871 9.351 115.793 9.261C115.715 9.171 115.643 9.099 115.577 9.045C116.159 8.823 116.657 8.559 117.071 8.253C117.485 7.947 117.827 7.62 118.097 7.272C118.373 6.924 118.589 6.576 118.745 6.228C118.907 5.88 119.021 5.55 119.087 5.238C119.153 4.92 119.186 4.644 119.186 4.41V1.53H119.645Z" fill="#414141"/>
<path d="M155.297 3.663H157.907V4.527H155.297V3.663ZM158.888 1.413H159.788V8.613C159.788 8.889 159.752 9.099 159.68 9.243C159.608 9.387 159.488 9.498 159.32 9.576C159.146 9.654 158.918 9.705 158.636 9.729C158.36 9.753 158.012 9.765 157.592 9.765C157.58 9.675 157.556 9.573 157.52 9.459C157.484 9.345 157.442 9.231 157.394 9.117C157.352 9.003 157.307 8.907 157.259 8.829C157.571 8.835 157.856 8.841 158.114 8.847C158.378 8.847 158.555 8.844 158.645 8.838C158.729 8.838 158.789 8.82 158.825 8.784C158.867 8.748 158.888 8.691 158.888 8.613V1.413ZM157.619 3.663H157.799L157.952 3.636L158.528 3.852C158.384 4.65 158.174 5.376 157.898 6.03C157.628 6.684 157.31 7.254 156.944 7.74C156.578 8.226 156.176 8.622 155.738 8.928C155.69 8.862 155.624 8.784 155.54 8.694C155.456 8.604 155.369 8.52 155.279 8.442C155.189 8.358 155.108 8.295 155.036 8.253C155.462 7.977 155.846 7.626 156.188 7.2C156.536 6.774 156.83 6.279 157.07 5.715C157.316 5.151 157.499 4.533 157.619 3.861V3.663ZM159.734 2.817C159.884 3.417 160.073 3.999 160.301 4.563C160.535 5.121 160.811 5.64 161.129 6.12C161.447 6.6 161.81 7.026 162.218 7.398C162.632 7.77 163.091 8.07 163.595 8.298C163.523 8.358 163.445 8.433 163.361 8.523C163.277 8.613 163.196 8.709 163.118 8.811C163.046 8.907 162.983 8.997 162.929 9.081C162.245 8.721 161.654 8.235 161.156 7.623C160.658 7.011 160.238 6.309 159.896 5.517C159.56 4.725 159.281 3.876 159.059 2.97L159.734 2.817ZM162.488 2.844L163.28 3.402C163.034 3.672 162.764 3.951 162.47 4.239C162.176 4.527 161.882 4.803 161.588 5.067C161.294 5.331 161.018 5.559 160.76 5.751L160.148 5.274C160.406 5.07 160.676 4.83 160.958 4.554C161.246 4.272 161.525 3.984 161.795 3.69C162.065 3.39 162.296 3.108 162.488 2.844Z" fill="#414141"/>
<path d="M195.011 3.573H202.868V4.41H195.011V3.573ZM198.476 1.404H199.385V9.756H198.476V1.404ZM198.287 4.014L199.034 4.275C198.83 4.743 198.59 5.199 198.314 5.643C198.044 6.087 197.747 6.51 197.423 6.912C197.099 7.308 196.754 7.671 196.388 8.001C196.028 8.331 195.656 8.613 195.272 8.847C195.224 8.775 195.161 8.694 195.083 8.604C195.011 8.514 194.933 8.427 194.849 8.343C194.771 8.253 194.699 8.178 194.633 8.118C195.005 7.92 195.368 7.674 195.722 7.38C196.082 7.08 196.424 6.747 196.748 6.381C197.072 6.015 197.363 5.631 197.621 5.229C197.885 4.827 198.107 4.422 198.287 4.014ZM199.547 4.041C199.739 4.437 199.967 4.833 200.231 5.229C200.501 5.619 200.798 5.994 201.122 6.354C201.446 6.714 201.785 7.041 202.139 7.335C202.499 7.629 202.859 7.878 203.219 8.082C203.153 8.136 203.078 8.208 202.994 8.298C202.91 8.382 202.832 8.472 202.76 8.568C202.688 8.658 202.628 8.742 202.58 8.82C202.208 8.58 201.842 8.298 201.482 7.974C201.128 7.644 200.789 7.281 200.465 6.885C200.141 6.489 199.841 6.072 199.565 5.634C199.289 5.196 199.043 4.752 198.827 4.302L199.547 4.041Z" fill="#414141"/>
<path d="M238.52 2.214C238.274 2.568 237.959 2.934 237.575 3.312C237.197 3.684 236.774 4.041 236.306 4.383C235.844 4.725 235.361 5.028 234.857 5.292C234.827 5.226 234.782 5.151 234.722 5.067C234.662 4.983 234.596 4.902 234.524 4.824C234.458 4.74 234.395 4.668 234.335 4.608C234.851 4.35 235.349 4.041 235.829 3.681C236.309 3.321 236.741 2.94 237.125 2.538C237.509 2.136 237.815 1.752 238.043 1.386H238.916C239.156 1.716 239.426 2.037 239.726 2.349C240.032 2.655 240.353 2.943 240.689 3.213C241.031 3.483 241.382 3.729 241.742 3.951C242.102 4.167 242.459 4.35 242.813 4.5C242.711 4.602 242.609 4.722 242.507 4.86C242.411 4.998 242.327 5.13 242.255 5.256C241.907 5.076 241.556 4.869 241.202 4.635C240.848 4.401 240.503 4.149 240.167 3.879C239.837 3.609 239.531 3.333 239.249 3.051C238.967 2.769 238.724 2.49 238.52 2.214ZM236.288 4.122H240.806V4.878H236.288V4.122ZM235.154 5.949H241.931V6.687H235.154V5.949ZM234.722 8.739H242.399V9.486H234.722V8.739ZM238.061 4.419H238.961V9.117H238.061V4.419ZM235.82 7.101L236.513 6.822C236.633 6.978 236.75 7.149 236.864 7.335C236.978 7.521 237.08 7.707 237.17 7.893C237.26 8.073 237.323 8.238 237.359 8.388L236.63 8.712C236.594 8.562 236.534 8.394 236.45 8.208C236.366 8.022 236.27 7.833 236.162 7.641C236.054 7.443 235.94 7.263 235.82 7.101ZM240.473 6.813L241.283 7.119C241.109 7.401 240.923 7.686 240.725 7.974C240.533 8.262 240.356 8.508 240.194 8.712L239.546 8.433C239.654 8.289 239.765 8.124 239.879 7.938C239.993 7.746 240.101 7.551 240.203 7.353C240.311 7.155 240.401 6.975 240.473 6.813Z" fill="#414141"/>
<path d="M274.705 4.257H281.662V5.094H274.705V4.257ZM274.12 8.532H282.256V9.36H274.12V8.532ZM277.711 1.422H278.62V9.081H277.711V1.422Z" fill="#414141"/>
<path d="M39.8653 70.1822C39.0913 70.1822 38.5333 69.9392 38.1103 69.5162C37.6333 69.0392 37.3453 68.3822 37.3453 67.1132V67.0952C37.3453 65.1692 38.2633 63.6662 40.0453 63.6662C40.8643 63.6662 41.4223 63.9272 41.9713 64.3682L41.3773 65.2232C40.9363 64.8812 40.5673 64.6742 40.0093 64.6742C38.9113 64.6742 38.5153 65.8172 38.4973 66.6812C38.8663 66.2942 39.3343 66.0422 40.0093 66.0422C41.2243 66.0422 42.2053 66.7622 42.2053 68.0222V68.0402C42.2053 69.2912 41.1883 70.1822 39.8653 70.1822ZM39.8383 69.2192C40.6213 69.2192 41.0983 68.7332 41.0983 68.0852V68.0672C41.0983 67.4372 40.5943 66.9692 39.8113 66.9692C39.0283 66.9692 38.5333 67.4732 38.5333 68.0762V68.0942C38.5333 68.7332 39.0553 69.2192 39.8383 69.2192Z" fill="#FF3030"/>
<path d="M36.8224 104.414V99.1936L35.6884 99.5086L35.4544 98.6086L37.1554 98.0686H37.9204V104.414H36.8224ZM41.5877 104.522C40.4897 104.522 39.7067 104.063 39.1757 103.415L39.9497 102.695C40.3997 103.226 40.9037 103.523 41.6057 103.523C42.2267 103.523 42.6947 103.145 42.6947 102.569V102.551C42.6947 101.93 42.1277 101.579 41.2457 101.579H40.7327L40.5527 100.886L42.2537 99.0766H39.5267V98.1136H43.6937V98.9416L41.9387 100.742C42.8927 100.859 43.7927 101.345 43.7927 102.506V102.524C43.7927 103.685 42.9017 104.522 41.5877 104.522Z" fill="#FF3030"/>
<path d="M34.87 137.432V136.559L37.039 134.714C37.903 133.976 38.218 133.58 38.218 133.013C38.218 132.392 37.777 132.032 37.201 132.032C36.625 132.032 36.229 132.347 35.752 132.977L34.96 132.356C35.563 131.519 36.157 131.042 37.282 131.042C38.515 131.042 39.361 131.798 39.361 132.923V132.941C39.361 133.931 38.839 134.471 37.723 135.38L36.427 136.46H39.424V137.432H34.87ZM43.1976 137.54C41.5416 137.54 40.4616 136.1 40.4616 134.3V134.282C40.4616 132.482 41.5596 131.024 43.2156 131.024C44.8626 131.024 45.9516 132.464 45.9516 134.264V134.282C45.9516 136.082 44.8536 137.54 43.1976 137.54ZM43.2156 136.541C44.1966 136.541 44.8086 135.533 44.8086 134.3V134.282C44.8086 133.04 44.1696 132.023 43.1976 132.023C42.2256 132.023 41.6046 133.013 41.6046 134.264V134.282C41.6046 135.524 42.2346 136.541 43.2156 136.541Z" fill="#FF3030"/>
<path d="M35.4209 171.771V170.898L37.5899 169.053C38.4539 168.315 38.7689 167.919 38.7689 167.352C38.7689 166.731 38.3279 166.371 37.7519 166.371C37.1759 166.371 36.7799 166.686 36.3029 167.316L35.5109 166.695C36.1139 165.858 36.7079 165.381 37.8329 165.381C39.0659 165.381 39.9119 166.137 39.9119 167.262V167.28C39.9119 168.27 39.3899 168.81 38.2739 169.719L36.9779 170.799H39.9749V171.771H35.4209ZM41.3831 171.771L44.2091 166.443H41.0411V165.471H45.4691V166.308L42.6341 171.771H41.3831Z" fill="#FF3030"/>
<path d="M41.0864 206.11V204.697H37.9094L37.7024 203.905L41.2034 199.765H42.1484V203.788H43.0484V204.697H42.1484V206.11H41.0864ZM39.0164 203.788H41.0864V201.295L39.0164 203.788Z" fill="#FF3030"/>
<path d="M77.6184 70.0742L80.4444 64.7462H77.2764V63.7742H81.7044V64.6112L78.8694 70.0742H77.6184Z" fill="#414141"/>
<path d="M76.1578 104.414V99.1936L75.0238 99.5086L74.7898 98.6086L76.4908 98.0686H77.2558V104.414H76.1578ZM81.8322 104.414V103.001H78.6552L78.4482 102.209L81.9492 98.0686H82.8942V102.092H83.7942V103.001H82.8942V104.414H81.8322ZM79.7622 102.092H81.8322V99.5986L79.7622 102.092Z" fill="#414141"/>
<path d="M75.3045 137.432V136.559L77.4735 134.714C78.3375 133.976 78.6525 133.58 78.6525 133.013C78.6525 132.392 78.2115 132.032 77.6355 132.032C77.0595 132.032 76.6635 132.347 76.1865 132.977L75.3945 132.356C75.9975 131.519 76.5915 131.042 77.7165 131.042C78.9495 131.042 79.7955 131.798 79.7955 132.923V132.941C79.7955 133.931 79.2735 134.471 78.1575 135.38L76.8615 136.46H79.8585V137.432H75.3045ZM81.985 137.432V132.212L80.851 132.527L80.617 131.627L82.318 131.087H83.083V137.432H81.985Z" fill="white"/>
<path d="M74.2546 171.771V170.898L76.4236 169.053C77.2876 168.315 77.6026 167.919 77.6026 167.352C77.6026 166.731 77.1616 166.371 76.5856 166.371C76.0096 166.371 75.6136 166.686 75.1366 167.316L74.3446 166.695C74.9476 165.858 75.5416 165.381 76.6666 165.381C77.8996 165.381 78.7456 166.137 78.7456 167.262V167.28C78.7456 168.27 78.2236 168.81 77.1076 169.719L75.8116 170.799H78.8086V171.771H74.2546ZM82.1681 171.861C80.7911 171.861 79.7651 171.141 79.7651 170.052V170.034C79.7651 169.278 80.1881 168.801 80.8991 168.504C80.3681 168.225 79.9811 167.802 79.9811 167.1V167.082C79.9811 166.119 80.9081 165.381 82.1681 165.381C83.4281 165.381 84.3551 166.11 84.3551 167.082V167.1C84.3551 167.802 83.9681 168.225 83.4371 168.504C84.1301 168.819 84.5711 169.269 84.5711 170.016V170.034C84.5711 171.159 83.5451 171.861 82.1681 171.861ZM82.1681 168.135C82.8161 168.135 83.2931 167.748 83.2931 167.208V167.19C83.2931 166.704 82.8431 166.308 82.1681 166.308C81.4931 166.308 81.0431 166.704 81.0431 167.181V167.199C81.0431 167.748 81.5201 168.135 82.1681 168.135ZM82.1681 170.934C82.9961 170.934 83.4911 170.511 83.4911 169.989V169.971C83.4911 169.395 82.9151 169.017 82.1681 169.017C81.4211 169.017 80.8541 169.395 80.8541 169.971V169.989C80.8541 170.502 81.3401 170.934 82.1681 170.934Z" fill="#414141"/>
<path d="M79.3388 206.218C78.3758 206.218 77.6198 205.831 77.0258 205.255L77.7098 204.454C78.2138 204.922 78.7448 205.21 79.3298 205.21C80.0858 205.21 80.5808 204.778 80.5808 204.121V204.103C80.5808 203.464 80.0408 203.059 79.2758 203.059C78.8258 203.059 78.4388 203.185 78.1148 203.338L77.4488 202.897L77.6288 199.81H81.3998V200.791H78.5828L78.4838 202.267C78.7808 202.159 79.0598 202.087 79.4828 202.087C80.7068 202.087 81.6788 202.735 81.6788 204.067V204.085C81.6788 205.372 80.7338 206.218 79.3388 206.218Z" fill="#FF3030"/>
<path d="M118.847 35.7354V30.5154L117.713 30.8304L117.479 29.9304L119.18 29.3904H119.945V35.7354H118.847Z" fill="#414141"/>
<path d="M119.03 70.1642C117.653 70.1642 116.627 69.4442 116.627 68.3552V68.3372C116.627 67.5812 117.05 67.1042 117.761 66.8072C117.23 66.5282 116.843 66.1052 116.843 65.4032V65.3852C116.843 64.4222 117.77 63.6842 119.03 63.6842C120.29 63.6842 121.217 64.4132 121.217 65.3852V65.4032C121.217 66.1052 120.83 66.5282 120.299 66.8072C120.992 67.1222 121.433 67.5722 121.433 68.3192V68.3372C121.433 69.4622 120.407 70.1642 119.03 70.1642ZM119.03 66.4382C119.678 66.4382 120.155 66.0512 120.155 65.5112V65.4932C120.155 65.0072 119.705 64.6112 119.03 64.6112C118.355 64.6112 117.905 65.0072 117.905 65.4842V65.5022C117.905 66.0512 118.382 66.4382 119.03 66.4382ZM119.03 69.2372C119.858 69.2372 120.353 68.8142 120.353 68.2922V68.2742C120.353 67.6982 119.777 67.3202 119.03 67.3202C118.283 67.3202 117.716 67.6982 117.716 68.2742V68.2922C117.716 68.8052 118.202 69.2372 119.03 69.2372Z" fill="#414141"/>
<path d="M116.045 104.414V99.1936L114.911 99.5086L114.677 98.6086L116.378 98.0686H117.143V104.414H116.045ZM120.747 104.522C119.784 104.522 119.028 104.135 118.434 103.559L119.118 102.758C119.622 103.226 120.153 103.514 120.738 103.514C121.494 103.514 121.989 103.082 121.989 102.425V102.407C121.989 101.768 121.449 101.363 120.684 101.363C120.234 101.363 119.847 101.489 119.523 101.642L118.857 101.201L119.037 98.1136H122.808V99.0946H119.991L119.892 100.571C120.189 100.463 120.468 100.391 120.891 100.391C122.115 100.391 123.087 101.039 123.087 102.371V102.389C123.087 103.676 122.142 104.522 120.747 104.522Z" fill="#414141"/>
<path d="M113.95 137.432V136.559L116.119 134.714C116.983 133.976 117.298 133.58 117.298 133.013C117.298 132.392 116.857 132.032 116.281 132.032C115.705 132.032 115.309 132.347 114.832 132.977L114.04 132.356C114.643 131.519 115.237 131.042 116.362 131.042C117.595 131.042 118.441 131.798 118.441 132.923V132.941C118.441 133.931 117.919 134.471 116.803 135.38L115.507 136.46H118.504V137.432H113.95ZM119.47 137.432V136.559L121.639 134.714C122.503 133.976 122.818 133.58 122.818 133.013C122.818 132.392 122.377 132.032 121.801 132.032C121.225 132.032 120.829 132.347 120.352 132.977L119.56 132.356C120.163 131.519 120.757 131.042 121.882 131.042C123.115 131.042 123.961 131.798 123.961 132.923V132.941C123.961 133.931 123.439 134.471 122.323 135.38L121.027 136.46H124.024V137.432H119.47Z" fill="#414141"/>
<path d="M113.757 171.771V170.898L115.926 169.053C116.79 168.315 117.105 167.919 117.105 167.352C117.105 166.731 116.664 166.371 116.088 166.371C115.512 166.371 115.116 166.686 114.639 167.316L113.847 166.695C114.45 165.858 115.044 165.381 116.169 165.381C117.402 165.381 118.248 166.137 118.248 167.262V167.28C118.248 168.27 117.726 168.81 116.61 169.719L115.314 170.799H118.311V171.771H113.757ZM121.554 170.871C122.67 170.871 123.075 169.719 123.084 168.882C122.733 169.305 122.247 169.557 121.599 169.557C120.258 169.557 119.367 168.774 119.367 167.559V167.541C119.367 166.308 120.321 165.363 121.716 165.363C122.508 165.363 123.021 165.588 123.471 166.029C123.93 166.497 124.227 167.19 124.227 168.432V168.45C124.227 170.475 123.228 171.879 121.527 171.879C120.654 171.879 120.042 171.564 119.511 171.123L120.114 170.277C120.591 170.673 121.014 170.871 121.554 170.871ZM121.761 168.63C122.562 168.63 123.039 168.108 123.039 167.496V167.478C123.039 166.821 122.526 166.317 121.725 166.317C120.942 166.317 120.474 166.839 120.474 167.487V167.505C120.474 168.162 120.978 168.63 121.761 168.63Z" fill="#FF3030"/>
<path d="M119.109 206.218C118.335 206.218 117.777 205.975 117.354 205.552C116.877 205.075 116.589 204.418 116.589 203.149V203.131C116.589 201.205 117.507 199.702 119.289 199.702C120.108 199.702 120.666 199.963 121.215 200.404L120.621 201.259C120.18 200.917 119.811 200.71 119.253 200.71C118.155 200.71 117.759 201.853 117.741 202.717C118.11 202.33 118.578 202.078 119.253 202.078C120.468 202.078 121.449 202.798 121.449 204.058V204.076C121.449 205.327 120.432 206.218 119.109 206.218ZM119.082 205.255C119.865 205.255 120.342 204.769 120.342 204.121V204.103C120.342 203.473 119.838 203.005 119.055 203.005C118.272 203.005 117.777 203.509 117.777 204.112V204.13C117.777 204.769 118.299 205.255 119.082 205.255Z" fill="#FF3030"/>
<path d="M156.333 35.7354V34.8624L158.502 33.0174C159.366 32.2794 159.681 31.8834 159.681 31.3164C159.681 30.6954 159.24 30.3354 158.664 30.3354C158.088 30.3354 157.692 30.6504 157.215 31.2804L156.423 30.6594C157.026 29.8224 157.62 29.3454 158.745 29.3454C159.978 29.3454 160.824 30.1014 160.824 31.2264V31.2444C160.824 32.2344 160.302 32.7744 159.186 33.6834L157.89 34.7634H160.887V35.7354H156.333Z" fill="#414141"/>
<path d="M77.6405 35.8434C76.5425 35.8434 75.7595 35.3844 75.2285 34.7364L76.0025 34.0164C76.4525 34.5474 76.9565 34.8444 77.6585 34.8444C78.2795 34.8444 78.7475 34.4664 78.7475 33.8904V33.8724C78.7475 33.2514 78.1805 32.9004 77.2985 32.9004H76.7855L76.6055 32.2074L78.3065 30.3984H75.5795V29.4354H79.7465V30.2634L77.9915 32.0634C78.9455 32.1804 79.8455 32.6664 79.8455 33.8274V33.8454C79.8455 35.0064 78.9545 35.8434 77.6405 35.8434ZM82.007 35.7354V30.5154L80.873 30.8304L80.639 29.9304L82.34 29.3904H83.105V35.7354H82.007Z" fill="#414141"/>
<path d="M158.417 69.1742C159.533 69.1742 159.938 68.0222 159.947 67.1852C159.596 67.6082 159.11 67.8602 158.462 67.8602C157.121 67.8602 156.23 67.0772 156.23 65.8622V65.8442C156.23 64.6112 157.184 63.6662 158.579 63.6662C159.371 63.6662 159.884 63.8912 160.334 64.3322C160.793 64.8002 161.09 65.4932 161.09 66.7352V66.7532C161.09 68.7782 160.091 70.1822 158.39 70.1822C157.517 70.1822 156.905 69.8672 156.374 69.4262L156.977 68.5802C157.454 68.9762 157.877 69.1742 158.417 69.1742ZM158.624 66.9332C159.425 66.9332 159.902 66.4112 159.902 65.7992V65.7812C159.902 65.1242 159.389 64.6202 158.588 64.6202C157.805 64.6202 157.337 65.1422 157.337 65.7902V65.8082C157.337 66.4652 157.841 66.9332 158.624 66.9332Z" fill="#414141"/>
<path d="M155.516 104.414V99.1936L154.382 99.5086L154.148 98.6086L155.849 98.0686H156.614V104.414H155.516ZM160.516 104.522C159.742 104.522 159.184 104.279 158.761 103.856C158.284 103.379 157.996 102.722 157.996 101.453V101.435C157.996 99.5086 158.914 98.0056 160.696 98.0056C161.515 98.0056 162.073 98.2666 162.622 98.7076L162.028 99.5626C161.587 99.2206 161.218 99.0136 160.66 99.0136C159.562 99.0136 159.166 100.157 159.148 101.021C159.517 100.634 159.985 100.382 160.66 100.382C161.875 100.382 162.856 101.102 162.856 102.362V102.38C162.856 103.631 161.839 104.522 160.516 104.522ZM160.489 103.559C161.272 103.559 161.749 103.073 161.749 102.425V102.407C161.749 101.777 161.245 101.309 160.462 101.309C159.679 101.309 159.184 101.813 159.184 102.416V102.434C159.184 103.073 159.706 103.559 160.489 103.559Z" fill="#414141"/>
<path d="M153.551 137.432V136.559L155.72 134.714C156.584 133.976 156.899 133.58 156.899 133.013C156.899 132.392 156.458 132.032 155.882 132.032C155.306 132.032 154.91 132.347 154.433 132.977L153.641 132.356C154.244 131.519 154.838 131.042 155.963 131.042C157.196 131.042 158.042 131.798 158.042 132.923V132.941C158.042 133.931 157.52 134.471 156.404 135.38L155.108 136.46H158.105V137.432H153.551ZM161.429 137.54C160.331 137.54 159.548 137.081 159.017 136.433L159.791 135.713C160.241 136.244 160.745 136.541 161.447 136.541C162.068 136.541 162.536 136.163 162.536 135.587V135.569C162.536 134.948 161.969 134.597 161.087 134.597H160.574L160.394 133.904L162.095 132.095H159.368V131.132H163.535V131.96L161.78 133.76C162.734 133.877 163.634 134.363 163.634 135.524V135.542C163.634 136.703 162.743 137.54 161.429 137.54Z" fill="#414141"/>
<path d="M156.073 171.879C154.975 171.879 154.192 171.42 153.661 170.772L154.435 170.052C154.885 170.583 155.389 170.88 156.091 170.88C156.712 170.88 157.18 170.502 157.18 169.926V169.908C157.18 169.287 156.613 168.936 155.731 168.936H155.218L155.038 168.243L156.739 166.434H154.012V165.471H158.179V166.299L156.424 168.099C157.378 168.216 158.278 168.702 158.278 169.863V169.881C158.278 171.042 157.387 171.879 156.073 171.879ZM162.087 171.879C160.431 171.879 159.351 170.439 159.351 168.639V168.621C159.351 166.821 160.449 165.363 162.105 165.363C163.752 165.363 164.841 166.803 164.841 168.603V168.621C164.841 170.421 163.743 171.879 162.087 171.879ZM162.105 170.88C163.086 170.88 163.698 169.872 163.698 168.639V168.621C163.698 167.379 163.059 166.362 162.087 166.362C161.115 166.362 160.494 167.352 160.494 168.603V168.621C160.494 169.863 161.124 170.88 162.105 170.88Z" fill="#414141"/>
<path d="M156.863 206.11L159.689 200.782H156.521V199.81H160.949V200.647L158.114 206.11H156.863Z" fill="#414141"/>
<path d="M198.291 35.8434C197.193 35.8434 196.41 35.3844 195.879 34.7364L196.653 34.0164C197.103 34.5474 197.607 34.8444 198.309 34.8444C198.93 34.8444 199.398 34.4664 199.398 33.8904V33.8724C199.398 33.2514 198.831 32.9004 197.949 32.9004H197.436L197.256 32.2074L198.957 30.3984H196.23V29.4354H200.397V30.2634L198.642 32.0634C199.596 32.1804 200.496 32.6664 200.496 33.8274V33.8454C200.496 35.0064 199.605 35.8434 198.291 35.8434Z" fill="#414141"/>
<path d="M195.496 70.0742V64.8542L194.362 65.1692L194.128 64.2692L195.829 63.7292H196.594V70.0742H195.496ZM200.712 70.1822C199.056 70.1822 197.976 68.7422 197.976 66.9422V66.9242C197.976 65.1242 199.074 63.6662 200.73 63.6662C202.377 63.6662 203.466 65.1062 203.466 66.9062V66.9242C203.466 68.7242 202.368 70.1822 200.712 70.1822ZM200.73 69.1832C201.711 69.1832 202.323 68.1752 202.323 66.9422V66.9242C202.323 65.6822 201.684 64.6652 200.712 64.6652C199.74 64.6652 199.119 65.6552 199.119 66.9062V66.9242C199.119 68.1662 199.749 69.1832 200.73 69.1832Z" fill="#414141"/>
<path d="M195.35 104.414V99.1936L194.216 99.5086L193.982 98.6086L195.683 98.0686H196.448V104.414H195.35ZM198.271 104.414L201.097 99.0856H197.929V98.1136H202.357V98.9506L199.522 104.414H198.271Z" fill="#414141"/>
<path d="M192.976 137.432V136.559L195.145 134.714C196.009 133.976 196.324 133.58 196.324 133.013C196.324 132.392 195.883 132.032 195.307 132.032C194.731 132.032 194.335 132.347 193.858 132.977L193.066 132.356C193.669 131.519 194.263 131.042 195.388 131.042C196.621 131.042 197.467 131.798 197.467 132.923V132.941C197.467 133.931 196.945 134.471 195.829 135.38L194.533 136.46H197.53V137.432H192.976ZM201.587 137.432V136.019H198.41L198.203 135.227L201.704 131.087H202.649V135.11H203.549V136.019H202.649V137.432H201.587ZM199.517 135.11H201.587V132.617L199.517 135.11Z" fill="#414141"/>
<path d="M198.091 171.771V166.551L196.957 166.866L196.723 165.966L198.424 165.426H199.189V171.771H198.091Z" fill="#414141"/>
<path d="M198.274 206.2C196.897 206.2 195.871 205.48 195.871 204.391V204.373C195.871 203.617 196.294 203.14 197.005 202.843C196.474 202.564 196.087 202.141 196.087 201.439V201.421C196.087 200.458 197.014 199.72 198.274 199.72C199.534 199.72 200.461 200.449 200.461 201.421V201.439C200.461 202.141 200.074 202.564 199.543 202.843C200.236 203.158 200.677 203.608 200.677 204.355V204.373C200.677 205.498 199.651 206.2 198.274 206.2ZM198.274 202.474C198.922 202.474 199.399 202.087 199.399 201.547V201.529C199.399 201.043 198.949 200.647 198.274 200.647C197.599 200.647 197.149 201.043 197.149 201.52V201.538C197.149 202.087 197.626 202.474 198.274 202.474ZM198.274 205.273C199.102 205.273 199.597 204.85 199.597 204.328V204.31C199.597 203.734 199.021 203.356 198.274 203.356C197.527 203.356 196.96 203.734 196.96 204.31V204.328C196.96 204.841 197.446 205.273 198.274 205.273Z" fill="#414141"/>
<path d="M239.197 35.7354V34.3224H236.02L235.813 33.5304L239.314 29.3904H240.259V33.4134H241.159V34.3224H240.259V35.7354H239.197ZM237.127 33.4134H239.197V30.9204L237.127 33.4134Z" fill="#414141"/>
<path d="M235.929 70.0742V64.8542L234.795 65.1692L234.561 64.2692L236.262 63.7292H237.027V70.0742H235.929ZM239.497 70.0742V64.8542L238.363 65.1692L238.129 64.2692L239.83 63.7292H240.595V70.0742H239.497Z" fill="#414141"/>
<path d="M234.879 104.414V99.1936L233.745 99.5086L233.511 98.6086L235.212 98.0686H235.977V104.414H234.879ZM239.68 104.504C238.303 104.504 237.277 103.784 237.277 102.695V102.677C237.277 101.921 237.7 101.444 238.411 101.147C237.88 100.868 237.493 100.445 237.493 99.7426V99.7246C237.493 98.7616 238.42 98.0236 239.68 98.0236C240.94 98.0236 241.867 98.7526 241.867 99.7246V99.7426C241.867 100.445 241.48 100.868 240.949 101.147C241.642 101.462 242.083 101.912 242.083 102.659V102.677C242.083 103.802 241.057 104.504 239.68 104.504ZM239.68 100.778C240.328 100.778 240.805 100.391 240.805 99.8506V99.8326C240.805 99.3466 240.355 98.9506 239.68 98.9506C239.005 98.9506 238.555 99.3466 238.555 99.8236V99.8416C238.555 100.391 239.032 100.778 239.68 100.778ZM239.68 103.577C240.508 103.577 241.003 103.154 241.003 102.632V102.614C241.003 102.038 240.427 101.66 239.68 101.66C238.933 101.66 238.366 102.038 238.366 102.614V102.632C238.366 103.145 238.852 103.577 239.68 103.577Z" fill="#414141"/>
<path d="M232.774 137.432V136.559L234.943 134.714C235.807 133.976 236.122 133.58 236.122 133.013C236.122 132.392 235.681 132.032 235.105 132.032C234.529 132.032 234.133 132.347 233.656 132.977L232.864 132.356C233.467 131.519 234.061 131.042 235.186 131.042C236.419 131.042 237.265 131.798 237.265 132.923V132.941C237.265 133.931 236.743 134.471 235.627 135.38L234.331 136.46H237.328V137.432H232.774ZM240.588 137.54C239.625 137.54 238.869 137.153 238.275 136.577L238.959 135.776C239.463 136.244 239.994 136.532 240.579 136.532C241.335 136.532 241.83 136.1 241.83 135.443V135.425C241.83 134.786 241.29 134.381 240.525 134.381C240.075 134.381 239.688 134.507 239.364 134.66L238.698 134.219L238.878 131.132H242.649V132.113H239.832L239.733 133.589C240.03 133.481 240.309 133.409 240.732 133.409C241.956 133.409 242.928 134.057 242.928 135.389V135.407C242.928 136.694 241.983 137.54 240.588 137.54Z" fill="#414141"/>
<path d="M235.577 171.771V170.898L237.746 169.053C238.61 168.315 238.925 167.919 238.925 167.352C238.925 166.731 238.484 166.371 237.908 166.371C237.332 166.371 236.936 166.686 236.459 167.316L235.667 166.695C236.27 165.858 236.864 165.381 237.989 165.381C239.222 165.381 240.068 166.137 240.068 167.262V167.28C240.068 168.27 239.546 168.81 238.43 169.719L237.134 170.799H240.131V171.771H235.577Z" fill="#414141"/>
<path d="M237.661 205.21C238.777 205.21 239.182 204.058 239.191 203.221C238.84 203.644 238.354 203.896 237.706 203.896C236.365 203.896 235.474 203.113 235.474 201.898V201.88C235.474 200.647 236.428 199.702 237.823 199.702C238.615 199.702 239.128 199.927 239.578 200.368C240.037 200.836 240.334 201.529 240.334 202.771V202.789C240.334 204.814 239.335 206.218 237.634 206.218C236.761 206.218 236.149 205.903 235.618 205.462L236.221 204.616C236.698 205.012 237.121 205.21 237.661 205.21ZM237.868 202.969C238.669 202.969 239.146 202.447 239.146 201.835V201.817C239.146 201.16 238.633 200.656 237.832 200.656C237.049 200.656 236.581 201.178 236.581 201.826V201.844C236.581 202.501 237.085 202.969 237.868 202.969Z" fill="#414141"/>
<path d="M277.45 35.8434C276.487 35.8434 275.731 35.4564 275.137 34.8804L275.821 34.0794C276.325 34.5474 276.856 34.8354 277.441 34.8354C278.197 34.8354 278.692 34.4034 278.692 33.7464V33.7284C278.692 33.0894 278.152 32.6844 277.387 32.6844C276.937 32.6844 276.55 32.8104 276.226 32.9634L275.56 32.5224L275.74 29.4354H279.511V30.4164H276.694L276.595 31.8924C276.892 31.7844 277.171 31.7124 277.594 31.7124C278.818 31.7124 279.79 32.3604 279.79 33.6924V33.7104C279.79 34.9974 278.845 35.8434 277.45 35.8434Z" fill="#414141"/>
<path d="M274.577 70.0742V64.8542L273.443 65.1692L273.209 64.2692L274.91 63.7292H275.675V70.0742H274.577ZM276.984 70.0742V69.2012L279.153 67.3562C280.017 66.6182 280.332 66.2222 280.332 65.6552C280.332 65.0342 279.891 64.6742 279.315 64.6742C278.739 64.6742 278.343 64.9892 277.866 65.6192L277.074 64.9982C277.677 64.1612 278.271 63.6842 279.396 63.6842C280.629 63.6842 281.475 64.4402 281.475 65.5652V65.5832C281.475 66.5732 280.953 67.1132 279.837 68.0222L278.541 69.1022H281.538V70.0742H276.984Z" fill="#414141"/>
<path d="M274.383 104.414V99.1936L273.249 99.5086L273.015 98.6086L274.716 98.0686H275.481V104.414H274.383ZM279.068 103.514C280.184 103.514 280.589 102.362 280.598 101.525C280.247 101.948 279.761 102.2 279.113 102.2C277.772 102.2 276.881 101.417 276.881 100.202V100.184C276.881 98.9506 277.835 98.0056 279.23 98.0056C280.022 98.0056 280.535 98.2306 280.985 98.6716C281.444 99.1396 281.741 99.8326 281.741 101.075V101.093C281.741 103.118 280.742 104.522 279.041 104.522C278.168 104.522 277.556 104.207 277.025 103.766L277.628 102.92C278.105 103.316 278.528 103.514 279.068 103.514ZM279.275 101.273C280.076 101.273 280.553 100.751 280.553 100.139V100.121C280.553 99.4636 280.04 98.9596 279.239 98.9596C278.456 98.9596 277.988 99.4816 277.988 100.13V100.148C277.988 100.805 278.492 101.273 279.275 101.273Z" fill="#414141"/>
<path d="M272.246 137.432V136.559L274.415 134.714C275.279 133.976 275.594 133.58 275.594 133.013C275.594 132.392 275.153 132.032 274.577 132.032C274.001 132.032 273.605 132.347 273.128 132.977L272.336 132.356C272.939 131.519 273.533 131.042 274.658 131.042C275.891 131.042 276.737 131.798 276.737 132.923V132.941C276.737 133.931 276.215 134.471 275.099 135.38L273.803 136.46H276.8V137.432H272.246ZM280.358 137.54C279.584 137.54 279.026 137.297 278.603 136.874C278.126 136.397 277.838 135.74 277.838 134.471V134.453C277.838 132.527 278.756 131.024 280.538 131.024C281.357 131.024 281.915 131.285 282.464 131.726L281.87 132.581C281.429 132.239 281.06 132.032 280.502 132.032C279.404 132.032 279.008 133.175 278.99 134.039C279.359 133.652 279.827 133.4 280.502 133.4C281.717 133.4 282.698 134.12 282.698 135.38V135.398C282.698 136.649 281.681 137.54 280.358 137.54ZM280.331 136.577C281.114 136.577 281.591 136.091 281.591 135.443V135.425C281.591 134.795 281.087 134.327 280.304 134.327C279.521 134.327 279.026 134.831 279.026 135.434V135.452C279.026 136.091 279.548 136.577 280.331 136.577Z" fill="#414141"/>
<path d="M277.535 171.879C276.437 171.879 275.654 171.42 275.123 170.772L275.897 170.052C276.347 170.583 276.851 170.88 277.553 170.88C278.174 170.88 278.642 170.502 278.642 169.926V169.908C278.642 169.287 278.075 168.936 277.193 168.936H276.68L276.5 168.243L278.201 166.434H275.474V165.471H279.641V166.299L277.886 168.099C278.84 168.216 279.74 168.702 279.74 169.863V169.881C279.74 171.042 278.849 171.879 277.535 171.879Z" fill="#FF3030"/>
<path d="M274.741 206.11V200.89L273.607 201.205L273.373 200.305L275.074 199.765H275.839V206.11H274.741ZM279.956 206.218C278.3 206.218 277.22 204.778 277.22 202.978V202.96C277.22 201.16 278.318 199.702 279.974 199.702C281.621 199.702 282.71 201.142 282.71 202.942V202.96C282.71 204.76 281.612 206.218 279.956 206.218ZM279.974 205.219C280.955 205.219 281.567 204.211 281.567 202.978V202.96C281.567 201.718 280.928 200.701 279.956 200.701C278.984 200.701 278.363 201.691 278.363 202.942V202.96C278.363 204.202 278.993 205.219 279.974 205.219Z" fill="#414141"/>
<rect x="33.1826" y="33.0186" width="13.2074" height="1.32074" fill="#8B8B8B"/>
<rect x="112.427" y="33.0186" width="13.2074" height="1.32074" fill="#8B8B8B"/>
<rect x="72.3643" y="33.0186" width="13.2074" height="1.32074" fill="#8B8B8B"/>
<rect x="232.612" y="33.0186" width="13.2074" height="1.32074" fill="#8B8B8B"/>
<rect x="33.1826" y="101.696" width="13.2074" height="1.32074" fill="#8B8B8B"/>
<rect x="72.8037" y="67.3574" width="13.2074" height="1.32074" fill="#8B8B8B"/>
<rect x="270.915" y="67.3574" width="13.2074" height="1.32074" fill="#8B8B8B"/>
</svg>
