<svg width="18" height="19" viewBox="0 0 18 19" fill="none" xmlns="http://www.w3.org/2000/svg">
<path d="M18 8.2002V18.2002C17.9999 18.64 17.64 18.9999 17.2002 19H0.799805C0.359964 18.9999 0.000115962 18.64 0 18.2002V8.2002H18ZM13.2002 0C13.7001 0.000104256 14.0996 0.400456 14.0996 0.900391V2H17.2002C17.6401 2.00011 17.9999 2.35994 18 2.7998V6.40039H0V2.7998C8.97443e-05 2.35994 0.359948 2.00011 0.799805 2H3.90039V0.900391C3.90039 0.400456 4.2999 0.000104256 4.7998 0C5.2998 0 5.7002 0.400391 5.7002 0.900391V2H12.2998V0.900391C12.2998 0.400391 12.7002 0 13.2002 0Z" fill="#87581E"/>
</svg>
