<svg width="19" height="12" viewBox="0 0 19 12" fill="none" xmlns="http://www.w3.org/2000/svg">
<path d="M18.7044 1.19363C18.612 0.989057 18.459 0.816391 18.265 0.694373C18.1683 0.6332 18.0614 0.584524 17.9472 0.550978C17.8333 0.51776 17.7113 0.5 17.5865 0.5H6.65075C6.49606 0.5 6.34349 0.522693 6.19935 0.570053C6.09106 0.604915 5.98806 0.653591 5.89208 0.715093C5.74864 0.806524 5.62454 0.92591 5.5261 1.06635C5.43118 1.20086 5.36052 1.35347 5.31306 1.51988L4.24079 4.27597L4.23587 4.29471C4.22216 4.34438 4.20493 4.38713 4.18454 4.42561C4.15325 4.48218 4.11528 4.53086 4.06747 4.57624C4.02001 4.62163 3.96235 4.66406 3.89556 4.70385L1.36044 6.21937C1.01134 6.42788 0.800049 6.78867 0.800049 7.1761V8.82055C0.800049 8.97611 0.83415 9.12674 0.895322 9.2629C0.988135 9.46714 1.14177 9.63981 1.33513 9.76215C1.43181 9.82333 1.53868 9.87167 1.65294 9.90489C1.7672 9.93811 1.88884 9.9562 2.01399 9.9562H3.86778C3.86708 9.96902 3.86638 9.98251 3.86638 9.99534C3.86638 10.8251 4.58813 11.5 5.47478 11.5C6.36142 11.5 7.08317 10.8248 7.08317 9.99534C7.08317 9.98251 7.08317 9.96902 7.08212 9.9562H14.1967C14.196 9.96902 14.1953 9.98251 14.1953 9.99534C14.1953 10.8251 14.917 11.5 15.8037 11.5C16.6903 11.5 17.4121 10.8248 17.4121 9.99534C17.4121 9.98251 17.4114 9.96902 17.4114 9.9562H17.5865C17.7527 9.9562 17.9138 9.9243 18.059 9.86674C18.2776 9.77991 18.4618 9.63685 18.5926 9.45563C18.6584 9.36519 18.71 9.2652 18.7456 9.15831C18.7814 9.05175 18.8 8.93763 18.8 8.82055V1.63532C18.8 1.47943 18.7659 1.32946 18.7044 1.19363Z" fill="#87581E"/>
</svg>
