<svg width="320" height="153" viewBox="0 0 320 153" fill="none" xmlns="http://www.w3.org/2000/svg">
<g filter="url(#filter0_d_43_2146)">
<rect width="320" height="209" transform="translate(0 -45)" fill="white"/>
<circle cx="62.5" cy="93.8335" r="16.5" fill="white"/>
<rect x="241" y="135" width="4" height="14" transform="rotate(90 241 135)" fill="white"/>
<rect x="27" width="43" height="43" rx="4" fill="#E25151"/>
<rect x="27" y="55" width="43" height="43" rx="4" fill="#8C43C4"/>
<rect x="27" y="110" width="43" height="43" rx="4" fill="#519AE2"/>
<path d="M86.996 10.698H91.084V9.382C91.084 8.402 91.084 8.29 91.028 7.954H92.33C92.288 8.318 92.288 8.318 92.274 9.284C92.274 9.564 92.274 9.564 92.274 10.698H93.38C94.262 10.698 94.556 10.684 95.074 10.6V11.86C94.584 11.804 94.206 11.79 93.408 11.79H92.26C92.232 13.456 92.218 13.764 92.148 14.338C91.966 16.046 91.378 17.18 90.174 18.188C89.474 18.776 88.816 19.126 87.598 19.56C87.388 19.112 87.262 18.93 86.842 18.51C88.088 18.16 88.802 17.796 89.53 17.152C90.482 16.298 90.888 15.36 91.014 13.694C91.042 13.302 91.056 12.854 91.07 11.79H86.996V13.806C86.996 14.464 87.01 14.87 87.052 15.206H85.722C85.764 14.856 85.778 14.422 85.778 13.806V11.79H84.686C83.902 11.79 83.538 11.804 83.02 11.86V10.6C83.566 10.684 83.832 10.698 84.714 10.698H85.778V9.242C85.778 8.696 85.75 8.234 85.708 7.94H87.066C87.01 8.304 86.996 8.682 86.996 9.214V10.698ZM99.818 9.116H106.944C106.93 9.018 106.916 8.906 106.916 8.794C106.916 7.912 107.63 7.198 108.512 7.198C109.394 7.198 110.108 7.912 110.108 8.794C110.108 9.676 109.394 10.39 108.512 10.39C108.358 10.39 108.19 10.362 108.05 10.32L107.966 10.614C107.238 13.288 106.16 15.15 104.466 16.718C103.178 17.908 101.96 18.636 100.042 19.406C99.776 18.874 99.65 18.678 99.202 18.244C100.462 17.852 101.288 17.474 102.338 16.774C104.592 15.276 105.936 13.274 106.706 10.264H99.79C98.978 10.264 98.572 10.292 98.082 10.348V9.018C98.642 9.102 98.95 9.116 99.818 9.116ZM108.512 7.814C107.98 7.814 107.532 8.262 107.532 8.794C107.532 9.326 107.98 9.774 108.512 9.774C109.044 9.774 109.492 9.326 109.492 8.794C109.492 8.262 109.044 7.814 108.512 7.814ZM113.704 8.15H115.09C115.048 8.458 115.034 8.892 115.034 9.466V12.896C115.034 13.61 115.048 13.946 115.09 14.31H113.704C113.76 13.904 113.774 13.54 113.774 12.896V9.48C113.774 8.822 113.76 8.514 113.704 8.15ZM119.948 8.164H121.334C121.278 8.528 121.264 8.78 121.264 9.536V11.118C121.264 13.33 121.152 14.562 120.9 15.388C120.508 16.718 119.612 17.768 118.226 18.552C117.54 18.93 116.854 19.196 115.622 19.56C115.44 19.07 115.342 18.902 114.922 18.398C116.378 18.09 117.12 17.81 117.918 17.264C119.276 16.354 119.78 15.444 119.948 13.54C119.99 12.938 120.004 12.63 120.004 11.048V9.55C120.004 8.696 119.99 8.5 119.948 8.164ZM127.702 9.34L127.422 12.238C127.408 12.476 127.408 12.476 127.324 12.868C128.01 12.224 128.794 11.916 129.76 11.916C131.888 11.916 133.288 13.302 133.288 15.416C133.288 17.74 131.776 19.21 129.382 19.21C128.206 19.21 127.268 18.86 126.568 18.174C126.204 17.81 126.008 17.502 125.686 16.802L127.058 16.438C127.198 16.844 127.296 17.026 127.492 17.264C127.94 17.768 128.612 18.048 129.396 18.048C130.922 18.048 131.93 17.026 131.93 15.472C131.93 13.932 131.006 13.008 129.452 13.008C128.752 13.008 128.038 13.302 127.548 13.806C127.366 13.988 127.296 14.1 127.17 14.394L125.924 14.282C126.036 13.652 126.078 13.386 126.12 12.826L126.428 9.578C126.484 9.116 126.484 9.018 126.484 8.626C126.484 8.584 126.484 8.57 126.456 8.136C126.876 8.192 127.156 8.206 127.954 8.206H130.978C131.804 8.206 132.14 8.178 132.714 8.094V9.452C132.154 9.368 131.692 9.34 130.992 9.34H127.702ZM137.064 10.95V8.99C136.462 9.144 136.21 9.186 135.524 9.312C135.412 8.948 135.3 8.71 135.09 8.402C136.532 8.22 137.568 7.968 138.506 7.548C138.744 7.436 138.828 7.394 138.996 7.282L139.612 8.136C139.472 8.178 139.472 8.178 138.87 8.43C138.576 8.542 138.338 8.626 138.044 8.724V10.95H138.422C138.842 10.95 139.08 10.936 139.346 10.894V11.93C139.08 11.888 138.786 11.874 138.408 11.874H138.086C138.604 13.12 138.828 13.512 139.444 14.212C139.122 14.632 139.066 14.744 138.912 15.108C138.478 14.436 138.268 13.974 137.974 13.148C138.002 13.596 138.002 13.75 138.016 14.156C138.016 14.408 138.03 14.59 138.03 14.688C138.03 14.954 138.044 15.136 138.044 15.22V18.482C138.044 19.21 138.058 19.588 138.114 20.092H136.98C137.036 19.602 137.064 19.14 137.064 18.482V15.556C137.092 14.436 137.106 13.722 137.134 13.386C136.714 14.926 136.224 15.976 135.398 17.096C135.23 16.69 135.076 16.438 134.824 16.13C135.762 14.982 136.518 13.442 136.938 11.874H136.266C135.888 11.874 135.552 11.902 135.202 11.944V10.88C135.538 10.922 135.888 10.95 136.294 10.95H137.064ZM142.818 9.774V8.934C141.782 9.004 141.25 9.032 140.102 9.046C139.99 8.682 139.892 8.472 139.696 8.164C140.088 8.178 140.382 8.178 140.578 8.178C142.762 8.178 145.548 7.828 146.528 7.436L147.242 8.318C147.144 8.332 147.144 8.332 146.71 8.43C145.968 8.584 144.862 8.752 143.756 8.864V9.774H146.332C146.906 9.774 147.312 9.746 147.704 9.69V10.698C147.326 10.656 146.906 10.628 146.402 10.628H143.756V11.468H145.688C146.276 11.468 146.626 11.454 146.99 11.426C146.948 11.776 146.948 11.93 146.948 12.588V14.66C146.948 15.374 146.948 15.612 146.99 15.976C146.654 15.948 146.346 15.934 145.744 15.934H143.756V16.83H145.758C146.472 16.83 146.822 16.816 147.158 16.76V17.768C146.752 17.726 146.276 17.698 145.758 17.698H143.756V18.706H146.346C146.962 18.706 147.41 18.678 147.816 18.636V19.658C147.382 19.602 146.976 19.574 146.318 19.574H140.41C139.71 19.574 139.29 19.588 138.926 19.644V18.636C139.276 18.692 139.71 18.706 140.396 18.706H142.818V17.698H140.802C140.172 17.698 139.85 17.712 139.458 17.754V16.774C139.822 16.816 140.13 16.83 140.802 16.83H142.818V15.934H140.984C140.396 15.934 140.018 15.948 139.752 15.976C139.78 15.57 139.794 15.206 139.794 14.646V12.602C139.794 12.042 139.78 11.748 139.752 11.426C140.116 11.454 140.466 11.468 141.054 11.468H142.818V10.628H140.564C139.99 10.628 139.528 10.642 139.234 10.684V9.704C139.612 9.76 140.004 9.774 140.55 9.774H142.818ZM142.818 12.28H140.718V13.274H142.818V12.28ZM143.756 12.28V13.274H146.01V12.28H143.756ZM142.818 14.072H140.718V15.108H142.818V14.072ZM143.756 14.072V15.108H146.01V14.072H143.756ZM159.07 18.09H152.546C151.608 18.09 151.328 18.104 150.908 18.146V16.83C151.398 16.914 151.636 16.928 152.56 16.928H159.084V10.362H152.84C151.916 10.362 151.622 10.376 151.118 10.432V9.102C151.636 9.186 151.86 9.2 152.854 9.2H159.644C159.812 9.2 160.022 9.186 160.372 9.172C160.344 9.508 160.344 9.746 160.344 10.278V17.544C160.344 18.174 160.358 18.58 160.414 18.93H159.07V18.09ZM165.004 9.9L165.83 8.962C167.384 9.956 168.252 10.628 169.274 11.622L168.42 12.672C167.37 11.552 166.25 10.642 165.004 9.9ZM165.214 19.042L164.85 17.642C165.97 17.6 167.65 17.166 168.952 16.592C171.626 15.402 173.474 13.372 174.622 10.362C175.014 10.852 175.168 11.006 175.658 11.328C174.51 13.82 173.208 15.444 171.332 16.718C169.904 17.698 168.336 18.314 166.082 18.818C165.634 18.916 165.522 18.944 165.214 19.042ZM180.738 9.116H187.864C187.85 9.018 187.836 8.906 187.836 8.794C187.836 7.912 188.55 7.198 189.432 7.198C190.314 7.198 191.028 7.912 191.028 8.794C191.028 9.676 190.314 10.39 189.432 10.39C189.278 10.39 189.11 10.362 188.97 10.32L188.886 10.614C188.158 13.288 187.08 15.15 185.386 16.718C184.098 17.908 182.88 18.636 180.962 19.406C180.696 18.874 180.57 18.678 180.122 18.244C181.382 17.852 182.208 17.474 183.258 16.774C185.512 15.276 186.856 13.274 187.626 10.264H180.71C179.898 10.264 179.492 10.292 179.002 10.348V9.018C179.562 9.102 179.87 9.116 180.738 9.116ZM189.432 7.814C188.9 7.814 188.452 8.262 188.452 8.794C188.452 9.326 188.9 9.774 189.432 9.774C189.964 9.774 190.412 9.326 190.412 8.794C190.412 8.262 189.964 7.814 189.432 7.814ZM194.624 8.15H196.01C195.968 8.458 195.954 8.892 195.954 9.466V12.896C195.954 13.61 195.968 13.946 196.01 14.31H194.624C194.68 13.904 194.694 13.54 194.694 12.896V9.48C194.694 8.822 194.68 8.514 194.624 8.15ZM200.868 8.164H202.254C202.198 8.528 202.184 8.78 202.184 9.536V11.118C202.184 13.33 202.072 14.562 201.82 15.388C201.428 16.718 200.532 17.768 199.146 18.552C198.46 18.93 197.774 19.196 196.542 19.56C196.36 19.07 196.262 18.902 195.842 18.398C197.298 18.09 198.04 17.81 198.838 17.264C200.196 16.354 200.7 15.444 200.868 13.54C200.91 12.938 200.924 12.63 200.924 11.048V9.55C200.924 8.696 200.91 8.5 200.868 8.164ZM206.872 14.338V12.952C207.32 13.008 207.838 13.036 208.804 13.036H216.672C217.792 13.036 218.072 13.022 218.562 12.952V14.338C218.03 14.282 217.624 14.268 216.658 14.268H208.818C207.712 14.268 207.362 14.282 206.872 14.338ZM225.392 19.49H223.978C224.048 19.028 224.062 18.664 224.062 17.866V9.34C224.062 8.5 224.048 8.164 223.978 7.8H225.392C225.336 8.206 225.322 8.598 225.322 9.382V11.874C227.296 12.574 229.2 13.456 231.58 14.828L230.88 16.046C229.648 15.178 227.716 14.142 225.728 13.302C225.518 13.204 225.462 13.19 225.266 13.064C225.308 13.414 225.322 13.652 225.322 14.212V17.866C225.322 18.608 225.336 19.056 225.392 19.49Z" fill="black" fill-opacity="0.87"/>
<path d="M85.912 63.34L85.632 66.238C85.618 66.476 85.618 66.476 85.534 66.868C86.22 66.224 87.004 65.916 87.97 65.916C90.098 65.916 91.498 67.302 91.498 69.416C91.498 71.74 89.986 73.21 87.592 73.21C86.416 73.21 85.478 72.86 84.778 72.174C84.414 71.81 84.218 71.502 83.896 70.802L85.268 70.438C85.408 70.844 85.506 71.026 85.702 71.264C86.15 71.768 86.822 72.048 87.606 72.048C89.132 72.048 90.14 71.026 90.14 69.472C90.14 67.932 89.216 67.008 87.662 67.008C86.962 67.008 86.248 67.302 85.758 67.806C85.576 67.988 85.506 68.1 85.38 68.394L84.134 68.282C84.246 67.652 84.288 67.386 84.33 66.826L84.638 63.578C84.694 63.116 84.694 63.018 84.694 62.626C84.694 62.584 84.694 62.57 84.666 62.136C85.086 62.192 85.366 62.206 86.164 62.206H89.188C90.014 62.206 90.35 62.178 90.924 62.094V63.452C90.364 63.368 89.902 63.34 89.202 63.34H85.912ZM95.0359 72.342V63.438C95.0359 62.892 95.0079 62.444 94.9659 62.024C95.4139 62.08 95.8479 62.094 96.4919 62.094H102.904C103.562 62.094 103.968 62.08 104.374 62.024C104.318 62.444 104.304 62.822 104.304 63.354V72.328C104.304 73.028 104.332 73.434 104.388 73.896H103.17V73H96.1699V73.896H94.9519C95.0079 73.462 95.0359 72.972 95.0359 72.342ZM96.1699 63.13V66.854H103.17V63.13H96.1699ZM96.1699 67.89V71.964H103.17V67.89H96.1699ZM110.28 63.242L110.756 62.108C113.192 62.416 115.124 62.836 117.952 63.648L117.532 64.866C115.572 64.166 112.632 63.508 110.28 63.242ZM110.028 67.078L110.518 65.944C112.828 66.28 114.928 66.77 117.532 67.582L117.112 68.786C115.124 68.03 112.604 67.414 110.028 67.078ZM108.922 71.012L109.412 69.878C112.856 70.41 115.376 71.04 118.456 72.174L118.008 73.42C116.65 72.804 115.446 72.398 113.206 71.852C111.47 71.418 110.35 71.208 108.922 71.012ZM123.62 65.58L124.67 65.23C125.244 66.224 125.51 66.854 126.056 68.394L124.922 68.772C124.586 67.512 124.222 66.602 123.62 65.58ZM126.532 64.992L127.568 64.67C128.31 66.042 128.562 66.602 128.926 67.736L127.82 68.114C127.554 67.092 127.134 66.056 126.532 64.992ZM131.376 64.936L132.608 65.202C132.524 65.454 132.496 65.552 132.426 65.846C131.936 67.932 131.348 69.29 130.41 70.522C129.43 71.796 128.184 72.748 126.378 73.644C126.126 73.224 125.986 73.07 125.58 72.692C128.338 71.53 129.962 69.864 130.872 67.246C131.194 66.336 131.376 65.468 131.376 64.936ZM138.416 63.144L139.06 62.136C140.432 62.682 141.398 63.172 142.602 63.914L141.944 65.006C140.88 64.25 139.48 63.508 138.416 63.144ZM137.31 66.504L137.982 65.496C139.312 66.042 140.39 66.588 141.58 67.344L140.95 68.464C139.9 67.694 138.64 67.022 137.31 66.504ZM137.87 73.224L137.534 71.852C138.5 71.852 139.956 71.516 141.384 70.97C143.092 70.326 144.408 69.332 145.528 67.862C146.312 66.84 146.774 65.986 147.194 64.74C147.614 65.174 147.768 65.3 148.244 65.636C147.012 68.548 145.304 70.466 142.826 71.698C141.832 72.188 140.334 72.692 139.186 72.93C138.948 72.972 138.71 73.028 138.43 73.084C138.136 73.14 138.08 73.154 137.87 73.224ZM159.204 73.084H153.94C153.254 73.084 152.932 73.098 152.61 73.14V71.978C152.988 72.034 153.338 72.062 153.954 72.062H159.204V69.598H154.416C153.702 69.598 153.478 69.612 153.086 69.654V68.534C153.506 68.604 153.772 68.618 154.416 68.618H159.204V66.336H154.094C153.366 66.336 153.128 66.35 152.75 66.392V65.244C153.156 65.3 153.492 65.328 154.094 65.328H159.176C159.68 65.328 160.03 65.314 160.324 65.286C160.296 65.734 160.296 65.93 160.296 66.476V72.51C160.296 73.238 160.31 73.448 160.352 73.77H159.204V73.084ZM165.964 63.9L166.79 62.962C168.344 63.956 169.212 64.628 170.234 65.622L169.38 66.672C168.33 65.552 167.21 64.642 165.964 63.9ZM166.174 73.042L165.81 71.642C166.93 71.6 168.61 71.166 169.912 70.592C172.586 69.402 174.434 67.372 175.582 64.362C175.974 64.852 176.128 65.006 176.618 65.328C175.47 67.82 174.168 69.444 172.292 70.718C170.864 71.698 169.296 72.314 167.042 72.818C166.594 72.916 166.482 72.944 166.174 73.042ZM186.234 63.284H184.232C183.602 63.284 183.252 63.298 182.93 63.34V62.36C183.28 62.416 183.658 62.43 184.316 62.43H186.234C186.234 61.982 186.206 61.632 186.164 61.31H187.298C187.256 61.618 187.228 61.996 187.228 62.43H189.314C189.93 62.43 190.406 62.402 190.728 62.36V63.354C190.392 63.298 189.986 63.284 189.412 63.284H187.228V64.306H189.986C190.7 64.306 191.05 64.292 191.372 64.236V65.23C191.022 65.188 190.63 65.174 189.972 65.174H189.314C189.146 65.636 188.964 66.028 188.754 66.448H189.804C190.518 66.448 190.854 66.434 191.19 66.378V67.372C190.84 67.316 190.504 67.302 189.804 67.302H187.228V68.296H189.314C189.902 68.296 190.322 68.282 190.644 68.226V69.206C190.336 69.164 189.888 69.136 189.328 69.136H187.228V70.13H189.944C190.616 70.13 190.98 70.116 191.33 70.06V71.068C190.98 71.012 190.574 70.998 189.958 70.998H187.228V71.138C187.228 71.6 187.256 72.02 187.298 72.384H186.164C186.206 72.02 186.234 71.6 186.234 71.124V70.998H183.784C183.14 70.998 182.776 71.012 182.426 71.068V70.06C182.748 70.116 183.126 70.13 183.784 70.13H186.234V69.136H184.358C183.77 69.136 183.308 69.164 183.014 69.206V68.226C183.322 68.282 183.756 68.296 184.358 68.296H186.234V67.302H183.98C183.28 67.302 182.944 67.316 182.608 67.372V66.378C182.916 66.434 183.266 66.448 183.98 66.448H184.722C184.554 65.93 184.428 65.622 184.218 65.174H183.644C183 65.174 182.622 65.188 182.286 65.23V64.236C182.594 64.292 182.944 64.306 183.644 64.306H186.234V63.284ZM188.264 65.174H185.24C185.478 65.664 185.604 66 185.744 66.448H187.732C187.942 66.056 188.124 65.622 188.264 65.174ZM179.108 62.276L179.892 61.59C180.858 62.514 181.306 63.004 182.02 63.998L181.208 64.782C180.466 63.662 180.074 63.2 179.108 62.276ZM178.884 67.932V66.84C179.22 66.896 179.444 66.91 179.976 66.91H180.788C181.222 66.91 181.488 66.896 181.852 66.84C181.81 67.274 181.796 67.638 181.796 68.338V71.166C182.048 71.684 182.328 71.992 182.888 72.286C183.49 72.622 184.47 72.748 186.444 72.748C188.768 72.748 190.434 72.664 191.806 72.482C191.596 73.042 191.554 73.168 191.456 73.658C190.154 73.714 188.292 73.756 186.808 73.756C184.33 73.756 183.476 73.658 182.692 73.28C182.132 73.028 181.684 72.622 181.264 72.02C180.648 72.622 180.242 72.986 179.668 73.406C179.458 73.56 179.332 73.658 179.122 73.854L178.59 72.748C179.22 72.454 179.99 71.88 180.76 71.138V67.862H179.878C179.458 67.862 179.22 67.876 178.884 67.932ZM203.648 65.65L204.754 66.084C204.656 66.322 204.6 66.434 204.418 66.868C204.404 66.91 204.404 66.91 204.026 67.778C203.522 68.912 203.172 69.528 202.5 70.41C202.92 71.194 203.228 71.614 203.746 72.09C203.998 72.3 204.25 72.468 204.362 72.468C204.558 72.468 204.782 71.726 204.95 70.48C205.272 70.816 205.538 71.012 205.846 71.18C205.51 72.958 205.104 73.658 204.418 73.658C204.04 73.658 203.466 73.322 202.892 72.762C202.5 72.37 202.164 71.922 201.772 71.264C200.708 72.398 199.546 73.238 198.034 73.966C197.754 73.546 197.614 73.392 197.25 73.098C198.888 72.44 200.19 71.544 201.296 70.298C200.638 68.744 200.302 67.064 200.134 64.53H195.388C195.374 65.664 195.374 66.084 195.36 66.7H197.992C198.51 66.7 198.734 66.686 199.028 66.644C198.986 66.98 198.986 67.022 198.944 67.89C198.874 69.64 198.72 70.802 198.538 71.264C198.328 71.81 197.978 71.978 197.068 71.978C196.634 71.978 196.242 71.95 195.71 71.866C195.668 71.418 195.626 71.208 195.486 70.802C196.284 70.956 196.606 70.998 197.04 70.998C197.502 70.998 197.614 70.886 197.726 70.34C197.81 69.836 197.88 68.814 197.908 67.652H195.318C195.248 69.276 195.108 70.424 194.87 71.418C194.632 72.44 194.366 73.056 193.792 73.952C193.47 73.546 193.274 73.378 192.91 73.154C193.442 72.398 193.722 71.768 193.904 70.956C194.198 69.696 194.338 67.834 194.338 65.202C194.338 64.292 194.324 63.97 194.254 63.494C194.758 63.55 195.262 63.564 195.976 63.564H200.092C200.036 61.814 200.036 61.73 199.98 61.38H201.212C201.156 61.674 201.142 62.08 201.142 62.626C201.142 62.794 201.142 62.99 201.156 63.564H204.138C204.908 63.564 205.3 63.55 205.636 63.48V64.6C205.202 64.544 204.768 64.53 204.026 64.53H201.198C201.296 66.42 201.59 68.086 202.038 69.346C202.85 68.128 203.494 66.644 203.648 65.65ZM204.53 62.836L203.788 63.48C203.102 62.78 202.822 62.542 201.94 61.982L202.696 61.436C203.536 61.954 203.718 62.108 204.53 62.836Z" fill="black" fill-opacity="0.87"/>
<path d="M83.616 126.592L85.03 126.27C85.24 126.97 85.422 127.25 85.828 127.544C86.304 127.894 86.892 128.062 87.606 128.062C89.16 128.062 90.14 127.264 90.14 125.99C90.14 124.646 89.188 123.946 87.382 123.946C86.962 123.946 86.612 123.974 86.192 124.03V122.742C86.528 122.784 86.892 122.812 87.298 122.812C88.194 122.812 88.838 122.616 89.272 122.196C89.608 121.86 89.804 121.384 89.804 120.852C89.804 119.76 89.006 119.102 87.648 119.102C86.808 119.102 86.234 119.34 85.856 119.83C85.66 120.068 85.562 120.292 85.422 120.782L84.022 120.488C84.274 119.732 84.456 119.396 84.848 118.99C85.506 118.318 86.486 117.968 87.718 117.968C89.818 117.968 91.176 119.074 91.176 120.782C91.176 121.636 90.826 122.392 90.196 122.84C89.846 123.092 89.552 123.204 88.88 123.344C89.846 123.47 90.392 123.708 90.868 124.226C91.316 124.716 91.54 125.332 91.54 126.144C91.54 126.914 91.246 127.656 90.728 128.16C90.028 128.846 88.95 129.21 87.62 129.21C86.136 129.21 85.044 128.804 84.358 128.02C84.036 127.642 83.868 127.32 83.616 126.592ZM97.3599 129.196C96.2819 129.196 95.3859 128.846 94.6999 128.16C94.3079 127.768 94.0139 127.32 93.8459 126.844C93.4819 125.864 93.2999 124.758 93.2999 123.624C93.2999 122.126 93.6219 120.614 94.1259 119.802C94.8259 118.626 95.9459 118.01 97.3879 118.01C98.4659 118.01 99.4039 118.374 100.062 119.046C100.454 119.438 100.748 119.9 100.916 120.362C101.28 121.342 101.462 122.434 101.462 123.61C101.462 125.29 101.084 126.816 100.468 127.684C99.7399 128.692 98.7039 129.196 97.3599 129.196ZM97.3599 119.158C96.6459 119.158 96.0999 119.382 95.6659 119.872C95.3719 120.194 95.1619 120.544 95.0499 120.908C94.7839 121.72 94.6439 122.644 94.6439 123.638C94.6439 124.898 94.9099 126.242 95.2879 126.872C95.7639 127.656 96.4639 128.048 97.3739 128.048C98.0459 128.048 98.6339 127.824 99.0399 127.404C99.3339 127.096 99.5719 126.718 99.6979 126.298C99.9779 125.458 100.104 124.576 100.104 123.596C100.104 122.406 99.8519 121.062 99.5019 120.418C99.0539 119.578 98.3399 119.158 97.3599 119.158ZM104.706 128.342V119.438C104.706 118.892 104.678 118.444 104.636 118.024C105.084 118.08 105.518 118.094 106.162 118.094H112.574C113.232 118.094 113.638 118.08 114.044 118.024C113.988 118.444 113.974 118.822 113.974 119.354V128.328C113.974 129.028 114.002 129.434 114.058 129.896H112.84V129H105.84V129.896H104.622C104.678 129.462 104.706 128.972 104.706 128.342ZM105.84 119.13V122.854H112.84V119.13H105.84ZM105.84 123.89V127.964H112.84V123.89H105.84ZM124.682 119.438H122.106C121.462 119.438 121.084 119.452 120.832 119.508V118.486C121.182 118.528 121.63 118.556 122.33 118.556H124.682C124.668 118.094 124.64 117.772 124.584 117.352H125.718C125.648 117.744 125.62 118.08 125.62 118.556H128.238C128.896 118.556 129.386 118.528 129.736 118.486V119.508C129.4 119.452 129.008 119.438 128.322 119.438H125.62V120.39H127.916C128.392 120.39 128.644 120.376 129.036 120.334C128.994 120.642 128.98 120.922 128.98 121.314V124.156C128.98 124.534 128.994 124.8 129.036 125.094C128.714 125.052 128.35 125.038 127.916 125.038H125.62V126.074H128.378C129.078 126.074 129.484 126.06 129.792 126.004V127.012C129.47 126.956 129.05 126.942 128.378 126.942H125.62V127.11C125.62 127.544 125.648 127.978 125.704 128.37H124.584C124.654 127.936 124.682 127.558 124.682 127.124V126.942H122.288C121.728 126.942 121.196 126.97 120.888 126.998V126.004C121.196 126.06 121.56 126.074 122.288 126.074H124.682V125.038H122.61C122.204 125.038 121.882 125.052 121.49 125.094C121.532 124.744 121.546 124.534 121.546 124.156V121.272C121.546 120.894 121.532 120.698 121.49 120.334C121.826 120.376 122.148 120.39 122.596 120.39H124.682V119.438ZM124.682 121.216H122.512V122.28H124.682V121.216ZM125.62 121.216V122.28H128V121.216H125.62ZM124.682 123.078H122.512V124.212H124.682V123.078ZM125.62 123.078V124.212H128V123.078H125.62ZM117.444 118.248L118.228 117.548C119.138 118.388 119.6 118.878 120.524 120.04L119.684 120.81C118.872 119.662 118.438 119.158 117.444 118.248ZM117.304 123.904V122.812C117.654 122.868 117.864 122.882 118.396 122.882H119.208C119.628 122.882 119.922 122.868 120.272 122.812C120.23 123.26 120.216 123.596 120.216 124.31V127.124C120.426 127.572 120.594 127.782 120.888 127.978C121.672 128.538 122.484 128.706 124.416 128.706C127.132 128.706 128.756 128.622 130.156 128.44C129.904 129.042 129.904 129.07 129.792 129.644C128.518 129.686 126.628 129.728 124.878 129.728C122.568 129.728 121.742 129.602 120.86 129.112C120.384 128.846 120.062 128.538 119.67 127.992C119.068 128.594 118.69 128.93 118.088 129.378C117.85 129.56 117.752 129.644 117.542 129.826L117.01 128.72C117.584 128.468 118.41 127.852 119.18 127.124V123.834H118.298C117.864 123.834 117.654 123.848 117.304 123.904ZM131.582 124.436L131.442 123.386C131.638 123.414 131.736 123.414 131.946 123.414C132.03 123.414 132.338 123.4 132.506 123.4C132.982 122.742 132.982 122.742 133.388 122.154C132.758 121.3 132.31 120.796 131.442 119.956L131.974 119.144C132.352 119.536 132.422 119.606 132.604 119.802C133.206 118.822 133.612 117.94 133.78 117.268L134.774 117.688C134.69 117.828 134.62 117.94 134.508 118.164C134.004 119.172 133.668 119.76 133.206 120.446C133.542 120.824 133.696 121.006 133.948 121.314C134.83 119.914 135.068 119.466 135.25 118.878L136.188 119.396C136.02 119.634 136.02 119.634 135.488 120.53C135.012 121.314 134.13 122.602 133.556 123.344C134.662 123.26 134.928 123.246 135.376 123.176C135.222 122.728 135.152 122.56 134.9 122.042L135.6 121.762C136.062 122.7 136.258 123.246 136.538 124.31L135.782 124.632C135.726 124.338 135.698 124.254 135.628 124.002C135.292 124.058 135.166 124.072 134.634 124.128V128.734C134.634 129.336 134.662 129.728 134.718 130.134H133.584C133.64 129.714 133.668 129.294 133.668 128.734V124.226C133.08 124.296 132.73 124.324 132.492 124.338C132.002 124.366 131.82 124.394 131.582 124.436ZM139.548 119.55H137.924C137.266 119.55 136.888 119.564 136.482 119.62V118.57C136.874 118.626 137.294 118.654 137.938 118.654H139.548V118.388C139.548 117.926 139.52 117.604 139.464 117.282H140.626C140.57 117.618 140.542 117.926 140.542 118.416V118.654H142.53C143.16 118.654 143.608 118.626 143.986 118.57V119.62C143.58 119.564 143.216 119.55 142.558 119.55H140.542V120.88H142.194C142.824 120.88 143.202 120.852 143.594 120.81V121.832C143.23 121.79 142.81 121.762 142.208 121.762H138.148C137.532 121.762 137.14 121.79 136.748 121.832V120.81C137.126 120.852 137.532 120.88 138.148 120.88H139.548V119.55ZM132.142 125.01L133.052 125.164C132.912 127.068 132.73 128.048 132.338 129.28L131.47 128.818C131.904 127.628 132.016 126.956 132.142 125.01ZM135.11 125.15L135.894 124.912C136.314 126.466 136.328 126.578 136.496 127.852L135.656 128.132C135.544 126.97 135.376 126.088 135.11 125.15ZM137.588 125.318H136.58C136.622 124.982 136.636 124.772 136.636 124.38V123.666C136.636 123.176 136.622 122.966 136.58 122.714C136.86 122.742 137.21 122.756 137.896 122.756H142.502C143.188 122.756 143.594 122.742 143.944 122.686C143.916 122.98 143.902 123.218 143.902 123.61V124.436C143.902 124.828 143.916 125.122 143.958 125.318H142.894V123.638H137.588V125.318ZM140.528 124.394H141.676C141.606 124.73 141.592 125.024 141.592 125.514V128.468C141.592 128.72 141.718 128.79 142.236 128.79C142.67 128.79 142.908 128.748 143.006 128.65C143.202 128.468 143.3 127.88 143.328 126.704C143.692 126.928 143.944 127.026 144.308 127.096C144.21 128.244 144.112 128.776 143.902 129.154C143.65 129.616 143.3 129.742 142.25 129.742C141.438 129.742 141.2 129.714 140.948 129.574C140.71 129.448 140.598 129.21 140.598 128.804V125.514C140.598 125.038 140.57 124.702 140.528 124.394ZM138.47 124.394H139.618C139.576 124.646 139.576 124.716 139.534 125.304C139.45 126.592 139.184 127.488 138.652 128.258C138.12 129 137.574 129.42 136.37 129.98C136.202 129.602 136.006 129.364 135.67 129.084C136.804 128.678 137.392 128.272 137.868 127.572C138.288 126.942 138.526 126.046 138.526 125.024C138.526 124.772 138.512 124.632 138.47 124.394ZM155.73 127.95H148.45V128.93H147.162C147.204 128.608 147.218 128.174 147.218 127.558V120.264C147.218 119.634 147.204 119.368 147.162 119.004C147.596 119.032 147.918 119.046 148.562 119.046H155.632C156.332 119.046 156.598 119.032 157.018 118.99C156.976 119.354 156.962 119.634 156.962 120.264V127.544C156.962 128.188 156.976 128.608 157.018 128.93H155.73V127.95ZM155.73 126.844V120.152H148.45V126.844H155.73ZM169.434 117.884L170.246 117.464C170.904 118.248 171.226 118.724 171.716 119.634L170.89 120.096C170.456 119.228 170.008 118.528 169.434 117.884ZM171.058 117.128L171.842 116.708C172.5 117.478 172.808 117.912 173.312 118.836L172.5 119.298C172.094 118.486 171.674 117.856 171.058 117.128ZM169.602 119.536L170.596 120.6C170.498 120.74 170.484 120.74 170.358 121.174C169.812 122.966 168.832 124.814 167.628 126.2C166.34 127.67 164.8 128.776 162.728 129.714C162.462 129.224 162.322 129.056 161.888 128.706C164.002 127.838 165.458 126.816 166.788 125.248C167.838 124.016 168.678 122.434 169.182 120.684L164.604 120.754C163.708 122.168 162.616 123.344 161.286 124.366C160.978 123.946 160.824 123.806 160.334 123.512C161.846 122.504 162.882 121.356 163.876 119.606C164.394 118.71 164.646 118.108 164.716 117.618L166.088 117.94C165.962 118.108 165.948 118.122 165.78 118.486C165.444 119.2 165.332 119.424 165.164 119.704C165.276 119.676 165.276 119.676 165.682 119.662L169 119.606C169.336 119.606 169.434 119.592 169.602 119.536ZM183.21 117.814L184.358 118.626C184.148 118.808 184.078 118.864 183.854 119.102C182.846 120.166 181.74 121.132 180.494 122.028V127.838C180.494 128.692 180.508 129.098 180.564 129.49H179.136C179.206 129.056 179.22 128.734 179.22 127.852V122.812C177.428 123.904 176.532 124.31 173.928 125.206C173.718 124.688 173.62 124.52 173.27 124.086C175.93 123.386 178.324 122.196 180.564 120.46C181.838 119.466 182.818 118.486 183.21 117.814ZM188.626 119.9L189.452 118.962C191.006 119.956 191.874 120.628 192.896 121.622L192.042 122.672C190.992 121.552 189.872 120.642 188.626 119.9ZM188.836 129.042L188.472 127.642C189.592 127.6 191.272 127.166 192.574 126.592C195.248 125.402 197.096 123.372 198.244 120.362C198.636 120.852 198.79 121.006 199.28 121.328C198.132 123.82 196.83 125.444 194.954 126.718C193.526 127.698 191.958 128.314 189.704 128.818C189.256 128.916 189.144 128.944 188.836 129.042Z" fill="black" fill-opacity="0.87"/>
<g clip-path="url(#clip0_43_2146)">
<path d="M40.8796 81.9955L39.5991 82.8702C40.4185 84.0706 41.4638 85.0847 42.6603 85.8669L43.509 84.5688C42.4805 83.8967 41.583 83.0239 40.879 81.9955H40.8796Z" fill="white"/>
<path d="M46.7529 67.4347C47.4023 67.2999 48.0477 67.2347 48.6841 67.2347C49.2689 67.2347 49.8454 67.2894 50.4074 67.395L50.6934 65.8709C50.0375 65.7478 49.3653 65.684 48.6834 65.684C47.9422 65.684 47.1893 65.7595 46.4364 65.9165L46.4077 65.923L46.7275 67.4406L46.7523 67.4353L46.7529 67.4347Z" fill="white"/>
<path d="M43.3434 68.8832L42.4667 67.6034C41.2683 68.424 40.2536 69.4701 39.4727 70.6672L40.7714 71.5145C41.4435 70.4855 42.3143 69.5866 43.3434 68.8826V68.8832Z" fill="white"/>
<path d="M39.2355 76.6619C39.2355 76.0744 39.2902 75.4954 39.397 74.9294L37.873 74.6428C37.7492 75.3013 37.6841 75.9767 37.6841 76.6619C37.6841 77.4037 37.7596 78.156 37.9166 78.9096L37.9205 78.9285L39.4387 78.61L39.4355 78.593C39.3 77.9443 39.2362 77.2982 39.2362 76.6619H39.2355Z" fill="white"/>
<path d="M50.5938 85.9106C49.9444 86.0447 49.299 86.1099 48.6626 86.1099C48.0719 86.1099 47.4903 86.0539 46.9217 85.9464L46.6338 87.4705C47.2955 87.5955 47.9742 87.6606 48.6626 87.6606C49.4038 87.6606 50.1567 87.5851 50.9097 87.4281L50.9188 87.4262L50.6016 85.908L50.5938 85.9099V85.9106Z" fill="white"/>
<path d="M59.4302 74.4364L59.4223 74.3979L57.9048 74.719L57.9119 74.7523C58.0468 75.4016 58.1113 76.0477 58.1113 76.6841C58.1113 77.2768 58.0546 77.8623 57.9465 78.4322L59.4699 78.722C59.5962 78.0577 59.662 77.3751 59.662 76.6841C59.662 75.9422 59.5865 75.1899 59.4302 74.4364Z" fill="white"/>
<path d="M53.9893 84.4712L54.864 85.7529C56.0643 84.9342 57.0797 83.8902 57.8633 82.6937L56.5659 81.8438C55.8917 82.8715 55.019 83.769 53.9893 84.4712Z" fill="white"/>
<path d="M56.4576 71.3355L57.7368 70.4582C56.9149 69.2598 55.8676 68.247 54.6704 67.4661L53.8237 68.7661C54.8541 69.4369 55.7529 70.3071 56.4583 71.3349L56.4576 71.3355Z" fill="white"/>
<path d="M53.9924 74.8526L50.317 74.3192L48.6738 70.989L47.0299 74.3192L43.3545 74.8526L46.0138 77.4455L45.3859 81.1052L48.6738 79.3773L51.9603 81.1052L51.3331 77.4455L53.9924 74.8526Z" fill="white"/>
<path d="M60.4657 64.8816C58.8328 63.2494 56.8594 61.9546 54.6644 61.1085C52.8036 60.3914 50.7833 60 48.6736 60C46.564 60 44.5091 60.3993 42.636 61.1281C40.4567 61.9735 38.5027 63.2611 36.8816 64.8816C33.8693 67.8946 32 72.0747 32 76.6736C32 81.2726 33.8693 85.4488 36.8816 88.4611C39.8946 91.478 44.0747 93.3473 48.6736 93.3473C53.2726 93.3473 57.4527 91.478 60.4657 88.4611C63.478 85.4482 65.3473 81.2719 65.3473 76.6736C65.3473 72.0754 63.478 67.8946 60.4657 64.8816ZM58.2708 86.2708C55.8088 88.7295 52.4272 90.2451 48.6736 90.2451C44.9201 90.2451 41.5385 88.7295 39.0765 86.2708C36.6185 83.8081 35.1022 80.4272 35.1022 76.6736C35.1022 72.9201 36.6185 69.5352 39.0765 67.0765C40.682 65.4749 42.675 64.2726 44.9123 63.6285C46.1029 63.2878 47.3665 63.1016 48.6736 63.1016C49.9808 63.1016 51.206 63.2794 52.3848 63.6174C54.6416 64.2531 56.6542 65.4632 58.2714 67.0765C60.7295 69.5346 62.2457 72.9195 62.2457 76.6736C62.2457 80.4278 60.7295 83.8081 58.2714 86.2708H58.2708Z" fill="white"/>
</g>
<path d="M39.2156 137.309C39.0272 137.154 38.8365 137.001 38.6541 136.836L38.6518 136.84C38.6474 136.836 38.6421 136.832 38.6377 136.827L34.1296 146.65L34 147.003L34.1706 147.278C34.2942 147.469 34.4938 147.582 34.7172 147.582H34.823L39.1322 146.219L40.837 150.369C40.9427 150.613 41.1721 150.775 41.4365 150.775C41.7009 150.775 41.9184 150.626 42.0241 150.393L45.5119 142.798L46.5427 140.565C46.5427 140.565 46.5389 140.565 46.5375 140.564L46.5456 140.547C43.7989 140.148 41.2891 138.993 39.2156 137.31V137.309Z" fill="white"/>
<path d="M59.8157 139.056L58.8028 136.842C58.8028 136.842 58.7998 136.844 58.7991 136.845L58.7909 136.828C56.7622 138.646 54.25 139.917 51.4892 140.431C51.2948 140.465 51.1019 140.506 50.9053 140.533L50.9075 140.537C50.9016 140.538 50.8956 140.54 50.8896 140.54L55.4104 150.393C55.5162 150.626 55.7455 150.776 55.998 150.776C56.2505 150.776 56.4918 150.615 56.5976 150.369L58.3023 146.22L62.5297 147.553L62.6295 147.582H62.7181C62.9415 147.582 63.1411 147.469 63.2647 147.278L63.4413 146.943L59.815 139.056H59.8157Z" fill="white"/>
<path d="M61.6484 125.152C61.6484 117.888 55.857 112 48.7139 112C41.5709 112 35.7803 117.888 35.7803 125.152C35.7803 132.416 41.5709 138.305 48.7147 138.305C55.8585 138.305 61.6491 132.422 61.6491 125.152H61.6484ZM48.7147 131.244C45.4161 131.244 42.7297 128.512 42.7297 125.152C42.7297 121.793 45.4161 119.066 48.7147 119.066C52.0133 119.066 54.7056 121.798 54.7056 125.152C54.7056 128.506 52.0192 131.244 48.7147 131.244Z" fill="white"/>
<path d="M88.291 36H84.903C84.166 36 83.99 36.011 83.627 36.044C83.737 35.208 83.77 35.032 83.935 34.614C84.221 33.888 84.683 33.261 85.387 32.645C85.75 32.326 86.014 32.139 87.103 31.402C88.148 30.698 88.511 30.225 88.511 29.565C88.511 28.762 87.84 28.256 86.795 28.256C86.08 28.256 85.563 28.487 85.244 28.949C85.046 29.235 84.958 29.499 84.87 30.038L83.759 29.873C83.913 29.081 84.1 28.663 84.474 28.234C84.991 27.651 85.772 27.354 86.784 27.354C88.5 27.354 89.611 28.223 89.611 29.565C89.611 30.082 89.424 30.599 89.094 30.995C88.742 31.435 88.467 31.655 87.213 32.491C85.761 33.459 85.2 34.086 84.914 35.065H88.313C88.896 35.065 89.347 35.043 89.732 34.988V36.055C89.259 36.011 88.885 36 88.291 36ZM94.3364 36.154C93.4894 36.154 92.7854 35.879 92.2464 35.34C91.9384 35.032 91.7074 34.68 91.5754 34.306C91.2894 33.536 91.1464 32.667 91.1464 31.776C91.1464 30.599 91.3994 29.411 91.7954 28.773C92.3454 27.849 93.2254 27.365 94.3584 27.365C95.2054 27.365 95.9424 27.651 96.4594 28.179C96.7674 28.487 96.9984 28.85 97.1304 29.213C97.4164 29.983 97.5594 30.841 97.5594 31.765C97.5594 33.085 97.2624 34.284 96.7784 34.966C96.2064 35.758 95.3924 36.154 94.3364 36.154ZM94.3364 28.267C93.7754 28.267 93.3464 28.443 93.0054 28.828C92.7744 29.081 92.6094 29.356 92.5214 29.642C92.3124 30.28 92.2024 31.006 92.2024 31.787C92.2024 32.777 92.4114 33.833 92.7084 34.328C93.0824 34.944 93.6324 35.252 94.3474 35.252C94.8754 35.252 95.3374 35.076 95.6564 34.746C95.8874 34.504 96.0744 34.207 96.1734 33.877C96.3934 33.217 96.4924 32.524 96.4924 31.754C96.4924 30.819 96.2944 29.763 96.0194 29.257C95.6674 28.597 95.1064 28.267 94.3364 28.267ZM103.594 36H100.206C99.4687 36 99.2927 36.011 98.9297 36.044C99.0397 35.208 99.0727 35.032 99.2377 34.614C99.5237 33.888 99.9857 33.261 100.69 32.645C101.053 32.326 101.317 32.139 102.406 31.402C103.451 30.698 103.814 30.225 103.814 29.565C103.814 28.762 103.143 28.256 102.098 28.256C101.383 28.256 100.866 28.487 100.547 28.949C100.349 29.235 100.261 29.499 100.173 30.038L99.0617 29.873C99.2157 29.081 99.4027 28.663 99.7767 28.234C100.294 27.651 101.075 27.354 102.087 27.354C103.803 27.354 104.914 28.223 104.914 29.565C104.914 30.082 104.727 30.599 104.397 30.995C104.045 31.435 103.77 31.655 102.516 32.491C101.064 33.459 100.503 34.086 100.217 35.065H103.616C104.199 35.065 104.65 35.043 105.035 34.988V36.055C104.562 36.011 104.188 36 103.594 36ZM108.242 28.41L108.022 30.687C108.011 30.874 108.011 30.874 107.945 31.182C108.484 30.676 109.1 30.434 109.859 30.434C111.531 30.434 112.631 31.523 112.631 33.184C112.631 35.01 111.443 36.165 109.562 36.165C108.638 36.165 107.901 35.89 107.351 35.351C107.065 35.065 106.911 34.823 106.658 34.273L107.736 33.987C107.846 34.306 107.923 34.449 108.077 34.636C108.429 35.032 108.957 35.252 109.573 35.252C110.772 35.252 111.564 34.449 111.564 33.228C111.564 32.018 110.838 31.292 109.617 31.292C109.067 31.292 108.506 31.523 108.121 31.919C107.978 32.062 107.923 32.15 107.824 32.381L106.845 32.293C106.933 31.798 106.966 31.589 106.999 31.149L107.241 28.597C107.285 28.234 107.285 28.157 107.285 27.849C107.285 27.816 107.285 27.805 107.263 27.464C107.593 27.508 107.813 27.519 108.44 27.519H110.816C111.465 27.519 111.729 27.497 112.18 27.431V28.498C111.74 28.432 111.377 28.41 110.827 28.41H108.242ZM121.204 36.154C120.357 36.154 119.653 35.879 119.114 35.34C118.806 35.032 118.575 34.68 118.443 34.306C118.157 33.536 118.014 32.667 118.014 31.776C118.014 30.599 118.267 29.411 118.663 28.773C119.213 27.849 120.093 27.365 121.226 27.365C122.073 27.365 122.81 27.651 123.327 28.179C123.635 28.487 123.866 28.85 123.998 29.213C124.284 29.983 124.427 30.841 124.427 31.765C124.427 33.085 124.13 34.284 123.646 34.966C123.074 35.758 122.26 36.154 121.204 36.154ZM121.204 28.267C120.643 28.267 120.214 28.443 119.873 28.828C119.642 29.081 119.477 29.356 119.389 29.642C119.18 30.28 119.07 31.006 119.07 31.787C119.07 32.777 119.279 33.833 119.576 34.328C119.95 34.944 120.5 35.252 121.215 35.252C121.743 35.252 122.205 35.076 122.524 34.746C122.755 34.504 122.942 34.207 123.041 33.877C123.261 33.217 123.36 32.524 123.36 31.754C123.36 30.819 123.162 29.763 122.887 29.257C122.535 28.597 121.974 28.267 121.204 28.267ZM127.656 31.556C126.677 31.358 126.05 30.566 126.05 29.554C126.05 28.19 127.139 27.332 128.866 27.332C130.604 27.332 131.682 28.179 131.682 29.543C131.682 30.566 131.077 31.336 130.098 31.556C130.56 31.622 130.879 31.754 131.253 32.04C131.792 32.458 132.056 33.03 132.056 33.767C132.056 35.318 130.923 36.176 128.888 36.176C126.831 36.176 125.676 35.318 125.676 33.767C125.676 32.986 125.995 32.381 126.633 31.952C126.985 31.721 127.238 31.622 127.656 31.556ZM128.866 28.201C127.788 28.201 127.084 28.762 127.084 29.642C127.084 30.566 127.766 31.138 128.877 31.138C129.977 31.138 130.648 30.577 130.648 29.642C130.648 28.762 129.955 28.201 128.866 28.201ZM128.877 32.04C127.557 32.04 126.765 32.667 126.765 33.701C126.765 34.713 127.535 35.296 128.855 35.296C130.197 35.296 130.967 34.713 130.967 33.69C130.967 32.667 130.175 32.04 128.877 32.04ZM137.001 27.519H137.969L134.009 37.683H133.03L137.001 27.519ZM143.723 36H140.335C139.598 36 139.422 36.011 139.059 36.044C139.169 35.208 139.202 35.032 139.367 34.614C139.653 33.888 140.115 33.261 140.819 32.645C141.182 32.326 141.446 32.139 142.535 31.402C143.58 30.698 143.943 30.225 143.943 29.565C143.943 28.762 143.272 28.256 142.227 28.256C141.512 28.256 140.995 28.487 140.676 28.949C140.478 29.235 140.39 29.499 140.302 30.038L139.191 29.873C139.345 29.081 139.532 28.663 139.906 28.234C140.423 27.651 141.204 27.354 142.216 27.354C143.932 27.354 145.043 28.223 145.043 29.565C145.043 30.082 144.856 30.599 144.526 30.995C144.174 31.435 143.899 31.655 142.645 32.491C141.193 33.459 140.632 34.086 140.346 35.065H143.745C144.328 35.065 144.779 35.043 145.164 34.988V36.055C144.691 36.011 144.317 36 143.723 36ZM148.569 31.556C147.59 31.358 146.963 30.566 146.963 29.554C146.963 28.19 148.052 27.332 149.779 27.332C151.517 27.332 152.595 28.179 152.595 29.543C152.595 30.566 151.99 31.336 151.011 31.556C151.473 31.622 151.792 31.754 152.166 32.04C152.705 32.458 152.969 33.03 152.969 33.767C152.969 35.318 151.836 36.176 149.801 36.176C147.744 36.176 146.589 35.318 146.589 33.767C146.589 32.986 146.908 32.381 147.546 31.952C147.898 31.721 148.151 31.622 148.569 31.556ZM149.779 28.201C148.701 28.201 147.997 28.762 147.997 29.642C147.997 30.566 148.679 31.138 149.79 31.138C150.89 31.138 151.561 30.577 151.561 29.642C151.561 28.762 150.868 28.201 149.779 28.201ZM149.79 32.04C148.47 32.04 147.678 32.667 147.678 33.701C147.678 34.713 148.448 35.296 149.768 35.296C151.11 35.296 151.88 34.713 151.88 33.69C151.88 32.667 151.088 32.04 149.79 32.04ZM159.099 34.339V27.981C158.747 27.981 158.538 27.992 158.252 28.036V27.178C158.527 27.211 158.802 27.233 159.143 27.233H162.564C162.96 27.233 163.18 27.222 163.444 27.189V27.926C163.653 27.937 163.851 27.948 164.115 27.948H167.107C167.382 27.948 167.657 27.937 167.954 27.904C167.932 28.014 167.899 28.201 167.855 28.542C167.602 30.467 167.041 32.15 166.161 33.624C166.81 34.548 167.371 35.065 168.471 35.725C168.262 36.022 168.108 36.297 167.976 36.616C166.865 35.824 166.304 35.285 165.666 34.383C164.995 35.296 164.379 35.89 163.301 36.627C163.169 36.297 163.015 36.066 162.795 35.802C163.862 35.164 164.5 34.581 165.193 33.624C164.764 32.854 164.478 32.15 164.225 31.281C163.994 30.445 163.983 30.412 163.752 28.718C163.477 28.729 163.367 28.74 163.158 28.773V27.992C162.971 27.981 162.839 27.981 162.674 27.981V35.714C162.674 36.22 162.696 36.583 162.74 36.869H161.805C161.849 36.528 161.871 36.132 161.871 35.714V34.493C161.2 34.702 160.133 34.977 159.44 35.12C158.78 35.263 158.571 35.307 158.384 35.373L158.142 34.46C158.373 34.46 158.571 34.427 159.099 34.339ZM159.913 27.981V29.488H161.871V27.981H159.913ZM159.913 30.192V31.677H161.871V30.192H159.913ZM159.913 32.392V34.185C160.716 34.031 160.991 33.965 161.871 33.723V32.392H159.913ZM166.986 28.718H164.544C164.687 29.873 164.764 30.313 164.984 31.061C165.171 31.732 165.402 32.304 165.688 32.843C166.348 31.666 166.722 30.467 166.986 28.718ZM176.949 32.128H173.187C172.78 32.128 172.472 32.139 172.164 32.183V31.369C172.428 31.413 172.692 31.424 173.187 31.424H178.082C178.555 31.424 178.863 31.402 179.116 31.358V32.183C178.808 32.139 178.511 32.128 178.104 32.128H177.763V32.931H178.137C178.588 32.931 178.885 32.92 179.171 32.876V33.701C178.852 33.657 178.566 33.646 178.148 33.646H177.763V35.824C177.763 36.506 177.499 36.682 176.443 36.682C176.124 36.682 175.827 36.671 175.387 36.649C175.343 36.264 175.299 36.077 175.178 35.78C175.684 35.857 176.179 35.901 176.443 35.901C176.861 35.901 176.949 35.857 176.949 35.637V33.646H173.055C172.648 33.646 172.362 33.657 172.043 33.701V32.876C172.329 32.92 172.615 32.931 173.066 32.931H176.949V32.128ZM171.636 26.771L172.351 27.266C171.801 28.003 171.757 28.058 171.493 28.355C170.965 28.938 170.492 29.356 169.865 29.774C169.711 29.488 169.579 29.323 169.359 29.114C170.404 28.476 171.229 27.629 171.636 26.771ZM177.433 30.72H174.144C173.704 30.72 173.341 30.731 173.11 30.764C173.132 30.489 173.143 30.236 173.143 29.719V28.223C173.143 27.717 173.132 27.486 173.11 27.211C173.396 27.244 173.671 27.255 174.188 27.255H177.378C177.906 27.255 178.203 27.244 178.456 27.211C178.423 27.519 178.412 27.783 178.412 28.256V29.719C178.412 30.203 178.423 30.456 178.456 30.764C178.181 30.731 177.851 30.72 177.433 30.72ZM173.924 27.937V28.641H177.609V27.937H173.924ZM173.924 29.301V30.06H177.609V29.301H173.924ZM175.376 35.351L174.694 35.945C174.221 35.186 173.891 34.779 173.286 34.218L173.924 33.745C174.529 34.295 174.793 34.592 175.376 35.351ZM170.668 35.626V33.085C170.668 32.634 170.679 32.293 170.701 31.831C170.382 32.249 170.107 32.513 169.645 32.876C169.491 32.535 169.381 32.348 169.194 32.117C170.019 31.556 170.657 30.907 171.229 30.06C171.438 29.741 171.57 29.488 171.713 29.114L172.45 29.609C172.01 30.302 171.878 30.511 171.504 31.006V35.593C171.504 36.176 171.515 36.462 171.559 36.825H170.602C170.646 36.506 170.668 36.165 170.668 35.626Z" fill="black" fill-opacity="0.87"/>
<path d="M47.8297 18.2074C47.9503 17.9575 48.2006 17.7999 48.4746 17.7999C48.7487 17.7999 48.9982 17.9575 49.1196 18.2074L52.2223 24.6001C52.3273 24.8152 52.5292 24.9659 52.7645 25L59.7013 26.0247C59.9724 26.0649 60.1973 26.258 60.2822 26.5231C60.3671 26.7866 60.2964 27.0782 60.0998 27.2721L55.0793 32.2478C54.9102 32.416 54.8327 32.6583 54.873 32.8954L56.0579 39.9213C56.1056 40.1954 55.9938 40.4726 55.7726 40.637C55.5514 40.8006 55.2573 40.8218 55.0137 40.6923L48.8098 37.3743C48.6005 37.263 48.3503 37.263 48.141 37.3743L41.9348 40.6923C41.6943 40.821 41.3986 40.7998 41.1781 40.637C40.9562 40.4726 40.8467 40.1954 40.8907 39.9213L42.0763 32.8954C42.1158 32.6591 42.0391 32.416 41.8693 32.2478L36.8503 27.2721C36.6551 27.0782 36.5836 26.7866 36.6686 26.5231C36.752 26.258 36.9769 26.0649 37.2495 26.0247L44.1863 25C44.4201 24.9659 44.6212 24.8152 44.7277 24.6001L47.8304 18.2074H47.8297Z" fill="white"/>
<path d="M43.3234 21.9098V11.6772H41.2939V21.9098" fill="white"/>
<path d="M49.4895 15.52V11.6772H47.46V15.52" fill="white"/>
<path d="M55.655 21.9098V11.6772H53.624V21.9098" fill="white"/>
<path d="M55.6553 5.7821H41.2939V9.39844H55.6553V5.7821Z" fill="white"/>
<path d="M50.927 5.52545H49.9134C49.9119 5.9329 49.7525 6.29113 49.4918 6.55999C49.2274 6.82506 48.8737 6.98713 48.4745 6.98865C48.0738 6.98713 47.7208 6.82657 47.4586 6.55999C47.1964 6.29264 47.0371 5.9329 47.0371 5.52545C47.0371 5.118 47.1964 4.75977 47.4586 4.49243C47.7208 4.22584 48.0745 4.06377 48.4745 4.06377C48.8744 4.06377 49.2274 4.22584 49.4918 4.49243C49.7525 4.75977 49.9119 5.11951 49.9134 5.52545H51.9428C51.9414 3.57755 50.3893 2.00151 48.4752 2C46.5597 2.00151 45.0083 3.57755 45.0083 5.52545C45.0083 7.47335 46.5597 9.05166 48.4752 9.05166C50.3885 9.05015 51.9421 7.47411 51.9428 5.52545H50.927Z" fill="white"/>
<path d="M88.291 90H84.903C84.166 90 83.99 90.011 83.627 90.044C83.737 89.208 83.77 89.032 83.935 88.614C84.221 87.888 84.683 87.261 85.387 86.645C85.75 86.326 86.014 86.139 87.103 85.402C88.148 84.698 88.511 84.225 88.511 83.565C88.511 82.762 87.84 82.256 86.795 82.256C86.08 82.256 85.563 82.487 85.244 82.949C85.046 83.235 84.958 83.499 84.87 84.038L83.759 83.873C83.913 83.081 84.1 82.663 84.474 82.234C84.991 81.651 85.772 81.354 86.784 81.354C88.5 81.354 89.611 82.223 89.611 83.565C89.611 84.082 89.424 84.599 89.094 84.995C88.742 85.435 88.467 85.655 87.213 86.491C85.761 87.459 85.2 88.086 84.914 89.065H88.313C88.896 89.065 89.347 89.043 89.732 88.988V90.055C89.259 90.011 88.885 90 88.291 90ZM94.3364 90.154C93.4894 90.154 92.7854 89.879 92.2464 89.34C91.9384 89.032 91.7074 88.68 91.5754 88.306C91.2894 87.536 91.1464 86.667 91.1464 85.776C91.1464 84.599 91.3994 83.411 91.7954 82.773C92.3454 81.849 93.2254 81.365 94.3584 81.365C95.2054 81.365 95.9424 81.651 96.4594 82.179C96.7674 82.487 96.9984 82.85 97.1304 83.213C97.4164 83.983 97.5594 84.841 97.5594 85.765C97.5594 87.085 97.2624 88.284 96.7784 88.966C96.2064 89.758 95.3924 90.154 94.3364 90.154ZM94.3364 82.267C93.7754 82.267 93.3464 82.443 93.0054 82.828C92.7744 83.081 92.6094 83.356 92.5214 83.642C92.3124 84.28 92.2024 85.006 92.2024 85.787C92.2024 86.777 92.4114 87.833 92.7084 88.328C93.0824 88.944 93.6324 89.252 94.3474 89.252C94.8754 89.252 95.3374 89.076 95.6564 88.746C95.8874 88.504 96.0744 88.207 96.1734 87.877C96.3934 87.217 96.4924 86.524 96.4924 85.754C96.4924 84.819 96.2944 83.763 96.0194 83.257C95.6674 82.597 95.1064 82.267 94.3364 82.267ZM103.594 90H100.206C99.4687 90 99.2927 90.011 98.9297 90.044C99.0397 89.208 99.0727 89.032 99.2377 88.614C99.5237 87.888 99.9857 87.261 100.69 86.645C101.053 86.326 101.317 86.139 102.406 85.402C103.451 84.698 103.814 84.225 103.814 83.565C103.814 82.762 103.143 82.256 102.098 82.256C101.383 82.256 100.866 82.487 100.547 82.949C100.349 83.235 100.261 83.499 100.173 84.038L99.0617 83.873C99.2157 83.081 99.4027 82.663 99.7767 82.234C100.294 81.651 101.075 81.354 102.087 81.354C103.803 81.354 104.914 82.223 104.914 83.565C104.914 84.082 104.727 84.599 104.397 84.995C104.045 85.435 103.77 85.655 102.516 86.491C101.064 87.459 100.503 88.086 100.217 89.065H103.616C104.199 89.065 104.65 89.043 105.035 88.988V90.055C104.562 90.011 104.188 90 103.594 90ZM108.242 82.41L108.022 84.687C108.011 84.874 108.011 84.874 107.945 85.182C108.484 84.676 109.1 84.434 109.859 84.434C111.531 84.434 112.631 85.523 112.631 87.184C112.631 89.01 111.443 90.165 109.562 90.165C108.638 90.165 107.901 89.89 107.351 89.351C107.065 89.065 106.911 88.823 106.658 88.273L107.736 87.987C107.846 88.306 107.923 88.449 108.077 88.636C108.429 89.032 108.957 89.252 109.573 89.252C110.772 89.252 111.564 88.449 111.564 87.228C111.564 86.018 110.838 85.292 109.617 85.292C109.067 85.292 108.506 85.523 108.121 85.919C107.978 86.062 107.923 86.15 107.824 86.381L106.845 86.293C106.933 85.798 106.966 85.589 106.999 85.149L107.241 82.597C107.285 82.234 107.285 82.157 107.285 81.849C107.285 81.816 107.285 81.805 107.263 81.464C107.593 81.508 107.813 81.519 108.44 81.519H110.816C111.465 81.519 111.729 81.497 112.18 81.431V82.498C111.74 82.432 111.377 82.41 110.827 82.41H108.242ZM121.204 90.154C120.357 90.154 119.653 89.879 119.114 89.34C118.806 89.032 118.575 88.68 118.443 88.306C118.157 87.536 118.014 86.667 118.014 85.776C118.014 84.599 118.267 83.411 118.663 82.773C119.213 81.849 120.093 81.365 121.226 81.365C122.073 81.365 122.81 81.651 123.327 82.179C123.635 82.487 123.866 82.85 123.998 83.213C124.284 83.983 124.427 84.841 124.427 85.765C124.427 87.085 124.13 88.284 123.646 88.966C123.074 89.758 122.26 90.154 121.204 90.154ZM121.204 82.267C120.643 82.267 120.214 82.443 119.873 82.828C119.642 83.081 119.477 83.356 119.389 83.642C119.18 84.28 119.07 85.006 119.07 85.787C119.07 86.777 119.279 87.833 119.576 88.328C119.95 88.944 120.5 89.252 121.215 89.252C121.743 89.252 122.205 89.076 122.524 88.746C122.755 88.504 122.942 88.207 123.041 87.877C123.261 87.217 123.36 86.524 123.36 85.754C123.36 84.819 123.162 83.763 122.887 83.257C122.535 82.597 121.974 82.267 121.204 82.267ZM127.656 85.556C126.677 85.358 126.05 84.566 126.05 83.554C126.05 82.19 127.139 81.332 128.866 81.332C130.604 81.332 131.682 82.179 131.682 83.543C131.682 84.566 131.077 85.336 130.098 85.556C130.56 85.622 130.879 85.754 131.253 86.04C131.792 86.458 132.056 87.03 132.056 87.767C132.056 89.318 130.923 90.176 128.888 90.176C126.831 90.176 125.676 89.318 125.676 87.767C125.676 86.986 125.995 86.381 126.633 85.952C126.985 85.721 127.238 85.622 127.656 85.556ZM128.866 82.201C127.788 82.201 127.084 82.762 127.084 83.642C127.084 84.566 127.766 85.138 128.877 85.138C129.977 85.138 130.648 84.577 130.648 83.642C130.648 82.762 129.955 82.201 128.866 82.201ZM128.877 86.04C127.557 86.04 126.765 86.667 126.765 87.701C126.765 88.713 127.535 89.296 128.855 89.296C130.197 89.296 130.967 88.713 130.967 87.69C130.967 86.667 130.175 86.04 128.877 86.04ZM137.001 81.519H137.969L134.009 91.683H133.03L137.001 81.519ZM143.723 90H140.335C139.598 90 139.422 90.011 139.059 90.044C139.169 89.208 139.202 89.032 139.367 88.614C139.653 87.888 140.115 87.261 140.819 86.645C141.182 86.326 141.446 86.139 142.535 85.402C143.58 84.698 143.943 84.225 143.943 83.565C143.943 82.762 143.272 82.256 142.227 82.256C141.512 82.256 140.995 82.487 140.676 82.949C140.478 83.235 140.39 83.499 140.302 84.038L139.191 83.873C139.345 83.081 139.532 82.663 139.906 82.234C140.423 81.651 141.204 81.354 142.216 81.354C143.932 81.354 145.043 82.223 145.043 83.565C145.043 84.082 144.856 84.599 144.526 84.995C144.174 85.435 143.899 85.655 142.645 86.491C141.193 87.459 140.632 88.086 140.346 89.065H143.745C144.328 89.065 144.779 89.043 145.164 88.988V90.055C144.691 90.011 144.317 90 143.723 90ZM148.569 85.556C147.59 85.358 146.963 84.566 146.963 83.554C146.963 82.19 148.052 81.332 149.779 81.332C151.517 81.332 152.595 82.179 152.595 83.543C152.595 84.566 151.99 85.336 151.011 85.556C151.473 85.622 151.792 85.754 152.166 86.04C152.705 86.458 152.969 87.03 152.969 87.767C152.969 89.318 151.836 90.176 149.801 90.176C147.744 90.176 146.589 89.318 146.589 87.767C146.589 86.986 146.908 86.381 147.546 85.952C147.898 85.721 148.151 85.622 148.569 85.556ZM149.779 82.201C148.701 82.201 147.997 82.762 147.997 83.642C147.997 84.566 148.679 85.138 149.79 85.138C150.89 85.138 151.561 84.577 151.561 83.642C151.561 82.762 150.868 82.201 149.779 82.201ZM149.79 86.04C148.47 86.04 147.678 86.667 147.678 87.701C147.678 88.713 148.448 89.296 149.768 89.296C151.11 89.296 151.88 88.713 151.88 87.69C151.88 86.667 151.088 86.04 149.79 86.04ZM159.099 88.339V81.981C158.747 81.981 158.538 81.992 158.252 82.036V81.178C158.527 81.211 158.802 81.233 159.143 81.233H162.564C162.96 81.233 163.18 81.222 163.444 81.189V81.926C163.653 81.937 163.851 81.948 164.115 81.948H167.107C167.382 81.948 167.657 81.937 167.954 81.904C167.932 82.014 167.899 82.201 167.855 82.542C167.602 84.467 167.041 86.15 166.161 87.624C166.81 88.548 167.371 89.065 168.471 89.725C168.262 90.022 168.108 90.297 167.976 90.616C166.865 89.824 166.304 89.285 165.666 88.383C164.995 89.296 164.379 89.89 163.301 90.627C163.169 90.297 163.015 90.066 162.795 89.802C163.862 89.164 164.5 88.581 165.193 87.624C164.764 86.854 164.478 86.15 164.225 85.281C163.994 84.445 163.983 84.412 163.752 82.718C163.477 82.729 163.367 82.74 163.158 82.773V81.992C162.971 81.981 162.839 81.981 162.674 81.981V89.714C162.674 90.22 162.696 90.583 162.74 90.869H161.805C161.849 90.528 161.871 90.132 161.871 89.714V88.493C161.2 88.702 160.133 88.977 159.44 89.12C158.78 89.263 158.571 89.307 158.384 89.373L158.142 88.46C158.373 88.46 158.571 88.427 159.099 88.339ZM159.913 81.981V83.488H161.871V81.981H159.913ZM159.913 84.192V85.677H161.871V84.192H159.913ZM159.913 86.392V88.185C160.716 88.031 160.991 87.965 161.871 87.723V86.392H159.913ZM166.986 82.718H164.544C164.687 83.873 164.764 84.313 164.984 85.061C165.171 85.732 165.402 86.304 165.688 86.843C166.348 85.666 166.722 84.467 166.986 82.718ZM176.949 86.128H173.187C172.78 86.128 172.472 86.139 172.164 86.183V85.369C172.428 85.413 172.692 85.424 173.187 85.424H178.082C178.555 85.424 178.863 85.402 179.116 85.358V86.183C178.808 86.139 178.511 86.128 178.104 86.128H177.763V86.931H178.137C178.588 86.931 178.885 86.92 179.171 86.876V87.701C178.852 87.657 178.566 87.646 178.148 87.646H177.763V89.824C177.763 90.506 177.499 90.682 176.443 90.682C176.124 90.682 175.827 90.671 175.387 90.649C175.343 90.264 175.299 90.077 175.178 89.78C175.684 89.857 176.179 89.901 176.443 89.901C176.861 89.901 176.949 89.857 176.949 89.637V87.646H173.055C172.648 87.646 172.362 87.657 172.043 87.701V86.876C172.329 86.92 172.615 86.931 173.066 86.931H176.949V86.128ZM171.636 80.771L172.351 81.266C171.801 82.003 171.757 82.058 171.493 82.355C170.965 82.938 170.492 83.356 169.865 83.774C169.711 83.488 169.579 83.323 169.359 83.114C170.404 82.476 171.229 81.629 171.636 80.771ZM177.433 84.72H174.144C173.704 84.72 173.341 84.731 173.11 84.764C173.132 84.489 173.143 84.236 173.143 83.719V82.223C173.143 81.717 173.132 81.486 173.11 81.211C173.396 81.244 173.671 81.255 174.188 81.255H177.378C177.906 81.255 178.203 81.244 178.456 81.211C178.423 81.519 178.412 81.783 178.412 82.256V83.719C178.412 84.203 178.423 84.456 178.456 84.764C178.181 84.731 177.851 84.72 177.433 84.72ZM173.924 81.937V82.641H177.609V81.937H173.924ZM173.924 83.301V84.06H177.609V83.301H173.924ZM175.376 89.351L174.694 89.945C174.221 89.186 173.891 88.779 173.286 88.218L173.924 87.745C174.529 88.295 174.793 88.592 175.376 89.351ZM170.668 89.626V87.085C170.668 86.634 170.679 86.293 170.701 85.831C170.382 86.249 170.107 86.513 169.645 86.876C169.491 86.535 169.381 86.348 169.194 86.117C170.019 85.556 170.657 84.907 171.229 84.06C171.438 83.741 171.57 83.488 171.713 83.114L172.45 83.609C172.01 84.302 171.878 84.511 171.504 85.006V89.593C171.504 90.176 171.515 90.462 171.559 90.825H170.602C170.646 90.506 170.668 90.165 170.668 89.626Z" fill="black" fill-opacity="0.87"/>
<path d="M88.291 146H84.903C84.166 146 83.99 146.011 83.627 146.044C83.737 145.208 83.77 145.032 83.935 144.614C84.221 143.888 84.683 143.261 85.387 142.645C85.75 142.326 86.014 142.139 87.103 141.402C88.148 140.698 88.511 140.225 88.511 139.565C88.511 138.762 87.84 138.256 86.795 138.256C86.08 138.256 85.563 138.487 85.244 138.949C85.046 139.235 84.958 139.499 84.87 140.038L83.759 139.873C83.913 139.081 84.1 138.663 84.474 138.234C84.991 137.651 85.772 137.354 86.784 137.354C88.5 137.354 89.611 138.223 89.611 139.565C89.611 140.082 89.424 140.599 89.094 140.995C88.742 141.435 88.467 141.655 87.213 142.491C85.761 143.459 85.2 144.086 84.914 145.065H88.313C88.896 145.065 89.347 145.043 89.732 144.988V146.055C89.259 146.011 88.885 146 88.291 146ZM94.3364 146.154C93.4894 146.154 92.7854 145.879 92.2464 145.34C91.9384 145.032 91.7074 144.68 91.5754 144.306C91.2894 143.536 91.1464 142.667 91.1464 141.776C91.1464 140.599 91.3994 139.411 91.7954 138.773C92.3454 137.849 93.2254 137.365 94.3584 137.365C95.2054 137.365 95.9424 137.651 96.4594 138.179C96.7674 138.487 96.9984 138.85 97.1304 139.213C97.4164 139.983 97.5594 140.841 97.5594 141.765C97.5594 143.085 97.2624 144.284 96.7784 144.966C96.2064 145.758 95.3924 146.154 94.3364 146.154ZM94.3364 138.267C93.7754 138.267 93.3464 138.443 93.0054 138.828C92.7744 139.081 92.6094 139.356 92.5214 139.642C92.3124 140.28 92.2024 141.006 92.2024 141.787C92.2024 142.777 92.4114 143.833 92.7084 144.328C93.0824 144.944 93.6324 145.252 94.3474 145.252C94.8754 145.252 95.3374 145.076 95.6564 144.746C95.8874 144.504 96.0744 144.207 96.1734 143.877C96.3934 143.217 96.4924 142.524 96.4924 141.754C96.4924 140.819 96.2944 139.763 96.0194 139.257C95.6674 138.597 95.1064 138.267 94.3364 138.267ZM103.594 146H100.206C99.4687 146 99.2927 146.011 98.9297 146.044C99.0397 145.208 99.0727 145.032 99.2377 144.614C99.5237 143.888 99.9857 143.261 100.69 142.645C101.053 142.326 101.317 142.139 102.406 141.402C103.451 140.698 103.814 140.225 103.814 139.565C103.814 138.762 103.143 138.256 102.098 138.256C101.383 138.256 100.866 138.487 100.547 138.949C100.349 139.235 100.261 139.499 100.173 140.038L99.0617 139.873C99.2157 139.081 99.4027 138.663 99.7767 138.234C100.294 137.651 101.075 137.354 102.087 137.354C103.803 137.354 104.914 138.223 104.914 139.565C104.914 140.082 104.727 140.599 104.397 140.995C104.045 141.435 103.77 141.655 102.516 142.491C101.064 143.459 100.503 144.086 100.217 145.065H103.616C104.199 145.065 104.65 145.043 105.035 144.988V146.055C104.562 146.011 104.188 146 103.594 146ZM108.242 138.41L108.022 140.687C108.011 140.874 108.011 140.874 107.945 141.182C108.484 140.676 109.1 140.434 109.859 140.434C111.531 140.434 112.631 141.523 112.631 143.184C112.631 145.01 111.443 146.165 109.562 146.165C108.638 146.165 107.901 145.89 107.351 145.351C107.065 145.065 106.911 144.823 106.658 144.273L107.736 143.987C107.846 144.306 107.923 144.449 108.077 144.636C108.429 145.032 108.957 145.252 109.573 145.252C110.772 145.252 111.564 144.449 111.564 143.228C111.564 142.018 110.838 141.292 109.617 141.292C109.067 141.292 108.506 141.523 108.121 141.919C107.978 142.062 107.923 142.15 107.824 142.381L106.845 142.293C106.933 141.798 106.966 141.589 106.999 141.149L107.241 138.597C107.285 138.234 107.285 138.157 107.285 137.849C107.285 137.816 107.285 137.805 107.263 137.464C107.593 137.508 107.813 137.519 108.44 137.519H110.816C111.465 137.519 111.729 137.497 112.18 137.431V138.498C111.74 138.432 111.377 138.41 110.827 138.41H108.242ZM121.204 146.154C120.357 146.154 119.653 145.879 119.114 145.34C118.806 145.032 118.575 144.68 118.443 144.306C118.157 143.536 118.014 142.667 118.014 141.776C118.014 140.599 118.267 139.411 118.663 138.773C119.213 137.849 120.093 137.365 121.226 137.365C122.073 137.365 122.81 137.651 123.327 138.179C123.635 138.487 123.866 138.85 123.998 139.213C124.284 139.983 124.427 140.841 124.427 141.765C124.427 143.085 124.13 144.284 123.646 144.966C123.074 145.758 122.26 146.154 121.204 146.154ZM121.204 138.267C120.643 138.267 120.214 138.443 119.873 138.828C119.642 139.081 119.477 139.356 119.389 139.642C119.18 140.28 119.07 141.006 119.07 141.787C119.07 142.777 119.279 143.833 119.576 144.328C119.95 144.944 120.5 145.252 121.215 145.252C121.743 145.252 122.205 145.076 122.524 144.746C122.755 144.504 122.942 144.207 123.041 143.877C123.261 143.217 123.36 142.524 123.36 141.754C123.36 140.819 123.162 139.763 122.887 139.257C122.535 138.597 121.974 138.267 121.204 138.267ZM127.656 141.556C126.677 141.358 126.05 140.566 126.05 139.554C126.05 138.19 127.139 137.332 128.866 137.332C130.604 137.332 131.682 138.179 131.682 139.543C131.682 140.566 131.077 141.336 130.098 141.556C130.56 141.622 130.879 141.754 131.253 142.04C131.792 142.458 132.056 143.03 132.056 143.767C132.056 145.318 130.923 146.176 128.888 146.176C126.831 146.176 125.676 145.318 125.676 143.767C125.676 142.986 125.995 142.381 126.633 141.952C126.985 141.721 127.238 141.622 127.656 141.556ZM128.866 138.201C127.788 138.201 127.084 138.762 127.084 139.642C127.084 140.566 127.766 141.138 128.877 141.138C129.977 141.138 130.648 140.577 130.648 139.642C130.648 138.762 129.955 138.201 128.866 138.201ZM128.877 142.04C127.557 142.04 126.765 142.667 126.765 143.701C126.765 144.713 127.535 145.296 128.855 145.296C130.197 145.296 130.967 144.713 130.967 143.69C130.967 142.667 130.175 142.04 128.877 142.04ZM137.001 137.519H137.969L134.009 147.683H133.03L137.001 137.519ZM143.723 146H140.335C139.598 146 139.422 146.011 139.059 146.044C139.169 145.208 139.202 145.032 139.367 144.614C139.653 143.888 140.115 143.261 140.819 142.645C141.182 142.326 141.446 142.139 142.535 141.402C143.58 140.698 143.943 140.225 143.943 139.565C143.943 138.762 143.272 138.256 142.227 138.256C141.512 138.256 140.995 138.487 140.676 138.949C140.478 139.235 140.39 139.499 140.302 140.038L139.191 139.873C139.345 139.081 139.532 138.663 139.906 138.234C140.423 137.651 141.204 137.354 142.216 137.354C143.932 137.354 145.043 138.223 145.043 139.565C145.043 140.082 144.856 140.599 144.526 140.995C144.174 141.435 143.899 141.655 142.645 142.491C141.193 143.459 140.632 144.086 140.346 145.065H143.745C144.328 145.065 144.779 145.043 145.164 144.988V146.055C144.691 146.011 144.317 146 143.723 146ZM148.569 141.556C147.59 141.358 146.963 140.566 146.963 139.554C146.963 138.19 148.052 137.332 149.779 137.332C151.517 137.332 152.595 138.179 152.595 139.543C152.595 140.566 151.99 141.336 151.011 141.556C151.473 141.622 151.792 141.754 152.166 142.04C152.705 142.458 152.969 143.03 152.969 143.767C152.969 145.318 151.836 146.176 149.801 146.176C147.744 146.176 146.589 145.318 146.589 143.767C146.589 142.986 146.908 142.381 147.546 141.952C147.898 141.721 148.151 141.622 148.569 141.556ZM149.779 138.201C148.701 138.201 147.997 138.762 147.997 139.642C147.997 140.566 148.679 141.138 149.79 141.138C150.89 141.138 151.561 140.577 151.561 139.642C151.561 138.762 150.868 138.201 149.779 138.201ZM149.79 142.04C148.47 142.04 147.678 142.667 147.678 143.701C147.678 144.713 148.448 145.296 149.768 145.296C151.11 145.296 151.88 144.713 151.88 143.69C151.88 142.667 151.088 142.04 149.79 142.04ZM159.099 144.339V137.981C158.747 137.981 158.538 137.992 158.252 138.036V137.178C158.527 137.211 158.802 137.233 159.143 137.233H162.564C162.96 137.233 163.18 137.222 163.444 137.189V137.926C163.653 137.937 163.851 137.948 164.115 137.948H167.107C167.382 137.948 167.657 137.937 167.954 137.904C167.932 138.014 167.899 138.201 167.855 138.542C167.602 140.467 167.041 142.15 166.161 143.624C166.81 144.548 167.371 145.065 168.471 145.725C168.262 146.022 168.108 146.297 167.976 146.616C166.865 145.824 166.304 145.285 165.666 144.383C164.995 145.296 164.379 145.89 163.301 146.627C163.169 146.297 163.015 146.066 162.795 145.802C163.862 145.164 164.5 144.581 165.193 143.624C164.764 142.854 164.478 142.15 164.225 141.281C163.994 140.445 163.983 140.412 163.752 138.718C163.477 138.729 163.367 138.74 163.158 138.773V137.992C162.971 137.981 162.839 137.981 162.674 137.981V145.714C162.674 146.22 162.696 146.583 162.74 146.869H161.805C161.849 146.528 161.871 146.132 161.871 145.714V144.493C161.2 144.702 160.133 144.977 159.44 145.12C158.78 145.263 158.571 145.307 158.384 145.373L158.142 144.46C158.373 144.46 158.571 144.427 159.099 144.339ZM159.913 137.981V139.488H161.871V137.981H159.913ZM159.913 140.192V141.677H161.871V140.192H159.913ZM159.913 142.392V144.185C160.716 144.031 160.991 143.965 161.871 143.723V142.392H159.913ZM166.986 138.718H164.544C164.687 139.873 164.764 140.313 164.984 141.061C165.171 141.732 165.402 142.304 165.688 142.843C166.348 141.666 166.722 140.467 166.986 138.718ZM176.949 142.128H173.187C172.78 142.128 172.472 142.139 172.164 142.183V141.369C172.428 141.413 172.692 141.424 173.187 141.424H178.082C178.555 141.424 178.863 141.402 179.116 141.358V142.183C178.808 142.139 178.511 142.128 178.104 142.128H177.763V142.931H178.137C178.588 142.931 178.885 142.92 179.171 142.876V143.701C178.852 143.657 178.566 143.646 178.148 143.646H177.763V145.824C177.763 146.506 177.499 146.682 176.443 146.682C176.124 146.682 175.827 146.671 175.387 146.649C175.343 146.264 175.299 146.077 175.178 145.78C175.684 145.857 176.179 145.901 176.443 145.901C176.861 145.901 176.949 145.857 176.949 145.637V143.646H173.055C172.648 143.646 172.362 143.657 172.043 143.701V142.876C172.329 142.92 172.615 142.931 173.066 142.931H176.949V142.128ZM171.636 136.771L172.351 137.266C171.801 138.003 171.757 138.058 171.493 138.355C170.965 138.938 170.492 139.356 169.865 139.774C169.711 139.488 169.579 139.323 169.359 139.114C170.404 138.476 171.229 137.629 171.636 136.771ZM177.433 140.72H174.144C173.704 140.72 173.341 140.731 173.11 140.764C173.132 140.489 173.143 140.236 173.143 139.719V138.223C173.143 137.717 173.132 137.486 173.11 137.211C173.396 137.244 173.671 137.255 174.188 137.255H177.378C177.906 137.255 178.203 137.244 178.456 137.211C178.423 137.519 178.412 137.783 178.412 138.256V139.719C178.412 140.203 178.423 140.456 178.456 140.764C178.181 140.731 177.851 140.72 177.433 140.72ZM173.924 137.937V138.641H177.609V137.937H173.924ZM173.924 139.301V140.06H177.609V139.301H173.924ZM175.376 145.351L174.694 145.945C174.221 145.186 173.891 144.779 173.286 144.218L173.924 143.745C174.529 144.295 174.793 144.592 175.376 145.351ZM170.668 145.626V143.085C170.668 142.634 170.679 142.293 170.701 141.831C170.382 142.249 170.107 142.513 169.645 142.876C169.491 142.535 169.381 142.348 169.194 142.117C170.019 141.556 170.657 140.907 171.229 140.06C171.438 139.741 171.57 139.488 171.713 139.114L172.45 139.609C172.01 140.302 171.878 140.511 171.504 141.006V145.593C171.504 146.176 171.515 146.462 171.559 146.825H170.602C170.646 146.506 170.668 146.165 170.668 145.626Z" fill="black" fill-opacity="0.87"/>
</g>
<defs>
<filter id="filter0_d_43_2146" x="-3" y="-47" width="328" height="217" filterUnits="userSpaceOnUse" color-interpolation-filters="sRGB">
<feFlood flood-opacity="0" result="BackgroundImageFix"/>
<feColorMatrix in="SourceAlpha" type="matrix" values="0 0 0 0 0 0 0 0 0 0 0 0 0 0 0 0 0 0 127 0" result="hardAlpha"/>
<feOffset dx="1" dy="2"/>
<feGaussianBlur stdDeviation="2"/>
<feComposite in2="hardAlpha" operator="out"/>
<feColorMatrix type="matrix" values="0 0 0 0 0 0 0 0 0 0 0 0 0 0 0 0 0 0 0.2 0"/>
<feBlend mode="normal" in2="BackgroundImageFix" result="effect1_dropShadow_43_2146"/>
<feBlend mode="normal" in="SourceGraphic" in2="effect1_dropShadow_43_2146" result="shape"/>
</filter>
<clipPath id="clip0_43_2146">
<rect width="33.3473" height="33.3473" fill="white" transform="translate(32 60)"/>
</clipPath>
</defs>
</svg>
