<svg width="16" height="13" viewBox="0 0 16 13" fill="none" xmlns="http://www.w3.org/2000/svg">
<path d="M10.4 2.7999C10.4 3.43642 10.1472 4.04687 9.6971 4.49696C9.24702 4.94705 8.63657 5.1999 8.00005 5.1999C7.36353 5.1999 6.75308 4.94705 6.30299 4.49696C5.85291 4.04687 5.60005 3.43642 5.60005 2.7999C5.60005 2.16338 5.85291 1.55293 6.30299 1.10285C6.75308 0.652759 7.36353 0.399902 8.00005 0.399902C8.63657 0.399902 9.24702 0.652759 9.6971 1.10285C10.1472 1.55293 10.4 2.16338 10.4 2.7999V2.7999ZM14.4 4.3999C14.4 4.82425 14.2315 5.23121 13.9314 5.53127C13.6314 5.83133 13.2244 5.9999 12.8 5.9999C12.3757 5.9999 11.9687 5.83133 11.6687 5.53127C11.3686 5.23121 11.2 4.82425 11.2 4.3999C11.2 3.97556 11.3686 3.56859 11.6687 3.26853C11.9687 2.96847 12.3757 2.7999 12.8 2.7999C13.2244 2.7999 13.6314 2.96847 13.9314 3.26853C14.2315 3.56859 14.4 3.97556 14.4 4.3999V4.3999ZM11.2 9.9999C11.2 9.15121 10.8629 8.33728 10.2628 7.73716C9.66267 7.13704 8.84874 6.7999 8.00005 6.7999C7.15136 6.7999 6.33742 7.13704 5.73731 7.73716C5.13719 8.33728 4.80005 9.15121 4.80005 9.9999V12.3999H11.2V9.9999ZM4.80005 4.3999C4.80005 4.82425 4.63148 5.23121 4.33142 5.53127C4.03136 5.83133 3.6244 5.9999 3.20005 5.9999C2.7757 5.9999 2.36874 5.83133 2.06868 5.53127C1.76862 5.23121 1.60005 4.82425 1.60005 4.3999C1.60005 3.97556 1.76862 3.56859 2.06868 3.26853C2.36874 2.96847 2.7757 2.7999 3.20005 2.7999C3.6244 2.7999 4.03136 2.96847 4.33142 3.26853C4.63148 3.56859 4.80005 3.97556 4.80005 4.3999V4.3999ZM12.8 12.3999V9.9999C12.8012 9.18653 12.5947 8.38633 12.2 7.6751C12.5547 7.58434 12.9254 7.57578 13.2839 7.65008C13.6424 7.72438 13.9792 7.87957 14.2686 8.10383C14.558 8.32808 14.7923 8.61547 14.9537 8.94407C15.1152 9.27267 15.1994 9.63379 15.2 9.9999V12.3999H12.8ZM3.80005 7.6751C3.40545 8.38634 3.19893 9.18653 3.20005 9.9999V12.3999H0.800049V9.9999C0.799895 9.63353 0.88362 9.27199 1.04481 8.94299C1.20599 8.61398 1.44036 8.32625 1.72996 8.10183C2.01955 7.87742 2.35667 7.72228 2.7155 7.64832C3.07432 7.57435 3.44531 7.58351 3.80005 7.6751V7.6751Z" fill="#78909C"/>
</svg>
