<svg width="14" height="14" viewBox="0 0 14 14" fill="none" xmlns="http://www.w3.org/2000/svg">
<path d="M12.7017 2.10526L10.9834 0.385965C10.8642 0.266667 10.7169 0.168421 10.5556 0.0982456C10.4013 0.0350877 10.2259 0 10.0576 0C9.7069 0 9.37726 0.140351 9.12477 0.385965L7.27316 2.2386C7.15393 2.35789 7.05574 2.50526 6.9856 2.66667C6.92248 2.82807 6.88741 2.99649 6.88741 3.17193C6.88741 3.52281 7.02769 3.85263 7.27316 4.09825L8.6268 5.45263C8.31119 6.15439 7.86932 6.78596 7.32226 7.33333C6.78221 7.8807 6.14397 8.32281 5.4426 8.6386L4.08896 7.28421C3.96973 7.16491 3.82244 7.06667 3.66113 6.99649C3.49982 6.93333 3.33149 6.89825 3.15615 6.89825C2.80546 6.89825 2.47582 7.0386 2.23034 7.28421L0.385751 9.13684C0.266519 9.25614 0.168328 9.40351 0.0981912 9.56491C0.0350683 9.7193 0 9.88772 0 10.0632C0 10.414 0.140273 10.7439 0.385751 10.9895L2.1041 12.7088C2.49686 13.1018 3.04393 13.3333 3.60502 13.3333C3.72425 13.3333 3.83647 13.3263 3.94869 13.3053C6.12994 12.9474 8.29015 11.7825 10.0365 10.0421C11.7829 8.30175 12.9402 6.14035 13.3049 3.95088C13.4171 3.28421 13.1927 2.59649 12.7088 2.11228L12.7017 2.10526Z" fill="#607C9C"/>
</svg>
