<svg width="20" height="18" viewBox="0 0 20 18" fill="none" xmlns="http://www.w3.org/2000/svg">
<path d="M10.011 0C4.49598 0 0.0200232 4.02587 0.0200232 8.99078C0.0200232 10.4393 0.409671 11.8079 1.08906 13.0266L0.0300142 16.9926C-0.129841 17.592 0.419662 18.1314 1.00913 17.9716L5.17536 16.8527C6.60407 17.572 8.25258 17.9816 10.011 17.9816C15.526 17.9816 20.002 13.9557 20.002 8.99078C20.002 4.02587 15.526 0 10.011 0ZM5.61496 9.98975C5.06546 9.98975 4.61587 9.54021 4.61587 8.99078C4.61587 8.44134 5.06546 7.9918 5.61496 7.9918C6.16447 7.9918 6.61406 8.44134 6.61406 8.99078C6.61406 9.54021 6.16447 9.98975 5.61496 9.98975ZM10.011 9.98975C9.46148 9.98975 9.01189 9.54021 9.01189 8.99078C9.01189 8.44134 9.46148 7.9918 10.011 7.9918C10.5605 7.9918 11.0101 8.44134 11.0101 8.99078C11.0101 9.54021 10.5605 9.98975 10.011 9.98975ZM14.407 9.98975C13.8575 9.98975 13.4079 9.54021 13.4079 8.99078C13.4079 8.44134 13.8575 7.9918 14.407 7.9918C14.9565 7.9918 15.4061 8.44134 15.4061 8.99078C15.4061 9.54021 14.9565 9.98975 14.407 9.98975Z" fill="#87581E"/>
</svg>
