<svg width="21" height="20" viewBox="0 0 21 20" fill="none" xmlns="http://www.w3.org/2000/svg">
<path d="M15.8 0C15.9755 0 16.148 0.0460545 16.3 0.133789C16.4526 0.221893 16.5794 0.349175 16.6672 0.501953C16.7549 0.654657 16.8007 0.827808 16.8 1.00391V10.0039H19.8C20.0652 10.0039 20.3195 10.1094 20.507 10.2969C20.6946 10.4844 20.8 10.7387 20.8 11.0039V17.0039C20.8 17.7996 20.4837 18.5624 19.9211 19.125C19.3585 19.6876 18.5956 20.0039 17.8 20.0039H3.8C3.00436 20.0039 2.2415 19.6876 1.6789 19.125C1.11631 18.5624 0.799996 17.7995 0.799996 17.0039V1.00391C0.799303 0.827818 0.845117 0.654651 0.932808 0.501953C1.02061 0.349175 1.14739 0.221893 1.3 0.133789C1.452 0.0460424 1.62449 5.41494e-06 1.8 0C1.9755 0 2.148 0.0460546 2.3 0.133789L5.3 1.85352L8.3 0.133789C8.452 0.0460423 8.62449 5.37311e-06 8.8 0C8.9755 0 9.148 0.0460545 9.3 0.133789L12.3 1.85352L15.3 0.133789C15.452 0.0460424 15.6245 5.37309e-06 15.8 0ZM16.8 12.0039V17.0039C16.8 17.2691 16.9055 17.5234 17.093 17.7109C17.2805 17.8985 17.5348 18.0039 17.8 18.0039C18.0652 18.0039 18.3195 17.8985 18.507 17.7109C18.6945 17.5234 18.8 17.2691 18.8 17.0039V12.0039H16.8ZM4.8 14.0039C4.5348 14.0039 4.28049 14.1094 4.09296 14.2969C3.90545 14.4844 3.80002 14.7387 3.8 15.0039C3.8 15.2691 3.90546 15.5234 4.09296 15.7109C4.2805 15.8985 4.53479 16.0039 4.8 16.0039H12.8C13.0652 16.0039 13.3195 15.8985 13.507 15.7109C13.6945 15.5234 13.8 15.2691 13.8 15.0039C13.8 14.7387 13.6945 14.4844 13.507 14.2969C13.3195 14.1094 13.0652 14.0039 12.8 14.0039H4.8ZM4.8 10.0039C4.5348 10.0039 4.28049 10.1094 4.09296 10.2969C3.90545 10.4844 3.80002 10.7387 3.8 11.0039C3.8 11.2691 3.90546 11.5234 4.09296 11.7109C4.2805 11.8985 4.53479 12.0039 4.8 12.0039H12.8C13.0652 12.0039 13.3195 11.8985 13.507 11.7109C13.6945 11.5234 13.8 11.2691 13.8 11.0039C13.8 10.7387 13.6945 10.4844 13.507 10.2969C13.3195 10.1094 13.0652 10.0039 12.8 10.0039H4.8ZM4.8 6.00391C4.5348 6.00391 4.28049 6.10937 4.09296 6.29688C3.90545 6.48439 3.80002 6.73872 3.8 7.00391C3.8 7.2691 3.90546 7.52341 4.09296 7.71094C4.2805 7.89847 4.53479 8.0039 4.8 8.00391H8.8C9.06521 8.00391 9.31949 7.89847 9.50703 7.71094C9.69454 7.5234 9.8 7.26911 9.8 7.00391C9.79997 6.73872 9.69454 6.48439 9.50703 6.29688C9.3195 6.10937 9.06519 6.00391 8.8 6.00391H4.8Z" fill="#87581E"/>
</svg>
