<svg width="172" height="329" viewBox="0 0 172 329" fill="none" xmlns="http://www.w3.org/2000/svg">
<rect y="3" width="172" height="326" rx="5" fill="white"/>
<rect x="9" y="254" width="154" height="1" fill="#D4D4D4"/>
<rect x="9" y="98" width="154" height="1" fill="#D4D4D4"/>
<path d="M23.56 4.472C23.976 4.52533 24.4773 4.60533 25.064 4.712C25.6613 4.808 26.2907 4.92 26.952 5.048C27.624 5.176 28.2907 5.32 28.952 5.48C29.624 5.62933 30.2427 5.77867 30.808 5.928C31.384 6.07733 31.8747 6.22133 32.28 6.36L31.464 8.36C31.0907 8.22133 30.6267 8.07733 30.072 7.928C29.5173 7.768 28.9147 7.608 28.264 7.448C27.6133 7.288 26.9573 7.13867 26.296 7C25.6347 6.86133 25 6.73333 24.392 6.616C23.7947 6.49867 23.2667 6.41333 22.808 6.36L23.56 4.472ZM22.824 8.776C23.4 8.872 24.0613 8.99467 24.808 9.144C25.5547 9.29333 26.3227 9.45867 27.112 9.64C27.9013 9.81067 28.6533 9.992 29.368 10.184C30.0827 10.3653 30.6907 10.5467 31.192 10.728L30.408 12.728C29.9493 12.5467 29.368 12.36 28.664 12.168C27.9707 11.976 27.2293 11.784 26.44 11.592C25.6613 11.4 24.888 11.2293 24.12 11.08C23.352 10.92 22.6747 10.7973 22.088 10.712L22.824 8.776ZM22.008 13.352C22.552 13.4373 23.1707 13.5493 23.864 13.688C24.5573 13.8267 25.2773 13.9813 26.024 14.152C26.7813 14.3227 27.5227 14.4987 28.248 14.68C28.9733 14.8613 29.6453 15.0427 30.264 15.224C30.8933 15.4053 31.4267 15.5813 31.864 15.752L30.984 17.752C30.5573 17.5707 30.0293 17.384 29.4 17.192C28.7707 17.0107 28.088 16.8293 27.352 16.648C26.616 16.456 25.8747 16.28 25.128 16.12C24.3813 15.9493 23.6667 15.8 22.984 15.672C22.312 15.544 21.72 15.4427 21.208 15.368L22.008 13.352ZM43.08 7.496C43.1547 7.66667 43.2507 7.912 43.368 8.232C43.496 8.54133 43.6293 8.87733 43.768 9.24C43.9067 9.592 44.0293 9.928 44.136 10.248C44.2427 10.568 44.328 10.8187 44.392 11L42.472 11.672C42.4293 11.4693 42.3547 11.2133 42.248 10.904C42.1413 10.5947 42.024 10.2693 41.896 9.928C41.768 9.576 41.64 9.24 41.512 8.92C41.384 8.6 41.272 8.33333 41.176 8.12L43.08 7.496ZM48.984 8.664C48.8987 8.92 48.824 9.13867 48.76 9.32C48.7067 9.50133 48.6533 9.672 48.6 9.832C48.3973 10.6427 48.12 11.4533 47.768 12.264C47.416 13.064 46.968 13.816 46.424 14.52C45.6773 15.48 44.8293 16.296 43.88 16.968C42.9413 17.6293 42.0027 18.136 41.064 18.488L39.384 16.776C39.9707 16.616 40.5893 16.3813 41.24 16.072C41.8907 15.752 42.52 15.368 43.128 14.92C43.736 14.472 44.2587 13.976 44.696 13.432C45.0587 12.9733 45.3787 12.4507 45.656 11.864C45.944 11.2667 46.1787 10.632 46.36 9.96C46.552 9.27733 46.68 8.60533 46.744 7.944L48.984 8.664ZM39.368 8.344C39.4747 8.54667 39.592 8.808 39.72 9.128C39.8587 9.448 39.9973 9.784 40.136 10.136C40.2747 10.488 40.408 10.8293 40.536 11.16C40.6747 11.4907 40.7813 11.768 40.856 11.992L38.904 12.728C38.84 12.5147 38.744 12.2373 38.616 11.896C38.4987 11.5547 38.3653 11.1973 38.216 10.824C38.0667 10.44 37.9227 10.088 37.784 9.768C37.656 9.448 37.544 9.20267 37.448 9.032L39.368 8.344ZM55.944 4.328C56.2 4.47733 56.4933 4.65333 56.824 4.856C57.1547 5.05867 57.4907 5.26667 57.832 5.48C58.184 5.69333 58.5093 5.90133 58.808 6.104C59.1173 6.296 59.3787 6.46667 59.592 6.616L58.392 8.392C58.1787 8.232 57.9173 8.05067 57.608 7.848C57.2987 7.64533 56.9787 7.43733 56.648 7.224C56.3173 7.01067 55.9867 6.808 55.656 6.616C55.336 6.41333 55.0427 6.23733 54.776 6.088L55.944 4.328ZM52.968 15.688C53.576 15.5813 54.184 15.4533 54.792 15.304C55.4107 15.144 56.024 14.9467 56.632 14.712C57.2507 14.4773 57.848 14.2053 58.424 13.896C59.3307 13.384 60.1733 12.808 60.952 12.168C61.7413 11.528 62.4453 10.8453 63.064 10.12C63.6933 9.39467 64.2213 8.65333 64.648 7.896L65.88 10.072C65.1333 11.1813 64.2107 12.2267 63.112 13.208C62.024 14.1893 60.824 15.0587 59.512 15.816C58.968 16.1253 58.3707 16.4133 57.72 16.68C57.08 16.9467 56.4453 17.176 55.816 17.368C55.1973 17.5707 54.648 17.7147 54.168 17.8L52.968 15.688ZM53.48 7.976C53.7467 8.12533 54.0453 8.30133 54.376 8.504C54.7173 8.696 55.0587 8.89867 55.4 9.112C55.7413 9.32533 56.0613 9.528 56.36 9.72C56.6693 9.912 56.9253 10.0827 57.128 10.232L55.96 12.024C55.7253 11.864 55.4587 11.688 55.16 11.496C54.8613 11.2933 54.5413 11.0853 54.2 10.872C53.8693 10.648 53.5387 10.44 53.208 10.248C52.888 10.056 52.5893 9.89067 52.312 9.752L53.48 7.976ZM70.408 7.96C70.5467 7.97067 70.7333 7.98667 70.968 8.008C71.2027 8.01867 71.448 8.02933 71.704 8.04C71.96 8.04 72.1893 8.04 72.392 8.04C72.648 8.04 72.9787 8.04 73.384 8.04C73.7893 8.04 74.2267 8.04 74.696 8.04C75.176 8.04 75.6507 8.04 76.12 8.04C76.5893 8.04 77.0267 8.04 77.432 8.04C77.8373 8.04 78.1733 8.04 78.44 8.04C78.632 8.04 78.8507 8.04 79.096 8.04C79.352 8.02933 79.544 8.01867 79.672 8.008C79.6613 8.11467 79.656 8.28 79.656 8.504C79.656 8.71733 79.656 8.90933 79.656 9.08C79.656 9.19733 79.656 9.44267 79.656 9.816C79.656 10.1787 79.656 10.6267 79.656 11.16C79.656 11.6933 79.656 12.2587 79.656 12.856C79.656 13.4533 79.656 14.04 79.656 14.616C79.656 15.1813 79.656 15.688 79.656 16.136C79.656 16.5733 79.656 16.8987 79.656 17.112C79.656 17.24 79.656 17.416 79.656 17.64C79.6667 17.8747 79.672 18.0613 79.672 18.2H77.656C77.6667 18.0613 77.672 17.8693 77.672 17.624C77.672 17.3787 77.672 17.176 77.672 17.016C77.672 16.7387 77.672 16.3867 77.672 15.96C77.672 15.5227 77.672 15.0533 77.672 14.552C77.672 14.04 77.672 13.528 77.672 13.016C77.672 12.4933 77.672 12.008 77.672 11.56C77.672 11.112 77.672 10.7387 77.672 10.44C77.672 10.1307 77.672 9.928 77.672 9.832C77.576 9.832 77.4053 9.832 77.16 9.832C76.9147 9.832 76.632 9.832 76.312 9.832C75.992 9.832 75.6453 9.832 75.272 9.832C74.9093 9.832 74.5467 9.832 74.184 9.832C73.832 9.832 73.496 9.832 73.176 9.832C72.8667 9.832 72.6053 9.832 72.392 9.832C72.1893 9.832 71.96 9.83733 71.704 9.848C71.448 9.848 71.1973 9.85333 70.952 9.864C70.7173 9.87467 70.536 9.88533 70.408 9.896V7.96ZM70.824 11.72C71.0373 11.7307 71.304 11.7413 71.624 11.752C71.9547 11.7627 72.2693 11.768 72.568 11.768C72.696 11.768 72.92 11.768 73.24 11.768C73.5707 11.768 73.9493 11.768 74.376 11.768C74.8133 11.768 75.2613 11.768 75.72 11.768C76.1787 11.768 76.6107 11.768 77.016 11.768C77.432 11.768 77.784 11.768 78.072 11.768C78.36 11.768 78.536 11.768 78.6 11.768V13.576C78.5253 13.576 78.344 13.576 78.056 13.576C77.7787 13.576 77.432 13.576 77.016 13.576C76.6107 13.576 76.1787 13.576 75.72 13.576C75.2613 13.576 74.8133 13.576 74.376 13.576C73.9493 13.576 73.576 13.576 73.256 13.576C72.936 13.576 72.7067 13.576 72.568 13.576C72.2693 13.576 71.9493 13.5813 71.608 13.592C71.2773 13.592 71.016 13.5973 70.824 13.608V11.72ZM70.232 15.64C70.3707 15.6507 70.5627 15.6667 70.808 15.688C71.0533 15.6987 71.3253 15.704 71.624 15.704C71.784 15.704 72.0507 15.704 72.424 15.704C72.7973 15.704 73.224 15.704 73.704 15.704C74.1947 15.704 74.7013 15.704 75.224 15.704C75.7467 15.704 76.2427 15.704 76.712 15.704C77.192 15.704 77.6027 15.704 77.944 15.704C78.2853 15.704 78.5093 15.704 78.616 15.704V17.56C78.4773 17.56 78.232 17.56 77.88 17.56C77.528 17.56 77.112 17.56 76.632 17.56C76.1627 17.56 75.672 17.56 75.16 17.56C74.648 17.56 74.152 17.56 73.672 17.56C73.192 17.56 72.7653 17.56 72.392 17.56C72.0293 17.56 71.768 17.56 71.608 17.56C71.384 17.56 71.1333 17.5653 70.856 17.576C70.5787 17.5867 70.3707 17.5973 70.232 17.608V15.64ZM86.856 4.84C87.1333 5.032 87.4587 5.26667 87.832 5.544C88.2053 5.82133 88.5893 6.12533 88.984 6.456C89.3893 6.776 89.768 7.09067 90.12 7.4C90.472 7.70933 90.76 7.98667 90.984 8.232L89.352 9.896C89.1493 9.672 88.8827 9.40533 88.552 9.096C88.2213 8.78667 87.864 8.46667 87.48 8.136C87.096 7.80533 86.7173 7.49067 86.344 7.192C85.9707 6.89333 85.64 6.64267 85.352 6.44L86.856 4.84ZM84.856 15.496C85.688 15.3787 86.472 15.2133 87.208 15C87.944 14.7867 88.6267 14.5413 89.256 14.264C89.8853 13.9867 90.4613 13.6987 90.984 13.4C91.8907 12.856 92.7227 12.2373 93.48 11.544C94.2373 10.8507 94.8987 10.1307 95.464 9.384C96.0293 8.62667 96.4773 7.89067 96.808 7.176L98.056 9.432C97.6507 10.1467 97.1493 10.8613 96.552 11.576C95.9653 12.2907 95.2987 12.9733 94.552 13.624C93.8053 14.264 93 14.84 92.136 15.352C91.592 15.6827 91.0053 15.9973 90.376 16.296C89.7467 16.584 89.08 16.84 88.376 17.064C87.6827 17.2987 86.9573 17.48 86.2 17.608L84.856 15.496ZM103.256 9.64V15.544H101.416V11.416H99.608V9.64H103.256ZM103.256 14.776C103.565 15.3093 104.003 15.704 104.568 15.96C105.133 16.2053 105.821 16.344 106.632 16.376C107.112 16.3973 107.688 16.4133 108.36 16.424C109.043 16.424 109.752 16.4187 110.488 16.408C111.235 16.3973 111.96 16.3813 112.664 16.36C113.379 16.328 114.019 16.2853 114.584 16.232C114.509 16.3707 114.429 16.5573 114.344 16.792C114.269 17.016 114.195 17.2453 114.12 17.48C114.056 17.7147 114.008 17.9227 113.976 18.104C113.485 18.136 112.92 18.1573 112.28 18.168C111.64 18.1787 110.979 18.184 110.296 18.184C109.613 18.1947 108.952 18.1947 108.312 18.184C107.672 18.184 107.107 18.1733 106.616 18.152C105.656 18.1093 104.84 17.9547 104.168 17.688C103.496 17.4213 102.92 16.9787 102.44 16.36C102.131 16.68 101.8 16.9947 101.448 17.304C101.107 17.624 100.733 17.9547 100.328 18.296L99.416 16.392C99.7573 16.168 100.115 15.9173 100.488 15.64C100.872 15.3627 101.24 15.0747 101.592 14.776H103.256ZM99.672 4.904L101.128 3.816C101.437 4.05067 101.757 4.31733 102.088 4.616C102.419 4.91467 102.723 5.21333 103 5.512C103.277 5.81067 103.501 6.09333 103.672 6.36L102.088 7.576C101.939 7.30933 101.731 7.02133 101.464 6.712C101.208 6.392 100.92 6.07733 100.6 5.768C100.28 5.448 99.9707 5.16 99.672 4.904ZM105.688 7.928L107.336 7.56C107.475 7.79467 107.603 8.056 107.72 8.344C107.848 8.62133 107.933 8.86667 107.976 9.08L106.232 9.464C106.2 9.26133 106.131 9.016 106.024 8.728C105.928 8.44 105.816 8.17333 105.688 7.928ZM104.872 4.344H113.272V5.688H104.872V4.344ZM104.696 11.256H113.496V12.584H104.696V11.256ZM104.056 9.176H114.088V10.536H104.056V9.176ZM103.8 6.488H114.264V7.88H103.8V6.488ZM104.024 13.336H114.12V14.728H104.024V13.336ZM108.056 3.4H109.96V7.352H108.056V3.4ZM108.056 9.864H109.96V15.8H108.056V9.864ZM110.552 7.528L112.424 7.96C112.264 8.26933 112.104 8.552 111.944 8.808C111.784 9.064 111.64 9.288 111.512 9.48L109.96 9.08C110.067 8.856 110.173 8.6 110.28 8.312C110.397 8.01333 110.488 7.752 110.552 7.528ZM117.912 9.432H121.608V11.176H117.912V9.432ZM120.872 9.432H122.728C122.728 9.432 122.728 9.47467 122.728 9.56C122.728 9.64533 122.728 9.74667 122.728 9.864C122.728 9.97067 122.728 10.0613 122.728 10.136C122.707 11.2667 122.68 12.1947 122.648 12.92C122.616 13.6347 122.563 14.1947 122.488 14.6C122.424 14.9947 122.333 15.272 122.216 15.432C122.056 15.6347 121.885 15.7787 121.704 15.864C121.533 15.9493 121.331 16.0133 121.096 16.056C120.883 16.0987 120.611 16.1253 120.28 16.136C119.96 16.136 119.608 16.1307 119.224 16.12C119.213 15.8427 119.16 15.5333 119.064 15.192C118.968 14.8507 118.851 14.5627 118.712 14.328C119 14.3493 119.267 14.3653 119.512 14.376C119.768 14.3867 119.96 14.392 120.088 14.392C120.195 14.392 120.285 14.3813 120.36 14.36C120.445 14.328 120.515 14.2747 120.568 14.2C120.643 14.104 120.696 13.9067 120.728 13.608C120.771 13.2987 120.803 12.8347 120.824 12.216C120.845 11.5867 120.861 10.7547 120.872 9.72V9.432ZM125.672 4.408L126.84 3.256C127.139 3.40533 127.453 3.58133 127.784 3.784C128.115 3.98667 128.429 4.18933 128.728 4.392C129.037 4.59467 129.288 4.792 129.48 4.984L128.248 6.264C128.067 6.08267 127.832 5.88 127.544 5.656C127.256 5.432 126.947 5.21333 126.616 5C126.285 4.776 125.971 4.57867 125.672 4.408ZM127.56 8.536L129.512 9C128.84 11.08 127.923 12.92 126.76 14.52C125.597 16.1093 124.221 17.3947 122.632 18.376C122.547 18.2373 122.419 18.0667 122.248 17.864C122.077 17.672 121.901 17.4747 121.72 17.272C121.539 17.08 121.379 16.92 121.24 16.792C122.776 15.96 124.077 14.84 125.144 13.432C126.211 12.0133 127.016 10.3813 127.56 8.536ZM118.008 5.8H130.36V7.688H118.008V5.8ZM116.728 5.8H118.744V10.52C118.744 11.1173 118.723 11.7733 118.68 12.488C118.637 13.192 118.557 13.9173 118.44 14.664C118.323 15.4 118.147 16.1093 117.912 16.792C117.688 17.4747 117.395 18.088 117.032 18.632C116.925 18.4933 116.765 18.3387 116.552 18.168C116.349 17.9973 116.141 17.8267 115.928 17.656C115.725 17.496 115.549 17.384 115.4 17.32C115.805 16.68 116.099 15.9653 116.28 15.176C116.472 14.376 116.595 13.5707 116.648 12.76C116.701 11.9493 116.728 11.1973 116.728 10.504V5.8ZM123.224 3.416H125.24C125.219 4.728 125.256 6.01333 125.352 7.272C125.448 8.53067 125.587 9.70933 125.768 10.808C125.96 11.896 126.184 12.8613 126.44 13.704C126.696 14.536 126.979 15.1867 127.288 15.656C127.597 16.1253 127.912 16.36 128.232 16.36C128.413 16.36 128.552 16.1413 128.648 15.704C128.755 15.2667 128.829 14.5467 128.872 13.544C129.096 13.7573 129.357 13.9653 129.656 14.168C129.965 14.3707 130.248 14.52 130.504 14.616C130.408 15.608 130.264 16.376 130.072 16.92C129.88 17.4533 129.624 17.8213 129.304 18.024C128.984 18.2267 128.573 18.328 128.072 18.328C127.496 18.328 126.973 18.1307 126.504 17.736C126.045 17.3413 125.635 16.792 125.272 16.088C124.92 15.384 124.616 14.5573 124.36 13.608C124.104 12.6587 123.891 11.6293 123.72 10.52C123.56 9.41067 123.437 8.25867 123.352 7.064C123.277 5.85867 123.235 4.64267 123.224 3.416ZM137.96 3.416H139.944V5.656H137.96V3.416ZM137.96 12.776H139.944V18.44H137.96V12.776ZM131.784 13.8H146.248V15.576H131.784V13.8ZM132.312 4.968H145.752V6.712H132.312V4.968ZM144.136 6.904L145.848 7.72C145.443 8.09333 145.021 8.456 144.584 8.808C144.147 9.14933 143.747 9.448 143.384 9.704L141.976 8.952C142.221 8.77067 142.472 8.56267 142.728 8.328C142.995 8.09333 143.251 7.85333 143.496 7.608C143.752 7.352 143.965 7.11733 144.136 6.904ZM137.816 6.216L139.432 6.824C139.112 7.24 138.781 7.656 138.44 8.072C138.109 8.488 137.805 8.84 137.528 9.128L136.328 8.6C136.499 8.376 136.675 8.12533 136.856 7.848C137.037 7.57067 137.213 7.288 137.384 7C137.555 6.712 137.699 6.45067 137.816 6.216ZM140.216 7.384L141.704 8.072C141.267 8.584 140.787 9.11733 140.264 9.672C139.741 10.216 139.219 10.7387 138.696 11.24C138.173 11.7307 137.677 12.1627 137.208 12.536L136.088 11.912C136.557 11.5173 137.043 11.064 137.544 10.552C138.056 10.0293 138.547 9.49067 139.016 8.936C139.485 8.38133 139.885 7.864 140.216 7.384ZM135.528 8.776L136.424 7.688C136.733 7.86933 137.064 8.07733 137.416 8.312C137.768 8.54667 138.104 8.78133 138.424 9.016C138.744 9.24 139.005 9.448 139.208 9.64L138.264 10.888C138.072 10.6853 137.821 10.4613 137.512 10.216C137.203 9.96 136.872 9.70933 136.52 9.464C136.168 9.208 135.837 8.97867 135.528 8.776ZM135.384 11.336C135.917 11.3147 136.525 11.2933 137.208 11.272C137.891 11.24 138.616 11.208 139.384 11.176C140.152 11.1333 140.925 11.096 141.704 11.064L141.688 12.424C140.621 12.5093 139.56 12.5947 138.504 12.68C137.448 12.7653 136.499 12.8347 135.656 12.888L135.384 11.336ZM139.784 10.264L141.144 9.688C141.379 9.98667 141.608 10.312 141.832 10.664C142.067 11.0053 142.28 11.3467 142.472 11.688C142.664 12.0293 142.803 12.3387 142.888 12.616L141.448 13.272C141.363 12.9947 141.229 12.6853 141.048 12.344C140.877 11.992 140.68 11.6347 140.456 11.272C140.243 10.8987 140.019 10.5627 139.784 10.264ZM131.608 11.624C132.12 11.464 132.733 11.2453 133.448 10.968C134.173 10.6907 134.909 10.4133 135.656 10.136L135.992 11.544C135.416 11.832 134.819 12.12 134.2 12.408C133.592 12.696 133.032 12.952 132.52 13.176L131.608 11.624ZM132.088 8.088L133.368 7.064C133.645 7.21333 133.939 7.38933 134.248 7.592C134.568 7.784 134.867 7.98133 135.144 8.184C135.432 8.38667 135.667 8.57333 135.848 8.744L134.504 9.88C134.344 9.70933 134.125 9.51733 133.848 9.304C133.581 9.09067 133.293 8.87733 132.984 8.664C132.675 8.45067 132.376 8.25867 132.088 8.088ZM141.624 11.064L142.936 10.008C143.299 10.1893 143.693 10.4027 144.12 10.648C144.547 10.8933 144.952 11.144 145.336 11.4C145.72 11.6453 146.04 11.8693 146.296 12.072L144.904 13.24C144.68 13.0267 144.381 12.792 144.008 12.536C143.635 12.28 143.24 12.0187 142.824 11.752C142.408 11.4853 142.008 11.256 141.624 11.064Z" fill="#374949"/>
<path d="M62.5161 49.616C67.491 49.616 71.5638 51.3044 74.7343 54.6811C77.9306 58.0579 79.5288 62.3755 79.5288 67.634C79.5288 72.8667 77.9693 77.4808 74.8503 81.4762C71.7313 85.4716 66.8853 87.4693 60.3122 87.4693C53.2493 87.4693 48.0424 84.5178 44.6914 78.6149C42.0879 74.0009 40.7862 68.0464 40.7862 60.7516C40.7862 56.4726 40.9667 52.9928 41.3275 50.312C41.972 45.5433 43.2221 41.5736 45.0781 38.4031C46.6762 35.6965 48.7641 33.5184 51.3418 31.8686C53.9453 30.2189 57.0514 29.3941 60.6602 29.3941C65.8671 29.3941 70.0171 30.7345 73.1104 33.4153C76.2036 36.0703 77.9435 39.6146 78.3302 44.0482H67.3492C67.3492 43.146 67.0013 42.1536 66.3053 41.071C65.1196 39.3182 63.3281 38.4417 60.9308 38.4417C57.3478 38.4417 54.7959 40.4523 53.2751 44.4735C52.4502 46.6903 51.8831 49.964 51.5738 54.2945C52.94 52.6706 54.5253 51.4848 56.3296 50.7373C58.134 49.9898 60.1962 49.616 62.5161 49.616ZM55.0924 60.1329C52.9271 61.8084 51.8445 64.515 51.8445 68.2526C51.8445 71.2685 52.6565 73.7302 54.2804 75.6377C55.9043 77.5452 57.9665 78.4989 60.4668 78.4989C62.9156 78.4989 64.836 77.5839 66.228 75.7537C67.6457 73.8978 68.3545 71.5005 68.3545 68.562C68.3545 65.2883 67.5555 62.788 65.9573 61.0609C64.3591 59.3081 62.4001 58.4317 60.0802 58.4317C58.1985 58.4317 56.5359 58.9988 55.0924 60.1329ZM109.92 41.3416C108.605 39.7692 106.723 38.9831 104.275 38.9831C100.924 38.9831 98.6423 40.2332 97.4308 42.7336C96.7348 44.1771 96.3224 46.4712 96.1935 49.616H85.4833C85.6637 44.8473 86.5272 40.9936 88.0738 38.0551C91.0124 32.4615 96.2322 29.6647 103.733 29.6647C109.662 29.6647 114.379 31.3144 117.885 34.6139C121.39 37.8875 123.143 42.2309 123.143 47.6441C123.143 51.7941 121.906 55.4802 119.431 58.7023C117.807 60.8418 115.139 63.2262 111.428 65.8554L107.02 68.9873C104.262 70.9463 102.367 72.3641 101.336 73.2405C100.331 74.1169 99.4801 75.1351 98.7841 76.295H123.259V86H84.8646C84.9677 81.9788 85.8312 78.3056 87.4552 74.9804C89.0276 71.2428 92.7394 67.286 98.5908 63.1102C103.669 59.4756 106.955 56.8722 108.45 55.2998C110.745 52.851 111.892 50.1702 111.892 47.2574C111.892 44.8859 111.234 42.914 109.92 41.3416Z" fill="#F09131"/>
<path d="M137.016 80.0087C136.244 80.0087 135.554 79.8008 134.945 79.3851C134.336 78.9693 133.861 78.368 133.52 77.5811C133.178 76.7942 133.008 75.8514 133.008 74.7527C133.008 73.654 133.178 72.7186 133.52 71.9465C133.861 71.1744 134.336 70.588 134.945 70.1871C135.554 69.7713 136.244 69.5635 137.016 69.5635C137.818 69.5635 138.516 69.7713 139.11 70.1871C139.719 70.588 140.194 71.1744 140.535 71.9465C140.877 72.7186 141.047 73.654 141.047 74.7527C141.047 75.8514 140.877 76.7942 140.535 77.5811C140.194 78.368 139.719 78.9693 139.11 79.3851C138.516 79.8008 137.818 80.0087 137.016 80.0087ZM137.016 78.1602C137.491 78.1602 137.892 77.9003 138.219 77.3807C138.56 76.8462 138.731 75.9702 138.731 74.7527C138.731 73.55 138.56 72.6963 138.219 72.1915C137.892 71.6718 137.491 71.412 137.016 71.412C136.541 71.412 136.133 71.6718 135.791 72.1915C135.465 72.6963 135.301 73.55 135.301 74.7527C135.301 75.9702 135.465 76.8462 135.791 77.3807C136.133 77.9003 136.541 78.1602 137.016 78.1602ZM137.551 86.6678L146.526 69.5635H148.464L139.511 86.6678H137.551ZM149.02 86.6678C148.234 86.6678 147.536 86.4599 146.927 86.0442C146.333 85.6284 145.858 85.0271 145.502 84.2402C145.16 83.4533 144.989 82.5105 144.989 81.4118C144.989 80.2982 145.16 79.3554 145.502 78.5833C145.858 77.8112 146.333 77.2248 146.927 76.8239C147.536 76.4082 148.234 76.2003 149.02 76.2003C149.793 76.2003 150.476 76.4082 151.069 76.8239C151.678 77.2248 152.153 77.8112 152.495 78.5833C152.851 79.3554 153.029 80.2982 153.029 81.4118C153.029 82.5105 152.851 83.4533 152.495 84.2402C152.153 85.0271 151.678 85.6284 151.069 86.0442C150.476 86.4599 149.793 86.6678 149.02 86.6678ZM149.02 84.797C149.496 84.797 149.896 84.5371 150.223 84.0175C150.55 83.483 150.713 82.6144 150.713 81.4118C150.713 80.1794 150.55 79.3183 150.223 78.8283C149.896 78.3235 149.496 78.0711 149.02 78.0711C148.531 78.0711 148.122 78.3235 147.796 78.8283C147.469 79.3183 147.306 80.1794 147.306 81.4118C147.306 82.6144 147.469 83.483 147.796 84.0175C148.122 84.5371 148.531 84.797 149.02 84.797Z" fill="#374949"/>
<path d="M64.7583 157.119H65.78V167.301H64.7583V157.119ZM67.9497 156.9H68.914V165.602H67.9497V156.9ZM69.9128 157.543L70.8656 157.853C70.7508 158.129 70.6322 158.412 70.5098 158.703C70.3873 158.994 70.2649 159.273 70.1424 159.541C70.0276 159.809 69.9128 160.046 69.798 160.253L69.0633 159.977C69.1628 159.755 69.2661 159.503 69.3732 159.219C69.4804 158.936 69.5799 158.649 69.6717 158.358C69.7712 158.06 69.8516 157.788 69.9128 157.543ZM66.09 157.922L66.8706 157.658C67.0466 158.003 67.2073 158.381 67.3528 158.795C67.5058 159.208 67.6091 159.568 67.6627 159.874L66.8132 160.184C66.7673 159.87 66.6754 159.503 66.5377 159.082C66.3999 158.661 66.2507 158.274 66.09 157.922ZM66.0555 160.413H70.9116V161.389H66.0555V160.413ZM65.3667 165.786H71.1297V166.773H65.3667V165.786ZM67.812 160.964L68.5237 161.263C68.3707 161.714 68.1793 162.185 67.9497 162.675C67.7201 163.165 67.4637 163.624 67.1806 164.053C66.905 164.481 66.6142 164.837 66.3081 165.12C66.2622 164.967 66.1895 164.795 66.09 164.604C65.9981 164.405 65.9101 164.236 65.8259 164.098C66.0861 163.869 66.3425 163.578 66.5951 163.226C66.8553 162.874 67.0925 162.503 67.3068 162.112C67.5211 161.714 67.6895 161.332 67.812 160.964ZM68.8222 161.584C68.8987 161.653 69.0097 161.76 69.1551 161.906C69.3082 162.044 69.4727 162.204 69.6488 162.388C69.8324 162.564 70.0123 162.744 70.1883 162.927C70.3643 163.111 70.5212 163.276 70.659 163.421C70.8044 163.559 70.9077 163.662 70.969 163.731L70.3146 164.569C70.2151 164.416 70.0773 164.225 69.9013 163.995C69.7329 163.766 69.5454 163.528 69.3388 163.283C69.1398 163.031 68.9447 162.797 68.7533 162.583C68.5696 162.361 68.4166 162.181 68.2941 162.044L68.8222 161.584ZM62.2097 156.671L63.1396 157.015C62.9942 157.306 62.8373 157.605 62.6689 157.911C62.5082 158.217 62.3475 158.511 62.1868 158.795C62.0337 159.078 61.8845 159.33 61.739 159.552L61.0158 159.242C61.1536 159.02 61.2951 158.76 61.4406 158.462C61.5936 158.156 61.739 157.846 61.8768 157.532C62.0146 157.218 62.1255 156.931 62.2097 156.671ZM63.4381 158.003L64.3106 158.404C64.0503 158.833 63.7672 159.284 63.461 159.759C63.1549 160.233 62.8449 160.693 62.5312 161.137C62.225 161.573 61.9304 161.955 61.6472 162.285L61.0158 161.94C61.2224 161.688 61.4367 161.401 61.6587 161.079C61.8806 160.75 62.0987 160.41 62.313 160.057C62.535 159.698 62.7416 159.342 62.933 158.99C63.1243 158.638 63.2927 158.309 63.4381 158.003ZM60.4074 159.162L60.9469 158.462C61.1459 158.645 61.3487 158.848 61.5554 159.07C61.7697 159.292 61.961 159.51 62.1294 159.725C62.3054 159.939 62.4393 160.134 62.5312 160.31L61.9572 161.114C61.8653 160.922 61.7352 160.716 61.5668 160.494C61.3985 160.264 61.211 160.035 61.0043 159.805C60.7977 159.568 60.5987 159.353 60.4074 159.162ZM63.0363 160.643L63.771 160.356C63.9164 160.609 64.0542 160.884 64.1843 161.183C64.3144 161.481 64.4292 161.772 64.5287 162.055C64.6282 162.338 64.6932 162.591 64.7238 162.813L63.9432 163.146C63.9049 162.931 63.8399 162.679 63.748 162.388C63.6562 162.097 63.5491 161.799 63.4266 161.492C63.3041 161.186 63.174 160.903 63.0363 160.643ZM60.327 161.734C60.8092 161.711 61.3793 161.68 62.0375 161.642C62.6957 161.603 63.3692 161.565 64.058 161.527L64.0695 162.422C63.4266 162.468 62.7875 162.514 62.1523 162.56C61.5171 162.606 60.9507 162.648 60.4533 162.686L60.327 161.734ZM63.2429 163.49L63.9776 163.272C64.1154 163.601 64.2379 163.961 64.345 164.351C64.4521 164.734 64.5249 165.07 64.5631 165.361L63.771 165.602C63.748 165.311 63.6868 164.971 63.5873 164.581C63.4878 164.183 63.373 163.819 63.2429 163.49ZM60.9354 163.318L61.7964 163.456C61.7276 163.999 61.6281 164.535 61.498 165.063C61.3755 165.591 61.2301 166.039 61.0617 166.406C61.0081 166.36 60.9316 166.314 60.8321 166.268C60.7326 166.222 60.6331 166.176 60.5336 166.13C60.4341 166.084 60.35 166.05 60.2811 166.027C60.4571 165.675 60.5949 165.258 60.6944 164.776C60.8015 164.294 60.8819 163.808 60.9354 163.318ZM62.1064 162.193H63.0248V167.324H62.1064V162.193ZM78.7983 156.659H79.866V159.885H78.7983V156.659ZM76.2612 157.67H82.4375V158.565H76.2612V157.67ZM76.6745 159.449H82.0701V160.344H76.6745V159.449ZM76.2727 161.022H82.5064V163.18H81.5535V161.871H77.1911V163.18H76.2727V161.022ZM79.7971 162.595H80.7844V165.97C80.7844 166.115 80.7958 166.211 80.8188 166.257C80.8494 166.295 80.9145 166.314 81.014 166.314C81.0446 166.314 81.0981 166.314 81.1747 166.314C81.2589 166.314 81.3392 166.314 81.4158 166.314C81.4999 166.314 81.5612 166.314 81.5994 166.314C81.6607 166.314 81.7104 166.283 81.7487 166.222C81.7869 166.153 81.8137 166.019 81.829 165.82C81.8443 165.614 81.8558 165.304 81.8635 164.891C81.9706 164.975 82.1084 165.055 82.2768 165.132C82.4528 165.201 82.6097 165.254 82.7474 165.292C82.7245 165.805 82.6747 166.199 82.5982 166.475C82.5217 166.758 82.4107 166.953 82.2653 167.06C82.1275 167.175 81.94 167.232 81.7028 167.232C81.6568 167.232 81.5956 167.232 81.5191 167.232C81.4425 167.232 81.3622 167.232 81.278 167.232C81.1938 167.232 81.1096 167.232 81.0254 167.232C80.9489 167.232 80.8915 167.232 80.8532 167.232C80.5701 167.232 80.3519 167.194 80.1989 167.118C80.0458 167.041 79.9387 166.911 79.8774 166.727C79.8239 166.544 79.7971 166.291 79.7971 165.97V162.595ZM77.7077 162.606H78.695V163.421C78.695 163.712 78.6644 164.03 78.6032 164.374C78.5496 164.711 78.4386 165.055 78.2702 165.407C78.1095 165.759 77.8646 166.1 77.5355 166.429C77.2141 166.766 76.7817 167.068 76.2383 167.336C76.1541 167.229 76.0393 167.102 75.8939 166.957C75.7485 166.819 75.6107 166.704 75.4806 166.613C75.9781 166.368 76.376 166.107 76.6745 165.832C76.973 165.549 77.1949 165.266 77.3404 164.982C77.4858 164.692 77.5814 164.412 77.6274 164.144C77.6809 163.869 77.7077 163.62 77.7077 163.398V162.606ZM73.6897 156.671L74.6311 157.015C74.4857 157.306 74.3288 157.608 74.1604 157.922C73.9997 158.228 73.8351 158.523 73.6668 158.806C73.506 159.089 73.353 159.338 73.2076 159.552L72.4728 159.242C72.6183 159.02 72.7637 158.76 72.9091 158.462C73.0621 158.156 73.2076 157.846 73.3453 157.532C73.4831 157.218 73.5979 156.931 73.6897 156.671ZM74.9755 158.003L75.8709 158.416C75.6031 158.844 75.3046 159.296 74.9755 159.77C74.654 160.245 74.3288 160.704 73.9997 161.148C73.6706 161.584 73.3606 161.971 73.0698 162.308L72.4269 161.94C72.6412 161.688 72.867 161.401 73.1042 161.079C73.3415 160.75 73.5711 160.41 73.793 160.057C74.0226 159.698 74.2369 159.342 74.4359 158.99C74.6426 158.638 74.8224 158.309 74.9755 158.003ZM71.8874 159.196L72.4384 158.473C72.6374 158.657 72.8402 158.86 73.0468 159.082C73.2535 159.304 73.4448 159.522 73.6208 159.736C73.7969 159.95 73.9308 160.145 74.0226 160.322L73.4372 161.148C73.3453 160.957 73.2152 160.75 73.0468 160.528C72.8785 160.299 72.691 160.069 72.4843 159.839C72.2777 159.602 72.0787 159.388 71.8874 159.196ZM74.5507 160.689L75.3314 160.367C75.4844 160.62 75.6337 160.896 75.7791 161.194C75.9245 161.485 76.0508 161.768 76.1579 162.044C76.2727 162.311 76.3569 162.556 76.4105 162.778L75.561 163.157C75.5227 162.935 75.45 162.683 75.3428 162.399C75.2433 162.116 75.1247 161.825 74.987 161.527C74.8492 161.228 74.7038 160.949 74.5507 160.689ZM71.807 161.734C72.3121 161.703 72.9091 161.672 73.5979 161.642C74.2867 161.603 74.9946 161.561 75.7217 161.515L75.7332 162.411C75.052 162.464 74.3785 162.514 73.7127 162.56C73.0468 162.606 72.4537 162.648 71.9333 162.686L71.807 161.734ZM74.8607 163.513L75.6413 163.272C75.7867 163.601 75.913 163.957 76.0202 164.34C76.135 164.722 76.2077 165.055 76.2383 165.338L75.4232 165.602C75.3926 165.319 75.3237 164.982 75.2166 164.592C75.1171 164.202 74.9984 163.842 74.8607 163.513ZM72.4154 163.318L73.3109 163.467C73.242 164.01 73.1425 164.546 73.0124 165.074C72.8899 165.602 72.7407 166.05 72.5647 166.417C72.5035 166.379 72.4231 166.337 72.3236 166.291C72.2241 166.238 72.1208 166.188 72.0136 166.142C71.9141 166.088 71.83 166.05 71.7611 166.027C71.9371 165.675 72.0749 165.258 72.1744 164.776C72.2815 164.294 72.3619 163.808 72.4154 163.318ZM73.6553 162.193H74.5966V167.324H73.6553V162.193ZM84.9172 157.406H92.6547V167.152H91.4837V158.508H86.0307V167.198H84.9172V157.406ZM85.6634 161.332H91.9774V162.411H85.6634V161.332ZM85.6519 165.35H91.9888V166.44H85.6519V165.35ZM94.8818 162.732H100.599V163.628H94.8818V162.732ZM94.9736 158.703H100.553V159.575H94.9736V158.703ZM96.9941 161.814L98.0044 162.032C97.8207 162.415 97.6217 162.816 97.4074 163.237C97.1931 163.658 96.9826 164.064 96.776 164.454C96.5694 164.845 96.3742 165.193 96.1905 165.499L95.2377 165.189C95.4137 164.898 95.605 164.561 95.8117 164.179C96.026 163.788 96.2326 163.387 96.4316 162.973C96.6382 162.56 96.8257 162.174 96.9941 161.814ZM98.6702 163.306L99.6804 163.421C99.5733 163.995 99.4164 164.496 99.2098 164.925C99.0031 165.354 98.7276 165.721 98.3832 166.027C98.0388 166.333 97.6179 166.59 97.1204 166.796C96.6306 167.011 96.0489 167.19 95.3754 167.336C95.3448 167.183 95.2836 167.022 95.1918 166.854C95.1076 166.685 95.0157 166.544 94.9162 166.429C95.7045 166.306 96.3512 166.127 96.8564 165.889C97.3691 165.644 97.7671 165.311 98.0503 164.891C98.3411 164.47 98.5477 163.942 98.6702 163.306ZM99.4279 156.855L100.358 157.233C100.182 157.494 100.002 157.754 99.8182 158.014C99.6422 158.274 99.4776 158.5 99.3246 158.691L98.6013 158.358C98.7467 158.152 98.896 157.907 99.049 157.624C99.2098 157.333 99.336 157.076 99.4279 156.855ZM97.2696 156.659H98.2799V161.963H97.2696V156.659ZM95.341 157.233L96.1446 156.9C96.3053 157.13 96.4507 157.383 96.5808 157.658C96.7186 157.926 96.8143 158.159 96.8678 158.358L96.0298 158.737C95.9839 158.531 95.8959 158.29 95.7658 158.014C95.6357 157.731 95.4941 157.471 95.341 157.233ZM97.3041 159.116L98.0158 159.541C97.8245 159.855 97.5834 160.172 97.2926 160.494C97.0094 160.807 96.6995 161.098 96.3627 161.366C96.0336 161.634 95.7045 161.86 95.3754 162.044C95.3142 161.921 95.23 161.779 95.1229 161.619C95.0157 161.458 94.9086 161.328 94.8014 161.228C95.1229 161.098 95.4405 160.922 95.7543 160.7C96.0757 160.478 96.3704 160.23 96.6382 159.954C96.9138 159.679 97.1357 159.399 97.3041 159.116ZM98.1766 159.483C98.2761 159.537 98.4215 159.625 98.6128 159.748C98.8118 159.862 99.0223 159.989 99.2442 160.126C99.4738 160.256 99.6804 160.383 99.8641 160.505C100.055 160.62 100.189 160.708 100.266 160.769L99.6804 161.527C99.5809 161.435 99.4432 161.316 99.2672 161.171C99.0911 161.026 98.8998 160.876 98.6932 160.723C98.4942 160.563 98.299 160.413 98.1077 160.276C97.924 160.13 97.7709 160.015 97.6485 159.931L98.1766 159.483ZM101.402 158.772H105.547V159.77H101.402V158.772ZM101.609 156.659L102.711 156.82C102.589 157.585 102.432 158.324 102.24 159.036C102.049 159.748 101.82 160.406 101.552 161.01C101.284 161.615 100.978 162.147 100.633 162.606C100.58 162.537 100.499 162.457 100.392 162.365C100.285 162.273 100.174 162.181 100.059 162.089C99.9445 161.99 99.845 161.913 99.7608 161.86C100.09 161.454 100.373 160.98 100.61 160.436C100.848 159.885 101.05 159.288 101.219 158.645C101.387 158.003 101.517 157.341 101.609 156.659ZM103.802 159.369L104.904 159.472C104.728 160.788 104.46 161.948 104.1 162.95C103.748 163.953 103.262 164.818 102.642 165.545C102.03 166.264 101.242 166.869 100.277 167.359C100.247 167.275 100.193 167.167 100.117 167.037C100.04 166.915 99.9598 166.792 99.8756 166.67C99.7914 166.547 99.7149 166.452 99.646 166.383C100.534 165.97 101.257 165.445 101.816 164.81C102.382 164.167 102.818 163.394 103.124 162.491C103.438 161.588 103.664 160.547 103.802 159.369ZM101.999 159.61C102.16 160.628 102.39 161.584 102.688 162.48C102.994 163.368 103.388 164.148 103.871 164.822C104.36 165.488 104.961 166.008 105.673 166.383C105.589 166.452 105.497 166.54 105.397 166.647C105.298 166.762 105.206 166.877 105.122 166.991C105.038 167.106 104.965 167.213 104.904 167.313C104.146 166.869 103.515 166.28 103.01 165.545C102.505 164.803 102.091 163.945 101.77 162.973C101.456 161.994 101.203 160.926 101.012 159.77L101.999 159.61ZM96.0642 165.109L96.6497 164.362C97.1013 164.538 97.5528 164.737 98.0044 164.959C98.4559 165.174 98.873 165.399 99.2557 165.637C99.646 165.866 99.9751 166.084 100.243 166.291L99.4968 167.072C99.2442 166.857 98.9342 166.632 98.5669 166.394C98.1995 166.157 97.8015 165.928 97.373 165.706C96.9444 165.484 96.5081 165.285 96.0642 165.109Z" fill="#374949"/>
<path d="M46.6472 181.648V179.88C48.3128 179.718 49.4745 179.449 50.1322 179.073C50.7899 178.688 51.281 177.787 51.6056 176.369H53.425V194.64H50.965V181.648H46.6472ZM62.2272 190.207C62.2955 191.48 62.7867 192.359 63.7006 192.846C64.1704 193.103 64.7 193.231 65.2894 193.231C66.3912 193.231 67.3308 192.774 68.1081 191.86C68.8854 190.937 69.4364 189.071 69.7609 186.261C69.2484 187.072 68.6121 187.644 67.8519 187.978C67.1002 188.302 66.2887 188.464 65.4175 188.464C63.6494 188.464 62.2485 187.913 61.215 186.812C60.19 185.71 59.6775 184.292 59.6775 182.558C59.6775 180.892 60.1857 179.427 61.2022 178.163C62.2186 176.899 63.7177 176.267 65.6994 176.267C68.3729 176.267 70.2179 177.471 71.2344 179.88C71.7981 181.204 72.08 182.861 72.08 184.851C72.08 187.098 71.7426 189.088 71.0678 190.822C69.9489 193.709 68.0526 195.153 65.3791 195.153C63.5853 195.153 62.2229 194.683 61.2919 193.743C60.3608 192.804 59.8953 191.625 59.8953 190.207H62.2272ZM65.725 186.44C66.639 186.44 67.4718 186.141 68.2234 185.543C68.9836 184.937 69.3637 183.882 69.3637 182.378C69.3637 181.029 69.0221 180.025 68.3387 179.368C67.664 178.701 66.8012 178.368 65.7506 178.368C64.6231 178.368 63.7262 178.748 63.06 179.508C62.4023 180.26 62.0734 181.268 62.0734 182.532C62.0734 183.728 62.3639 184.68 62.9447 185.389C63.5255 186.09 64.4523 186.44 65.725 186.44ZM79.3191 175.818H81.2666L75.2959 194.64H73.3484L79.3191 175.818ZM87.4678 195.14C85.2982 195.14 83.7223 194.546 82.74 193.359C81.7662 192.163 81.2794 190.711 81.2794 189.003H83.6881C83.7906 190.19 84.0127 191.053 84.3544 191.591C84.9523 192.556 86.0328 193.038 87.5959 193.038C88.8089 193.038 89.7826 192.714 90.5172 192.065C91.2518 191.416 91.6191 190.578 91.6191 189.553C91.6191 188.289 91.2304 187.405 90.4531 186.901C89.6844 186.397 88.6124 186.145 87.2372 186.145C87.0834 186.145 86.9254 186.15 86.7631 186.158C86.6094 186.158 86.4514 186.162 86.2891 186.171V184.134C86.5282 184.159 86.729 184.176 86.8912 184.185C87.0535 184.194 87.2286 184.198 87.4166 184.198C88.2793 184.198 88.9882 184.061 89.5434 183.788C90.5172 183.309 91.0041 182.455 91.0041 181.225C91.0041 180.311 90.6795 179.607 90.0303 179.111C89.3811 178.616 88.6252 178.368 87.7625 178.368C86.225 178.368 85.1616 178.881 84.5722 179.906C84.2476 180.469 84.064 181.272 84.0212 182.314H81.7406C81.7406 180.948 82.014 179.786 82.5606 178.829C83.5002 177.121 85.153 176.267 87.5191 176.267C89.3897 176.267 90.8375 176.685 91.8625 177.523C92.8875 178.351 93.4 179.555 93.4 181.136C93.4 182.263 93.0968 183.177 92.4903 183.878C92.1145 184.313 91.6276 184.655 91.0297 184.903C91.9949 185.167 92.7466 185.68 93.2847 186.44C93.8314 187.192 94.1047 188.114 94.1047 189.208C94.1047 190.959 93.5281 192.385 92.375 193.487C91.2219 194.589 89.5861 195.14 87.4678 195.14ZM102.356 176.293C104.731 176.293 106.447 177.271 107.507 179.227C108.327 180.738 108.737 182.81 108.737 185.441C108.737 187.935 108.365 189.998 107.622 191.629C106.546 193.969 104.786 195.14 102.343 195.14C100.139 195.14 98.4994 194.183 97.4231 192.27C96.5262 190.672 96.0778 188.528 96.0778 185.838C96.0778 183.754 96.3469 181.964 96.885 180.469C97.8929 177.685 99.7166 176.293 102.356 176.293ZM102.33 193.038C103.526 193.038 104.479 192.509 105.187 191.45C105.896 190.391 106.251 188.417 106.251 185.53C106.251 183.446 105.995 181.734 105.482 180.393C104.97 179.043 103.975 178.368 102.497 178.368C101.139 178.368 100.144 179.009 99.5116 180.29C98.888 181.563 98.5762 183.442 98.5762 185.928C98.5762 187.798 98.777 189.301 99.1784 190.438C99.7934 192.171 100.844 193.038 102.33 193.038Z" fill="#374949"/>
<path d="M112.28 184.777H119.811V194.375H118.893V185.638H113.164V194.432H112.28V184.777ZM112.877 188.75H119.283V189.599H112.877V188.75ZM112.854 192.825H119.295V193.686H112.854V192.825Z" fill="#374949"/>
<path d="M149 176C149 212.451 119.451 242 83 242C46.5492 242 17 212.451 17 176C17 139.549 46.5492 110 83 110C119.451 110 149 139.549 149 176ZM31.5085 176C31.5085 204.438 54.562 227.491 83 227.491C111.438 227.491 134.491 204.438 134.491 176C134.491 147.562 111.438 124.509 83 124.509C54.562 124.509 31.5085 147.562 31.5085 176Z" fill="#E8E8E8"/>
<path d="M83 117.392C83 113.309 86.3196 109.957 90.3762 110.413C98.2617 111.3 105.943 113.604 113.045 117.235C122.346 121.99 130.385 128.886 136.502 137.354C142.619 145.822 146.638 155.621 148.23 165.946C149.821 176.27 148.939 186.825 145.656 196.742C142.373 206.659 136.783 215.655 129.346 222.99C121.908 230.326 112.836 235.791 102.874 238.937C92.9127 242.082 82.3468 242.818 72.0454 241.085C64.1806 239.761 56.6414 237.026 49.7844 233.033C46.2568 230.978 45.5931 226.308 48.0289 223.032V223.032C50.4647 219.756 55.0759 219.129 58.6681 221.068C63.5965 223.729 68.9431 225.571 74.4991 226.507C82.4931 227.852 90.6924 227.281 98.4226 224.84C106.153 222.399 113.193 218.158 118.965 212.465C124.736 206.773 129.074 199.792 131.622 192.096C134.17 184.4 134.854 176.209 133.619 168.198C132.384 160.186 129.265 152.581 124.518 146.01C119.772 139.439 113.533 134.088 106.315 130.398C101.298 127.833 95.9086 126.121 90.366 125.316C86.3262 124.728 83 121.474 83 117.392V117.392Z" fill="#FFCC00"/>
<path d="M49.567 263.508H55.219C55.783 263.508 56.143 263.496 56.491 263.448C56.455 263.856 56.431 264.204 56.431 264.624V272.472C56.431 273.072 56.455 273.468 56.503 273.864H55.291V273.132H49.447V273.864H48.235C48.283 273.48 48.307 273.096 48.307 272.544V264.684C48.307 264.204 48.283 263.82 48.247 263.448C48.631 263.496 49.015 263.508 49.567 263.508ZM49.447 266.304H55.291V264.564H49.447V266.304ZM49.447 267.348V269.112H55.291V267.348H49.447ZM49.447 270.156V272.076H55.291V270.156H49.447ZM67.625 265.068H68.561C68.981 265.068 69.353 265.056 69.665 265.02C69.629 265.26 69.617 265.452 69.617 265.848V266.868C69.617 267.3 69.629 267.516 69.665 267.804C69.317 267.768 69.041 267.756 68.537 267.756H63.977C63.509 267.756 63.185 267.768 62.849 267.804C62.885 267.528 62.897 267.288 62.897 266.928V265.848C62.897 265.512 62.885 265.236 62.849 265.02C63.137 265.056 63.473 265.068 63.941 265.068H64.853V264.348H63.809C63.245 264.348 62.813 264.372 62.501 264.42V263.376C62.849 263.424 63.257 263.448 63.809 263.448H68.693C69.245 263.448 69.677 263.424 70.037 263.376V264.408C69.725 264.372 69.305 264.348 68.765 264.348H67.625V265.068ZM66.773 264.348H65.705V265.068H66.773V264.348ZM66.773 265.872H65.705V266.94H66.773V265.872ZM67.625 266.94H68.705V265.872H67.625V266.94ZM64.853 265.872H63.797V266.94H64.853V265.872ZM60.497 265.224V264.192C60.497 263.556 60.473 263.22 60.425 262.944H61.565C61.529 263.244 61.505 263.616 61.505 264.18V265.224H61.781C62.105 265.224 62.309 265.212 62.513 265.176V266.196C62.297 266.172 62.057 266.16 61.793 266.16H61.541C61.781 266.868 62.213 267.6 62.765 268.236C62.549 268.548 62.453 268.728 62.285 269.124C61.913 268.512 61.757 268.2 61.469 267.468C61.493 268.428 61.505 268.728 61.505 269.22V272.58C61.505 273.216 61.529 273.66 61.577 274.02H60.425C60.473 273.648 60.497 273.204 60.497 272.58V269.808C60.497 269.436 60.509 269.052 60.569 268.056C60.233 269.412 59.861 270.396 59.417 271.068C59.249 270.6 59.105 270.312 58.877 270C59.321 269.364 59.621 268.728 59.933 267.78C60.125 267.204 60.293 266.616 60.377 266.16H59.969C59.621 266.16 59.357 266.172 59.153 266.208V265.176C59.357 265.212 59.585 265.224 59.969 265.224H60.497ZM66.713 270.816V272.964C66.713 273.672 66.449 273.852 65.405 273.852C65.237 273.852 65.213 273.852 64.541 273.828C64.517 273.456 64.469 273.168 64.349 272.808C64.697 272.88 65.033 272.916 65.285 272.916C65.621 272.916 65.681 272.88 65.681 272.664V270.816H63.701C63.173 270.816 62.789 270.84 62.465 270.876V269.856C62.813 269.904 63.125 269.916 63.689 269.916H68.861C69.365 269.916 69.737 269.904 70.061 269.856V270.876C69.749 270.828 69.389 270.816 68.873 270.816H66.713ZM63.149 269.304V268.308C63.509 268.356 63.821 268.368 64.337 268.368H68.117C68.633 268.368 68.945 268.356 69.317 268.308V269.304C68.957 269.256 68.717 269.244 68.189 269.244H64.325C63.785 269.244 63.485 269.256 63.149 269.304ZM67.445 271.512L68.237 271.032C68.525 271.416 68.657 271.56 68.969 271.824C69.413 272.22 69.701 272.412 70.301 272.748C70.037 272.976 69.833 273.216 69.605 273.576C68.681 273 68.117 272.46 67.445 271.512ZM63.893 271.008L64.781 271.404C64.145 272.448 63.701 272.928 62.777 273.636C62.489 273.324 62.369 273.216 61.961 272.952C62.489 272.64 62.729 272.46 63.089 272.088C63.437 271.74 63.605 271.524 63.893 271.008ZM77.715 264.72H76.011C75.459 264.72 75.183 264.732 74.907 264.768V263.796C75.195 263.844 75.531 263.856 76.107 263.856H77.715C77.715 263.448 77.691 263.208 77.655 262.944H78.807C78.771 263.196 78.747 263.496 78.747 263.856H80.487C81.015 263.856 81.411 263.832 81.699 263.796V264.768C81.411 264.732 81.087 264.72 80.607 264.72H78.747V265.476H81.051C81.663 265.476 81.951 265.464 82.227 265.428V266.4C81.915 266.364 81.627 266.352 81.051 266.352H80.511C80.367 266.736 80.259 266.976 80.091 267.324H80.883C81.507 267.324 81.735 267.312 82.047 267.276V268.236C81.747 268.2 81.483 268.188 80.883 268.188H78.759V268.92H80.511C80.991 268.92 81.351 268.908 81.615 268.872V269.808C81.327 269.772 80.967 269.76 80.511 269.76H78.759V270.468H80.991C81.567 270.468 81.879 270.456 82.167 270.408V271.392C81.879 271.344 81.519 271.332 81.003 271.332H78.759C78.759 271.8 78.771 272.1 78.819 272.412H77.655C77.691 272.1 77.715 271.824 77.715 271.332H75.711C75.159 271.332 74.823 271.344 74.523 271.392V270.408C74.811 270.456 75.135 270.468 75.711 270.468H77.715V269.76H76.119C75.663 269.76 75.291 269.772 75.003 269.808V268.872C75.279 268.908 75.639 268.92 76.119 268.92H77.715V268.188H75.843C75.243 268.188 74.967 268.2 74.667 268.236V267.276C74.979 267.312 75.207 267.324 75.843 267.324H76.395C76.263 266.94 76.167 266.688 75.999 266.352H75.567C74.991 266.352 74.691 266.364 74.391 266.4V265.428C74.667 265.464 74.955 265.476 75.567 265.476H77.715V264.72ZM79.455 266.352H77.043C77.211 266.712 77.319 266.976 77.427 267.324H79.047C79.203 267.024 79.335 266.712 79.455 266.352ZM71.583 263.856L72.387 263.136C73.263 263.952 73.659 264.396 74.271 265.212L73.455 266.016C72.819 265.08 72.483 264.696 71.583 263.856ZM71.439 268.716V267.624C71.727 267.672 71.931 267.684 72.387 267.684H73.179C73.539 267.684 73.779 267.672 74.091 267.624C74.043 268.02 74.031 268.296 74.031 268.92V271.416C74.259 271.848 74.499 272.088 74.967 272.316C75.483 272.58 76.287 272.676 78.027 272.676C79.995 272.676 81.363 272.616 82.587 272.46C82.383 273.024 82.347 273.168 82.263 273.624C81.159 273.66 79.503 273.696 78.243 273.696C76.131 273.696 75.363 273.612 74.691 273.3C74.247 273.096 73.863 272.772 73.503 272.28C72.975 272.796 72.627 273.096 72.195 273.408C71.979 273.564 71.871 273.66 71.715 273.792L71.199 272.664C71.703 272.436 72.363 271.956 72.987 271.368V268.656H72.279C71.931 268.656 71.739 268.668 71.439 268.716ZM92.713 266.64L93.805 267.06C93.721 267.228 93.721 267.228 93.577 267.576C92.953 269.088 92.521 269.892 91.885 270.732C92.209 271.332 92.461 271.68 92.785 272.004C92.989 272.196 93.253 272.376 93.337 272.376C93.493 272.376 93.649 271.764 93.793 270.696C94.105 271.02 94.369 271.224 94.693 271.38C94.417 272.952 94.033 273.6 93.409 273.6C93.073 273.6 92.593 273.312 92.077 272.808C91.753 272.496 91.465 272.124 91.153 271.596C90.205 272.568 89.293 273.228 88.081 273.816C87.781 273.372 87.661 273.24 87.301 272.952C88.645 272.4 89.725 271.668 90.673 270.624C90.121 269.292 89.857 267.996 89.713 265.764H85.789C85.789 266.508 85.789 266.508 85.765 267.492H88.009C88.441 267.492 88.645 267.48 88.873 267.444C88.849 267.696 88.849 267.696 88.789 268.872C88.621 271.896 88.465 272.196 87.061 272.196C86.689 272.196 86.449 272.184 85.993 272.124C85.945 271.656 85.909 271.488 85.753 271.056C86.401 271.164 86.677 271.188 87.025 271.188C87.397 271.188 87.505 271.104 87.577 270.708C87.673 270.252 87.721 269.52 87.745 268.464H85.729C85.657 269.868 85.549 270.756 85.357 271.596C85.141 272.508 84.913 273.048 84.397 273.84C84.061 273.396 83.893 273.24 83.521 273.012C83.977 272.34 84.229 271.752 84.385 271.044C84.613 269.976 84.721 268.44 84.721 266.28C84.721 265.44 84.709 265.152 84.661 264.72C85.093 264.756 85.549 264.78 86.161 264.78H89.665C89.629 263.304 89.629 263.304 89.581 262.98H90.793C90.745 263.232 90.721 263.688 90.721 264.144C90.721 264.288 90.721 264.408 90.745 264.78H92.737C92.329 264.288 92.029 264.024 91.357 263.52L92.101 263.004C92.725 263.448 93.013 263.7 93.529 264.24L92.821 264.78H93.229C93.877 264.78 94.201 264.768 94.501 264.708V265.824C94.117 265.788 93.709 265.764 93.097 265.764H90.781C90.829 267.072 91.069 268.548 91.429 269.652C92.065 268.668 92.569 267.492 92.713 266.64ZM106.067 271.836L105.383 273.012C104.807 272.388 103.919 271.752 102.935 271.284C102.803 271.212 102.527 271.092 102.371 271.02C102.371 271.08 102.371 271.152 102.371 271.224C102.371 272.664 101.531 273.348 99.779 273.348C98.159 273.348 97.175 272.688 97.175 271.584C97.175 270.36 98.339 269.616 100.259 269.616C100.643 269.616 100.967 269.628 101.195 269.664C101.195 269.616 101.195 269.616 101.195 269.496C101.195 269.484 101.183 269.436 101.183 269.364C101.183 269.292 101.171 269.1 101.171 268.824C101.159 268.704 101.159 268.524 101.147 268.284C100.679 268.284 100.175 268.296 99.863 268.296C99.119 268.296 98.663 268.284 97.751 268.212C97.607 268.2 97.499 268.2 97.415 268.2C97.391 268.2 97.355 268.2 97.319 268.2L97.331 267.12C97.859 267.24 98.939 267.312 100.115 267.312C100.379 267.312 100.763 267.3 101.135 267.288L101.111 265.908C100.751 265.92 100.559 265.92 100.331 265.92C99.647 265.92 98.279 265.86 97.403 265.8C97.283 265.788 97.199 265.788 97.151 265.788C97.115 265.788 97.055 265.788 96.971 265.8L96.983 264.684C97.631 264.828 98.783 264.912 100.151 264.912C100.343 264.912 100.739 264.912 101.099 264.9C101.087 263.592 101.087 263.592 101.051 263.304H102.347C102.287 263.604 102.275 263.868 102.263 264.864C103.967 264.756 104.987 264.624 105.743 264.384L105.791 265.512C105.551 265.524 105.551 265.524 104.903 265.62C103.907 265.752 103.367 265.812 102.251 265.872C102.263 266.292 102.263 266.292 102.275 267.24C103.715 267.144 104.795 267 105.503 266.784L105.551 267.912C105.287 267.924 105.191 267.936 104.363 268.056C103.871 268.128 103.007 268.2 102.287 268.236C102.323 269.16 102.335 269.7 102.347 269.844C103.511 270.216 104.375 270.66 105.647 271.56C105.851 271.704 105.899 271.74 106.067 271.836ZM101.207 270.744C100.787 270.66 100.583 270.636 100.115 270.636C99.467 270.636 98.891 270.792 98.603 271.044C98.471 271.164 98.387 271.356 98.387 271.536C98.387 272.04 98.903 272.316 99.827 272.316C100.451 272.316 100.859 272.172 101.051 271.884C101.171 271.704 101.219 271.488 101.219 271.116C101.219 271.044 101.207 270.744 101.207 270.744ZM108.657 266.1L108.585 264.768C108.777 264.78 108.921 264.78 109.053 264.78C109.269 264.78 109.449 264.768 109.737 264.756C111.117 264.672 113.997 264.504 116.817 264.372C117.645 264.336 118.005 264.3 118.209 264.252L118.293 265.524C118.209 265.512 118.137 265.512 118.089 265.512C117.417 265.512 116.577 265.728 115.845 266.088C114.213 266.904 113.205 268.2 113.205 269.496C113.205 270.444 113.805 271.212 114.837 271.56C115.389 271.74 116.181 271.896 116.601 271.896C116.649 271.896 116.721 271.896 116.817 271.884L116.637 273.24C116.481 273.216 116.433 273.204 116.241 273.18C114.933 272.988 114.237 272.76 113.517 272.328C112.509 271.716 111.969 270.756 111.969 269.604C111.969 268.464 112.497 267.408 113.541 266.436C114.009 265.98 114.297 265.8 114.981 265.476C114.141 265.596 113.661 265.644 112.389 265.728C110.301 265.872 109.281 265.98 108.657 266.1ZM116.061 267.276L116.805 266.904C117.369 267.54 117.633 267.924 118.053 268.704L117.309 269.112C116.913 268.368 116.577 267.864 116.061 267.276ZM117.489 266.592L118.209 266.22C118.785 266.856 119.037 267.216 119.445 267.972L118.713 268.392C118.341 267.696 118.005 267.192 117.489 266.592Z" fill="#5C3D16"/>
<path d="M47.9 314.472L48.908 315.144C48.74 315.312 48.74 315.312 48.524 315.528C48.116 315.948 47.768 316.272 47.336 316.608C47.708 317.148 48.092 317.52 48.308 317.52C48.56 317.52 48.644 317.184 48.716 315.936C49.052 316.212 49.412 316.452 49.748 316.62C49.556 318.288 49.22 318.888 48.452 318.888C47.756 318.888 46.964 318.3 46.328 317.316C45.236 317.976 44.072 318.48 42.776 318.852C42.548 318.348 42.404 318.096 42.08 317.688C43.508 317.376 44.648 316.944 45.776 316.272C45.536 315.696 45.416 315.264 45.272 314.592L44.072 314.712C43.64 314.76 43.292 314.82 42.98 314.88L42.872 313.644C42.968 313.644 43.04 313.644 43.088 313.644C43.364 313.644 43.484 313.632 43.976 313.596L45.092 313.476C45.044 313.152 45.044 313.152 44.984 312.696L44.3 312.756C43.952 312.792 43.628 312.84 43.376 312.9L43.268 311.724C43.352 311.724 43.4 311.724 43.436 311.724C43.604 311.724 43.916 311.712 44.216 311.676L44.876 311.616C44.876 311.496 44.876 311.496 44.852 311.292C44.84 311.076 44.84 311.028 44.828 310.86L44.168 310.92C43.856 310.944 43.532 310.992 43.4 311.016C43.304 311.028 43.256 311.04 43.244 311.04C43.196 311.04 43.172 311.04 43.124 311.028L43.016 309.888C43.136 309.9 43.208 309.9 43.232 309.9C43.448 309.9 43.736 309.876 44.096 309.84L44.756 309.78C44.708 309.12 44.708 309.12 44.684 308.568C44.672 308.34 44.672 308.34 44.6 307.98L46.052 307.968C46.016 308.196 46.004 308.424 46.004 308.7C46.004 308.808 46.016 309.36 46.028 309.66L47.528 309.528C47.156 309.132 46.796 308.832 46.268 308.496L47.096 307.896C47.648 308.208 48.044 308.508 48.452 308.916L47.732 309.504H47.792C48.2 309.468 48.608 309.408 48.872 309.336L48.98 310.524C48.92 310.524 48.872 310.524 48.836 310.524C48.632 310.524 48.44 310.536 47.852 310.596L46.076 310.752C46.088 311.1 46.088 311.136 46.124 311.496L47.636 311.352C48.2 311.304 48.452 311.268 48.776 311.184L48.872 312.36C48.812 312.36 48.752 312.36 48.728 312.36C48.488 312.36 48.332 312.372 47.732 312.432L46.22 312.576C46.268 312.996 46.292 313.152 46.316 313.356L48.284 313.164C48.848 313.104 49.064 313.068 49.376 312.996L49.496 314.196C49.436 314.196 49.4 314.196 49.364 314.196C49.124 314.196 48.764 314.22 48.356 314.256L46.496 314.46C46.592 314.94 46.664 315.192 46.82 315.576C47.432 315.108 47.696 314.832 47.9 314.472ZM39.872 314.04L40.46 313.128C40.832 313.428 40.976 313.572 41.312 313.896C41.48 313.284 41.552 312.9 41.684 312H40.58C40.196 313.128 39.752 313.92 39.032 314.724C38.864 314.304 38.684 314.052 38.288 313.632C38.948 312.912 39.32 312.216 39.632 311.16C39.788 310.62 39.872 310.224 39.932 309.624H39.656C39.248 309.624 38.996 309.636 38.696 309.684V308.412C39.02 308.448 39.416 308.472 39.944 308.472H42.128C42.608 308.472 43.064 308.448 43.4 308.412V309.672C43.064 309.636 42.824 309.624 42.5 309.624H41.132C41.06 310.176 41.036 310.344 40.904 310.92H41.972C42.44 310.92 42.704 310.908 42.968 310.872C42.92 311.148 42.884 311.472 42.8 312.24C42.656 313.644 42.236 315.108 41.636 316.284C41.3 316.932 40.856 317.592 40.4 318.084C40.16 318.336 39.992 318.504 39.368 319.032C39.056 318.552 38.84 318.3 38.492 317.976C39.608 317.184 40.28 316.368 40.892 315.072C40.568 314.688 40.256 314.376 39.872 314.04ZM52.986 308.112L54.51 308.196C54.366 308.604 54.306 308.916 54.078 310.512C53.994 311.016 53.946 311.424 53.922 311.712H53.958C53.982 311.64 53.982 311.64 54.03 311.448C54.15 311.028 54.462 310.44 54.786 310.02C55.446 309.204 56.19 308.796 57.066 308.796C57.882 308.796 58.602 309.18 59.118 309.876C59.718 310.68 59.982 311.652 59.982 313.068C59.982 315.384 58.902 317.112 56.886 318C56.274 318.276 55.434 318.516 54.534 318.672C54.294 317.988 54.162 317.724 53.826 317.256C55.026 317.124 55.722 316.944 56.454 316.572C57.846 315.864 58.482 314.724 58.482 312.9C58.482 311.172 57.906 310.212 56.874 310.212C56.418 310.212 55.998 310.416 55.578 310.848C54.642 311.82 54.066 313.296 54.066 314.724C54.066 314.784 54.066 314.868 54.066 314.976L52.626 315C52.638 314.928 52.638 314.868 52.638 314.844C52.638 314.796 52.638 314.724 52.638 314.616C52.626 314.268 52.602 313.38 52.602 313.14C52.602 312.168 52.674 310.836 52.77 310.008L52.95 308.52C52.974 308.316 52.986 308.268 52.986 308.112Z" fill="#FFCC00"/>
<path d="M101.274 303.476V309.364C99.572 309.134 98.606 309.088 96.674 309.042H95.018V312.308C95.018 314.654 95.11 315.85 95.386 317.552H88.854C89.13 315.942 89.222 314.516 89.222 312.216V309.042H76.48C73.766 309.042 72.294 309.088 70.73 309.226V303.568C72.294 301.866 72.8 301.268 74.41 299.336L85.312 285.996C87.336 283.558 88.072 282.592 89.13 280.936H95.34C95.064 283.604 95.018 285.214 95.018 288.71V303.798H96.628C98.468 303.798 99.572 303.706 101.274 303.476ZM89.268 303.844V294.322C89.268 292.16 89.314 290.688 89.498 288.802C88.578 290.136 88.026 290.872 86.37 292.896L77.538 303.844H89.268Z" fill="#F09131"/>
<path d="M115.304 307.704H118.712C119.416 307.704 119.848 307.688 120.264 307.64C120.216 308.024 120.2 308.424 120.2 308.92V312.744C120.2 313.256 120.216 313.608 120.264 314.024C119.8 313.976 119.384 313.96 118.712 313.96H115.304C114.504 313.96 114.232 313.976 113.752 314.024C113.8 313.592 113.816 313.224 113.816 312.744V308.92C113.816 308.456 113.8 308.056 113.752 307.64C114.152 307.688 114.6 307.704 115.304 307.704ZM115.496 309.208V312.456H118.504V309.208H115.496ZM123.88 318.328H122.008V317.448H112.04V318.328H110.184C110.248 317.816 110.28 317.128 110.28 316.248V306.12C110.28 305.368 110.248 304.792 110.184 304.2C110.776 304.264 111.272 304.28 112.056 304.28H121.976C122.776 304.28 123.272 304.264 123.88 304.2C123.816 304.792 123.784 305.32 123.784 306.12V316.264C123.784 317.128 123.816 317.928 123.88 318.328ZM112.04 305.88V315.864H122.008V305.88H112.04Z" fill="#FFCC00"/>
</svg>
