<svg width="172" height="329" viewBox="0 0 172 329" fill="none" xmlns="http://www.w3.org/2000/svg">
<rect y="3" width="172" height="326" rx="5" fill="white"/>
<rect x="9" y="254" width="154" height="1" fill="#D4D4D4"/>
<rect x="9" y="98" width="154" height="1" fill="#D4D4D4"/>
<path d="M23.56 4.472C23.976 4.52533 24.4773 4.60533 25.064 4.712C25.6613 4.808 26.2907 4.92 26.952 5.048C27.624 5.176 28.2907 5.32 28.952 5.48C29.624 5.62933 30.2427 5.77867 30.808 5.928C31.384 6.07733 31.8747 6.22133 32.28 6.36L31.464 8.36C31.0907 8.22133 30.6267 8.07733 30.072 7.928C29.5173 7.768 28.9147 7.608 28.264 7.448C27.6133 7.288 26.9573 7.13867 26.296 7C25.6347 6.86133 25 6.73333 24.392 6.616C23.7947 6.49867 23.2667 6.41333 22.808 6.36L23.56 4.472ZM22.824 8.776C23.4 8.872 24.0613 8.99467 24.808 9.144C25.5547 9.29333 26.3227 9.45867 27.112 9.64C27.9013 9.81067 28.6533 9.992 29.368 10.184C30.0827 10.3653 30.6907 10.5467 31.192 10.728L30.408 12.728C29.9493 12.5467 29.368 12.36 28.664 12.168C27.9707 11.976 27.2293 11.784 26.44 11.592C25.6613 11.4 24.888 11.2293 24.12 11.08C23.352 10.92 22.6747 10.7973 22.088 10.712L22.824 8.776ZM22.008 13.352C22.552 13.4373 23.1707 13.5493 23.864 13.688C24.5573 13.8267 25.2773 13.9813 26.024 14.152C26.7813 14.3227 27.5227 14.4987 28.248 14.68C28.9733 14.8613 29.6453 15.0427 30.264 15.224C30.8933 15.4053 31.4267 15.5813 31.864 15.752L30.984 17.752C30.5573 17.5707 30.0293 17.384 29.4 17.192C28.7707 17.0107 28.088 16.8293 27.352 16.648C26.616 16.456 25.8747 16.28 25.128 16.12C24.3813 15.9493 23.6667 15.8 22.984 15.672C22.312 15.544 21.72 15.4427 21.208 15.368L22.008 13.352ZM43.08 7.496C43.1547 7.66667 43.2507 7.912 43.368 8.232C43.496 8.54133 43.6293 8.87733 43.768 9.24C43.9067 9.592 44.0293 9.928 44.136 10.248C44.2427 10.568 44.328 10.8187 44.392 11L42.472 11.672C42.4293 11.4693 42.3547 11.2133 42.248 10.904C42.1413 10.5947 42.024 10.2693 41.896 9.928C41.768 9.576 41.64 9.24 41.512 8.92C41.384 8.6 41.272 8.33333 41.176 8.12L43.08 7.496ZM48.984 8.664C48.8987 8.92 48.824 9.13867 48.76 9.32C48.7067 9.50133 48.6533 9.672 48.6 9.832C48.3973 10.6427 48.12 11.4533 47.768 12.264C47.416 13.064 46.968 13.816 46.424 14.52C45.6773 15.48 44.8293 16.296 43.88 16.968C42.9413 17.6293 42.0027 18.136 41.064 18.488L39.384 16.776C39.9707 16.616 40.5893 16.3813 41.24 16.072C41.8907 15.752 42.52 15.368 43.128 14.92C43.736 14.472 44.2587 13.976 44.696 13.432C45.0587 12.9733 45.3787 12.4507 45.656 11.864C45.944 11.2667 46.1787 10.632 46.36 9.96C46.552 9.27733 46.68 8.60533 46.744 7.944L48.984 8.664ZM39.368 8.344C39.4747 8.54667 39.592 8.808 39.72 9.128C39.8587 9.448 39.9973 9.784 40.136 10.136C40.2747 10.488 40.408 10.8293 40.536 11.16C40.6747 11.4907 40.7813 11.768 40.856 11.992L38.904 12.728C38.84 12.5147 38.744 12.2373 38.616 11.896C38.4987 11.5547 38.3653 11.1973 38.216 10.824C38.0667 10.44 37.9227 10.088 37.784 9.768C37.656 9.448 37.544 9.20267 37.448 9.032L39.368 8.344ZM55.944 4.328C56.2 4.47733 56.4933 4.65333 56.824 4.856C57.1547 5.05867 57.4907 5.26667 57.832 5.48C58.184 5.69333 58.5093 5.90133 58.808 6.104C59.1173 6.296 59.3787 6.46667 59.592 6.616L58.392 8.392C58.1787 8.232 57.9173 8.05067 57.608 7.848C57.2987 7.64533 56.9787 7.43733 56.648 7.224C56.3173 7.01067 55.9867 6.808 55.656 6.616C55.336 6.41333 55.0427 6.23733 54.776 6.088L55.944 4.328ZM52.968 15.688C53.576 15.5813 54.184 15.4533 54.792 15.304C55.4107 15.144 56.024 14.9467 56.632 14.712C57.2507 14.4773 57.848 14.2053 58.424 13.896C59.3307 13.384 60.1733 12.808 60.952 12.168C61.7413 11.528 62.4453 10.8453 63.064 10.12C63.6933 9.39467 64.2213 8.65333 64.648 7.896L65.88 10.072C65.1333 11.1813 64.2107 12.2267 63.112 13.208C62.024 14.1893 60.824 15.0587 59.512 15.816C58.968 16.1253 58.3707 16.4133 57.72 16.68C57.08 16.9467 56.4453 17.176 55.816 17.368C55.1973 17.5707 54.648 17.7147 54.168 17.8L52.968 15.688ZM53.48 7.976C53.7467 8.12533 54.0453 8.30133 54.376 8.504C54.7173 8.696 55.0587 8.89867 55.4 9.112C55.7413 9.32533 56.0613 9.528 56.36 9.72C56.6693 9.912 56.9253 10.0827 57.128 10.232L55.96 12.024C55.7253 11.864 55.4587 11.688 55.16 11.496C54.8613 11.2933 54.5413 11.0853 54.2 10.872C53.8693 10.648 53.5387 10.44 53.208 10.248C52.888 10.056 52.5893 9.89067 52.312 9.752L53.48 7.976ZM70.408 7.96C70.5467 7.97067 70.7333 7.98667 70.968 8.008C71.2027 8.01867 71.448 8.02933 71.704 8.04C71.96 8.04 72.1893 8.04 72.392 8.04C72.648 8.04 72.9787 8.04 73.384 8.04C73.7893 8.04 74.2267 8.04 74.696 8.04C75.176 8.04 75.6507 8.04 76.12 8.04C76.5893 8.04 77.0267 8.04 77.432 8.04C77.8373 8.04 78.1733 8.04 78.44 8.04C78.632 8.04 78.8507 8.04 79.096 8.04C79.352 8.02933 79.544 8.01867 79.672 8.008C79.6613 8.11467 79.656 8.28 79.656 8.504C79.656 8.71733 79.656 8.90933 79.656 9.08C79.656 9.19733 79.656 9.44267 79.656 9.816C79.656 10.1787 79.656 10.6267 79.656 11.16C79.656 11.6933 79.656 12.2587 79.656 12.856C79.656 13.4533 79.656 14.04 79.656 14.616C79.656 15.1813 79.656 15.688 79.656 16.136C79.656 16.5733 79.656 16.8987 79.656 17.112C79.656 17.24 79.656 17.416 79.656 17.64C79.6667 17.8747 79.672 18.0613 79.672 18.2H77.656C77.6667 18.0613 77.672 17.8693 77.672 17.624C77.672 17.3787 77.672 17.176 77.672 17.016C77.672 16.7387 77.672 16.3867 77.672 15.96C77.672 15.5227 77.672 15.0533 77.672 14.552C77.672 14.04 77.672 13.528 77.672 13.016C77.672 12.4933 77.672 12.008 77.672 11.56C77.672 11.112 77.672 10.7387 77.672 10.44C77.672 10.1307 77.672 9.928 77.672 9.832C77.576 9.832 77.4053 9.832 77.16 9.832C76.9147 9.832 76.632 9.832 76.312 9.832C75.992 9.832 75.6453 9.832 75.272 9.832C74.9093 9.832 74.5467 9.832 74.184 9.832C73.832 9.832 73.496 9.832 73.176 9.832C72.8667 9.832 72.6053 9.832 72.392 9.832C72.1893 9.832 71.96 9.83733 71.704 9.848C71.448 9.848 71.1973 9.85333 70.952 9.864C70.7173 9.87467 70.536 9.88533 70.408 9.896V7.96ZM70.824 11.72C71.0373 11.7307 71.304 11.7413 71.624 11.752C71.9547 11.7627 72.2693 11.768 72.568 11.768C72.696 11.768 72.92 11.768 73.24 11.768C73.5707 11.768 73.9493 11.768 74.376 11.768C74.8133 11.768 75.2613 11.768 75.72 11.768C76.1787 11.768 76.6107 11.768 77.016 11.768C77.432 11.768 77.784 11.768 78.072 11.768C78.36 11.768 78.536 11.768 78.6 11.768V13.576C78.5253 13.576 78.344 13.576 78.056 13.576C77.7787 13.576 77.432 13.576 77.016 13.576C76.6107 13.576 76.1787 13.576 75.72 13.576C75.2613 13.576 74.8133 13.576 74.376 13.576C73.9493 13.576 73.576 13.576 73.256 13.576C72.936 13.576 72.7067 13.576 72.568 13.576C72.2693 13.576 71.9493 13.5813 71.608 13.592C71.2773 13.592 71.016 13.5973 70.824 13.608V11.72ZM70.232 15.64C70.3707 15.6507 70.5627 15.6667 70.808 15.688C71.0533 15.6987 71.3253 15.704 71.624 15.704C71.784 15.704 72.0507 15.704 72.424 15.704C72.7973 15.704 73.224 15.704 73.704 15.704C74.1947 15.704 74.7013 15.704 75.224 15.704C75.7467 15.704 76.2427 15.704 76.712 15.704C77.192 15.704 77.6027 15.704 77.944 15.704C78.2853 15.704 78.5093 15.704 78.616 15.704V17.56C78.4773 17.56 78.232 17.56 77.88 17.56C77.528 17.56 77.112 17.56 76.632 17.56C76.1627 17.56 75.672 17.56 75.16 17.56C74.648 17.56 74.152 17.56 73.672 17.56C73.192 17.56 72.7653 17.56 72.392 17.56C72.0293 17.56 71.768 17.56 71.608 17.56C71.384 17.56 71.1333 17.5653 70.856 17.576C70.5787 17.5867 70.3707 17.5973 70.232 17.608V15.64ZM86.856 4.84C87.1333 5.032 87.4587 5.26667 87.832 5.544C88.2053 5.82133 88.5893 6.12533 88.984 6.456C89.3893 6.776 89.768 7.09067 90.12 7.4C90.472 7.70933 90.76 7.98667 90.984 8.232L89.352 9.896C89.1493 9.672 88.8827 9.40533 88.552 9.096C88.2213 8.78667 87.864 8.46667 87.48 8.136C87.096 7.80533 86.7173 7.49067 86.344 7.192C85.9707 6.89333 85.64 6.64267 85.352 6.44L86.856 4.84ZM84.856 15.496C85.688 15.3787 86.472 15.2133 87.208 15C87.944 14.7867 88.6267 14.5413 89.256 14.264C89.8853 13.9867 90.4613 13.6987 90.984 13.4C91.8907 12.856 92.7227 12.2373 93.48 11.544C94.2373 10.8507 94.8987 10.1307 95.464 9.384C96.0293 8.62667 96.4773 7.89067 96.808 7.176L98.056 9.432C97.6507 10.1467 97.1493 10.8613 96.552 11.576C95.9653 12.2907 95.2987 12.9733 94.552 13.624C93.8053 14.264 93 14.84 92.136 15.352C91.592 15.6827 91.0053 15.9973 90.376 16.296C89.7467 16.584 89.08 16.84 88.376 17.064C87.6827 17.2987 86.9573 17.48 86.2 17.608L84.856 15.496ZM103.256 9.64V15.544H101.416V11.416H99.608V9.64H103.256ZM103.256 14.776C103.565 15.3093 104.003 15.704 104.568 15.96C105.133 16.2053 105.821 16.344 106.632 16.376C107.112 16.3973 107.688 16.4133 108.36 16.424C109.043 16.424 109.752 16.4187 110.488 16.408C111.235 16.3973 111.96 16.3813 112.664 16.36C113.379 16.328 114.019 16.2853 114.584 16.232C114.509 16.3707 114.429 16.5573 114.344 16.792C114.269 17.016 114.195 17.2453 114.12 17.48C114.056 17.7147 114.008 17.9227 113.976 18.104C113.485 18.136 112.92 18.1573 112.28 18.168C111.64 18.1787 110.979 18.184 110.296 18.184C109.613 18.1947 108.952 18.1947 108.312 18.184C107.672 18.184 107.107 18.1733 106.616 18.152C105.656 18.1093 104.84 17.9547 104.168 17.688C103.496 17.4213 102.92 16.9787 102.44 16.36C102.131 16.68 101.8 16.9947 101.448 17.304C101.107 17.624 100.733 17.9547 100.328 18.296L99.416 16.392C99.7573 16.168 100.115 15.9173 100.488 15.64C100.872 15.3627 101.24 15.0747 101.592 14.776H103.256ZM99.672 4.904L101.128 3.816C101.437 4.05067 101.757 4.31733 102.088 4.616C102.419 4.91467 102.723 5.21333 103 5.512C103.277 5.81067 103.501 6.09333 103.672 6.36L102.088 7.576C101.939 7.30933 101.731 7.02133 101.464 6.712C101.208 6.392 100.92 6.07733 100.6 5.768C100.28 5.448 99.9707 5.16 99.672 4.904ZM105.688 7.928L107.336 7.56C107.475 7.79467 107.603 8.056 107.72 8.344C107.848 8.62133 107.933 8.86667 107.976 9.08L106.232 9.464C106.2 9.26133 106.131 9.016 106.024 8.728C105.928 8.44 105.816 8.17333 105.688 7.928ZM104.872 4.344H113.272V5.688H104.872V4.344ZM104.696 11.256H113.496V12.584H104.696V11.256ZM104.056 9.176H114.088V10.536H104.056V9.176ZM103.8 6.488H114.264V7.88H103.8V6.488ZM104.024 13.336H114.12V14.728H104.024V13.336ZM108.056 3.4H109.96V7.352H108.056V3.4ZM108.056 9.864H109.96V15.8H108.056V9.864ZM110.552 7.528L112.424 7.96C112.264 8.26933 112.104 8.552 111.944 8.808C111.784 9.064 111.64 9.288 111.512 9.48L109.96 9.08C110.067 8.856 110.173 8.6 110.28 8.312C110.397 8.01333 110.488 7.752 110.552 7.528ZM117.912 9.432H121.608V11.176H117.912V9.432ZM120.872 9.432H122.728C122.728 9.432 122.728 9.47467 122.728 9.56C122.728 9.64533 122.728 9.74667 122.728 9.864C122.728 9.97067 122.728 10.0613 122.728 10.136C122.707 11.2667 122.68 12.1947 122.648 12.92C122.616 13.6347 122.563 14.1947 122.488 14.6C122.424 14.9947 122.333 15.272 122.216 15.432C122.056 15.6347 121.885 15.7787 121.704 15.864C121.533 15.9493 121.331 16.0133 121.096 16.056C120.883 16.0987 120.611 16.1253 120.28 16.136C119.96 16.136 119.608 16.1307 119.224 16.12C119.213 15.8427 119.16 15.5333 119.064 15.192C118.968 14.8507 118.851 14.5627 118.712 14.328C119 14.3493 119.267 14.3653 119.512 14.376C119.768 14.3867 119.96 14.392 120.088 14.392C120.195 14.392 120.285 14.3813 120.36 14.36C120.445 14.328 120.515 14.2747 120.568 14.2C120.643 14.104 120.696 13.9067 120.728 13.608C120.771 13.2987 120.803 12.8347 120.824 12.216C120.845 11.5867 120.861 10.7547 120.872 9.72V9.432ZM125.672 4.408L126.84 3.256C127.139 3.40533 127.453 3.58133 127.784 3.784C128.115 3.98667 128.429 4.18933 128.728 4.392C129.037 4.59467 129.288 4.792 129.48 4.984L128.248 6.264C128.067 6.08267 127.832 5.88 127.544 5.656C127.256 5.432 126.947 5.21333 126.616 5C126.285 4.776 125.971 4.57867 125.672 4.408ZM127.56 8.536L129.512 9C128.84 11.08 127.923 12.92 126.76 14.52C125.597 16.1093 124.221 17.3947 122.632 18.376C122.547 18.2373 122.419 18.0667 122.248 17.864C122.077 17.672 121.901 17.4747 121.72 17.272C121.539 17.08 121.379 16.92 121.24 16.792C122.776 15.96 124.077 14.84 125.144 13.432C126.211 12.0133 127.016 10.3813 127.56 8.536ZM118.008 5.8H130.36V7.688H118.008V5.8ZM116.728 5.8H118.744V10.52C118.744 11.1173 118.723 11.7733 118.68 12.488C118.637 13.192 118.557 13.9173 118.44 14.664C118.323 15.4 118.147 16.1093 117.912 16.792C117.688 17.4747 117.395 18.088 117.032 18.632C116.925 18.4933 116.765 18.3387 116.552 18.168C116.349 17.9973 116.141 17.8267 115.928 17.656C115.725 17.496 115.549 17.384 115.4 17.32C115.805 16.68 116.099 15.9653 116.28 15.176C116.472 14.376 116.595 13.5707 116.648 12.76C116.701 11.9493 116.728 11.1973 116.728 10.504V5.8ZM123.224 3.416H125.24C125.219 4.728 125.256 6.01333 125.352 7.272C125.448 8.53067 125.587 9.70933 125.768 10.808C125.96 11.896 126.184 12.8613 126.44 13.704C126.696 14.536 126.979 15.1867 127.288 15.656C127.597 16.1253 127.912 16.36 128.232 16.36C128.413 16.36 128.552 16.1413 128.648 15.704C128.755 15.2667 128.829 14.5467 128.872 13.544C129.096 13.7573 129.357 13.9653 129.656 14.168C129.965 14.3707 130.248 14.52 130.504 14.616C130.408 15.608 130.264 16.376 130.072 16.92C129.88 17.4533 129.624 17.8213 129.304 18.024C128.984 18.2267 128.573 18.328 128.072 18.328C127.496 18.328 126.973 18.1307 126.504 17.736C126.045 17.3413 125.635 16.792 125.272 16.088C124.92 15.384 124.616 14.5573 124.36 13.608C124.104 12.6587 123.891 11.6293 123.72 10.52C123.56 9.41067 123.437 8.25867 123.352 7.064C123.277 5.85867 123.235 4.64267 123.224 3.416ZM137.96 3.416H139.944V5.656H137.96V3.416ZM137.96 12.776H139.944V18.44H137.96V12.776ZM131.784 13.8H146.248V15.576H131.784V13.8ZM132.312 4.968H145.752V6.712H132.312V4.968ZM144.136 6.904L145.848 7.72C145.443 8.09333 145.021 8.456 144.584 8.808C144.147 9.14933 143.747 9.448 143.384 9.704L141.976 8.952C142.221 8.77067 142.472 8.56267 142.728 8.328C142.995 8.09333 143.251 7.85333 143.496 7.608C143.752 7.352 143.965 7.11733 144.136 6.904ZM137.816 6.216L139.432 6.824C139.112 7.24 138.781 7.656 138.44 8.072C138.109 8.488 137.805 8.84 137.528 9.128L136.328 8.6C136.499 8.376 136.675 8.12533 136.856 7.848C137.037 7.57067 137.213 7.288 137.384 7C137.555 6.712 137.699 6.45067 137.816 6.216ZM140.216 7.384L141.704 8.072C141.267 8.584 140.787 9.11733 140.264 9.672C139.741 10.216 139.219 10.7387 138.696 11.24C138.173 11.7307 137.677 12.1627 137.208 12.536L136.088 11.912C136.557 11.5173 137.043 11.064 137.544 10.552C138.056 10.0293 138.547 9.49067 139.016 8.936C139.485 8.38133 139.885 7.864 140.216 7.384ZM135.528 8.776L136.424 7.688C136.733 7.86933 137.064 8.07733 137.416 8.312C137.768 8.54667 138.104 8.78133 138.424 9.016C138.744 9.24 139.005 9.448 139.208 9.64L138.264 10.888C138.072 10.6853 137.821 10.4613 137.512 10.216C137.203 9.96 136.872 9.70933 136.52 9.464C136.168 9.208 135.837 8.97867 135.528 8.776ZM135.384 11.336C135.917 11.3147 136.525 11.2933 137.208 11.272C137.891 11.24 138.616 11.208 139.384 11.176C140.152 11.1333 140.925 11.096 141.704 11.064L141.688 12.424C140.621 12.5093 139.56 12.5947 138.504 12.68C137.448 12.7653 136.499 12.8347 135.656 12.888L135.384 11.336ZM139.784 10.264L141.144 9.688C141.379 9.98667 141.608 10.312 141.832 10.664C142.067 11.0053 142.28 11.3467 142.472 11.688C142.664 12.0293 142.803 12.3387 142.888 12.616L141.448 13.272C141.363 12.9947 141.229 12.6853 141.048 12.344C140.877 11.992 140.68 11.6347 140.456 11.272C140.243 10.8987 140.019 10.5627 139.784 10.264ZM131.608 11.624C132.12 11.464 132.733 11.2453 133.448 10.968C134.173 10.6907 134.909 10.4133 135.656 10.136L135.992 11.544C135.416 11.832 134.819 12.12 134.2 12.408C133.592 12.696 133.032 12.952 132.52 13.176L131.608 11.624ZM132.088 8.088L133.368 7.064C133.645 7.21333 133.939 7.38933 134.248 7.592C134.568 7.784 134.867 7.98133 135.144 8.184C135.432 8.38667 135.667 8.57333 135.848 8.744L134.504 9.88C134.344 9.70933 134.125 9.51733 133.848 9.304C133.581 9.09067 133.293 8.87733 132.984 8.664C132.675 8.45067 132.376 8.25867 132.088 8.088ZM141.624 11.064L142.936 10.008C143.299 10.1893 143.693 10.4027 144.12 10.648C144.547 10.8933 144.952 11.144 145.336 11.4C145.72 11.6453 146.04 11.8693 146.296 12.072L144.904 13.24C144.68 13.0267 144.381 12.792 144.008 12.536C143.635 12.28 143.24 12.0187 142.824 11.752C142.408 11.4853 142.008 11.256 141.624 11.064Z" fill="#374949"/>
<path d="M73.1877 47.9534C70.2491 52.1292 67.7875 56.434 65.8026 60.8676C64.2303 64.3475 62.8125 68.6006 61.5495 73.6271C60.2864 78.6536 59.6549 82.7779 59.6549 86H48.2099C48.545 75.947 51.8445 65.4945 58.1083 54.6425C62.1552 47.9147 65.5449 43.2233 68.2772 40.5683H40.3222L40.4769 30.67H80.0701V39.2924C78.4204 40.9163 76.1263 43.8033 73.1877 47.9534ZM106.594 49.616C111.569 49.616 115.642 51.3044 118.813 54.6811C122.009 58.0579 123.607 62.3755 123.607 67.634C123.607 72.8667 122.048 77.4808 118.929 81.4762C115.81 85.4716 110.964 87.4693 104.391 87.4693C97.3277 87.4693 92.1208 84.5178 88.7698 78.6149C86.1663 74.0009 84.8646 68.0464 84.8646 60.7516C84.8646 56.4726 85.045 52.9928 85.4059 50.312C86.0503 45.5433 87.3005 41.5736 89.1564 38.4031C90.7546 35.6965 92.8425 33.5184 95.4202 31.8686C98.0237 30.2189 101.13 29.3941 104.739 29.3941C109.945 29.3941 114.096 30.7345 117.189 33.4153C120.282 36.0703 122.022 39.6146 122.409 44.0482H111.428C111.428 43.146 111.08 42.1536 110.384 41.071C109.198 39.3182 107.406 38.4417 105.009 38.4417C101.426 38.4417 98.8743 40.4523 97.3535 44.4735C96.5286 46.6903 95.9615 49.964 95.6522 54.2945C97.0184 52.6706 98.6037 51.4848 100.408 50.7373C102.212 49.9898 104.275 49.616 106.594 49.616ZM99.1707 60.1329C97.0055 61.8084 95.9229 64.515 95.9229 68.2526C95.9229 71.2685 96.7348 73.7302 98.3588 75.6377C99.9827 77.5452 102.045 78.4989 104.545 78.4989C106.994 78.4989 108.914 77.5839 110.306 75.7537C111.724 73.8978 112.433 71.5005 112.433 68.562C112.433 65.2883 111.634 62.788 110.036 61.0609C108.438 59.3081 106.478 58.4317 104.159 58.4317C102.277 58.4317 100.614 58.9988 99.1707 60.1329Z" fill="#F09131"/>
<path d="M137.016 80.0086C136.244 80.0086 135.554 79.8008 134.945 79.3851C134.336 78.9693 133.861 78.368 133.52 77.5811C133.178 76.7942 133.008 75.8514 133.008 74.7526C133.008 73.6539 133.178 72.7185 133.52 71.9465C133.861 71.1744 134.336 70.5879 134.945 70.1871C135.554 69.7713 136.244 69.5635 137.016 69.5635C137.818 69.5635 138.516 69.7713 139.11 70.1871C139.719 70.5879 140.194 71.1744 140.535 71.9465C140.877 72.7185 141.047 73.6539 141.047 74.7526C141.047 75.8514 140.877 76.7942 140.535 77.5811C140.194 78.368 139.719 78.9693 139.11 79.3851C138.516 79.8008 137.818 80.0086 137.016 80.0086ZM137.016 78.1601C137.491 78.1601 137.892 77.9003 138.219 77.3806C138.56 76.8461 138.731 75.9701 138.731 74.7526C138.731 73.55 138.56 72.6963 138.219 72.1915C137.892 71.6718 137.491 71.412 137.016 71.412C136.541 71.412 136.133 71.6718 135.791 72.1915C135.465 72.6963 135.301 73.55 135.301 74.7526C135.301 75.9701 135.465 76.8461 135.791 77.3806C136.133 77.9003 136.541 78.1601 137.016 78.1601ZM137.551 86.6677L146.526 69.5635H148.464L139.511 86.6677H137.551ZM149.02 86.6677C148.234 86.6677 147.536 86.4599 146.927 86.0441C146.333 85.6284 145.858 85.0271 145.502 84.2402C145.16 83.4533 144.989 82.5104 144.989 81.4117C144.989 80.2982 145.16 79.3554 145.502 78.5833C145.858 77.8112 146.333 77.2247 146.927 76.8239C147.536 76.4081 148.234 76.2003 149.02 76.2003C149.793 76.2003 150.476 76.4081 151.069 76.8239C151.678 77.2247 152.153 77.8112 152.495 78.5833C152.851 79.3554 153.029 80.2982 153.029 81.4117C153.029 82.5104 152.851 83.4533 152.495 84.2402C152.153 85.0271 151.678 85.6284 151.069 86.0441C150.476 86.4599 149.793 86.6677 149.02 86.6677ZM149.02 84.797C149.496 84.797 149.896 84.5371 150.223 84.0175C150.55 83.483 150.713 82.6144 150.713 81.4117C150.713 80.1794 150.55 79.3182 150.223 78.8283C149.896 78.3235 149.496 78.0711 149.02 78.0711C148.531 78.0711 148.122 78.3235 147.796 78.8283C147.469 79.3182 147.306 80.1794 147.306 81.4117C147.306 82.6144 147.469 83.483 147.796 84.0175C148.122 84.5371 148.531 84.797 149.02 84.797Z" fill="#374949"/>
<path d="M64.7583 157.119H65.78V167.301H64.7583V157.119ZM67.9497 156.9H68.914V165.602H67.9497V156.9ZM69.9128 157.543L70.8656 157.853C70.7508 158.129 70.6322 158.412 70.5098 158.703C70.3873 158.994 70.2649 159.273 70.1424 159.541C70.0276 159.809 69.9128 160.046 69.798 160.253L69.0633 159.977C69.1628 159.755 69.2661 159.503 69.3732 159.219C69.4804 158.936 69.5799 158.649 69.6717 158.358C69.7712 158.06 69.8516 157.788 69.9128 157.543ZM66.09 157.922L66.8706 157.658C67.0466 158.003 67.2073 158.381 67.3528 158.795C67.5058 159.208 67.6091 159.568 67.6627 159.874L66.8132 160.184C66.7673 159.87 66.6754 159.503 66.5377 159.082C66.3999 158.661 66.2507 158.274 66.09 157.922ZM66.0555 160.413H70.9116V161.389H66.0555V160.413ZM65.3667 165.786H71.1297V166.773H65.3667V165.786ZM67.812 160.964L68.5237 161.263C68.3707 161.714 68.1793 162.185 67.9497 162.675C67.7201 163.165 67.4637 163.624 67.1806 164.053C66.905 164.481 66.6142 164.837 66.3081 165.12C66.2622 164.967 66.1895 164.795 66.09 164.604C65.9981 164.405 65.9101 164.236 65.8259 164.098C66.0861 163.869 66.3425 163.578 66.5951 163.226C66.8553 162.874 67.0925 162.503 67.3068 162.112C67.5211 161.714 67.6895 161.332 67.812 160.964ZM68.8222 161.584C68.8987 161.653 69.0097 161.76 69.1551 161.906C69.3082 162.044 69.4727 162.204 69.6488 162.388C69.8324 162.564 70.0123 162.744 70.1883 162.927C70.3643 163.111 70.5212 163.276 70.659 163.421C70.8044 163.559 70.9077 163.662 70.969 163.731L70.3146 164.569C70.2151 164.416 70.0773 164.225 69.9013 163.995C69.7329 163.766 69.5454 163.528 69.3388 163.283C69.1398 163.031 68.9447 162.797 68.7533 162.583C68.5696 162.361 68.4166 162.181 68.2941 162.044L68.8222 161.584ZM62.2097 156.671L63.1396 157.015C62.9942 157.306 62.8373 157.605 62.6689 157.911C62.5082 158.217 62.3475 158.512 62.1868 158.795C62.0337 159.078 61.8845 159.33 61.739 159.552L61.0158 159.242C61.1536 159.02 61.2951 158.76 61.4406 158.462C61.5936 158.156 61.739 157.846 61.8768 157.532C62.0146 157.218 62.1255 156.931 62.2097 156.671ZM63.4381 158.003L64.3106 158.404C64.0503 158.833 63.7672 159.284 63.461 159.759C63.1549 160.234 62.8449 160.693 62.5312 161.137C62.225 161.573 61.9304 161.956 61.6472 162.285L61.0158 161.94C61.2224 161.688 61.4367 161.401 61.6587 161.079C61.8806 160.75 62.0987 160.41 62.313 160.057C62.535 159.698 62.7416 159.342 62.933 158.99C63.1243 158.638 63.2927 158.309 63.4381 158.003ZM60.4074 159.162L60.9469 158.462C61.1459 158.645 61.3487 158.848 61.5554 159.07C61.7697 159.292 61.961 159.51 62.1294 159.725C62.3054 159.939 62.4393 160.134 62.5312 160.31L61.9572 161.114C61.8653 160.922 61.7352 160.716 61.5668 160.494C61.3985 160.264 61.211 160.035 61.0043 159.805C60.7977 159.568 60.5987 159.353 60.4074 159.162ZM63.0363 160.643L63.771 160.356C63.9164 160.609 64.0542 160.884 64.1843 161.183C64.3144 161.481 64.4292 161.772 64.5287 162.055C64.6282 162.338 64.6932 162.591 64.7238 162.813L63.9432 163.146C63.9049 162.931 63.8399 162.679 63.748 162.388C63.6562 162.097 63.5491 161.799 63.4266 161.492C63.3041 161.186 63.174 160.903 63.0363 160.643ZM60.327 161.734C60.8092 161.711 61.3793 161.68 62.0375 161.642C62.6957 161.603 63.3692 161.565 64.058 161.527L64.0695 162.422C63.4266 162.468 62.7875 162.514 62.1523 162.56C61.5171 162.606 60.9507 162.648 60.4533 162.686L60.327 161.734ZM63.2429 163.49L63.9776 163.272C64.1154 163.601 64.2379 163.961 64.345 164.351C64.4521 164.734 64.5249 165.07 64.5631 165.361L63.771 165.602C63.748 165.311 63.6868 164.971 63.5873 164.581C63.4878 164.183 63.373 163.819 63.2429 163.49ZM60.9354 163.318L61.7964 163.456C61.7276 163.999 61.6281 164.535 61.498 165.063C61.3755 165.591 61.2301 166.039 61.0617 166.406C61.0081 166.36 60.9316 166.314 60.8321 166.268C60.7326 166.222 60.6331 166.176 60.5336 166.13C60.4341 166.084 60.35 166.05 60.2811 166.027C60.4571 165.675 60.5949 165.258 60.6944 164.776C60.8015 164.294 60.8819 163.808 60.9354 163.318ZM62.1064 162.193H63.0248V167.324H62.1064V162.193ZM78.7983 156.659H79.866V159.885H78.7983V156.659ZM76.2612 157.67H82.4375V158.565H76.2612V157.67ZM76.6745 159.449H82.0701V160.344H76.6745V159.449ZM76.2727 161.022H82.5064V163.18H81.5535V161.871H77.1911V163.18H76.2727V161.022ZM79.7971 162.595H80.7844V165.97C80.7844 166.115 80.7958 166.211 80.8188 166.257C80.8494 166.295 80.9145 166.314 81.014 166.314C81.0446 166.314 81.0981 166.314 81.1747 166.314C81.2589 166.314 81.3392 166.314 81.4158 166.314C81.4999 166.314 81.5612 166.314 81.5994 166.314C81.6607 166.314 81.7104 166.283 81.7487 166.222C81.7869 166.153 81.8137 166.019 81.829 165.82C81.8443 165.614 81.8558 165.304 81.8635 164.891C81.9706 164.975 82.1084 165.055 82.2768 165.132C82.4528 165.201 82.6097 165.254 82.7474 165.292C82.7245 165.805 82.6747 166.199 82.5982 166.475C82.5217 166.758 82.4107 166.953 82.2653 167.06C82.1275 167.175 81.94 167.232 81.7028 167.232C81.6568 167.232 81.5956 167.232 81.5191 167.232C81.4425 167.232 81.3622 167.232 81.278 167.232C81.1938 167.232 81.1096 167.232 81.0254 167.232C80.9489 167.232 80.8915 167.232 80.8532 167.232C80.5701 167.232 80.3519 167.194 80.1989 167.118C80.0458 167.041 79.9387 166.911 79.8774 166.727C79.8239 166.544 79.7971 166.291 79.7971 165.97V162.595ZM77.7077 162.606H78.695V163.421C78.695 163.712 78.6644 164.03 78.6032 164.374C78.5496 164.711 78.4386 165.055 78.2702 165.407C78.1095 165.759 77.8646 166.1 77.5355 166.429C77.2141 166.766 76.7817 167.068 76.2383 167.336C76.1541 167.229 76.0393 167.102 75.8939 166.957C75.7485 166.819 75.6107 166.704 75.4806 166.613C75.9781 166.368 76.376 166.107 76.6745 165.832C76.973 165.549 77.1949 165.266 77.3404 164.982C77.4858 164.692 77.5814 164.412 77.6274 164.144C77.6809 163.869 77.7077 163.62 77.7077 163.398V162.606ZM73.6897 156.671L74.6311 157.015C74.4857 157.306 74.3288 157.608 74.1604 157.922C73.9997 158.228 73.8351 158.523 73.6668 158.806C73.506 159.089 73.353 159.338 73.2076 159.552L72.4728 159.242C72.6183 159.02 72.7637 158.76 72.9091 158.462C73.0621 158.156 73.2076 157.846 73.3453 157.532C73.4831 157.218 73.5979 156.931 73.6897 156.671ZM74.9755 158.003L75.8709 158.416C75.6031 158.844 75.3046 159.296 74.9755 159.77C74.654 160.245 74.3288 160.704 73.9997 161.148C73.6706 161.584 73.3606 161.971 73.0698 162.308L72.4269 161.94C72.6412 161.688 72.867 161.401 73.1042 161.079C73.3415 160.75 73.5711 160.41 73.793 160.057C74.0226 159.698 74.2369 159.342 74.4359 158.99C74.6426 158.638 74.8224 158.309 74.9755 158.003ZM71.8874 159.196L72.4384 158.473C72.6374 158.657 72.8402 158.86 73.0468 159.082C73.2535 159.304 73.4448 159.522 73.6208 159.736C73.7969 159.95 73.9308 160.145 74.0226 160.322L73.4372 161.148C73.3453 160.957 73.2152 160.75 73.0468 160.528C72.8785 160.299 72.691 160.069 72.4843 159.839C72.2777 159.602 72.0787 159.388 71.8874 159.196ZM74.5507 160.689L75.3314 160.367C75.4844 160.62 75.6337 160.896 75.7791 161.194C75.9245 161.485 76.0508 161.768 76.1579 162.044C76.2727 162.311 76.3569 162.556 76.4105 162.778L75.561 163.157C75.5227 162.935 75.45 162.683 75.3428 162.399C75.2433 162.116 75.1247 161.825 74.987 161.527C74.8492 161.228 74.7038 160.949 74.5507 160.689ZM71.807 161.734C72.3121 161.703 72.9091 161.672 73.5979 161.642C74.2867 161.603 74.9946 161.561 75.7217 161.515L75.7332 162.411C75.052 162.464 74.3785 162.514 73.7127 162.56C73.0468 162.606 72.4537 162.648 71.9333 162.686L71.807 161.734ZM74.8607 163.513L75.6413 163.272C75.7867 163.601 75.913 163.957 76.0202 164.34C76.135 164.722 76.2077 165.055 76.2383 165.338L75.4232 165.602C75.3926 165.319 75.3237 164.982 75.2166 164.592C75.1171 164.202 74.9984 163.842 74.8607 163.513ZM72.4154 163.318L73.3109 163.467C73.242 164.01 73.1425 164.546 73.0124 165.074C72.8899 165.602 72.7407 166.05 72.5647 166.417C72.5035 166.379 72.4231 166.337 72.3236 166.291C72.2241 166.238 72.1208 166.188 72.0136 166.142C71.9141 166.088 71.83 166.05 71.7611 166.027C71.9371 165.675 72.0749 165.258 72.1744 164.776C72.2815 164.294 72.3619 163.808 72.4154 163.318ZM73.6553 162.193H74.5966V167.324H73.6553V162.193ZM84.9172 157.406H92.6547V167.152H91.4837V158.508H86.0307V167.198H84.9172V157.406ZM85.6634 161.332H91.9774V162.411H85.6634V161.332ZM85.6519 165.35H91.9888V166.44H85.6519V165.35ZM94.8818 162.732H100.599V163.628H94.8818V162.732ZM94.9736 158.703H100.553V159.575H94.9736V158.703ZM96.9941 161.814L98.0044 162.032C97.8207 162.415 97.6217 162.817 97.4074 163.237C97.1931 163.658 96.9826 164.064 96.776 164.454C96.5694 164.845 96.3742 165.193 96.1905 165.499L95.2377 165.189C95.4137 164.898 95.605 164.561 95.8117 164.179C96.026 163.788 96.2326 163.387 96.4316 162.973C96.6382 162.56 96.8257 162.174 96.9941 161.814ZM98.6702 163.306L99.6804 163.421C99.5733 163.995 99.4164 164.496 99.2098 164.925C99.0031 165.354 98.7276 165.721 98.3832 166.027C98.0388 166.333 97.6179 166.59 97.1204 166.796C96.6306 167.011 96.0489 167.19 95.3754 167.336C95.3448 167.183 95.2836 167.022 95.1918 166.854C95.1076 166.685 95.0157 166.544 94.9162 166.429C95.7045 166.306 96.3512 166.127 96.8564 165.889C97.3691 165.644 97.7671 165.311 98.0503 164.891C98.3411 164.47 98.5477 163.942 98.6702 163.306ZM99.4279 156.855L100.358 157.233C100.182 157.494 100.002 157.754 99.8182 158.014C99.6422 158.274 99.4776 158.5 99.3246 158.691L98.6013 158.358C98.7467 158.152 98.896 157.907 99.049 157.624C99.2098 157.333 99.336 157.077 99.4279 156.855ZM97.2696 156.659H98.2799V161.963H97.2696V156.659ZM95.341 157.233L96.1446 156.9C96.3053 157.13 96.4507 157.383 96.5808 157.658C96.7186 157.926 96.8143 158.159 96.8678 158.358L96.0298 158.737C95.9839 158.531 95.8959 158.29 95.7658 158.014C95.6357 157.731 95.4941 157.471 95.341 157.233ZM97.3041 159.116L98.0158 159.541C97.8245 159.855 97.5834 160.172 97.2926 160.494C97.0094 160.808 96.6995 161.098 96.3627 161.366C96.0336 161.634 95.7045 161.86 95.3754 162.044C95.3142 161.921 95.23 161.779 95.1229 161.619C95.0157 161.458 94.9086 161.328 94.8014 161.228C95.1229 161.098 95.4405 160.922 95.7543 160.7C96.0757 160.478 96.3704 160.23 96.6382 159.954C96.9138 159.679 97.1357 159.399 97.3041 159.116ZM98.1766 159.483C98.2761 159.537 98.4215 159.625 98.6128 159.748C98.8118 159.862 99.0223 159.989 99.2442 160.126C99.4738 160.256 99.6804 160.383 99.8641 160.505C100.055 160.62 100.189 160.708 100.266 160.769L99.6804 161.527C99.5809 161.435 99.4432 161.316 99.2672 161.171C99.0911 161.026 98.8998 160.876 98.6932 160.723C98.4942 160.563 98.299 160.413 98.1077 160.276C97.924 160.13 97.7709 160.015 97.6485 159.931L98.1766 159.483ZM101.402 158.772H105.547V159.77H101.402V158.772ZM101.609 156.659L102.711 156.82C102.589 157.585 102.432 158.324 102.24 159.036C102.049 159.748 101.82 160.406 101.552 161.01C101.284 161.615 100.978 162.147 100.633 162.606C100.58 162.537 100.499 162.457 100.392 162.365C100.285 162.273 100.174 162.181 100.059 162.089C99.9445 161.99 99.845 161.913 99.7608 161.86C100.09 161.454 100.373 160.98 100.61 160.436C100.848 159.885 101.05 159.288 101.219 158.645C101.387 158.003 101.517 157.341 101.609 156.659ZM103.802 159.369L104.904 159.472C104.728 160.788 104.46 161.948 104.1 162.95C103.748 163.953 103.262 164.818 102.642 165.545C102.03 166.264 101.242 166.869 100.277 167.359C100.247 167.275 100.193 167.167 100.117 167.037C100.04 166.915 99.9598 166.792 99.8756 166.67C99.7914 166.548 99.7149 166.452 99.646 166.383C100.534 165.97 101.257 165.445 101.816 164.81C102.382 164.167 102.818 163.394 103.124 162.491C103.438 161.588 103.664 160.547 103.802 159.369ZM101.999 159.61C102.16 160.628 102.39 161.584 102.688 162.48C102.994 163.368 103.388 164.148 103.871 164.822C104.36 165.488 104.961 166.008 105.673 166.383C105.589 166.452 105.497 166.54 105.397 166.647C105.298 166.762 105.206 166.877 105.122 166.991C105.038 167.106 104.965 167.213 104.904 167.313C104.146 166.869 103.515 166.28 103.01 165.545C102.505 164.803 102.091 163.945 101.77 162.973C101.456 161.994 101.203 160.926 101.012 159.77L101.999 159.61ZM96.0642 165.109L96.6497 164.362C97.1013 164.539 97.5528 164.737 98.0044 164.959C98.4559 165.174 98.873 165.4 99.2557 165.637C99.646 165.866 99.9751 166.084 100.243 166.291L99.4968 167.072C99.2442 166.857 98.9342 166.632 98.5669 166.394C98.1995 166.157 97.8015 165.928 97.373 165.706C96.9444 165.484 96.5081 165.285 96.0642 165.109Z" fill="#374949"/>
<path d="M44.9559 194.64C45.0414 193.06 45.3659 191.685 45.9297 190.514C46.502 189.344 47.6124 188.281 49.2609 187.324L51.7209 185.902C52.8228 185.261 53.5958 184.715 54.04 184.262C54.7404 183.553 55.0906 182.741 55.0906 181.828C55.0906 180.76 54.7703 179.914 54.1297 179.291C53.4891 178.659 52.6349 178.343 51.5672 178.343C49.987 178.343 48.8936 178.94 48.2872 180.136C47.9626 180.777 47.7832 181.665 47.7491 182.801H45.4044C45.43 181.204 45.7247 179.901 46.2884 178.893C47.2878 177.117 49.0517 176.228 51.58 176.228C53.6812 176.228 55.2145 176.796 56.1797 177.933C57.1534 179.069 57.6403 180.333 57.6403 181.725C57.6403 183.194 57.1235 184.45 56.09 185.492C55.4921 186.098 54.4201 186.833 52.8741 187.696L51.1187 188.669C50.2817 189.131 49.624 189.571 49.1456 189.989C48.2915 190.732 47.7533 191.556 47.5312 192.462H57.5506V194.64H44.9559ZM66.4169 176.216C68.4669 176.216 69.8933 176.749 70.6962 177.817C71.5077 178.876 71.9134 179.97 71.9134 181.097H69.6328C69.4961 180.371 69.2783 179.803 68.9794 179.393C68.4242 178.624 67.5828 178.24 66.4553 178.24C65.1655 178.24 64.1405 178.838 63.3803 180.034C62.6201 181.221 62.1973 182.925 62.1119 185.146C62.6415 184.369 63.3077 183.788 64.1106 183.403C64.8452 183.062 65.6652 182.891 66.5706 182.891C68.1081 182.891 69.4492 183.382 70.5937 184.364C71.7383 185.347 72.3106 186.812 72.3106 188.759C72.3106 190.425 71.7682 191.902 70.6834 193.192C69.5986 194.473 68.0526 195.114 66.0453 195.114C64.3284 195.114 62.8465 194.465 61.5994 193.167C60.3523 191.86 59.7287 189.664 59.7287 186.581C59.7287 184.3 60.0064 182.366 60.5616 180.777C61.6293 177.736 63.581 176.216 66.4169 176.216ZM66.2503 193.064C67.4632 193.064 68.3686 192.658 68.9666 191.847C69.573 191.027 69.8762 190.062 69.8762 188.951C69.8762 188.012 69.6072 187.119 69.0691 186.273C68.5309 185.419 67.5529 184.992 66.135 184.992C65.1442 184.992 64.2729 185.321 63.5212 185.979C62.7781 186.636 62.4066 187.627 62.4066 188.951C62.4066 190.113 62.744 191.091 63.4187 191.885C64.1021 192.671 65.0459 193.064 66.2503 193.064ZM79.3191 175.818H81.2666L75.2959 194.64H73.3484L79.3191 175.818ZM87.4678 195.14C85.2982 195.14 83.7223 194.546 82.74 193.359C81.7662 192.163 81.2794 190.711 81.2794 189.003H83.6881C83.7906 190.19 84.0127 191.053 84.3544 191.591C84.9523 192.556 86.0328 193.038 87.5959 193.038C88.8089 193.038 89.7826 192.714 90.5172 192.065C91.2518 191.416 91.6191 190.578 91.6191 189.553C91.6191 188.289 91.2304 187.405 90.4531 186.901C89.6844 186.397 88.6124 186.145 87.2372 186.145C87.0834 186.145 86.9254 186.15 86.7631 186.158C86.6094 186.158 86.4514 186.162 86.2891 186.171V184.134C86.5282 184.159 86.729 184.176 86.8912 184.185C87.0535 184.194 87.2286 184.198 87.4166 184.198C88.2793 184.198 88.9882 184.061 89.5434 183.788C90.5172 183.309 91.0041 182.455 91.0041 181.225C91.0041 180.311 90.6795 179.607 90.0303 179.111C89.3811 178.616 88.6252 178.368 87.7625 178.368C86.225 178.368 85.1616 178.881 84.5722 179.906C84.2476 180.469 84.064 181.272 84.0212 182.314H81.7406C81.7406 180.948 82.014 179.786 82.5606 178.829C83.5002 177.121 85.153 176.267 87.5191 176.267C89.3897 176.267 90.8375 176.685 91.8625 177.523C92.8875 178.351 93.4 179.555 93.4 181.136C93.4 182.263 93.0968 183.177 92.4903 183.878C92.1145 184.313 91.6276 184.655 91.0297 184.903C91.9949 185.167 92.7466 185.68 93.2847 186.44C93.8314 187.192 94.1047 188.114 94.1047 189.208C94.1047 190.959 93.5281 192.385 92.375 193.487C91.2219 194.589 89.5861 195.14 87.4678 195.14ZM102.356 176.293C104.731 176.293 106.447 177.271 107.507 179.227C108.327 180.738 108.737 182.81 108.737 185.441C108.737 187.935 108.365 189.998 107.622 191.629C106.546 193.969 104.786 195.14 102.343 195.14C100.139 195.14 98.4994 194.183 97.4231 192.27C96.5262 190.672 96.0778 188.528 96.0778 185.838C96.0778 183.754 96.3469 181.964 96.885 180.469C97.8929 177.685 99.7166 176.293 102.356 176.293ZM102.33 193.038C103.526 193.038 104.479 192.509 105.187 191.45C105.896 190.391 106.251 188.417 106.251 185.53C106.251 183.446 105.995 181.734 105.482 180.393C104.97 179.043 103.975 178.368 102.497 178.368C101.139 178.368 100.144 179.009 99.5116 180.29C98.888 181.563 98.5762 183.442 98.5762 185.928C98.5762 187.798 98.777 189.301 99.1784 190.438C99.7934 192.171 100.844 193.038 102.33 193.038Z" fill="#374949"/>
<path d="M112.28 184.777H119.811V194.375H118.893V185.638H113.164V194.432H112.28V184.777ZM112.877 188.75H119.283V189.599H112.877V188.75ZM112.854 192.825H119.295V193.686H112.854V192.825Z" fill="#374949"/>
<path d="M149 176C149 212.451 119.451 242 83 242C46.5492 242 17 212.451 17 176C17 139.549 46.5492 110 83 110C119.451 110 149 139.549 149 176ZM31.5085 176C31.5085 204.438 54.562 227.491 83 227.491C111.438 227.491 134.491 204.438 134.491 176C134.491 147.562 111.438 124.509 83 124.509C54.562 124.509 31.5085 147.562 31.5085 176Z" fill="#E8E8E8"/>
<path d="M58.7873 229.456C57.1203 233.137 52.7587 234.803 49.2852 232.739C37.5726 225.78 28.2444 215.328 22.6708 202.766C17.0973 190.203 15.6086 176.273 18.3091 162.919C19.1099 158.959 23.2722 156.844 27.1196 158.078V158.078C30.967 159.312 33.0296 163.43 32.3542 167.414C30.6753 177.316 31.9288 187.553 36.0453 196.832C40.1618 206.11 46.91 213.909 55.3785 219.31C58.7851 221.483 60.4544 225.776 58.7873 229.456V229.456Z" fill="#FFCC00"/>
<path d="M83 117.392C83 113.309 86.3196 109.957 90.3762 110.413C98.2617 111.3 105.943 113.604 113.045 117.235C122.346 121.99 130.385 128.886 136.502 137.354C142.619 145.822 146.638 155.621 148.23 165.946C149.821 176.27 148.939 186.825 145.656 196.742C142.373 206.659 136.783 215.655 129.346 222.99C121.908 230.326 112.836 235.791 102.874 238.937C92.9127 242.082 82.3468 242.818 72.0454 241.085C64.1806 239.761 56.6414 237.026 49.7844 233.033C46.2568 230.978 45.5931 226.308 48.0289 223.032V223.032C50.4647 219.756 55.0759 219.129 58.6681 221.068C63.5965 223.729 68.9431 225.571 74.4991 226.507C82.4931 227.852 90.6924 227.281 98.4226 224.84C106.153 222.399 113.193 218.158 118.965 212.465C124.736 206.773 129.074 199.792 131.622 192.096C134.17 184.4 134.854 176.209 133.619 168.198C132.384 160.186 129.265 152.581 124.518 146.01C119.772 139.439 113.533 134.088 106.315 130.398C101.298 127.833 95.9086 126.121 90.366 125.316C86.3262 124.728 83 121.474 83 117.392V117.392Z" fill="#FFCC00"/>
<path d="M49.567 262.508H55.219C55.783 262.508 56.143 262.496 56.491 262.448C56.455 262.856 56.431 263.204 56.431 263.624V271.472C56.431 272.072 56.455 272.468 56.503 272.864H55.291V272.132H49.447V272.864H48.235C48.283 272.48 48.307 272.096 48.307 271.544V263.684C48.307 263.204 48.283 262.82 48.247 262.448C48.631 262.496 49.015 262.508 49.567 262.508ZM49.447 265.304H55.291V263.564H49.447V265.304ZM49.447 266.348V268.112H55.291V266.348H49.447ZM49.447 269.156V271.076H55.291V269.156H49.447ZM67.625 264.068H68.561C68.981 264.068 69.353 264.056 69.665 264.02C69.629 264.26 69.617 264.452 69.617 264.848V265.868C69.617 266.3 69.629 266.516 69.665 266.804C69.317 266.768 69.041 266.756 68.537 266.756H63.977C63.509 266.756 63.185 266.768 62.849 266.804C62.885 266.528 62.897 266.288 62.897 265.928V264.848C62.897 264.512 62.885 264.236 62.849 264.02C63.137 264.056 63.473 264.068 63.941 264.068H64.853V263.348H63.809C63.245 263.348 62.813 263.372 62.501 263.42V262.376C62.849 262.424 63.257 262.448 63.809 262.448H68.693C69.245 262.448 69.677 262.424 70.037 262.376V263.408C69.725 263.372 69.305 263.348 68.765 263.348H67.625V264.068ZM66.773 263.348H65.705V264.068H66.773V263.348ZM66.773 264.872H65.705V265.94H66.773V264.872ZM67.625 265.94H68.705V264.872H67.625V265.94ZM64.853 264.872H63.797V265.94H64.853V264.872ZM60.497 264.224V263.192C60.497 262.556 60.473 262.22 60.425 261.944H61.565C61.529 262.244 61.505 262.616 61.505 263.18V264.224H61.781C62.105 264.224 62.309 264.212 62.513 264.176V265.196C62.297 265.172 62.057 265.16 61.793 265.16H61.541C61.781 265.868 62.213 266.6 62.765 267.236C62.549 267.548 62.453 267.728 62.285 268.124C61.913 267.512 61.757 267.2 61.469 266.468C61.493 267.428 61.505 267.728 61.505 268.22V271.58C61.505 272.216 61.529 272.66 61.577 273.02H60.425C60.473 272.648 60.497 272.204 60.497 271.58V268.808C60.497 268.436 60.509 268.052 60.569 267.056C60.233 268.412 59.861 269.396 59.417 270.068C59.249 269.6 59.105 269.312 58.877 269C59.321 268.364 59.621 267.728 59.933 266.78C60.125 266.204 60.293 265.616 60.377 265.16H59.969C59.621 265.16 59.357 265.172 59.153 265.208V264.176C59.357 264.212 59.585 264.224 59.969 264.224H60.497ZM66.713 269.816V271.964C66.713 272.672 66.449 272.852 65.405 272.852C65.237 272.852 65.213 272.852 64.541 272.828C64.517 272.456 64.469 272.168 64.349 271.808C64.697 271.88 65.033 271.916 65.285 271.916C65.621 271.916 65.681 271.88 65.681 271.664V269.816H63.701C63.173 269.816 62.789 269.84 62.465 269.876V268.856C62.813 268.904 63.125 268.916 63.689 268.916H68.861C69.365 268.916 69.737 268.904 70.061 268.856V269.876C69.749 269.828 69.389 269.816 68.873 269.816H66.713ZM63.149 268.304V267.308C63.509 267.356 63.821 267.368 64.337 267.368H68.117C68.633 267.368 68.945 267.356 69.317 267.308V268.304C68.957 268.256 68.717 268.244 68.189 268.244H64.325C63.785 268.244 63.485 268.256 63.149 268.304ZM67.445 270.512L68.237 270.032C68.525 270.416 68.657 270.56 68.969 270.824C69.413 271.22 69.701 271.412 70.301 271.748C70.037 271.976 69.833 272.216 69.605 272.576C68.681 272 68.117 271.46 67.445 270.512ZM63.893 270.008L64.781 270.404C64.145 271.448 63.701 271.928 62.777 272.636C62.489 272.324 62.369 272.216 61.961 271.952C62.489 271.64 62.729 271.46 63.089 271.088C63.437 270.74 63.605 270.524 63.893 270.008ZM77.715 263.72H76.011C75.459 263.72 75.183 263.732 74.907 263.768V262.796C75.195 262.844 75.531 262.856 76.107 262.856H77.715C77.715 262.448 77.691 262.208 77.655 261.944H78.807C78.771 262.196 78.747 262.496 78.747 262.856H80.487C81.015 262.856 81.411 262.832 81.699 262.796V263.768C81.411 263.732 81.087 263.72 80.607 263.72H78.747V264.476H81.051C81.663 264.476 81.951 264.464 82.227 264.428V265.4C81.915 265.364 81.627 265.352 81.051 265.352H80.511C80.367 265.736 80.259 265.976 80.091 266.324H80.883C81.507 266.324 81.735 266.312 82.047 266.276V267.236C81.747 267.2 81.483 267.188 80.883 267.188H78.759V267.92H80.511C80.991 267.92 81.351 267.908 81.615 267.872V268.808C81.327 268.772 80.967 268.76 80.511 268.76H78.759V269.468H80.991C81.567 269.468 81.879 269.456 82.167 269.408V270.392C81.879 270.344 81.519 270.332 81.003 270.332H78.759C78.759 270.8 78.771 271.1 78.819 271.412H77.655C77.691 271.1 77.715 270.824 77.715 270.332H75.711C75.159 270.332 74.823 270.344 74.523 270.392V269.408C74.811 269.456 75.135 269.468 75.711 269.468H77.715V268.76H76.119C75.663 268.76 75.291 268.772 75.003 268.808V267.872C75.279 267.908 75.639 267.92 76.119 267.92H77.715V267.188H75.843C75.243 267.188 74.967 267.2 74.667 267.236V266.276C74.979 266.312 75.207 266.324 75.843 266.324H76.395C76.263 265.94 76.167 265.688 75.999 265.352H75.567C74.991 265.352 74.691 265.364 74.391 265.4V264.428C74.667 264.464 74.955 264.476 75.567 264.476H77.715V263.72ZM79.455 265.352H77.043C77.211 265.712 77.319 265.976 77.427 266.324H79.047C79.203 266.024 79.335 265.712 79.455 265.352ZM71.583 262.856L72.387 262.136C73.263 262.952 73.659 263.396 74.271 264.212L73.455 265.016C72.819 264.08 72.483 263.696 71.583 262.856ZM71.439 267.716V266.624C71.727 266.672 71.931 266.684 72.387 266.684H73.179C73.539 266.684 73.779 266.672 74.091 266.624C74.043 267.02 74.031 267.296 74.031 267.92V270.416C74.259 270.848 74.499 271.088 74.967 271.316C75.483 271.58 76.287 271.676 78.027 271.676C79.995 271.676 81.363 271.616 82.587 271.46C82.383 272.024 82.347 272.168 82.263 272.624C81.159 272.66 79.503 272.696 78.243 272.696C76.131 272.696 75.363 272.612 74.691 272.3C74.247 272.096 73.863 271.772 73.503 271.28C72.975 271.796 72.627 272.096 72.195 272.408C71.979 272.564 71.871 272.66 71.715 272.792L71.199 271.664C71.703 271.436 72.363 270.956 72.987 270.368V267.656H72.279C71.931 267.656 71.739 267.668 71.439 267.716ZM92.713 265.64L93.805 266.06C93.721 266.228 93.721 266.228 93.577 266.576C92.953 268.088 92.521 268.892 91.885 269.732C92.209 270.332 92.461 270.68 92.785 271.004C92.989 271.196 93.253 271.376 93.337 271.376C93.493 271.376 93.649 270.764 93.793 269.696C94.105 270.02 94.369 270.224 94.693 270.38C94.417 271.952 94.033 272.6 93.409 272.6C93.073 272.6 92.593 272.312 92.077 271.808C91.753 271.496 91.465 271.124 91.153 270.596C90.205 271.568 89.293 272.228 88.081 272.816C87.781 272.372 87.661 272.24 87.301 271.952C88.645 271.4 89.725 270.668 90.673 269.624C90.121 268.292 89.857 266.996 89.713 264.764H85.789C85.789 265.508 85.789 265.508 85.765 266.492H88.009C88.441 266.492 88.645 266.48 88.873 266.444C88.849 266.696 88.849 266.696 88.789 267.872C88.621 270.896 88.465 271.196 87.061 271.196C86.689 271.196 86.449 271.184 85.993 271.124C85.945 270.656 85.909 270.488 85.753 270.056C86.401 270.164 86.677 270.188 87.025 270.188C87.397 270.188 87.505 270.104 87.577 269.708C87.673 269.252 87.721 268.52 87.745 267.464H85.729C85.657 268.868 85.549 269.756 85.357 270.596C85.141 271.508 84.913 272.048 84.397 272.84C84.061 272.396 83.893 272.24 83.521 272.012C83.977 271.34 84.229 270.752 84.385 270.044C84.613 268.976 84.721 267.44 84.721 265.28C84.721 264.44 84.709 264.152 84.661 263.72C85.093 263.756 85.549 263.78 86.161 263.78H89.665C89.629 262.304 89.629 262.304 89.581 261.98H90.793C90.745 262.232 90.721 262.688 90.721 263.144C90.721 263.288 90.721 263.408 90.745 263.78H92.737C92.329 263.288 92.029 263.024 91.357 262.52L92.101 262.004C92.725 262.448 93.013 262.7 93.529 263.24L92.821 263.78H93.229C93.877 263.78 94.201 263.768 94.501 263.708V264.824C94.117 264.788 93.709 264.764 93.097 264.764H90.781C90.829 266.072 91.069 267.548 91.429 268.652C92.065 267.668 92.569 266.492 92.713 265.64ZM106.067 270.836L105.383 272.012C104.807 271.388 103.919 270.752 102.935 270.284C102.803 270.212 102.527 270.092 102.371 270.02C102.371 270.08 102.371 270.152 102.371 270.224C102.371 271.664 101.531 272.348 99.779 272.348C98.159 272.348 97.175 271.688 97.175 270.584C97.175 269.36 98.339 268.616 100.259 268.616C100.643 268.616 100.967 268.628 101.195 268.664C101.195 268.616 101.195 268.616 101.195 268.496C101.195 268.484 101.183 268.436 101.183 268.364C101.183 268.292 101.171 268.1 101.171 267.824C101.159 267.704 101.159 267.524 101.147 267.284C100.679 267.284 100.175 267.296 99.863 267.296C99.119 267.296 98.663 267.284 97.751 267.212C97.607 267.2 97.499 267.2 97.415 267.2C97.391 267.2 97.355 267.2 97.319 267.2L97.331 266.12C97.859 266.24 98.939 266.312 100.115 266.312C100.379 266.312 100.763 266.3 101.135 266.288L101.111 264.908C100.751 264.92 100.559 264.92 100.331 264.92C99.647 264.92 98.279 264.86 97.403 264.8C97.283 264.788 97.199 264.788 97.151 264.788C97.115 264.788 97.055 264.788 96.971 264.8L96.983 263.684C97.631 263.828 98.783 263.912 100.151 263.912C100.343 263.912 100.739 263.912 101.099 263.9C101.087 262.592 101.087 262.592 101.051 262.304H102.347C102.287 262.604 102.275 262.868 102.263 263.864C103.967 263.756 104.987 263.624 105.743 263.384L105.791 264.512C105.551 264.524 105.551 264.524 104.903 264.62C103.907 264.752 103.367 264.812 102.251 264.872C102.263 265.292 102.263 265.292 102.275 266.24C103.715 266.144 104.795 266 105.503 265.784L105.551 266.912C105.287 266.924 105.191 266.936 104.363 267.056C103.871 267.128 103.007 267.2 102.287 267.236C102.323 268.16 102.335 268.7 102.347 268.844C103.511 269.216 104.375 269.66 105.647 270.56C105.851 270.704 105.899 270.74 106.067 270.836ZM101.207 269.744C100.787 269.66 100.583 269.636 100.115 269.636C99.467 269.636 98.891 269.792 98.603 270.044C98.471 270.164 98.387 270.356 98.387 270.536C98.387 271.04 98.903 271.316 99.827 271.316C100.451 271.316 100.859 271.172 101.051 270.884C101.171 270.704 101.219 270.488 101.219 270.116C101.219 270.044 101.207 269.744 101.207 269.744ZM108.657 265.1L108.585 263.768C108.777 263.78 108.921 263.78 109.053 263.78C109.269 263.78 109.449 263.768 109.737 263.756C111.117 263.672 113.997 263.504 116.817 263.372C117.645 263.336 118.005 263.3 118.209 263.252L118.293 264.524C118.209 264.512 118.137 264.512 118.089 264.512C117.417 264.512 116.577 264.728 115.845 265.088C114.213 265.904 113.205 267.2 113.205 268.496C113.205 269.444 113.805 270.212 114.837 270.56C115.389 270.74 116.181 270.896 116.601 270.896C116.649 270.896 116.721 270.896 116.817 270.884L116.637 272.24C116.481 272.216 116.433 272.204 116.241 272.18C114.933 271.988 114.237 271.76 113.517 271.328C112.509 270.716 111.969 269.756 111.969 268.604C111.969 267.464 112.497 266.408 113.541 265.436C114.009 264.98 114.297 264.8 114.981 264.476C114.141 264.596 113.661 264.644 112.389 264.728C110.301 264.872 109.281 264.98 108.657 265.1ZM116.061 266.276L116.805 265.904C117.369 266.54 117.633 266.924 118.053 267.704L117.309 268.112C116.913 267.368 116.577 266.864 116.061 266.276ZM117.489 265.592L118.209 265.22C118.785 265.856 119.037 266.216 119.445 266.972L118.713 267.392C118.341 266.696 118.005 266.192 117.489 265.592Z" fill="#5C3D16"/>
<path d="M47.9 313.472L48.908 314.144C48.74 314.312 48.74 314.312 48.524 314.528C48.116 314.948 47.768 315.272 47.336 315.608C47.708 316.148 48.092 316.52 48.308 316.52C48.56 316.52 48.644 316.184 48.716 314.936C49.052 315.212 49.412 315.452 49.748 315.62C49.556 317.288 49.22 317.888 48.452 317.888C47.756 317.888 46.964 317.3 46.328 316.316C45.236 316.976 44.072 317.48 42.776 317.852C42.548 317.348 42.404 317.096 42.08 316.688C43.508 316.376 44.648 315.944 45.776 315.272C45.536 314.696 45.416 314.264 45.272 313.592L44.072 313.712C43.64 313.76 43.292 313.82 42.98 313.88L42.872 312.644C42.968 312.644 43.04 312.644 43.088 312.644C43.364 312.644 43.484 312.632 43.976 312.596L45.092 312.476C45.044 312.152 45.044 312.152 44.984 311.696L44.3 311.756C43.952 311.792 43.628 311.84 43.376 311.9L43.268 310.724C43.352 310.724 43.4 310.724 43.436 310.724C43.604 310.724 43.916 310.712 44.216 310.676L44.876 310.616C44.876 310.496 44.876 310.496 44.852 310.292C44.84 310.076 44.84 310.028 44.828 309.86L44.168 309.92C43.856 309.944 43.532 309.992 43.4 310.016C43.304 310.028 43.256 310.04 43.244 310.04C43.196 310.04 43.172 310.04 43.124 310.028L43.016 308.888C43.136 308.9 43.208 308.9 43.232 308.9C43.448 308.9 43.736 308.876 44.096 308.84L44.756 308.78C44.708 308.12 44.708 308.12 44.684 307.568C44.672 307.34 44.672 307.34 44.6 306.98L46.052 306.968C46.016 307.196 46.004 307.424 46.004 307.7C46.004 307.808 46.016 308.36 46.028 308.66L47.528 308.528C47.156 308.132 46.796 307.832 46.268 307.496L47.096 306.896C47.648 307.208 48.044 307.508 48.452 307.916L47.732 308.504H47.792C48.2 308.468 48.608 308.408 48.872 308.336L48.98 309.524C48.92 309.524 48.872 309.524 48.836 309.524C48.632 309.524 48.44 309.536 47.852 309.596L46.076 309.752C46.088 310.1 46.088 310.136 46.124 310.496L47.636 310.352C48.2 310.304 48.452 310.268 48.776 310.184L48.872 311.36C48.812 311.36 48.752 311.36 48.728 311.36C48.488 311.36 48.332 311.372 47.732 311.432L46.22 311.576C46.268 311.996 46.292 312.152 46.316 312.356L48.284 312.164C48.848 312.104 49.064 312.068 49.376 311.996L49.496 313.196C49.436 313.196 49.4 313.196 49.364 313.196C49.124 313.196 48.764 313.22 48.356 313.256L46.496 313.46C46.592 313.94 46.664 314.192 46.82 314.576C47.432 314.108 47.696 313.832 47.9 313.472ZM39.872 313.04L40.46 312.128C40.832 312.428 40.976 312.572 41.312 312.896C41.48 312.284 41.552 311.9 41.684 311H40.58C40.196 312.128 39.752 312.92 39.032 313.724C38.864 313.304 38.684 313.052 38.288 312.632C38.948 311.912 39.32 311.216 39.632 310.16C39.788 309.62 39.872 309.224 39.932 308.624H39.656C39.248 308.624 38.996 308.636 38.696 308.684V307.412C39.02 307.448 39.416 307.472 39.944 307.472H42.128C42.608 307.472 43.064 307.448 43.4 307.412V308.672C43.064 308.636 42.824 308.624 42.5 308.624H41.132C41.06 309.176 41.036 309.344 40.904 309.92H41.972C42.44 309.92 42.704 309.908 42.968 309.872C42.92 310.148 42.884 310.472 42.8 311.24C42.656 312.644 42.236 314.108 41.636 315.284C41.3 315.932 40.856 316.592 40.4 317.084C40.16 317.336 39.992 317.504 39.368 318.032C39.056 317.552 38.84 317.3 38.492 316.976C39.608 316.184 40.28 315.368 40.892 314.072C40.568 313.688 40.256 313.376 39.872 313.04ZM52.986 307.112L54.51 307.196C54.366 307.604 54.306 307.916 54.078 309.512C53.994 310.016 53.946 310.424 53.922 310.712H53.958C53.982 310.64 53.982 310.64 54.03 310.448C54.15 310.028 54.462 309.44 54.786 309.02C55.446 308.204 56.19 307.796 57.066 307.796C57.882 307.796 58.602 308.18 59.118 308.876C59.718 309.68 59.982 310.652 59.982 312.068C59.982 314.384 58.902 316.112 56.886 317C56.274 317.276 55.434 317.516 54.534 317.672C54.294 316.988 54.162 316.724 53.826 316.256C55.026 316.124 55.722 315.944 56.454 315.572C57.846 314.864 58.482 313.724 58.482 311.9C58.482 310.172 57.906 309.212 56.874 309.212C56.418 309.212 55.998 309.416 55.578 309.848C54.642 310.82 54.066 312.296 54.066 313.724C54.066 313.784 54.066 313.868 54.066 313.976L52.626 314C52.638 313.928 52.638 313.868 52.638 313.844C52.638 313.796 52.638 313.724 52.638 313.616C52.626 313.268 52.602 312.38 52.602 312.14C52.602 311.168 52.674 309.836 52.77 309.008L52.95 307.52C52.974 307.316 52.986 307.268 52.986 307.112Z" fill="#FFCC00"/>
<path d="M90.234 316.552H83.288C83.564 314.758 83.656 312.964 83.656 310.572V285.226H81.448C79.746 285.226 78.412 285.318 76.71 285.502V279.66C78.136 279.89 79.148 279.936 81.31 279.936H85.542C87.888 279.936 88.578 279.89 90.234 279.706C89.958 282.42 89.866 284.536 89.866 287.296V310.572C89.866 313.01 89.958 314.666 90.234 316.552Z" fill="#F09131"/>
<path d="M115.304 306.704H118.712C119.416 306.704 119.848 306.688 120.264 306.64C120.216 307.024 120.2 307.424 120.2 307.92V311.744C120.2 312.256 120.216 312.608 120.264 313.024C119.8 312.976 119.384 312.96 118.712 312.96H115.304C114.504 312.96 114.232 312.976 113.752 313.024C113.8 312.592 113.816 312.224 113.816 311.744V307.92C113.816 307.456 113.8 307.056 113.752 306.64C114.152 306.688 114.6 306.704 115.304 306.704ZM115.496 308.208V311.456H118.504V308.208H115.496ZM123.88 317.328H122.008V316.448H112.04V317.328H110.184C110.248 316.816 110.28 316.128 110.28 315.248V305.12C110.28 304.368 110.248 303.792 110.184 303.2C110.776 303.264 111.272 303.28 112.056 303.28H121.976C122.776 303.28 123.272 303.264 123.88 303.2C123.816 303.792 123.784 304.32 123.784 305.12V315.264C123.784 316.128 123.816 316.928 123.88 317.328ZM112.04 304.88V314.864H122.008V304.88H112.04Z" fill="#FFCC00"/>
</svg>
