<svg width="320" height="148" viewBox="0 0 320 148" fill="none" xmlns="http://www.w3.org/2000/svg">
<g filter="url(#filter0_d_43_2186)">
<rect width="320" height="206" transform="translate(0 -47)" fill="white"/>
<circle cx="62.5" cy="91.8335" r="16.5" fill="white"/>
<rect x="241" y="133" width="4" height="14" transform="rotate(90 241 133)" fill="white"/>
<rect width="296" height="161" transform="translate(8 -12)" fill="white"/>
<path d="M182.009 30V26.6C184.702 24.2 186.996 21.9733 188.889 19.92C190.809 17.8667 192.276 15.96 193.289 14.2C194.302 12.4133 194.809 10.76 194.809 9.24C194.809 8.28 194.636 7.44 194.289 6.72C193.942 6 193.436 5.45333 192.769 5.08C192.129 4.68 191.329 4.48 190.369 4.48C189.302 4.48 188.316 4.78667 187.409 5.4C186.529 5.98667 185.716 6.69333 184.969 7.52L181.689 4.36C183.076 2.86667 184.489 1.74667 185.929 0.999999C187.396 0.226666 189.129 -0.16 191.129 -0.16C192.996 -0.16 194.622 0.226666 196.009 0.999999C197.422 1.74667 198.516 2.8 199.289 4.16C200.062 5.52 200.449 7.12 200.449 8.96C200.449 10.7467 199.996 12.5733 199.089 14.44C198.209 16.28 197.022 18.12 195.529 19.96C194.036 21.8 192.382 23.6133 190.569 25.4C191.342 25.2933 192.169 25.2133 193.049 25.16C193.956 25.08 194.756 25.04 195.449 25.04H201.849V30H182.009ZM214.803 30.56C213.256 30.56 211.869 30.3733 210.643 30C209.416 29.6533 208.323 29.1733 207.363 28.56C206.429 27.92 205.616 27.2133 204.923 26.44L207.683 22.72C208.589 23.5467 209.576 24.2667 210.643 24.88C211.736 25.4667 212.949 25.76 214.283 25.76C215.296 25.76 216.176 25.6 216.923 25.28C217.696 24.96 218.283 24.4933 218.683 23.88C219.109 23.2667 219.323 22.52 219.323 21.64C219.323 20.6533 219.083 19.8133 218.603 19.12C218.149 18.4 217.336 17.8533 216.163 17.48C214.989 17.1067 213.336 16.92 211.203 16.92V12.68C213.016 12.68 214.443 12.4933 215.483 12.12C216.523 11.72 217.256 11.1867 217.683 10.52C218.136 9.82667 218.363 9.04 218.363 8.16C218.363 7.01333 218.016 6.12 217.323 5.48C216.629 4.81333 215.656 4.48 214.403 4.48C213.363 4.48 212.389 4.72 211.483 5.2C210.603 5.65333 209.723 6.28 208.843 7.08L205.803 3.44C207.109 2.34667 208.483 1.48 209.923 0.839999C211.363 0.173333 212.949 -0.16 214.683 -0.16C216.576 -0.16 218.243 0.146666 219.683 0.76C221.149 1.37333 222.283 2.26667 223.083 3.44C223.883 4.61333 224.283 6.04 224.283 7.72C224.283 9.32 223.856 10.6933 223.003 11.84C222.149 12.9867 220.936 13.8667 219.363 14.48V14.68C220.456 14.9733 221.443 15.4533 222.323 16.12C223.229 16.76 223.936 17.5733 224.443 18.56C224.976 19.5467 225.243 20.6933 225.243 22C225.243 23.7867 224.763 25.32 223.803 26.6C222.869 27.88 221.603 28.8667 220.003 29.56C218.429 30.2267 216.696 30.56 214.803 30.56ZM227.897 35.43L235.367 5.82H238.277L230.837 35.43H227.897ZM239.938 30V28.3C241.285 27.1 242.431 25.9867 243.378 24.96C244.338 23.9333 245.071 22.98 245.578 22.1C246.085 21.2067 246.338 20.38 246.338 19.62C246.338 19.14 246.251 18.72 246.078 18.36C245.905 18 245.651 17.7267 245.318 17.54C244.998 17.34 244.598 17.24 244.118 17.24C243.585 17.24 243.091 17.3933 242.638 17.7C242.198 17.9933 241.791 18.3467 241.418 18.76L239.778 17.18C240.471 16.4333 241.178 15.8733 241.898 15.5C242.631 15.1133 243.498 14.92 244.498 14.92C245.431 14.92 246.245 15.1133 246.938 15.5C247.645 15.8733 248.191 16.4 248.578 17.08C248.965 17.76 249.158 18.56 249.158 19.48C249.158 20.3733 248.931 21.2867 248.478 22.22C248.038 23.14 247.445 24.06 246.698 24.98C245.951 25.9 245.125 26.8067 244.218 27.7C244.605 27.6467 245.018 27.6067 245.458 27.58C245.911 27.54 246.311 27.52 246.658 27.52H249.858V30H239.938ZM257.195 30.28C256.502 30.28 255.828 30.1333 255.175 29.84C254.535 29.5467 253.968 29.1 253.475 28.5C252.982 27.8867 252.588 27.1133 252.295 26.18C252.015 25.2333 251.875 24.1067 251.875 22.8C251.875 21.4267 252.028 20.24 252.335 19.24C252.655 18.24 253.082 17.4267 253.615 16.8C254.148 16.16 254.755 15.6867 255.435 15.38C256.128 15.0733 256.855 14.92 257.615 14.92C258.522 14.92 259.302 15.0867 259.955 15.42C260.622 15.74 261.175 16.1333 261.615 16.6L260.055 18.36C259.802 18.0667 259.468 17.8133 259.055 17.6C258.642 17.3867 258.222 17.28 257.795 17.28C257.195 17.28 256.648 17.4533 256.155 17.8C255.675 18.1467 255.288 18.72 254.995 19.52C254.702 20.32 254.555 21.4133 254.555 22.8C254.555 24.08 254.668 25.1067 254.895 25.88C255.135 26.64 255.448 27.1933 255.835 27.54C256.222 27.8867 256.655 28.06 257.135 28.06C257.508 28.06 257.842 27.96 258.135 27.76C258.442 27.5467 258.688 27.24 258.875 26.84C259.062 26.4267 259.155 25.92 259.155 25.32C259.155 24.7333 259.062 24.2533 258.875 23.88C258.702 23.5067 258.455 23.2267 258.135 23.04C257.828 22.8533 257.462 22.76 257.035 22.76C256.635 22.76 256.215 22.8867 255.775 23.14C255.335 23.38 254.928 23.8067 254.555 24.42L254.415 22.44C254.682 22.0667 254.995 21.7467 255.355 21.48C255.728 21.2133 256.108 21.0133 256.495 20.88C256.895 20.7467 257.255 20.68 257.575 20.68C258.402 20.68 259.135 20.8467 259.775 21.18C260.428 21.5133 260.935 22.02 261.295 22.7C261.655 23.38 261.835 24.2533 261.835 25.32C261.835 26.3333 261.622 27.2133 261.195 27.96C260.782 28.6933 260.222 29.2667 259.515 29.68C258.808 30.08 258.035 30.28 257.195 30.28ZM269.412 30V20.9C269.412 20.4733 269.425 19.9667 269.452 19.38C269.479 18.78 269.505 18.26 269.532 17.82H269.432C269.259 18.22 269.072 18.62 268.872 19.02C268.672 19.42 268.465 19.8267 268.252 20.24L265.952 23.92H273.912V26.16H263.092V24.16L268.612 15.18H272.152V30H269.412ZM290.6 13.28H293.02V17.96H290.6V13.28ZM285.88 16.62H298.06V18.9H285.88V16.62ZM287.28 20.18L289.44 19.82C289.667 20.6467 289.88 21.54 290.08 22.5C290.28 23.4467 290.447 24.3667 290.58 25.26C290.727 26.14 290.813 26.9067 290.84 27.56L288.48 28.06C288.453 27.3933 288.387 26.6133 288.28 25.72C288.173 24.8267 288.033 23.9 287.86 22.94C287.687 21.9667 287.493 21.0467 287.28 20.18ZM294.02 19.68L296.62 20.1C296.46 20.9133 296.28 21.7467 296.08 22.6C295.88 23.4533 295.673 24.2867 295.46 25.1C295.247 25.9133 295.027 26.6933 294.8 27.44C294.573 28.1733 294.36 28.8333 294.16 29.42L292 28.96C292.213 28.36 292.413 27.68 292.6 26.92C292.8 26.1467 292.987 25.34 293.16 24.5C293.347 23.66 293.513 22.8333 293.66 22.02C293.807 21.1933 293.927 20.4133 294.02 19.68ZM285.48 28.68H298.48V30.94H285.48V28.68ZM284.1 13.06L286.34 13.8C285.887 14.92 285.347 16.0467 284.72 17.18C284.107 18.3 283.44 19.36 282.72 20.36C282.013 21.3467 281.28 22.22 280.52 22.98C280.44 22.78 280.327 22.52 280.18 22.2C280.033 21.88 279.873 21.56 279.7 21.24C279.527 20.92 279.373 20.6667 279.24 20.48C279.88 19.88 280.5 19.1867 281.1 18.4C281.713 17.6133 282.273 16.76 282.78 15.84C283.287 14.92 283.727 13.9933 284.1 13.06ZM282.16 18.58L284.44 16.3V16.32V31.74H282.16V18.58Z" fill="#374949"/>
<path d="M27.3913 61.656C26.8473 61.656 26.3633 61.556 25.9393 61.356C25.5153 61.156 25.1833 60.88 24.9433 60.528C24.7033 60.176 24.5833 59.772 24.5833 59.316C24.5833 58.924 24.6593 58.572 24.8113 58.26C24.9713 57.94 25.1753 57.668 25.4233 57.444C25.6713 57.212 25.9273 57.024 26.1913 56.88V56.832C25.8713 56.608 25.5913 56.332 25.3513 56.004C25.1193 55.668 25.0033 55.268 25.0033 54.804C25.0033 54.356 25.1073 53.968 25.3153 53.64C25.5313 53.304 25.8193 53.044 26.1793 52.86C26.5473 52.668 26.9593 52.572 27.4153 52.572C27.9193 52.572 28.3513 52.672 28.7113 52.872C29.0713 53.072 29.3473 53.344 29.5393 53.688C29.7313 54.032 29.8273 54.432 29.8273 54.888C29.8273 55.192 29.7633 55.48 29.6353 55.752C29.5153 56.024 29.3673 56.268 29.1913 56.484C29.0153 56.692 28.8393 56.868 28.6633 57.012V57.072C28.9193 57.216 29.1593 57.392 29.3833 57.6C29.6073 57.8 29.7873 58.048 29.9233 58.344C30.0673 58.632 30.1393 58.98 30.1393 59.388C30.1393 59.804 30.0233 60.188 29.7913 60.54C29.5673 60.884 29.2473 61.156 28.8313 61.356C28.4233 61.556 27.9433 61.656 27.3913 61.656ZM27.9913 56.724C28.2873 56.46 28.5113 56.18 28.6633 55.884C28.8153 55.58 28.8913 55.268 28.8913 54.948C28.8913 54.652 28.8313 54.388 28.7113 54.156C28.5993 53.924 28.4313 53.74 28.2073 53.604C27.9833 53.46 27.7153 53.388 27.4033 53.388C26.9953 53.388 26.6593 53.516 26.3953 53.772C26.1313 54.028 25.9993 54.372 25.9993 54.804C25.9993 55.148 26.0913 55.44 26.2753 55.68C26.4673 55.912 26.7153 56.112 27.0193 56.28C27.3233 56.44 27.6473 56.588 27.9913 56.724ZM27.4033 60.84C27.7473 60.84 28.0433 60.776 28.2913 60.648C28.5473 60.52 28.7433 60.344 28.8793 60.12C29.0233 59.896 29.0953 59.64 29.0953 59.352C29.0953 59.056 29.0313 58.804 28.9033 58.596C28.7753 58.38 28.6033 58.192 28.3873 58.032C28.1793 57.872 27.9353 57.728 27.6553 57.6C27.3753 57.472 27.0793 57.348 26.7673 57.228C26.4153 57.452 26.1233 57.736 25.8913 58.08C25.6673 58.416 25.5553 58.796 25.5553 59.22C25.5553 59.524 25.6353 59.8 25.7952 60.048C25.9553 60.296 26.1753 60.492 26.4553 60.636C26.7433 60.772 27.0593 60.84 27.4033 60.84ZM33.7355 52.056H39.9875V52.932H33.7355V52.056ZM33.7355 54.948H40.0475V55.8H33.7355V54.948ZM33.6395 57.84H39.9875V58.716H33.6395V57.84ZM33.1715 52.056H34.0835V55.752C34.0835 56.272 34.0555 56.828 33.9995 57.42C33.9515 58.012 33.8475 58.612 33.6875 59.22C33.5275 59.82 33.2875 60.4 32.9675 60.96C32.6555 61.52 32.2395 62.024 31.7195 62.472C31.6795 62.408 31.6155 62.332 31.5275 62.244C31.4475 62.156 31.3635 62.072 31.2755 61.992C31.1875 61.92 31.1075 61.864 31.0355 61.824C31.5235 61.392 31.9075 60.928 32.1875 60.432C32.4755 59.928 32.6875 59.408 32.8235 58.872C32.9675 58.336 33.0595 57.804 33.0995 57.276C33.1475 56.74 33.1715 56.232 33.1715 55.752V52.056ZM39.5915 52.056H40.5395V61.128C40.5395 61.448 40.4915 61.692 40.3955 61.86C40.2995 62.028 40.1395 62.152 39.9155 62.232C39.6835 62.312 39.3595 62.36 38.9435 62.376C38.5275 62.4 37.9995 62.412 37.3595 62.412C37.3435 62.316 37.3115 62.212 37.2635 62.1C37.2235 61.988 37.1755 61.872 37.1195 61.752C37.0715 61.64 37.0235 61.544 36.9755 61.464C37.3115 61.472 37.6315 61.48 37.9355 61.488C38.2475 61.488 38.5155 61.488 38.7395 61.488C38.9715 61.48 39.1315 61.476 39.2195 61.476C39.3635 61.468 39.4595 61.44 39.5075 61.392C39.5635 61.336 39.5915 61.244 39.5915 61.116V52.056ZM43.2155 61.5V60.852C44.1355 60.044 44.8915 59.308 45.4835 58.644C46.0835 57.98 46.5275 57.364 46.8155 56.796C47.1035 56.22 47.2475 55.68 47.2475 55.176C47.2475 54.84 47.1875 54.54 47.0675 54.276C46.9555 54.012 46.7795 53.808 46.5395 53.664C46.2995 53.512 45.9955 53.436 45.6275 53.436C45.2675 53.436 44.9315 53.532 44.6195 53.724C44.3155 53.916 44.0435 54.16 43.8035 54.456L43.1675 53.832C43.5195 53.44 43.8995 53.128 44.3075 52.896C44.7155 52.664 45.1995 52.548 45.7595 52.548C46.2875 52.548 46.7395 52.656 47.1155 52.872C47.4995 53.08 47.7955 53.38 48.0035 53.772C48.2195 54.156 48.3275 54.608 48.3275 55.128C48.3275 55.712 48.1795 56.304 47.8835 56.904C47.5955 57.504 47.1915 58.116 46.6715 58.74C46.1595 59.356 45.5595 59.988 44.8715 60.636C45.1035 60.62 45.3435 60.604 45.5915 60.588C45.8475 60.564 46.0875 60.552 46.3115 60.552H48.7475V61.5H43.2155ZM52.7038 61.656C52.1598 61.656 51.6758 61.556 51.2518 61.356C50.8278 61.156 50.4958 60.88 50.2558 60.528C50.0158 60.176 49.8958 59.772 49.8958 59.316C49.8958 58.924 49.9718 58.572 50.1238 58.26C50.2838 57.94 50.4878 57.668 50.7358 57.444C50.9838 57.212 51.2398 57.024 51.5038 56.88V56.832C51.1838 56.608 50.9038 56.332 50.6638 56.004C50.4318 55.668 50.3158 55.268 50.3158 54.804C50.3158 54.356 50.4198 53.968 50.6278 53.64C50.8438 53.304 51.1318 53.044 51.4918 52.86C51.8598 52.668 52.2718 52.572 52.7278 52.572C53.2318 52.572 53.6638 52.672 54.0238 52.872C54.3838 53.072 54.6598 53.344 54.8518 53.688C55.0438 54.032 55.1398 54.432 55.1398 54.888C55.1398 55.192 55.0758 55.48 54.9478 55.752C54.8278 56.024 54.6798 56.268 54.5038 56.484C54.3278 56.692 54.1518 56.868 53.9758 57.012V57.072C54.2318 57.216 54.4718 57.392 54.6958 57.6C54.9198 57.8 55.0998 58.048 55.2358 58.344C55.3798 58.632 55.4518 58.98 55.4518 59.388C55.4518 59.804 55.3358 60.188 55.1038 60.54C54.8798 60.884 54.5598 61.156 54.1438 61.356C53.7358 61.556 53.2558 61.656 52.7038 61.656ZM53.3038 56.724C53.5998 56.46 53.8238 56.18 53.9758 55.884C54.1278 55.58 54.2038 55.268 54.2038 54.948C54.2038 54.652 54.1438 54.388 54.0238 54.156C53.9118 53.924 53.7438 53.74 53.5198 53.604C53.2958 53.46 53.0278 53.388 52.7158 53.388C52.3078 53.388 51.9718 53.516 51.7078 53.772C51.4438 54.028 51.3118 54.372 51.3118 54.804C51.3118 55.148 51.4038 55.44 51.5878 55.68C51.7798 55.912 52.0278 56.112 52.3318 56.28C52.6358 56.44 52.9598 56.588 53.3038 56.724ZM52.7158 60.84C53.0598 60.84 53.3558 60.776 53.6038 60.648C53.8598 60.52 54.0558 60.344 54.1918 60.12C54.3358 59.896 54.4078 59.64 54.4078 59.352C54.4078 59.056 54.3438 58.804 54.2158 58.596C54.0878 58.38 53.9158 58.192 53.6998 58.032C53.4918 57.872 53.2478 57.728 52.9678 57.6C52.6878 57.472 52.3918 57.348 52.0798 57.228C51.7278 57.452 51.4358 57.736 51.2038 58.08C50.9798 58.416 50.8678 58.796 50.8678 59.22C50.8678 59.524 50.9478 59.8 51.1077 60.048C51.2678 60.296 51.4878 60.492 51.7678 60.636C52.0558 60.772 52.3718 60.84 52.7158 60.84ZM58.112 52.236H65.984V62.268H65.024V53.136H59.036V62.328H58.112V52.236ZM58.736 56.388H65.432V57.276H58.736V56.388ZM58.712 60.648H65.444V61.548H58.712V60.648Z" fill="#4D6A6B"/>
<g clip-path="url(#clip0_43_2186)">
<rect width="215" height="20" transform="translate(84 47)" fill="white"/>
<rect x="84" y="47" width="184" height="20" fill="#FFCC00"/>
<rect x="268" y="47" width="31" height="20" fill="#E8E8E8"/>
</g>
<path d="M27.3913 90.656C26.8473 90.656 26.3633 90.556 25.9393 90.356C25.5153 90.156 25.1833 89.88 24.9433 89.528C24.7033 89.176 24.5833 88.772 24.5833 88.316C24.5833 87.924 24.6593 87.572 24.8113 87.26C24.9713 86.94 25.1753 86.668 25.4233 86.444C25.6713 86.212 25.9273 86.024 26.1913 85.88V85.832C25.8713 85.608 25.5913 85.332 25.3513 85.004C25.1193 84.668 25.0033 84.268 25.0033 83.804C25.0033 83.356 25.1073 82.968 25.3153 82.64C25.5313 82.304 25.8193 82.044 26.1793 81.86C26.5473 81.668 26.9593 81.572 27.4153 81.572C27.9193 81.572 28.3513 81.672 28.7113 81.872C29.0713 82.072 29.3473 82.344 29.5393 82.688C29.7313 83.032 29.8273 83.432 29.8273 83.888C29.8273 84.192 29.7633 84.48 29.6353 84.752C29.5153 85.024 29.3673 85.268 29.1913 85.484C29.0153 85.692 28.8393 85.868 28.6633 86.012V86.072C28.9193 86.216 29.1593 86.392 29.3833 86.6C29.6073 86.8 29.7873 87.048 29.9233 87.344C30.0673 87.632 30.1393 87.98 30.1393 88.388C30.1393 88.804 30.0233 89.188 29.7913 89.54C29.5673 89.884 29.2473 90.156 28.8313 90.356C28.4233 90.556 27.9433 90.656 27.3913 90.656ZM27.9913 85.724C28.2873 85.46 28.5113 85.18 28.6633 84.884C28.8153 84.58 28.8913 84.268 28.8913 83.948C28.8913 83.652 28.8313 83.388 28.7113 83.156C28.5993 82.924 28.4313 82.74 28.2073 82.604C27.9833 82.46 27.7153 82.388 27.4033 82.388C26.9953 82.388 26.6593 82.516 26.3953 82.772C26.1313 83.028 25.9993 83.372 25.9993 83.804C25.9993 84.148 26.0913 84.44 26.2753 84.68C26.4673 84.912 26.7153 85.112 27.0193 85.28C27.3233 85.44 27.6473 85.588 27.9913 85.724ZM27.4033 89.84C27.7473 89.84 28.0433 89.776 28.2913 89.648C28.5473 89.52 28.7433 89.344 28.8793 89.12C29.0233 88.896 29.0953 88.64 29.0953 88.352C29.0953 88.056 29.0313 87.804 28.9033 87.596C28.7753 87.38 28.6033 87.192 28.3873 87.032C28.1793 86.872 27.9353 86.728 27.6553 86.6C27.3753 86.472 27.0793 86.348 26.7673 86.228C26.4153 86.452 26.1233 86.736 25.8913 87.08C25.6673 87.416 25.5553 87.796 25.5553 88.22C25.5553 88.524 25.6353 88.8 25.7952 89.048C25.9553 89.296 26.1753 89.492 26.4553 89.636C26.7433 89.772 27.0593 89.84 27.4033 89.84ZM33.7355 81.056H39.9875V81.932H33.7355V81.056ZM33.7355 83.948H40.0475V84.8H33.7355V83.948ZM33.6395 86.84H39.9875V87.716H33.6395V86.84ZM33.1715 81.056H34.0835V84.752C34.0835 85.272 34.0555 85.828 33.9995 86.42C33.9515 87.012 33.8475 87.612 33.6875 88.22C33.5275 88.82 33.2875 89.4 32.9675 89.96C32.6555 90.52 32.2395 91.024 31.7195 91.472C31.6795 91.408 31.6155 91.332 31.5275 91.244C31.4475 91.156 31.3635 91.072 31.2755 90.992C31.1875 90.92 31.1075 90.864 31.0355 90.824C31.5235 90.392 31.9075 89.928 32.1875 89.432C32.4755 88.928 32.6875 88.408 32.8235 87.872C32.9675 87.336 33.0595 86.804 33.0995 86.276C33.1475 85.74 33.1715 85.232 33.1715 84.752V81.056ZM39.5915 81.056H40.5395V90.128C40.5395 90.448 40.4915 90.692 40.3955 90.86C40.2995 91.028 40.1395 91.152 39.9155 91.232C39.6835 91.312 39.3595 91.36 38.9435 91.376C38.5275 91.4 37.9995 91.412 37.3595 91.412C37.3435 91.316 37.3115 91.212 37.2635 91.1C37.2235 90.988 37.1755 90.872 37.1195 90.752C37.0715 90.64 37.0235 90.544 36.9755 90.464C37.3115 90.472 37.6315 90.48 37.9355 90.488C38.2475 90.488 38.5155 90.488 38.7395 90.488C38.9715 90.48 39.1315 90.476 39.2195 90.476C39.3635 90.468 39.4595 90.44 39.5075 90.392C39.5635 90.336 39.5915 90.244 39.5915 90.116V81.056ZM43.2155 90.5V89.852C44.1355 89.044 44.8915 88.308 45.4835 87.644C46.0835 86.98 46.5275 86.364 46.8155 85.796C47.1035 85.22 47.2475 84.68 47.2475 84.176C47.2475 83.84 47.1875 83.54 47.0675 83.276C46.9555 83.012 46.7795 82.808 46.5395 82.664C46.2995 82.512 45.9955 82.436 45.6275 82.436C45.2675 82.436 44.9315 82.532 44.6195 82.724C44.3155 82.916 44.0435 83.16 43.8035 83.456L43.1675 82.832C43.5195 82.44 43.8995 82.128 44.3075 81.896C44.7155 81.664 45.1995 81.548 45.7595 81.548C46.2875 81.548 46.7395 81.656 47.1155 81.872C47.4995 82.08 47.7955 82.38 48.0035 82.772C48.2195 83.156 48.3275 83.608 48.3275 84.128C48.3275 84.712 48.1795 85.304 47.8835 85.904C47.5955 86.504 47.1915 87.116 46.6715 87.74C46.1595 88.356 45.5595 88.988 44.8715 89.636C45.1035 89.62 45.3435 89.604 45.5915 89.588C45.8475 89.564 46.0875 89.552 46.3115 89.552H48.7475V90.5H43.2155ZM51.7198 90.5C51.7598 89.668 51.8278 88.904 51.9238 88.208C52.0278 87.504 52.1758 86.844 52.3678 86.228C52.5598 85.604 52.8038 85 53.0998 84.416C53.4038 83.832 53.7718 83.24 54.2038 82.64H49.9318V81.704H55.4398V82.364C54.9278 83.028 54.5078 83.664 54.1798 84.272C53.8598 84.88 53.6078 85.5 53.4238 86.132C53.2478 86.764 53.1158 87.436 53.0278 88.148C52.9478 88.852 52.8918 89.636 52.8598 90.5H51.7198ZM58.112 81.236H65.984V91.268H65.024V82.136H59.036V91.328H58.112V81.236ZM58.736 85.388H65.432V86.276H58.736V85.388ZM58.712 89.648H65.444V90.548H58.712V89.648Z" fill="#4D6A6B"/>
<g clip-path="url(#clip1_43_2186)">
<rect width="215" height="20" transform="translate(84 76)" fill="white"/>
<rect x="84" y="76" width="163" height="20" fill="#FFCC00"/>
<rect x="247" y="76" width="52" height="20" fill="#E8E8E8"/>
</g>
<path d="M27.3913 119.656C26.8473 119.656 26.3633 119.556 25.9393 119.356C25.5153 119.156 25.1833 118.88 24.9433 118.528C24.7033 118.176 24.5833 117.772 24.5833 117.316C24.5833 116.924 24.6593 116.572 24.8113 116.26C24.9713 115.94 25.1753 115.668 25.4233 115.444C25.6713 115.212 25.9273 115.024 26.1913 114.88V114.832C25.8713 114.608 25.5913 114.332 25.3513 114.004C25.1193 113.668 25.0033 113.268 25.0033 112.804C25.0033 112.356 25.1073 111.968 25.3153 111.64C25.5313 111.304 25.8193 111.044 26.1793 110.86C26.5473 110.668 26.9593 110.572 27.4153 110.572C27.9193 110.572 28.3513 110.672 28.7113 110.872C29.0713 111.072 29.3473 111.344 29.5393 111.688C29.7313 112.032 29.8273 112.432 29.8273 112.888C29.8273 113.192 29.7633 113.48 29.6353 113.752C29.5153 114.024 29.3673 114.268 29.1913 114.484C29.0153 114.692 28.8393 114.868 28.6633 115.012V115.072C28.9193 115.216 29.1593 115.392 29.3833 115.6C29.6073 115.8 29.7873 116.048 29.9233 116.344C30.0673 116.632 30.1393 116.98 30.1393 117.388C30.1393 117.804 30.0233 118.188 29.7913 118.54C29.5673 118.884 29.2473 119.156 28.8313 119.356C28.4233 119.556 27.9433 119.656 27.3913 119.656ZM27.9913 114.724C28.2873 114.46 28.5113 114.18 28.6633 113.884C28.8153 113.58 28.8913 113.268 28.8913 112.948C28.8913 112.652 28.8313 112.388 28.7113 112.156C28.5993 111.924 28.4313 111.74 28.2073 111.604C27.9833 111.46 27.7153 111.388 27.4033 111.388C26.9953 111.388 26.6593 111.516 26.3953 111.772C26.1313 112.028 25.9993 112.372 25.9993 112.804C25.9993 113.148 26.0913 113.44 26.2753 113.68C26.4673 113.912 26.7153 114.112 27.0193 114.28C27.3233 114.44 27.6473 114.588 27.9913 114.724ZM27.4033 118.84C27.7473 118.84 28.0433 118.776 28.2913 118.648C28.5473 118.52 28.7433 118.344 28.8793 118.12C29.0233 117.896 29.0953 117.64 29.0953 117.352C29.0953 117.056 29.0313 116.804 28.9033 116.596C28.7753 116.38 28.6033 116.192 28.3873 116.032C28.1793 115.872 27.9353 115.728 27.6553 115.6C27.3753 115.472 27.0793 115.348 26.7673 115.228C26.4153 115.452 26.1233 115.736 25.8913 116.08C25.6673 116.416 25.5553 116.796 25.5553 117.22C25.5553 117.524 25.6353 117.8 25.7952 118.048C25.9553 118.296 26.1753 118.492 26.4553 118.636C26.7433 118.772 27.0593 118.84 27.4033 118.84ZM33.7355 110.056H39.9875V110.932H33.7355V110.056ZM33.7355 112.948H40.0475V113.8H33.7355V112.948ZM33.6395 115.84H39.9875V116.716H33.6395V115.84ZM33.1715 110.056H34.0835V113.752C34.0835 114.272 34.0555 114.828 33.9995 115.42C33.9515 116.012 33.8475 116.612 33.6875 117.22C33.5275 117.82 33.2875 118.4 32.9675 118.96C32.6555 119.52 32.2395 120.024 31.7195 120.472C31.6795 120.408 31.6155 120.332 31.5275 120.244C31.4475 120.156 31.3635 120.072 31.2755 119.992C31.1875 119.92 31.1075 119.864 31.0355 119.824C31.5235 119.392 31.9075 118.928 32.1875 118.432C32.4755 117.928 32.6875 117.408 32.8235 116.872C32.9675 116.336 33.0595 115.804 33.0995 115.276C33.1475 114.74 33.1715 114.232 33.1715 113.752V110.056ZM39.5915 110.056H40.5395V119.128C40.5395 119.448 40.4915 119.692 40.3955 119.86C40.2995 120.028 40.1395 120.152 39.9155 120.232C39.6835 120.312 39.3595 120.36 38.9435 120.376C38.5275 120.4 37.9995 120.412 37.3595 120.412C37.3435 120.316 37.3115 120.212 37.2635 120.1C37.2235 119.988 37.1755 119.872 37.1195 119.752C37.0715 119.64 37.0235 119.544 36.9755 119.464C37.3115 119.472 37.6315 119.48 37.9355 119.488C38.2475 119.488 38.5155 119.488 38.7395 119.488C38.9715 119.48 39.1315 119.476 39.2195 119.476C39.3635 119.468 39.4595 119.44 39.5075 119.392C39.5635 119.336 39.5915 119.244 39.5915 119.116V110.056ZM43.2155 119.5V118.852C44.1355 118.044 44.8915 117.308 45.4835 116.644C46.0835 115.98 46.5275 115.364 46.8155 114.796C47.1035 114.22 47.2475 113.68 47.2475 113.176C47.2475 112.84 47.1875 112.54 47.0675 112.276C46.9555 112.012 46.7795 111.808 46.5395 111.664C46.2995 111.512 45.9955 111.436 45.6275 111.436C45.2675 111.436 44.9315 111.532 44.6195 111.724C44.3155 111.916 44.0435 112.16 43.8035 112.456L43.1675 111.832C43.5195 111.44 43.8995 111.128 44.3075 110.896C44.7155 110.664 45.1995 110.548 45.7595 110.548C46.2875 110.548 46.7395 110.656 47.1155 110.872C47.4995 111.08 47.7955 111.38 48.0035 111.772C48.2195 112.156 48.3275 112.608 48.3275 113.128C48.3275 113.712 48.1795 114.304 47.8835 114.904C47.5955 115.504 47.1915 116.116 46.6715 116.74C46.1595 117.356 45.5595 117.988 44.8715 118.636C45.1035 118.62 45.3435 118.604 45.5915 118.588C45.8475 118.564 46.0875 118.552 46.3115 118.552H48.7475V119.5H43.2155ZM52.9558 119.656C52.5398 119.656 52.1518 119.568 51.7918 119.392C51.4318 119.208 51.1198 118.936 50.8558 118.576C50.5918 118.208 50.3838 117.752 50.2318 117.208C50.0878 116.664 50.0158 116.028 50.0158 115.3C50.0158 114.444 50.1038 113.712 50.2798 113.104C50.4558 112.496 50.6958 112.004 50.9998 111.628C51.3038 111.252 51.6518 110.98 52.0438 110.812C52.4358 110.636 52.8438 110.548 53.2678 110.548C53.7238 110.548 54.1198 110.632 54.4558 110.8C54.7918 110.968 55.0838 111.184 55.3318 111.448L54.7078 112.12C54.5398 111.912 54.3318 111.748 54.0838 111.628C53.8358 111.508 53.5798 111.448 53.3158 111.448C52.8998 111.448 52.5198 111.572 52.1758 111.82C51.8318 112.06 51.5558 112.46 51.3478 113.02C51.1478 113.58 51.0478 114.34 51.0478 115.3C51.0478 116.052 51.1198 116.688 51.2638 117.208C51.4158 117.728 51.6318 118.124 51.9118 118.396C52.1998 118.66 52.5478 118.792 52.9558 118.792C53.2438 118.792 53.4958 118.708 53.7118 118.54C53.9358 118.372 54.1118 118.14 54.2398 117.844C54.3758 117.54 54.4438 117.192 54.4438 116.8C54.4438 116.4 54.3838 116.056 54.2638 115.768C54.1518 115.472 53.9798 115.248 53.7478 115.096C53.5158 114.936 53.2198 114.856 52.8598 114.856C52.5798 114.856 52.2758 114.948 51.9478 115.132C51.6198 115.308 51.3078 115.616 51.0118 116.056L50.9758 115.192C51.1598 114.952 51.3638 114.748 51.5878 114.58C51.8118 114.404 52.0478 114.272 52.2958 114.184C52.5518 114.088 52.7998 114.04 53.0398 114.04C53.5358 114.04 53.9638 114.144 54.3238 114.352C54.6918 114.552 54.9758 114.856 55.1758 115.264C55.3838 115.672 55.4878 116.184 55.4878 116.8C55.4878 117.368 55.3718 117.868 55.1398 118.3C54.9078 118.724 54.5998 119.056 54.2158 119.296C53.8398 119.536 53.4198 119.656 52.9558 119.656ZM58.112 110.236H65.984V120.268H65.024V111.136H59.036V120.328H58.112V110.236ZM58.736 114.388H65.432V115.276H58.736V114.388ZM58.712 118.648H65.444V119.548H58.712V118.648Z" fill="#4D6A6B"/>
<g clip-path="url(#clip2_43_2186)">
<rect width="215" height="20" transform="translate(84 105)" fill="white"/>
<rect x="84" y="105" width="147" height="20" fill="#FFCC00"/>
<rect x="231" y="105" width="68" height="20" fill="#E8E8E8"/>
</g>
<path d="M87.8984 135.91C89.0749 135.91 89.9255 136.395 90.4502 137.364C90.8564 138.113 91.0596 139.139 91.0596 140.442C91.0596 141.678 90.8755 142.7 90.5073 143.508C89.9741 144.668 89.1024 145.248 87.8921 145.248C86.8003 145.248 85.9878 144.774 85.4546 143.826C85.0103 143.034 84.7881 141.972 84.7881 140.639C84.7881 139.607 84.9214 138.72 85.188 137.979C85.6873 136.6 86.5908 135.91 87.8984 135.91ZM87.8857 144.207C88.4782 144.207 88.95 143.944 89.3013 143.419C89.6525 142.895 89.8281 141.917 89.8281 140.487C89.8281 139.454 89.7012 138.606 89.4473 137.941C89.1934 137.273 88.7004 136.938 87.9683 136.938C87.2954 136.938 86.8024 137.256 86.4893 137.891C86.1803 138.521 86.0259 139.452 86.0259 140.684C86.0259 141.61 86.1253 142.355 86.3242 142.918C86.6289 143.777 87.1494 144.207 87.8857 144.207Z" fill="#4D6A6B"/>
<path d="M122.67 145C122.712 144.217 122.873 143.536 123.152 142.956C123.436 142.376 123.986 141.849 124.803 141.375L126.021 140.671C126.567 140.354 126.95 140.083 127.17 139.858C127.517 139.507 127.691 139.105 127.691 138.652C127.691 138.123 127.532 137.704 127.215 137.396C126.897 137.082 126.474 136.926 125.945 136.926C125.162 136.926 124.621 137.222 124.32 137.814C124.16 138.132 124.071 138.572 124.054 139.135H122.892C122.905 138.343 123.051 137.698 123.33 137.199C123.825 136.319 124.699 135.878 125.952 135.878C126.993 135.878 127.752 136.16 128.23 136.723C128.713 137.285 128.954 137.912 128.954 138.602C128.954 139.329 128.698 139.951 128.186 140.468C127.89 140.768 127.359 141.132 126.593 141.56L125.723 142.042C125.308 142.271 124.983 142.488 124.746 142.696C124.322 143.064 124.056 143.472 123.946 143.921H128.91V145H122.67ZM131.106 142.683C131.182 143.335 131.485 143.785 132.014 144.035C132.285 144.162 132.598 144.226 132.953 144.226C133.63 144.226 134.132 144.01 134.458 143.578C134.783 143.146 134.946 142.668 134.946 142.144C134.946 141.509 134.752 141.018 134.362 140.671C133.977 140.324 133.514 140.15 132.972 140.15C132.579 140.15 132.24 140.227 131.957 140.379C131.677 140.531 131.438 140.743 131.239 141.014L130.249 140.957L130.941 136.062H135.664V137.167H131.798L131.411 139.693C131.622 139.533 131.823 139.412 132.014 139.332C132.352 139.192 132.744 139.122 133.188 139.122C134.022 139.122 134.728 139.391 135.308 139.928C135.888 140.466 136.178 141.147 136.178 141.972C136.178 142.831 135.911 143.589 135.378 144.245C134.849 144.901 134.003 145.229 132.839 145.229C132.098 145.229 131.442 145.021 130.871 144.606C130.304 144.188 129.987 143.546 129.919 142.683H131.106Z" fill="#4D6A6B"/>
<path d="M168.87 142.683C168.946 143.335 169.248 143.785 169.777 144.035C170.048 144.162 170.361 144.226 170.717 144.226C171.394 144.226 171.895 144.01 172.221 143.578C172.547 143.146 172.71 142.668 172.71 142.144C172.71 141.509 172.515 141.018 172.126 140.671C171.741 140.324 171.278 140.15 170.736 140.15C170.342 140.15 170.004 140.227 169.72 140.379C169.441 140.531 169.202 140.743 169.003 141.014L168.013 140.957L168.705 136.062H173.427V137.167H169.562L169.174 139.693C169.386 139.533 169.587 139.412 169.777 139.332C170.116 139.192 170.507 139.122 170.952 139.122C171.785 139.122 172.492 139.391 173.072 139.928C173.652 140.466 173.941 141.147 173.941 141.972C173.941 142.831 173.675 143.589 173.142 144.245C172.613 144.901 171.766 145.229 170.603 145.229C169.862 145.229 169.206 145.021 168.635 144.606C168.068 144.188 167.75 143.546 167.683 142.683H168.87ZM178.017 135.91C179.193 135.91 180.044 136.395 180.568 137.364C180.975 138.113 181.178 139.139 181.178 140.442C181.178 141.678 180.994 142.7 180.625 143.508C180.092 144.668 179.221 145.248 178.01 145.248C176.918 145.248 176.106 144.774 175.573 143.826C175.128 143.034 174.906 141.972 174.906 140.639C174.906 139.607 175.04 138.72 175.306 137.979C175.806 136.6 176.709 135.91 178.017 135.91ZM178.004 144.207C178.596 144.207 179.068 143.944 179.419 143.419C179.771 142.895 179.946 141.917 179.946 140.487C179.946 139.454 179.819 138.606 179.565 137.941C179.312 137.273 178.819 136.938 178.086 136.938C177.414 136.938 176.921 137.256 176.607 137.891C176.299 138.521 176.144 139.452 176.144 140.684C176.144 141.61 176.243 142.355 176.442 142.918C176.747 143.777 177.268 144.207 178.004 144.207Z" fill="#4D6A6B"/>
<path d="M219.062 136.062V137.059C218.77 137.343 218.381 137.836 217.894 138.538C217.412 139.241 216.984 139.998 216.612 140.811C216.244 141.602 215.964 142.323 215.774 142.975C215.651 143.394 215.493 144.069 215.298 145H214.035C214.322 143.265 214.957 141.538 215.939 139.82C216.519 138.813 217.128 137.944 217.767 137.211H212.74V136.062H219.062ZM221.106 142.683C221.182 143.335 221.485 143.785 222.014 144.035C222.285 144.162 222.598 144.226 222.953 144.226C223.63 144.226 224.132 144.01 224.458 143.578C224.783 143.146 224.946 142.668 224.946 142.144C224.946 141.509 224.752 141.018 224.362 140.671C223.977 140.324 223.514 140.15 222.972 140.15C222.579 140.15 222.24 140.227 221.957 140.379C221.677 140.531 221.438 140.743 221.239 141.014L220.249 140.957L220.941 136.062H225.664V137.167H221.798L221.411 139.693C221.622 139.533 221.823 139.412 222.014 139.332C222.352 139.192 222.744 139.122 223.188 139.122C224.022 139.122 224.728 139.391 225.308 139.928C225.888 140.466 226.178 141.147 226.178 141.972C226.178 142.831 225.911 143.589 225.378 144.245C224.849 144.901 224.003 145.229 222.839 145.229C222.098 145.229 221.442 145.021 220.871 144.606C220.304 144.188 219.987 143.546 219.919 142.683H221.106Z" fill="#4D6A6B"/>
<path d="M258.278 138.563V137.688C259.103 137.607 259.679 137.474 260.004 137.288C260.33 137.097 260.574 136.651 260.734 135.948H261.636V145H260.417V138.563H258.278ZM267.787 135.91C268.963 135.91 269.814 136.395 270.338 137.364C270.745 138.113 270.948 139.139 270.948 140.442C270.948 141.678 270.764 142.7 270.396 143.508C269.862 144.668 268.991 145.248 267.78 145.248C266.688 145.248 265.876 144.774 265.343 143.826C264.898 143.034 264.676 141.972 264.676 140.639C264.676 139.607 264.81 138.72 265.076 137.979C265.576 136.6 266.479 135.91 267.787 135.91ZM267.774 144.207C268.366 144.207 268.838 143.944 269.189 143.419C269.541 142.895 269.716 141.917 269.716 140.487C269.716 139.454 269.589 138.606 269.335 137.941C269.082 137.273 268.589 136.938 267.856 136.938C267.184 136.938 266.691 137.256 266.377 137.891C266.069 138.521 265.914 139.452 265.914 140.684C265.914 141.61 266.014 142.355 266.212 142.918C266.517 143.777 267.038 144.207 267.774 144.207ZM275.023 135.91C276.199 135.91 277.05 136.395 277.575 137.364C277.981 138.113 278.184 139.139 278.184 140.442C278.184 141.678 278 142.7 277.632 143.508C277.099 144.668 276.227 145.248 275.017 145.248C273.925 145.248 273.112 144.774 272.579 143.826C272.135 143.034 271.913 141.972 271.913 140.639C271.913 139.607 272.046 138.72 272.312 137.979C272.812 136.6 273.715 135.91 275.023 135.91ZM275.01 144.207C275.603 144.207 276.075 143.944 276.426 143.419C276.777 142.895 276.953 141.917 276.953 140.487C276.953 139.454 276.826 138.606 276.572 137.941C276.318 137.273 275.825 136.938 275.093 136.938C274.42 136.938 273.927 137.256 273.614 137.891C273.305 138.521 273.15 139.452 273.15 140.684C273.15 141.61 273.25 142.355 273.449 142.918C273.753 143.777 274.274 144.207 275.01 144.207ZM282.589 135.523C281.925 136.814 281.493 137.764 281.294 138.373C280.994 139.3 280.844 140.37 280.844 141.585C280.844 142.812 281.015 143.934 281.358 144.949C281.569 145.576 281.986 146.477 282.608 147.653H281.84C281.222 146.688 280.84 146.073 280.691 145.806C280.543 145.54 280.382 145.178 280.209 144.721C279.972 144.094 279.807 143.426 279.714 142.715C279.667 142.347 279.644 141.995 279.644 141.661C279.644 140.409 279.841 139.293 280.234 138.316C280.484 137.694 281.005 136.763 281.796 135.523H282.589ZM291.933 140.582C292.542 140.582 293.063 140.798 293.495 141.229C293.926 141.661 294.142 142.182 294.142 142.791C294.142 143.4 293.926 143.921 293.495 144.353C293.063 144.784 292.542 145 291.933 145C291.319 145 290.797 144.784 290.365 144.353C289.934 143.921 289.718 143.4 289.718 142.791C289.718 142.182 289.934 141.661 290.365 141.229C290.797 140.798 291.319 140.582 291.933 140.582ZM291.013 135.948H291.717L286.633 145.241H285.928L291.013 135.948ZM285.7 139.706C286.064 139.706 286.373 139.579 286.626 139.325C286.885 139.067 287.014 138.758 287.014 138.398C287.014 138.039 286.885 137.732 286.626 137.478C286.373 137.22 286.064 137.091 285.7 137.091C285.34 137.091 285.031 137.218 284.773 137.472C284.519 137.726 284.392 138.035 284.392 138.398C284.392 138.758 284.519 139.067 284.773 139.325C285.031 139.579 285.34 139.706 285.7 139.706ZM285.7 136.183C286.313 136.183 286.836 136.401 287.268 136.837C287.699 137.269 287.915 137.789 287.915 138.398C287.915 139.008 287.699 139.528 287.268 139.96C286.836 140.392 286.313 140.607 285.7 140.607C285.09 140.607 284.57 140.392 284.138 139.96C283.707 139.528 283.491 139.008 283.491 138.398C283.491 137.789 283.707 137.269 284.138 136.837C284.57 136.401 285.09 136.183 285.7 136.183ZM291.933 144.099C292.293 144.099 292.6 143.972 292.854 143.718C293.112 143.46 293.241 143.151 293.241 142.791C293.241 142.431 293.112 142.125 292.854 141.871C292.6 141.612 292.293 141.483 291.933 141.483C291.569 141.483 291.258 141.612 291 141.871C290.746 142.125 290.619 142.431 290.619 142.791C290.619 143.151 290.746 143.46 291 143.718C291.258 143.972 291.569 144.099 291.933 144.099ZM295.088 147.653C295.761 146.341 296.194 145.385 296.389 144.784C296.685 143.874 296.833 142.808 296.833 141.585C296.833 140.362 296.662 139.243 296.319 138.227C296.108 137.601 295.691 136.699 295.069 135.523H295.837C296.489 136.564 296.882 137.207 297.018 137.453C297.157 137.694 297.307 138.028 297.468 138.456C297.671 138.985 297.815 139.507 297.9 140.023C297.989 140.54 298.033 141.037 298.033 141.515C298.033 142.768 297.834 143.885 297.437 144.867C297.187 145.497 296.668 146.426 295.881 147.653H295.088Z" fill="#4D6A6B"/>
</g>
<defs>
<filter id="filter0_d_43_2186" x="-3" y="-49" width="328" height="214" filterUnits="userSpaceOnUse" color-interpolation-filters="sRGB">
<feFlood flood-opacity="0" result="BackgroundImageFix"/>
<feColorMatrix in="SourceAlpha" type="matrix" values="0 0 0 0 0 0 0 0 0 0 0 0 0 0 0 0 0 0 127 0" result="hardAlpha"/>
<feOffset dx="1" dy="2"/>
<feGaussianBlur stdDeviation="2"/>
<feComposite in2="hardAlpha" operator="out"/>
<feColorMatrix type="matrix" values="0 0 0 0 0 0 0 0 0 0 0 0 0 0 0 0 0 0 0.2 0"/>
<feBlend mode="normal" in2="BackgroundImageFix" result="effect1_dropShadow_43_2186"/>
<feBlend mode="normal" in="SourceGraphic" in2="effect1_dropShadow_43_2186" result="shape"/>
</filter>
<clipPath id="clip0_43_2186">
<rect width="215" height="20" fill="white" transform="translate(84 47)"/>
</clipPath>
<clipPath id="clip1_43_2186">
<rect width="215" height="20" fill="white" transform="translate(84 76)"/>
</clipPath>
<clipPath id="clip2_43_2186">
<rect width="215" height="20" fill="white" transform="translate(84 105)"/>
</clipPath>
</defs>
</svg>
